<?xml version="1.0" encoding="utf-8"?>
<!-- Generator: Adobe Illustrator 24.1.1, SVG Export Plug-In . SVG Version: 6.00 Build 0)  -->
<svg version="1.1" id="Layer_1" xmlns="http://www.w3.org/2000/svg" xmlns:xlink="http://www.w3.org/1999/xlink" x="0px" y="0px"
	 viewBox="0 0 907.7 712" style="enable-background:new 0 0 907.7 712;" xml:space="preserve">
<style type="text/css">
	.st0{fill:url(#Intersection_9_1_);}
	.st1{fill:url(#Intersection_8_1_);}
	.st2{fill:url(#Intersection_7_1_);}
	.st3{filter:url(#Rectangle_314);}
	.st4{fill:#FFFFFF;}
	.st5{filter:url(#Rectangle_310);}
	.st6{filter:url(#Rectangle_315);}
	.st7{fill:url(#Polygon_4_1_);}
	.st8{fill:#262262;}
	.st9{font-family:'Helvetica-Bold';}
	.st10{font-size:20px;}
	.st11{fill:none;}
	.st12{fill:#333333;}
	.st13{font-family:'Helvetica';}
</style>
<filter  filterUnits="userSpaceOnUse" height="104" id="Rectangle_315" width="361" x="75.673" y="120">
	<feOffset  dy="3" input="SourceAlpha"></feOffset>
	<feGaussianBlur  result="blur-3" stdDeviation="10"></feGaussianBlur>
	<feFlood  flood-opacity="0.161"></feFlood>
	<feComposite  in2="blur-3" operator="in"></feComposite>
	<feComposite  in="SourceGraphic" operator="over"></feComposite>
</filter>
<filter  filterUnits="userSpaceOnUse" height="104" id="Rectangle_314" width="312" x="124.673" y="60">
	<feOffset  dy="3" input="SourceAlpha"></feOffset>
	<feGaussianBlur  result="blur" stdDeviation="10"></feGaussianBlur>
	<feFlood  flood-opacity="0.161"></feFlood>
	<feComposite  in2="blur" operator="in"></feComposite>
	<feComposite  in="SourceGraphic" operator="over"></feComposite>
</filter>
<filter  filterUnits="userSpaceOnUse" height="104" id="Rectangle_310" width="267" x="169.673" y="0">
	<feOffset  dy="3" input="SourceAlpha"></feOffset>
	<feGaussianBlur  result="blur-2" stdDeviation="10"></feGaussianBlur>
	<feFlood  flood-opacity="0.161"></feFlood>
	<feComposite  in2="blur-2" operator="in"></feComposite>
	<feComposite  in="SourceGraphic" operator="over"></feComposite>
</filter>
<g id="Group_126" transform="translate(-456.327 -1984)">
	
		<linearGradient id="Intersection_9_1_" gradientUnits="userSpaceOnUse" x1="659.8461" y1="2590.2068" x2="660.8461" y2="2590.2068" gradientTransform="matrix(424.2052 0 0 -150 -279261.5 390817)">
		<stop  offset="0" style="stop-color:#7B2E87"/>
		<stop  offset="1" style="stop-color:#6C0F45"/>
	</linearGradient>
	<path id="Intersection_9" class="st0" d="M653.6,2361c-2.8,0-5-2.2-5-5c0-0.9,0.2-1.8,0.7-2.5l84-142.5h254.8l84,142.5
		c1.4,2.4,0.6,5.4-1.8,6.8c-0.8,0.5-1.6,0.7-2.5,0.7H653.6z"/>
	
		<linearGradient id="Intersection_8_1_" gradientUnits="userSpaceOnUse" x1="659.9923" y1="2590.3201" x2="660.9923" y2="2590.3201" gradientTransform="matrix(609.569 0 0 -129.268 -401754.9375 337296.0938)">
		<stop  offset="0" style="stop-color:#38B19E"/>
		<stop  offset="1" style="stop-color:#0090A8"/>
	</linearGradient>
	<path id="Intersection_8" class="st1" d="M561,2515.3c-2.8,0-5-2.2-5-5c0-0.9,0.2-1.8,0.7-2.5l72.2-121.7h463.8l72.2,121.7
		c1.4,2.4,0.6,5.4-1.8,6.9c-0.8,0.5-1.7,0.7-2.5,0.7H561z"/>
	
		<linearGradient id="Intersection_7_1_" gradientUnits="userSpaceOnUse" x1="660.0748" y1="2590.2585" x2="661.0748" y2="2590.2585" gradientTransform="matrix(808.8104 0 0 -139.752 -533419 364606.6875)">
		<stop  offset="0" style="stop-color:#0B798D"/>
		<stop  offset="1" style="stop-color:#004676"/>
	</linearGradient>
	<path id="Intersection_7" class="st2" d="M461.3,2682.8c-2.8,0-5-2.2-5-5c0-0.9,0.2-1.8,0.7-2.6l78.5-132.2H1186l78.5,132.2
		c1.4,2.4,0.6,5.4-1.7,6.9c-0.8,0.5-1.7,0.7-2.6,0.7H461.3z"/>
	<g transform="matrix(1, 0, 0, 1, 456.33, 1984)" class="st3">
		<path id="Rectangle_314-2_1_" class="st4" d="M176.7,87h230l0,0v44l0,0h-230c-12.2,0-22-9.8-22-22l0,0
			C154.7,96.8,164.5,87,176.7,87z"/>
	</g>
	<g transform="matrix(1, 0, 0, 1, 456.33, 1984)" class="st5">
		<path id="Rectangle_310-2_1_" class="st4" d="M221.7,27h185l0,0v44l0,0h-185c-12.2,0-22-9.8-22-22l0,0
			C199.7,36.8,209.5,27,221.7,27z"/>
	</g>
	<g transform="matrix(1, 0, 0, 1, 456.33, 1984)" class="st6">
		<path id="Rectangle_315-2_1_" class="st4" d="M127.7,147h279l0,0v44l0,0h-279c-12.2,0-22-9.8-22-22l0,0
			C105.7,156.8,115.5,147,127.7,147z"/>
	</g>
	
		<linearGradient id="Polygon_4_1_" gradientUnits="userSpaceOnUse" x1="659.4182" y1="2590.0544" x2="660.4182" y2="2590.0544" gradientTransform="matrix(224.4605 0 0 -191.1844 -147264.5313 497273.375)">
		<stop  offset="0" style="stop-color:#F0613D"/>
		<stop  offset="1" style="stop-color:#D5142F"/>
	</linearGradient>
	<path id="Polygon_4" class="st7" d="M856.7,2002.3c1.4-2.4,4.5-3.2,6.8-1.8c0.7,0.4,1.3,1,1.8,1.8l107.2,181.2
		c1.4,2.4,0.6,5.4-1.8,6.8c-0.8,0.5-1.6,0.7-2.5,0.7H753.8c-2.8,0-5-2.2-5-5c0-0.9,0.2-1.8,0.7-2.5L856.7,2002.3z"/>
	<text transform="matrix(1 0 0 1 687.696 2040)" class="st8 st9 st10">INNOVATION</text>
	<text transform="matrix(1 0 0 1 650.335 2100)" class="st8 st9 st10">SOLUTION</text>
	<text transform="matrix(1 0 0 1 588.665 2160)" class="st8 st9 st10">PERFORMANCE</text>
	<text transform="matrix(1 0 0 1 749.33 2268)" class="st4 st9 st10">Ingredient</text>
	<text transform="matrix(1 0 0 1 763.725 2293)" class="st4 st9 st10">Systems</text>
	<text transform="matrix(1 0 0 1 735.951 2318)" class="st4 st9 st10">&amp; Expertise</text>
	<text transform="matrix(1 0 0 1 650.395 2445)" class="st4 st9 st10">Specialty Ingredient </text>
	<text transform="matrix(1 0 0 1 713.744 2470)" class="st4 st9 st10">&amp; Capabilities</text>
	<text transform="matrix(1 0 0 1 648.2612 2604.7144)" class="st4 st9 st10">Know How Process </text>
	<text transform="matrix(1 0 0 1 726.1732 2635.1428)" class="st4 st9 st10">Technology</text>
	<text transform="matrix(1 0 0 1 749.222 2110)" class="st4 st9 st10">Product </text>
	<text transform="matrix(1 0 0 1 724.207 2135)" class="st4 st9 st10">Development</text>
	<text transform="matrix(1 0 0 1 719.227 2160)" class="st4 st9 st10">&amp; Formulation</text>
	<g id="Intersection_12" transform="translate(498.98 2563.001)">
		<path class="st11" d="M4.7,100c-2.8,0-5-2.2-5-5c0-0.9,0.2-1.8,0.7-2.6L55.3,0h465.4l54.9,92.4c1.4,2.4,0.6,5.4-1.7,6.9
			c-0.8,0.5-1.7,0.7-2.6,0.7H4.7z"/>
		<path class="st4" d="M571.3,98c1.1,0,2.1-0.6,2.6-1.5c0.5-0.9,0.5-2.1,0-3L519.6,2H56.4L2.1,93.5c-0.6,0.9-0.6,2.1,0,3
			C2.7,97.4,3.6,98,4.7,98H571.3 M571.3,100H4.7c-3.9,0-6.3-4.2-4.3-7.6L55.3,0h465.4l54.9,92.4C577.6,95.8,575.2,100,571.3,100z"/>
	</g>
	<g id="Intersection_10" transform="translate(690.807 2244.16)">
		<path class="st11" d="M4.8,91.8c-2.8,0-5-2.2-5-5c0-0.9,0.2-1.8,0.7-2.5L55-8.2h169.9l54.5,92.5c1.4,2.4,0.6,5.4-1.8,6.8
			c-0.8,0.5-1.6,0.7-2.5,0.7L4.8,91.8z"/>
		<path class="st4" d="M275.1,89.8c1.1,0,2.1-0.6,2.6-1.5c0.5-0.9,0.5-2.1,0-3L223.7-6.2H56.1L2.2,85.3c-0.6,0.9-0.6,2.1,0,3
			c0.5,0.9,1.5,1.5,2.6,1.5H275.1 M275.1,91.8H4.8c-3.9,0-6.3-4.2-4.3-7.5L55-8.2h169.9l54.5,92.5C281.4,87.6,279,91.8,275.1,91.8z"
			/>
	</g>
	<path id="Rectangle_309-2" class="st4" d="M861,2563h423c27.6,0,50,22.4,50,50l0,0c0,27.6-22.4,50-50,50H861l0,0V2563L861,2563z"/>
	<text transform="matrix(1 0 0 1 876 2608)" class="st12 st13 st10">Formulation Technology, Turnkey Project</text>
	<text transform="matrix(1 0 0 1 876 2633)" class="st12 st13 st10">Management, Research &amp; Development</text>
	<g id="Intersection_11" transform="translate(598.605 2400.583)">
		<path class="st11" d="M4.4,99.4c-2.8,0-5-2.2-5-5c0-0.9,0.2-1.8,0.7-2.5L54.9-0.6h358.8l54.8,92.4c1.4,2.4,0.6,5.4-1.8,6.9
			c-0.8,0.5-1.7,0.7-2.5,0.7H4.4z"/>
		<path class="st4" d="M464.2,97.4c1.1,0,2.1-0.6,2.6-1.5c0.5-0.9,0.5-2.1,0-3L412.6,1.4H56.1L1.8,92.9c-0.6,0.9-0.6,2.1,0,3
			c0.5,0.9,1.5,1.5,2.6,1.5H464.2 M464.2,99.4H4.4c-3.9,0-6.3-4.2-4.3-7.6L54.9-0.6h358.8l54.8,92.4
			C470.5,95.2,468.1,99.4,464.2,99.4z"/>
	</g>
	<path id="Rectangle_307-2" class="st4" d="M861,2236h423c27.6,0,50,22.4,50,50l0,0c0,27.6-22.4,50-50,50H861l0,0V2236L861,2236z"/>
	<text transform="matrix(1 0 0 1 876 2264)" class="st12 st13 st10">Emulsifer &amp; Functional Ingredients,</text>
	<text transform="matrix(1 0 0 1 876 2289)" class="st12 st13 st10">Antioxidant, Absorbents, Specialty Fats &amp; Oil,</text>
	<text transform="matrix(1 0 0 1 876 2314)" class="st12 st13 st10">Fragrance, Flavor, Seasoning, &amp; Chocolates</text>
	<path id="Rectangle_308-2" class="st4" d="M861,2400h423c27.6,0,50,22.4,50,50l0,0c0,27.6-22.4,50-50,50H861l0,0V2400L861,2400z"/>
	<text transform="matrix(1 0 0 1 876 2445)" class="st12 st13 st10">Health Sensitive Nutrients, Fat Mimetic,</text>
	<text transform="matrix(1 0 0 1 876 2470)" class="st12 st13 st10">Customized Nutrition</text>
</g>
</svg>
