<svg xmlns="http://www.w3.org/2000/svg" xmlns:xlink="http://www.w3.org/1999/xlink" width="907.673" height="712" viewBox="0 0 907.673 712">
  <defs>
    <linearGradient id="linear-gradient" y1="0.5" x2="1" y2="0.5" gradientUnits="objectBoundingBox">
      <stop offset="0" stop-color="#7b2e87"/>
      <stop offset="1" stop-color="#6c0f45"/>
    </linearGradient>
    <linearGradient id="linear-gradient-2" y1="0.5" x2="1" y2="0.5" gradientUnits="objectBoundingBox">
      <stop offset="0" stop-color="#38b19e"/>
      <stop offset="1" stop-color="#0090a8"/>
    </linearGradient>
    <linearGradient id="linear-gradient-3" y1="0.5" x2="1" y2="0.5" gradientUnits="objectBoundingBox">
      <stop offset="0" stop-color="#0b798d"/>
      <stop offset="1" stop-color="#004676"/>
    </linearGradient>
    <filter id="Rectangle_314" x="124.673" y="60" width="312" height="104" filterUnits="userSpaceOnUse">
      <feOffset dy="3" input="SourceAlpha"/>
      <feGaussianBlur stdDeviation="10" result="blur"/>
      <feFlood flood-opacity="0.161"/>
      <feComposite operator="in" in2="blur"/>
      <feComposite in="SourceGraphic"/>
    </filter>
    <filter id="Rectangle_310" x="169.673" y="0" width="267" height="104" filterUnits="userSpaceOnUse">
      <feOffset dy="3" input="SourceAlpha"/>
      <feGaussianBlur stdDeviation="10" result="blur-2"/>
      <feFlood flood-opacity="0.161"/>
      <feComposite operator="in" in2="blur-2"/>
      <feComposite in="SourceGraphic"/>
    </filter>
    <filter id="Rectangle_315" x="75.673" y="120" width="361" height="104" filterUnits="userSpaceOnUse">
      <feOffset dy="3" input="SourceAlpha"/>
      <feGaussianBlur stdDeviation="10" result="blur-3"/>
      <feFlood flood-opacity="0.161"/>
      <feComposite operator="in" in2="blur-3"/>
      <feComposite in="SourceGraphic"/>
    </filter>
    <linearGradient id="linear-gradient-4" y1="0.5" x2="1" y2="0.5" gradientUnits="objectBoundingBox">
      <stop offset="0" stop-color="#f0613d"/>
      <stop offset="1" stop-color="#d5142f"/>
    </linearGradient>
    <filter id="Rectangle_309" x="374.673" y="552" width="533" height="160" filterUnits="userSpaceOnUse">
      <feOffset dy="3" input="SourceAlpha"/>
      <feGaussianBlur stdDeviation="10" result="blur-4"/>
      <feFlood flood-opacity="0.161"/>
      <feComposite operator="in" in2="blur-4"/>
      <feComposite in="SourceGraphic"/>
    </filter>
    <filter id="Rectangle_307" x="374.673" y="225" width="533" height="160" filterUnits="userSpaceOnUse">
      <feOffset dy="3" input="SourceAlpha"/>
      <feGaussianBlur stdDeviation="10" result="blur-5"/>
      <feFlood flood-opacity="0.161"/>
      <feComposite operator="in" in2="blur-5"/>
      <feComposite in="SourceGraphic"/>
    </filter>
    <filter id="Rectangle_308" x="374.673" y="389" width="533" height="160" filterUnits="userSpaceOnUse">
      <feOffset dy="3" input="SourceAlpha"/>
      <feGaussianBlur stdDeviation="10" result="blur-6"/>
      <feFlood flood-opacity="0.161"/>
      <feComposite operator="in" in2="blur-6"/>
      <feComposite in="SourceGraphic"/>
    </filter>
  </defs>
  <g id="Group_126" data-name="Group 126" transform="translate(-456.327 -1984)">
    <path id="Intersection_9" data-name="Intersection 9" d="M3.535,141.84A5,5,0,0,1-.771,134.3L83.247-8.16H338.028L422.047,134.3a5,5,0,0,1-4.307,7.54Z" transform="translate(650.104 2219.16)" stroke="rgba(0,0,0,0)" stroke-miterlimit="10" stroke-width="1" fill="url(#linear-gradient)"/>
    <path id="Intersection_8" data-name="Intersection 8" d="M3.56,128.685a5,5,0,0,1-4.3-7.55L71.448-.583H535.241L607.43,121.135a5,5,0,0,1-4.3,7.55Z" transform="translate(557.396 2386.583)" stroke="rgba(0,0,0,0)" stroke-miterlimit="10" stroke-width="1" fill="url(#linear-gradient-2)"/>
    <path id="Intersection_7" data-name="Intersection 7" d="M3.559,139.752A5,5,0,0,1-.74,132.2L77.729,0H728.2l78.469,132.2a5,5,0,0,1-4.3,7.552Z" transform="translate(457.774 2543.001)" fill="url(#linear-gradient-3)"/>
    <g transform="matrix(1, 0, 0, 1, 456.33, 1984)" filter="url(#Rectangle_314)">
      <path id="Rectangle_314-2" data-name="Rectangle 314" d="M22,0H252a0,0,0,0,1,0,0V44a0,0,0,0,1,0,0H22A22,22,0,0,1,0,22v0A22,22,0,0,1,22,0Z" transform="translate(154.67 87)" fill="#fff"/>
    </g>
    <g transform="matrix(1, 0, 0, 1, 456.33, 1984)" filter="url(#Rectangle_310)">
      <path id="Rectangle_310-2" data-name="Rectangle 310" d="M22,0H207a0,0,0,0,1,0,0V44a0,0,0,0,1,0,0H22A22,22,0,0,1,0,22v0A22,22,0,0,1,22,0Z" transform="translate(199.67 27)" fill="#fff"/>
    </g>
    <g transform="matrix(1, 0, 0, 1, 456.33, 1984)" filter="url(#Rectangle_315)">
      <path id="Rectangle_315-2" data-name="Rectangle 315" d="M22,0H301a0,0,0,0,1,0,0V44a0,0,0,0,1,0,0H22A22,22,0,0,1,0,22v0A22,22,0,0,1,22,0Z" transform="translate(105.67 147)" fill="#fff"/>
    </g>
    <path id="Polygon_4" data-name="Polygon 4" d="M111.7,7.27a5,5,0,0,1,8.606,0L227.534,188.453a5,5,0,0,1-4.3,7.547H8.769a5,5,0,0,1-4.3-7.547Z" transform="translate(745 1995)" stroke="rgba(0,0,0,0)" stroke-miterlimit="10" stroke-width="1" fill="url(#linear-gradient-4)"/>
    <text id="INNOVATION" transform="translate(749 2040)" fill="#262262" font-size="20" font-family="Helvetica-Bold, Helvetica" font-weight="700"><tspan x="-61.304" y="0">INNOVATION</tspan></text>
    <text id="SOLUTION" transform="translate(702 2100)" fill="#262262" font-size="20" font-family="Helvetica-Bold, Helvetica" font-weight="700"><tspan x="-51.665" y="0">SOLUTION</tspan></text>
    <text id="PERFORMANCE" transform="translate(667 2160)" fill="#262262" font-size="20" font-family="Helvetica-Bold, Helvetica" font-weight="700"><tspan x="-78.335" y="0">PERFORMANCE</tspan></text>
    <text id="Ingredient_Systems_Expertise" data-name="Ingredient
Systems
&amp; Expertise" transform="translate(846 2268)" fill="#fff" font-size="20" font-family="Helvetica-Bold, Helvetica" font-weight="700"><tspan x="-96.67" y="0">Ingredient</tspan><tspan x="-82.275" y="25">Systems</tspan><tspan x="-110.049" y="50">&amp; Expertise</tspan></text>
    <text id="Specialty_Ingredient_Capabilities" data-name="Specialty Ingredient 
&amp; Capabilities" transform="translate(846 2445)" fill="#fff" font-size="20" font-family="Helvetica-Bold, Helvetica" font-weight="700"><tspan x="-195.605" y="0">Specialty Ingredient </tspan><tspan x="-132.256" y="25">&amp; Capabilities</tspan></text>
    <text id="Know_How_Process_Technology" data-name="Know How Process Technology" transform="translate(551 2601)" fill="#fff" font-size="20" font-family="Helvetica-Bold, Helvetica" font-weight="700"><tspan x="-185.596" y="15">Know How Process </tspan><tspan x="-110.752" y="40">Technology</tspan></text>
    <text id="Product_Development_Formulation" data-name="Product Development
&amp; Formulation" transform="translate(787 2095)" fill="#fff" font-size="20" font-family="Helvetica-Bold, Helvetica" font-weight="700"><tspan x="-37.778" y="15">Product </tspan><tspan x="-62.793" y="40">Development</tspan><tspan x="-67.773" y="65">&amp; Formulation</tspan></text>
    <g id="Intersection_12" data-name="Intersection 12" transform="translate(498.98 2563.001)" fill="none">
      <path d="M4.722,100a5,5,0,0,1-4.3-7.552L55.3,0H520.741l54.874,92.448a5,5,0,0,1-4.3,7.552Z" stroke="none"/>
      <path d="M 571.3155517578125 97.99897003173828 C 572.4074096679688 97.99897003173828 573.3818359375 97.43235778808594 573.9221801757812 96.48336029052734 C 574.4625244140625 95.53420257568359 574.452392578125 94.40697479248047 573.89501953125 93.46797180175781 L 519.6026000976562 1.99912703037262 L 56.43527221679688 1.99912703037262 L 2.142843961715698 93.46797180175781 C 1.585459351539612 94.40697479248047 1.575305461883545 95.53420257568359 2.115613222122192 96.48328399658203 C 2.65592098236084 97.43235778808594 3.630382537841797 97.99897003173828 4.722305297851562 97.99897003173828 L 571.3155517578125 97.99897003173828 M 571.3155517578125 99.99897003173828 L 4.722305297851562 99.99897003173828 C 0.846920907497406 99.99897003173828 -1.555233001708984 95.77981567382812 0.4229978322982788 92.44712829589844 L 55.29661178588867 -0.0008729365654289722 L 520.7412109375 -0.0008729365654289722 L 575.6148681640625 92.44712829589844 C 577.593017578125 95.77981567382812 575.19091796875 99.99897003173828 571.3155517578125 99.99897003173828 Z" stroke="none" fill="#fff"/>
    </g>
    <g transform="matrix(1, 0, 0, 1, 456.33, 1984)" filter="url(#Rectangle_309)">
      <path id="Rectangle_309-2" data-name="Rectangle 309" d="M0,0H423a50,50,0,0,1,50,50v0a50,50,0,0,1-50,50H0a0,0,0,0,1,0,0V0A0,0,0,0,1,0,0Z" transform="translate(404.67 579)" fill="#fff"/>
    </g>
    <g id="Intersection_10" data-name="Intersection 10" transform="translate(690.807 2244.16)" fill="none">
      <path d="M4.784,91.84A5,5,0,0,1,.477,84.3L55.007-8.16H224.861l54.53,92.46a5,5,0,0,1-4.306,7.54Z" stroke="none"/>
      <path d="M 275.0841064453125 89.83960723876953 C 276.1741943359375 89.83960723876953 277.1478576660156 89.27445983886719 277.6886291503906 88.32784271240234 C 278.2295532226562 87.38092041015625 278.2217407226562 86.25472259521484 277.6679077148438 85.31542205810547 L 223.7181854248047 -6.160312175750732 L 56.14943313598633 -6.160312175750732 L 2.199807405471802 85.31526184082031 C 1.645845890045166 86.25472259521484 1.638076663017273 87.38092041015625 2.178999662399292 88.32780456542969 C 2.71976900100708 89.27445983886719 3.693422794342041 89.83960723876953 4.783499717712402 89.83960723876953 L 275.0841064453125 89.83960723876953 M 275.0841064453125 91.83960723876953 L 4.783499717712402 91.83960723876953 C 0.9143843054771423 91.83960723876953 -1.488615751266479 87.63299560546875 0.4769996702671051 84.29941558837891 L 55.00707626342773 -8.160312652587891 L 224.8605346679688 -8.160312652587891 L 279.390625 84.29941558837891 C 281.356201171875 87.63299560546875 278.9532165527344 91.83960723876953 275.0841064453125 91.83960723876953 Z" stroke="none" fill="#fff"/>
    </g>
    <text id="Formulation_Technology_Turnkey_Project_Management_Research_Development_" data-name="Formulation Technology, Turnkey Project
Management, Research &amp; Development " transform="translate(876 2608)" fill="#333" font-size="20" font-family="Helvetica"><tspan x="0" y="0">Formulation Technology, Turnkey Project</tspan><tspan x="0" y="25">Management, Research &amp; Development </tspan></text>
    <g transform="matrix(1, 0, 0, 1, 456.33, 1984)" filter="url(#Rectangle_307)">
      <path id="Rectangle_307-2" data-name="Rectangle 307" d="M0,0H423a50,50,0,0,1,50,50v0a50,50,0,0,1-50,50H0a0,0,0,0,1,0,0V0A0,0,0,0,1,0,0Z" transform="translate(404.67 252)" fill="#fff"/>
    </g>
    <g id="Intersection_11" data-name="Intersection 11" transform="translate(598.605 2400.583)" fill="none">
      <path d="M4.4,99.417a5,5,0,0,1-4.3-7.55L54.932-.583H413.717l54.831,92.45a5,5,0,0,1-4.3,7.55Z" stroke="none"/>
      <path d="M 464.2470092773438 97.41669464111328 C 465.3391418457031 97.41669464111328 466.3137817382812 96.8502197265625 466.8540954589844 95.90139770507812 C 467.3942565917969 94.95281219482422 467.3841857910156 93.82598876953125 466.8269653320312 92.88681030273438 L 412.5774536132812 1.416810631752014 L 56.07146835327148 1.416810631752014 L 1.821964263916016 92.88674926757812 C 1.265140652656555 93.82575225830078 1.255258321762085 94.95269012451172 1.795611262321472 95.90139770507812 C 2.336081981658936 96.8502197265625 3.310729026794434 97.41669464111328 4.402787685394287 97.41669464111328 L 464.2470092773438 97.41669464111328 M 464.2470092773438 99.41669464111328 L 4.402787685394287 99.41669464111328 C 0.5274348258972168 99.41669464111328 -1.874682784080505 95.19927978515625 0.1017289236187935 91.8665771484375 L 54.93231582641602 -0.5831893086433411 L 413.7166137695312 -0.5831893086433411 L 468.5472106933594 91.8665771484375 C 470.5245056152344 95.19927978515625 468.1224365234375 99.41669464111328 464.2470092773438 99.41669464111328 Z" stroke="none" fill="#fff"/>
    </g>
    <text id="Emulsifier_Functional_Ingredients_Antioxidant_Absorbents_Specialty_Fats_Oil_Fragrance_Flavor_Seasoning_Chocolates" data-name="Emulsifier &amp; Functional Ingredients,
Antioxidant, Absorbents, Specialty Fats &amp; Oil,
Fragrance, Flavor, Seasoning, &amp; Chocolates" transform="translate(876 2249)" fill="#333" font-size="20" font-family="Helvetica"><tspan x="0" y="15">Emulsifier &amp; Functional Ingredients,</tspan><tspan x="0" y="40">Antioxidant, Absorbents, Specialty Fats &amp; Oil,</tspan><tspan x="0" y="65">Fragrance, Flavor, Seasoning, &amp; Chocolates</tspan></text>
    <g transform="matrix(1, 0, 0, 1, 456.33, 1984)" filter="url(#Rectangle_308)">
      <path id="Rectangle_308-2" data-name="Rectangle 308" d="M0,0H423a50,50,0,0,1,50,50v0a50,50,0,0,1-50,50H0a0,0,0,0,1,0,0V0A0,0,0,0,1,0,0Z" transform="translate(404.67 416)" fill="#fff"/>
    </g>
    <text id="Health_Sensitive_Nutrients_Fat_Mimetic_Customized_Nutrition" data-name="Health Sensitive Nutrients, Fat Mimetic,
Customized Nutrition" transform="translate(876 2445)" fill="#333" font-size="20" font-family="Helvetica"><tspan x="0" y="0">Health Sensitive Nutrients, Fat Mimetic,</tspan><tspan x="0" y="25">Customized Nutrition</tspan></text>
  </g>
</svg>
