<svg xmlns="http://www.w3.org/2000/svg" xmlns:xlink="http://www.w3.org/1999/xlink" width="1407.472" height="1136.28" viewBox="0 0 1407.472 1136.28">
  <defs>
    <linearGradient id="linear-gradient" x1="-0.532" y1="0.667" x2="1.08" y2="0.406" gradientUnits="objectBoundingBox">
      <stop offset="0" stop-color="#ed1c24"/>
      <stop offset="1" stop-color="#262262"/>
    </linearGradient>
  </defs>
  <path id="Path_82" data-name="Path 82" d="M592.982,74.547s2.251-1.085,6.574-3.165c4.233-2.17,10.717-5.153,19.182-8.951a469.41,469.41,0,0,1,75.916-25.406,458.056,458.056,0,0,1,433.435,122.057,456.358,456.358,0,0,1,108.246,174.587c23.054,67.629,29.718,143.033,17.921,216.448a442.057,442.057,0,0,1-88.524,202.614c-45.928,58.587-106.535,104.7-172.906,132.816a429.5,429.5,0,0,1-303.215,12.115,390.689,390.689,0,0,1-44.847-18.083c-3.422-1.718-6.574-3.074-10.086-4.973-3.512-1.808-7.024-3.707-10.536-5.515-7.024-3.888-13.958-7.685-20.893-11.844C547.954,824.609,494.281,783.2,433.134,756.44l-5.673-2.531-1.441-.633-2.161-.9-2.522-.994c-3.422-1.356-6.754-2.712-10.176-4.069-3.152-1.356-7.2-2.8-11.077-4.159s-7.745-2.8-11.617-4.159c-7.565-2.531-14.859-4.7-22.154-7.052-7.385-1.989-14.589-3.076-21.793-4.884a603.582,603.582,0,0,0-82.76-14.737,644.069,644.069,0,0,0-136.343,0c-9.456.9-18.281,2.26-26.656,3.345,3.062-.452.63-.09,1.261-.181H98.94l-1.441.271-1.441.181H86.692c-5.223-.181-11.077-.452-17.02-.814-5.944-.271-11.887-.543-17.741-.543a171.062,171.062,0,0,0-30.979,2.26c-3.962.633-7.384,1.447-9.636,1.989l-3.332.814,32.78,113.377h.18c.18,0,.18-.181.991-.362,1.171-.362,4.233-.995,11.167-1.266,3.332-.181,7.835-.181,13.238-.181,5.493,0,12.067.181,20.262,0,4.143,0,8.645-.271,13.779-.633l1.981-.181,2.521-.271c1.711-.181,3.332-.362,5.043-.542l1.261-.181h.72l1.441-.362c1.441-.271,2.972-.452,4.413-.723,6.844-1.175,14.139-2.712,21.883-3.8,30.979-4.7,77.415-.261,121.092,2.361,56.816-4.309,84.5,3.155,134.214,22.5,24.4,9.4,49.981,22.513,77,37.7,27.107,15.19,55.744,32.639,87.534,49.456,7.835,4.249,16.21,8.318,24.4,12.386l12.7,5.967c4.233,1.989,9.1,3.978,13.688,5.877a475.814,475.814,0,0,0,54.393,18.986,504.1,504.1,0,0,0,117.252,18.716c9.726.452,21.253.542,29.988.362l7.925-.181,7.655-.271c5.043-.362,10.176-.542,15.219-.995a539.724,539.724,0,0,0,60.967-8.408,500.774,500.774,0,0,0,309.339-200.987c48.99-68.714,79.7-149.723,88.794-231.547,9.366-81.733-2.071-163.737-30.349-235.8A488.672,488.672,0,0,0,1147.09,139.1a479.7,479.7,0,0,0-167.683-100,474.557,474.557,0,0,0-286.015-7.052,459.983,459.983,0,0,0-75.2,29.113c-8.285,4.159-14.679,7.414-18.821,9.855-4.233,2.351-6.394,3.526-6.394,3.526Z" transform="translate(113.814 -14.236) rotate(7)" fill="url(#linear-gradient)"/>
</svg>
