<?xml version="1.0" encoding="UTF-8"?>
<svg id="Layer_1" data-name="Layer 1" xmlns="http://www.w3.org/2000/svg" viewBox="0 0 1465 1940">
  <defs>
    <style>
      .cls-1 {
        fill: #fff;
      }

      .cls-2 {
        fill: #fbcdad;
      }

      .cls-3 {
        fill: #f1b48b;
      }

      .cls-4 {
        fill: #0079b1;
      }

      .cls-5 {
        fill: #d4d6d5;
      }

      .cls-6 {
        fill: #2c506a;
      }

      .cls-7 {
        fill: #d16444;
      }

      .cls-8 {
        fill: #e6e5e5;
      }

      .cls-9 {
        fill: #ee9446;
      }

      .cls-10 {
        fill: #5c2926;
      }

      .cls-11 {
        fill: #d88662;
      }

      .cls-12 {
        fill: #262422;
      }

      .cls-13 {
        fill: #f6aa59;
      }

      .cls-14 {
        fill: #efeeee;
      }

      .cls-15 {
        fill: #e2e1e1;
      }

      .cls-16 {
        fill: #005988;
      }

      .cls-17 {
        fill: #3a3836;
      }

      .cls-18 {
        fill: #ea716a;
      }

      .cls-19 {
        fill: #4d4d4c;
      }

      .cls-20 {
        fill: #c35939;
      }
    </style>
  </defs>
  <g>
    <g>
      <path class="cls-2" d="M972.76,1082.9c71.24,13.14,169.14,.87,230.68-60.71,15.34,8.12,33.03-.42,54.01-16.51,18.39-6.78,28.46-13.89,25.67-21.07-4.45-11.46-23.99,2.42-29.24,4,.65-.62,23.66-14.5,28.53-17.91,11.26-7.94,5.12-19.69-5.84-14.65-9.14,4.3-29.5,15.46-30.6,16.02,.83-.88,22.49-18.65,26.51-21.83,11.94-9.49,3.09-24.07-10.81-13.51-9.43,7.2-25.55,20.43-27.23,21.18,.14-.92,9.63-13.58,14.71-21.5,8.34-13.02-1.64-21.91-13.56-8.9-9.41,10.28-33.09,33.87-33.09,33.87,0,0-3.55-22.65-16.04-20.5-12.56,2.12-5.12,41.54-5.12,41.54,0,0-57.39,80.01-205.75,59.4-19.4-2.69-26.92,36.65-2.84,41.09Z"/>
      <g>
        <path class="cls-2" d="M846.98,1756.6s1.61,64.56,3.57,99.64c-23.19,5.95-37.79,1.57-37.79,1.57l-11.92-106.68,46.14,5.48Z"/>
        <g>
          <g>
            <path class="cls-5" d="M807.47,1865.35c-4.41,9.78-20.63,17.38,18.43,48.21,23.49,18.54,48.74,32.82,83.06,21.21,28.87-9.77,11.34-41.47,11.34-41.47l-112.83-27.95Z"/>
            <path class="cls-6" d="M809.51,1831.65c-5.68,9.12-19.35,36.03,6.02,60.13,17.07,16.22,49.3,43.88,92,32.19,33.48-9.16,11.18-37.57-6.45-48.83-14.02-8.98-38.18-30.67-47.46-39.15-2.38-2.17-3.78-3.48-3.78-3.48,0,0-4.77,19.52-40.34-.87Z"/>
            <path class="cls-6" d="M857.39,1845.02c0-6.67,5.84-19.35,0-27-4.7-6.16-37.86-6.63-42.12,4.74-2.5,6.67,4.58,21.6,10.43,25.05,6.85,4.04,25.02,1.01,31.69-2.78Z"/>
          </g>
          <path class="cls-8" d="M867.45,1848c-10.21-1.86-24.86,2.5-30.23,8.12-5.31,5.62,.45,9.65,4.78,9.2,4.34-.45,17.17-5.45,31.41-7.4,14.23-1.91,2.21-8.47-5.96-9.92Z"/>
          <path class="cls-8" d="M884.97,1865.38c-10.21-1.86-24.86,2.5-30.23,8.12-5.31,5.62,.45,9.65,4.78,9.2,4.34-.45,17.17-5.45,31.41-7.4,14.24-1.91,2.21-8.47-5.96-9.92Z"/>
        </g>
      </g>
      <g>
        <path class="cls-2" d="M621.25,1756.6s-1.61,64.56-3.57,99.64c23.19,5.95,37.79,1.57,37.79,1.57l11.92-106.68-46.14,5.48Z"/>
        <g>
          <g>
            <path class="cls-5" d="M660.76,1865.35c4.41,9.78,20.63,17.38-18.43,48.21-23.5,18.54-48.74,32.82-83.06,21.21-28.87-9.77-11.34-41.47-11.34-41.47l112.83-27.95Z"/>
            <path class="cls-6" d="M658.72,1831.65c5.68,9.12,20.11,37.92-6.02,60.13-17.95,15.25-49.3,43.88-92,32.19-33.48-9.16-11.18-37.57,6.45-48.83,14.02-8.98,38.18-30.67,47.46-39.15,2.38-2.17,3.78-3.48,3.78-3.48,0,0,4.77,19.52,40.34-.87Z"/>
            <path class="cls-6" d="M610.84,1845.02c0-6.67-5.84-19.35,0-27,4.7-6.16,37.86-6.63,42.12,4.74,2.5,6.67-4.58,21.6-10.43,25.05-6.85,4.04-25.02,1.01-31.69-2.78Z"/>
          </g>
          <path class="cls-8" d="M600.78,1848c10.21-1.86,24.86,2.5,30.23,8.12,5.31,5.62-.45,9.65-4.78,9.2-4.34-.45-17.17-5.45-31.41-7.4-14.23-1.91-2.21-8.47,5.96-9.92Z"/>
          <path class="cls-8" d="M583.26,1865.38c10.21-1.86,24.86,2.5,30.23,8.12,5.31,5.62-.45,9.65-4.78,9.2-4.34-.45-17.17-5.45-31.41-7.4-14.23-1.91-2.21-8.47,5.96-9.92Z"/>
        </g>
      </g>
      <g>
        <path class="cls-2" d="M805.29,996.6l-39.05-4.59v-39.58h-61.32v39.66l-38.07,4.51c-3.83,72.31,64.57,76.09,69.09,76.25h0s.06,.01,.12,0c.07,.01,.11,.01,.11,.01h0c4.53-.18,72.93-3.96,69.1-76.27Z"/>
        <path class="cls-3" d="M736.07,981.17c10.94,0,20.48,3.88,25.85,9.69v-26.81h-51.69v26.81c5.37-5.81,14.91-9.69,25.84-9.69Z"/>
      </g>
      <g>
        <path class="cls-4" d="M735.82,1339.19c-.31-.08-77.71-.2-145.51-14.61,.52,112.75-10.13,307.07-5.84,445.63,15.98,19.27,33.85,11.21,97.99,14.64,20.81-84.85,44.95-232.19,53.36-281.73,8.4,49.53,32.54,196.88,53.35,281.73,64.14-3.43,82.01,4.63,97.99-14.64,4.3-138.56-6.36-332.88-5.83-445.63-67.8,14.41-145.2,14.53-145.51,14.61Z"/>
        <path class="cls-17" d="M735.82,1383.28c.31-.08,76.55-.2,145.22-14.2,.12-15.54,.22-41.17,.28-55.23-87.14,26.6-223.21,14.41-291.01,0,.06,14.06,.16,39.69,.28,55.23,68.67,14,144.91,14.12,145.22,14.2Z"/>
        <path class="cls-17" d="M636.39,1394.06s-14.54,35.52-40.25,52.6c4.22,8.53,12.74,22.75,12.74,22.75,0,0,49.05-33.59,55.82-69.64-17.11-.05-28.31-5.7-28.31-5.7Z"/>
        <path class="cls-17" d="M837.04,1394.06s14.55,35.52,40.26,52.6c-4.21,8.53-12.75,22.75-12.75,22.75,0,0-49.05-33.59-55.82-69.64,17.11-.05,28.3-5.7,28.3-5.7Z"/>
        <path class="cls-16" d="M694.17,1749.57s-62.88,10.54-111.31-10.91c-1.75,21.82-2.18,53.69-.85,57.86,0,0,66.26,20.17,101.93,5.28,4.11-12.08,6.72-33.91,10.23-52.23Z"/>
        <path class="cls-16" d="M777.59,1749.57s62.87,10.54,111.31-10.91c1.74,21.82,2.18,53.69,.84,57.86,0,0-66.26,20.17-101.94,5.28-4.1-12.08-6.72-33.91-10.21-52.23Z"/>
        <path class="cls-19" d="M751.85,1362.61c-1.11,8.98-9.29,15.36-18.27,14.25h0c-8.98-1.11-15.35-9.29-14.25-18.26h0c1.11-8.99,9.3-15.36,18.27-14.25h0c8.98,1.11,15.36,9.28,14.25,18.27h0Z"/>
      </g>
    </g>
    <g>
      <path class="cls-2" d="M983.42,732.46c-.03,142.9-111.56,238.01-249.16,237.98-137.59-.02-249.1-95.17-249.07-238.08,.02-142.89-53.86-318.6,249.16-318.6s249.09,175.82,249.06,318.7Z"/>
      <path class="cls-11" d="M712.25,772.71c.82,0,1.65-.28,2.34-.84,6.33-5.2,14.34-8.07,22.54-8.07s16.21,2.86,22.54,8.07c1.58,1.29,3.9,1.06,5.2-.51,1.29-1.58,1.07-3.9-.51-5.2-7.65-6.28-17.32-9.74-27.23-9.74s-19.58,3.46-27.23,9.74c-1.58,1.29-1.8,3.62-.51,5.2,.73,.89,1.79,1.35,2.86,1.35Z"/>
      <g>
        <path class="cls-10" d="M663.57,816.73c19.35-12.95,26.65,7.41,70,7.26,44.25-.15,50.4-21.44,71.72-4.94,17.39,13.46,2.54,89.82-69.99,89.14-73.07-.74-90.15-79.14-71.73-91.46Z"/>
        <path class="cls-18" d="M785.24,892.15c-12.03,9.68-28.45,16.24-49.93,16.04-20.13-.2-36-6.31-48.07-15.3,12.29-4.17,28.78-7.03,50.08-7.09,20.32-.05,36.1,2.5,47.92,6.35Z"/>
        <path class="cls-1" d="M670.64,813.25c14.8-4.49,25.25,10.87,62.93,10.74,38.15-.12,47.98-15.94,63.62-9.75-.26,20.7-32.39,35.99-63.05,35.7-30.39-.31-63.76-16.18-63.5-36.7Z"/>
      </g>
      <g>
        <g>
          <g>
            <path class="cls-1" d="M823.51,710.85c-9.15,24.06,1.83,50.58,24.54,59.24,22.72,8.65,48.57-3.84,57.74-27.91,9.16-24.09-1.84-50.59-24.53-59.26-22.74-8.63-48.58,3.86-57.74,27.92Z"/>
            <path class="cls-12" d="M839.28,716.86c-5.65,14.84,1.12,31.19,15.13,36.54,14.01,5.33,29.95-2.37,35.6-17.21,5.65-14.86-1.13-31.2-15.13-36.55-14.02-5.33-29.95,2.38-35.6,17.22Z"/>
            <path class="cls-1" d="M868.87,718.72c.09,4.65,3.73,8.32,8.09,8.23,4.37-.1,7.83-3.9,7.76-8.55-.1-4.62-3.71-8.31-8.07-8.26-4.38,.13-7.88,3.95-7.78,8.58Z"/>
            <path class="cls-1" d="M845.62,738.49c.05,2.89,2.3,5.15,5.04,5.11,2.69-.05,4.87-2.43,4.8-5.32-.09-2.86-2.31-5.15-5.03-5.1-2.71,.05-4.87,2.43-4.81,5.3Z"/>
          </g>
          <path class="cls-12" d="M911.84,706.65s-35.3-40.81-83.56-11.55c47.23-51.39,83.56,11.55,83.56,11.55Z"/>
        </g>
        <g>
          <g>
            <path class="cls-1" d="M645.11,710.85c9.15,24.06-1.82,50.58-24.53,59.24-22.72,8.65-48.57-3.84-57.73-27.91-9.16-24.09,1.83-50.59,24.52-59.26,22.74-8.63,48.58,3.86,57.74,27.92Z"/>
            <path class="cls-12" d="M629.34,716.86c5.65,14.84-1.13,31.19-15.13,36.54-14.01,5.33-29.96-2.37-35.61-17.21-5.65-14.86,1.13-31.2,15.13-36.55,14.02-5.33,29.96,2.38,35.61,17.22Z"/>
            <path class="cls-1" d="M599.74,718.72c-.09,4.65-3.73,8.32-8.09,8.23-4.37-.1-7.83-3.9-7.76-8.55,.1-4.62,3.71-8.31,8.07-8.26,4.38,.13,7.88,3.95,7.78,8.58Z"/>
            <path class="cls-1" d="M622.99,738.49c-.05,2.89-2.3,5.15-5.03,5.11-2.7-.05-4.87-2.43-4.8-5.32,.09-2.86,2.3-5.15,5.03-5.1,2.71,.05,4.87,2.43,4.81,5.3Z"/>
          </g>
          <path class="cls-12" d="M556.78,706.65s35.3-40.81,83.56-11.55c-47.22-51.39-83.56,11.55-83.56,11.55Z"/>
        </g>
      </g>
      <g>
        <path class="cls-7" d="M620.71,643.04c-7.25-24.6-53.38-21.86-68.38,20.37,20.47-22.29,68.38-20.37,68.38-20.37Z"/>
        <path class="cls-7" d="M847.9,643.04c7.25-24.6,53.39-21.86,68.38,20.37-20.46-22.29-68.38-20.37-68.38-20.37Z"/>
      </g>
      <path class="cls-7" d="M491.74,430.95l.62,1.1c.25-.37,.49-.72,.74-1.1,65.73-162.96,303.03-149.1,326.48-131.15-37.72,.09-29.93,52.37,30.64,62.96,60.58,10.58,146.31,.25,128.35,68.19,194.45,60.6,30.55,216.65,51.78,294.1-37.07-2.88-30.28,24.58-51.78,28.17,12.48-89.81-.75-119.93-62.29-142.63-143.2,24.67-282.05,11.75-363.94-89.27-50.22,28.07-71.87,150.73-60.59,231.9-21.5-3.58-14.71-31.04-51.78-28.17,12.14-44.3-36.28-114.31-43.57-177.46-5.46-47.27,12.11-90.69,95.35-116.63Z"/>
      <g>
        <g>
          <path class="cls-2" d="M973.48,733.54s3.35-29.03,38.38-34.07c36.93-5.29,52.98,42.93,33.88,72.47-19.11,29.49-60.34,31.1-73.78,8.73l1.52-47.13Z"/>
          <path class="cls-11" d="M1019.44,711.94c-24.24-3.39-42.17,39.69-8.71,60.53-14.89-29.44-2.66-40.17,15.16-26.49-.55-9.77-6.79-15.71-21.26-14.11,.66-12.96,14.81-19.92,14.81-19.92Z"/>
        </g>
        <g>
          <path class="cls-2" d="M493.58,733.55s-3.34-29.03-38.36-34.08c-36.94-5.31-53,42.91-33.92,72.45,19.1,29.5,60.33,31.12,73.77,8.76l-1.49-47.13Z"/>
          <path class="cls-11" d="M447.63,711.93c24.25-3.38,42.16,39.71,8.69,60.54,14.91-29.43,2.67-40.16-15.14-26.5,.55-9.76,6.78-15.7,21.25-14.11-.65-12.95-14.8-19.92-14.8-19.92Z"/>
        </g>
      </g>
    </g>
    <path class="cls-2" d="M300.59,957.99c26.16,46.71,50.16,58.98,71.21,72.09,28.18,17.55,25.26,54.42-.17,43.74-31.77-13.34-64.84-25.99-93.83-79.99-3.74-28.35,11.86-55.36,22.79-35.85Z"/>
  </g>
  <g>
    <path class="cls-5" d="M1073.21,366.6c-110.99-61.12-227.03-73.78-325.26-67.5-98.23-6.28-214.27,6.38-325.26,67.5,0,0,50.36,85.25,56.28,168.63,49.21-30.37,155.97-54.9,268.98-57.66,113,2.76,219.76,27.29,268.98,57.66,5.92-83.38,56.28-168.63,56.28-168.63Z"/>
    <path class="cls-14" d="M965.27,141.92C900.97,42.14,821.36,1.78,747.95,1.04c-73.41,.74-153.02,41.11-217.32,140.88-153.2-51.32-274.39,42.29-239.59,185.36,34.83,143.07,203.29,121.17,278.92,5.57,23.88,27.02,99.73,41.54,177.99,40.41,78.27,1.13,154.11-13.39,177.99-40.41,75.63,115.6,244.09,137.49,278.92-5.57,34.8-143.07-86.39-236.68-239.59-185.36Z"/>
    <path class="cls-5" d="M310.46,253.27c-4.24,90.03,164.89,107.5,261.13,24.78,49.13,38.48,257.52,59.04,336.44,16.42-65.79,54.84-237.04,63.53-335.91,4.63-79.56,98.4-125.29,105.27-192.23,84.44-66.95-20.83-69.43-130.27-69.43-130.27Z"/>
  </g>
  <g>
    <path class="cls-5" d="M697.79,968.15s1.65,17.56-10.55,20.41c-18.51,8.37-10.77,39.12,48.84,39.12s68.55-22.26,50.48-39.12c-11.37,.49-11.83-11.17-11.83-21.07-50.97,4.94-76.93,.67-76.93,.67Z"/>
    <path class="cls-14" d="M1197.19,1045.35c-26.41-32.2-38.22-57.43-38.22-57.43-105.13,42.06-257.07-.58-372.42,.65,0,0,0,0,0,0-.01,0-.02,0-.04,0,.03,.85-.04,1.65-.07,2.48-.33,2.96-1.4,6.98-3.08,11.87-17.08,32.26-98.29,23.87-96.17-14.34-184.6-4.06-231.68,136.88-337.67,5.45,0,0-26.46,24.25-52.87,56.45,91.43,177.15,279.3,50.22,279.3,50.22l-53.78,340.77c20.26,7.09,39.97,13.02,59.1,17.96,35.03,10.46,88.21,21.49,155.6,20.94,67.39,.55,120.57-10.48,155.6-20.94,19.13-4.94,38.84-10.86,59.1-17.96l-53.78-340.77s197.55,37.72,299.4-55.33Z"/>
    <path class="cls-5" d="M640.13,1099.9s-7.66,144.92-28.18,271.4c-4.25-65.4,28.18-271.4,28.18-271.4Z"/>
    <path class="cls-5" d="M818.84,1099.9s7.66,144.92,28.18,271.4c4.25-65.4-28.18-271.4-28.18-271.4Z"/>
    <path class="cls-19" d="M692.61,1238.73c-1.75,8.51-10.06,13.99-18.58,12.24h0c-8.51-1.75-13.98-10.07-12.24-18.57h0c1.75-8.52,10.07-13.99,18.58-12.24h0c8.51,1.75,13.99,10.06,12.24,18.57h0Z"/>
    <path class="cls-19" d="M695.93,1140.62c-1.75,8.51-10.06,13.99-18.58,12.24h0c-8.51-1.75-13.98-10.07-12.24-18.57h0c1.75-8.52,10.07-13.99,18.58-12.24h0c8.51,1.75,13.99,10.06,12.24,18.57h0Z"/>
    <path class="cls-19" d="M684.96,1332.75c-1.75,8.51-10.06,13.99-18.58,12.24h0c-8.51-1.75-13.98-10.07-12.24-18.57h0c1.75-8.52,10.07-13.99,18.58-12.24h0c8.51,1.75,13.99,10.06,12.24,18.57h0Z"/>
    <path class="cls-19" d="M769.93,1238.73c1.75,8.51,10.06,13.99,18.58,12.24h0c8.51-1.75,13.98-10.07,12.24-18.57h0c-1.75-8.52-10.07-13.99-18.58-12.24h0c-8.51,1.75-13.99,10.06-12.24,18.57h0Z"/>
    <path class="cls-19" d="M766.62,1140.62c1.75,8.51,10.06,13.99,18.58,12.24h0c8.51-1.75,13.98-10.07,12.24-18.57h0c-1.75-8.52-10.07-13.99-18.58-12.24h0c-8.51,1.75-13.99,10.06-12.24,18.57h0Z"/>
    <path class="cls-19" d="M777.59,1332.75c1.75,8.51,10.06,13.99,18.58,12.24h0c8.51-1.75,13.98-10.07,12.24-18.57h0c-1.75-8.52-10.07-13.99-18.58-12.24h0c-8.51,1.75-13.99,10.06-12.24,18.57h0Z"/>
  </g>
  <g>
    <g>
      <path class="cls-13" d="M986.02,955.71s-8.65,66.26,58.39,59.45c67.07-6.79,195.26-28.6,286.82-18.11,91.57,10.48,119.32,2.41,130.34-38.69,11.03-41.11-63.25-112.55-114.75-102.16-45.16-43.13-93.94-35.63-117.32-23.51-35.76-18.25-84.4-6.54-106.05,13.93-50.52-.86-122.63,56.63-137.43,109.1Z"/>
      <path class="cls-9" d="M1446.39,908.81c0,.06-.02,.12-.03,.18-9.38,34.91-32.94,41.77-110.71,32.86-77.78-8.9-186.66,9.62-243.62,15.39-56.95,5.77-49.61-50.5-49.61-50.5,4.19-14.85,13.86-30.15,26.39-43.97-37.5,20.66-72.93,57.9-82.8,92.93,0,0-8.65,66.26,58.39,59.45,67.07-6.79,195.26-28.6,286.82-18.11,91.57,10.48,119.32,2.41,130.34-38.69,3.86-14.41-2.76-32.52-15.19-49.54Z"/>
      <path class="cls-20" d="M1126.76,843.31s.35,.25,1.02,.69c.71,.47,1.59,1.18,2.76,2.11,2.27,1.86,5.3,4.73,8.54,8.49,1.51,1.97,3.29,4,4.8,6.41,1.66,2.31,3.16,4.88,4.63,7.58,1.56,2.66,2.72,5.63,4.12,8.53,1.06,3.05,2.39,6.05,3.25,9.2,.8,3.18,1.94,6.23,2.43,9.41,.53,3.17,1.36,6.22,1.61,9.27,.31,3.02,.64,5.94,.94,8.71,.09,2.8,.17,5.43,.24,7.85,.3,4.86-.25,8.9-.27,11.73-.13,2.82-.2,4.43-.2,4.43,0,0,0-1.62,.02-4.44-.09-2.83,.28-6.88-.2-11.69-.19-2.42-.37-5.02-.57-7.78-.4-2.75-.83-5.63-1.28-8.61-.37-3-1.31-5.98-1.96-9.09-.6-3.1-1.86-6.06-2.75-9.15-.98-3.04-2.4-5.94-3.54-8.85-1.49-2.76-2.73-5.6-4.34-8.11-1.54-2.56-3.08-4.99-4.75-7.13-1.53-2.25-3.32-4.12-4.83-5.94-3.24-3.46-6.21-6.02-8.37-7.69-1.08-.78-1.97-1.42-2.53-1.76-.6-.37-.94-.57-.94-.57l2.17-3.61Z"/>
      <path class="cls-20" d="M1232.59,830.47s3.47,5.07,7.18,13.18c1.88,4.05,3.84,8.89,5.57,14.18,1.78,5.27,3.31,11.02,4.46,16.83,.69,2.89,.97,5.84,1.47,8.7,.44,2.88,.59,5.75,.87,8.5,.28,2.76,.21,5.44,.34,7.97,.14,2.54-.03,4.92-.09,7.14-.11,2.2-.07,4.23-.3,6.01-.18,1.78-.36,3.34-.48,4.62-.27,2.55-.43,4.01-.43,4.01,0,0,.11-1.47,.25-4.02,.07-1.29,.18-2.85,.27-4.63,.16-1.79,.02-3.8,.03-6-.03-2.2,.04-4.58-.21-7.09-.24-2.49-.29-5.17-.69-7.88-.42-2.72-.68-5.54-1.25-8.36-.61-2.8-1.01-5.71-1.82-8.52-1.39-5.66-3.14-11.24-5.1-16.31-1.95-5.1-4.06-9.74-6.07-13.59-3.99-7.77-7.41-12.28-7.43-12.29l3.43-2.45Z"/>
      <path class="cls-20" d="M1350.66,855.38s.4,1.02,.96,3.03c.63,1.97,1.29,4.78,2.05,8.16,.43,1.67,.66,3.54,.98,5.48,.27,1.95,.7,4,.9,6.13,.18,2.15,.34,4.37,.52,6.63,.24,2.23,.3,4.52,.21,6.83-.04,2.28-.07,4.56-.1,6.81,.08,2.26-.42,4.44-.61,6.57-.27,2.12-.52,4.18-.76,6.11-.16,1.96-.6,3.76-1.04,5.41-1.65,6.61-2.77,11.01-2.77,11.01,0,0,.85-4.44,2.12-11.14,.34-1.64,.68-3.45,.73-5.41,.12-1.95,.26-3.98,.39-6.09,.07-2.12,.43-4.28,.22-6.5-.1-2.22-.2-4.47-.29-6.72-.04-2.25-.2-4.49-.58-6.68-.3-2.18-.6-4.35-.88-6.42-.31-2.08-.83-4.05-1.22-5.94-.43-1.87-.75-3.67-1.27-5.26-.91-3.25-1.71-5.89-2.4-7.67-.6-1.8-1.08-2.88-1.08-2.88l3.93-1.47Z"/>
    </g>
    <path class="cls-15" d="M1123.11,555.95s39.14,32.58,9.89,87.08c-29.23,54.51-19.17,97.22-.46,117.78,.1-25.6-8.33-54.65,15.77-100.64,24.08-45.98,3.79-93.86-25.19-104.22Z"/>
    <path class="cls-15" d="M1273.33,615.9s31.64,26.33,8,70.39c-23.63,44.06-15.49,78.59-.38,95.2,.09-20.7-6.72-44.17,12.73-81.34,19.48-37.18,3.08-75.88-20.35-84.25Z"/>
    <path class="cls-15" d="M1197.38,511.86s56.09,46.72,14.19,124.83c-41.9,78.13-27.47,139.35-.67,168.81,.15-36.68-11.92-78.33,22.6-144.25,34.51-65.92,5.43-134.55-36.12-149.39Z"/>
  </g>
  <g>
    <path class="cls-9" d="M126.09,266.09l-29.63,6.76C31.3,287.72-9.48,352.61,5.38,417.78l84.1,368.6c14.18,62.14,73.84,101.98,135.85,92.67l225.27,995.07c3,13.13,16.08,21.36,29.22,18.35,13.14-3,21.35-16.08,18.36-29.21l-225.27-995.07c59.91-18.51,96.39-80.28,82.21-142.42l-84.1-368.6c-14.88-65.16-79.76-105.95-144.93-91.07Z"/>
    <path class="cls-13" d="M128.75,290l-24.32,5.55c-53.5,12.2-86.96,65.47-74.76,118.97l83.97,368.02c11.64,51.01,66.57,82.36,117.46,74.72l227.21,1003.52c2.45,10.79,7.25,18.88,18.02,16.42,10.79-2.47,11.58-11.84,9.13-22.62l-227.22-1003.51c49.19-15.19,85.09-67.27,73.44-118.28l-83.97-368.02c-12.21-53.5-65.47-86.98-118.97-74.76Z"/>
  </g>
  <g>
    <path class="cls-2" d="M266.86,945.99c-12.54-9.34-36.75-8.9-38.35-.84-1.58,8.05,7.61,11.6,7.61,11.6,0,0-8.18,4.03-5.31,11.18,3.31,8.21,11.82,7.23,11.82,7.23,0,0-10.15,2.27-7.89,10.82,1.49,5.6,8.77,6.8,8.77,6.8,0,0-7.09,3.03-.41,11.03,6.68,7.99,34.09-3.73,35.22-8.36,1.85-7.57-11.88-6.62-11.88-6.62,0,0,18.05-2.12,17-10.42-1.05-8.28-17.37-5.47-17.37-5.47,0,0,13.3-3.77,11.25-10.48-2.05-6.71-12.74-6.01-12.74-6.01,0,0,10.69-4.21,2.28-10.47Z"/>
    <path class="cls-2" d="M312.19,986.52c2.27-7.74,6.46-30.92-2.8-43.31-13.69-18.32-33.65-20.84-35.09-13.81-1.65,8.09,17.64,23.86,17.64,23.86,0,0-3.59,10.81,2.7,25.16,6.33,14.46,17.54,8.1,17.54,8.1Z"/>
  </g>
</svg>