<?xml version="1.0" encoding="UTF-8"?>
<svg width="752pt" height="752pt" version="1.1" viewBox="0 0 752 752" xmlns="http://www.w3.org/2000/svg">
 <defs>
  <clipPath id="a">
   <path d="m139.21 139.21h473.58v473.58h-473.58z"/>
  </clipPath>
 </defs>
 <g clip-path="url(#a)">
  <path d="m376 139.21c-130.7 0-236.79 106.09-236.79 236.79 0 130.7 106.09 236.79 236.79 236.79 130.7 0 236.79-106.09 236.79-236.79 0.003907-130.7-106.09-236.79-236.79-236.79zm-154.22 82.566c41.125-41.125 95.961-63.871 154.23-63.871 58.262 0 113.1 22.746 154.23 63.871 41.125 41.125 63.871 95.961 63.871 154.23 0 17.137-2.0234 33.805-5.7656 50.008l-81.941-111.07c-2.3359-3.1172-6.0742-4.8281-9.8125-4.5195-3.8945 0.3125-7.3203 2.4922-9.1914 5.918l-96.746 181.18-131.32-151.11c-2.3359-2.6484-5.7656-4.0508-9.3477-3.8945-3.582 0.3125-6.6992 2.1797-8.7227 5.2969l-68.234 108.43c-9.9688-25.238-15.109-52.344-15.109-80.23 0-58.262 22.742-113.1 63.871-154.22z" fill="#ec2027"/>
 </g>
 <path d="m347.96 266.48c0 12.648-10.254 22.902-22.902 22.902-12.645 0-22.898-10.254-22.898-22.902 0-12.645 10.254-22.898 22.898-22.898 12.648 0 22.902 10.254 22.902 22.898" fill="#ec2027"/>
</svg>
