<?xml version="1.0" encoding="utf-8"?>
<!-- Generator: Adobe Illustrator 24.1.1, SVG Export Plug-In . SVG Version: 6.00 Build 0)  -->
<svg version="1.1" id="a" xmlns="http://www.w3.org/2000/svg" xmlns:xlink="http://www.w3.org/1999/xlink" x="0px" y="0px"
	 viewBox="0 0 420 98.1" style="enable-background:new 0 0 420 98.1;" xml:space="preserve">
<style type="text/css">
	.st0{fill:#ED2024;}
	.st1{fill:#262262;}
	.st2{fill:#ED1C24;}
</style>
<g>
	<path class="st0" d="M81.9,32.4c1.7-0.6,2.9,0.6,3.1,1.7c0.3,1.6,1.5,3.4-0.4,5.1c-4.3,3.5-4.5,6-0.7,10c1.7,1.8-0.3,2.7-0.6,4
		c-0.3,1.3-1.3,1.9-2.6,1.7c-5-0.9-7.7,1.4-7.4,6.5c0.1,0.8,0.1,1.1-0.7,1.7c-2.9,1.9-5,1.4-6.4-1.7c-0.6-1.2-4.4-1.7-5.7-1.2
		c-1.7,0.7-2.2,3.1-4.6,2.8c-2.3-0.3-4.1-2.5-3.4-4.7c1.1-3.7-2-7.4-5.8-6.9c-0.4,0.1-0.9,0-1.2-0.2C43,50,42.8,45.5,45,44
		c3-2,3.4-5.7,1-8.4c-1-1.1-2.1-2.5-1-4.3c1-1.6,1.6-3,4.3-2.2c3.1,1,6.1-2.1,6.1-5.5c0-2.1,1.1-3.2,3.2-4c2.2-0.8,2.8,0.4,3.7,1.7
		c1.8,2.4,4.3,3,7.1,2c1.1-0.4,0.9-1.3,1.6-1.9c1.2-1.2,2.1-0.7,3.4-0.2c3.6,1.3,1.8,4.3,2.2,6.5C77.1,30.2,79.2,33.1,81.9,32.4
		L81.9,32.4z M64.1,50c4-0.1,8.4-4,8.5-7.6c0.1-4.7-4.3-9.3-8.8-9.1c-2.7,0.1-7.1,4.6-7.2,7.3C56.6,45.5,60.2,50,64.1,50z"/>
	<path class="st1" d="M38.2,9.1c-0.5,1.9-1.7,3.2-1,5.2c0.7,2.2,1.3,4,4,4.5c3.3,0.6,3.9,2.1,3.4,5.5c-0.2,1.5-1.4,1.6-2.2,2
		c-3,1.4-4.4,6.1-1.9,8.8c1.3,1.5,1,2.1,0.3,3.4c-1.5,2.8-2.1,3.1-5,2c-2.5-1-5.9,1.3-6.1,4c-0.3,3.1-3.6,5.2-6.3,4
		c-0.3-0.2-0.6-0.6-0.7-1c-1.1-5.4-5.6-5.6-9.5-2.7c-0.3,0.3-0.3,0.7-1,0.6c-2-0.3-2.7-1.9-3.9-3.1c-0.5-0.5,0.3-1.7,0.7-2.6
		c1.2-2.7-0.6-6.4-3.5-7.3c-2.7-0.8-4.1-3.1-3.5-5.9c0.2-0.8,0.7-1.5,1.6-1.9c3.5-1.6,4.5-6,1.9-8.7c-1.1-1.2-0.8-2-0.1-3.1
		c1.2-2.1,2.5-3.1,5.3-2.3c3.6,1,5.3-0.4,6.2-4.1c0.5-2.1,1.4-3.8,4-4c1.4-0.1,2.2,0.4,2.7,1.5c2,4.6,5.1,5.7,9.1,2.8
		c1.2-0.8,1.8-0.7,2.6,0C36.2,7.5,37.3,8.3,38.2,9.1L38.2,9.1z M30.7,25.2c-0.3-4.8-3.8-8.3-8.1-8c-4.4,0.3-7.5,4.7-7.1,10.2
		c0.2,2.4,5.1,6.6,7.5,6.4C27.5,33.5,31,29.5,30.7,25.2z"/>
	<path class="st1" d="M12,63.5c2.6,0.2,5.5-3.5,4.9-5.9c-0.8-3.3,0.1-4.9,3.3-6c1.1-0.4,1.5,0.2,2.1,0.8c3.7,3.4,6.9,2.8,8.9-1.9
		c0.3-0.7,1-0.9,1.5-1c2.5-0.7,4.8,1.2,5,3.7c0.3,4.4,3.1,6.3,7.2,4.9c1.8-0.6,3.8,1.4,3.9,3.6c0.1,1.7-0.9,2.9-1.8,4.2
		c-1.5,2.3-0.7,5.3,1.5,6.8c1,0.7,2.4,1.5,2.6,2.4c0.2,1.4-0.2,3.1-0.9,4.4c-0.6,1.1-2.3,0.8-3.5,1c-2.7,0.5-4.9,3.7-4,6.4
		c0.8,2.6-0.3,5-2.9,5.7c-1.2,0.3-2.6-0.1-3-1.2c-0.9-2.5-2.7-1.2-4.1-1.2c-1.4,0-3-0.1-3.7,1.9c-0.8,2.4-4.5,3.4-6.4,1.8
		c-1.1-0.9-1-2.6-0.9-3.7c0.1-2.2-1.2-3.1-2.5-4.1c-1.3-1.1-3-0.7-4.3-0.3c-1.6,0.5-2.7,0.4-3.3-1c-0.6-1.4-3-2.6-0.5-4.6
		c2.7-2.2,2-5.2,1-8.1c-0.4-1-1.2-1.2-1.8-1.5c-1.8-0.8-2.3-2.2-1.7-3.9C9.2,65.1,9.7,63,12,63.5L12,63.5z M22.1,72.1
		c0,4,2.4,8.2,7.4,8.1c4.4-0.1,8-3.3,8.2-7.7c0.2-3.9-3.8-8.5-7.7-8.8C26,63.5,22.2,67.5,22.1,72.1L22.1,72.1z"/>
</g>
<g>
	<path class="st1" d="M112.3,31.3h-9.6v7.6h7.7c0.5,0,0.8,0.3,0.8,0.8v2.2h-8.5v10.6h-2.8c-0.6,0-0.8-0.3-0.8-0.8V28.3h12.5
		c0.5,0,0.8,0.3,0.8,0.8V31.3L112.3,31.3z"/>
	<path class="st1" d="M128.4,34.7c0.6,0,0.8,0.3,0.8,0.8v17h-2.1c-0.3,0-0.5-0.1-0.6-0.2s-0.3-0.3-0.3-0.7l-0.1-1.1
		c-1.4,1.6-3.3,2.3-5.6,2.3c-1,0-1.8-0.2-2.4-0.4c-0.7-0.3-1.2-0.7-1.7-1.2c-0.4-0.5-0.7-1.2-0.9-1.9s-0.3-1.6-0.3-2.5V34.7h2.7
		c0.3,0,0.5,0.1,0.6,0.2s0.2,0.3,0.2,0.6v11c0,1.2,0.3,2.1,0.8,2.6c0.5,0.5,1.3,0.8,2.2,0.8s1.8-0.2,2.4-0.6
		c0.7-0.4,1.2-0.8,1.6-1.2V34.7L128.4,34.7L128.4,34.7z"/>
	<path class="st1" d="M134.4,52.5c-0.6,0-0.8-0.3-0.8-0.8v-17h2.1c0.3,0,0.5,0.1,0.6,0.2c0.2,0.1,0.3,0.3,0.3,0.7l0.1,1.1
		c1.4-1.6,3.3-2.3,5.6-2.3c1.9,0,3.3,0.6,4.1,1.7s1.2,2.6,1.2,4.4v12.1H145c-0.3,0-0.5-0.1-0.6-0.2s-0.2-0.3-0.2-0.6v-11
		c0-1.2-0.3-2.1-0.8-2.6c-0.5-0.5-1.3-0.8-2.2-0.8s-1.8,0.2-2.4,0.6c-0.7,0.4-1.2,0.8-1.6,1.2v13.5L134.4,52.5L134.4,52.5z"/>
	<path class="st1" d="M163.4,52c-0.5,0.2-1.2,0.4-2.1,0.6c-0.8,0.2-1.7,0.3-2.7,0.3c-1.3,0-2.4-0.2-3.3-0.6s-1.6-1-2.2-1.8
		c-0.6-0.8-1-1.8-1.2-2.9s-0.4-2.5-0.4-3.9c0-3.3,0.6-5.6,1.7-7.1c1.2-1.5,2.9-2.2,5.3-2.2c0.8,0,1.6,0.1,2.4,0.2
		c0.8,0.1,1.3,0.3,1.7,0.4c0.3,0.1,0.4,0.3,0.5,0.5c0.1,0.2,0.2,0.4,0.2,0.7v1.5c-0.8-0.1-1.5-0.2-2.1-0.3c-0.7-0.1-1.3-0.1-1.8-0.1
		c-0.8,0-1.5,0.1-2,0.3c-0.6,0.2-1,0.5-1.4,1s-0.6,1.1-0.8,1.9c-0.1,0.8-0.2,1.8-0.2,3c0,1.3,0.1,2.4,0.3,3.3c0.2,0.8,0.5,1.5,0.8,2
		c0.4,0.5,0.8,0.8,1.3,1c0.5,0.2,1.1,0.3,1.8,0.3s1.3,0,1.9-0.1c0.6-0.1,1.1-0.1,1.4-0.1c0.6,0,0.8,0.3,0.8,0.8L163.4,52L163.4,52z"
		/>
	<path class="st1" d="M175.6,52.4c-0.5,0.1-1.1,0.3-1.5,0.3c-0.5,0.1-1,0.1-1.5,0.1c-1.7,0-2.9-0.4-3.7-1.1
		c-0.8-0.8-1.1-1.9-1.1-3.5V37.5h-1.2c-0.6,0-0.8-0.3-0.8-0.8v-2h2.1l0.2-4.6h2.4c0.6,0,0.8,0.3,0.8,0.8v3.8h3.4
		c0.3,0,0.5,0.1,0.6,0.2s0.2,0.3,0.2,0.6v2h-4.3V48c0,0.6,0.1,1.1,0.3,1.5s0.6,0.5,1.3,0.5c0.4,0,0.7,0,1,0c0.3,0,0.5,0,0.8,0
		c0.6,0,0.9,0.3,0.9,0.8L175.6,52.4L175.6,52.4z"/>
	<path class="st1" d="M180.8,31.9c-0.8,0-1.3-0.2-1.7-0.4c-0.3-0.3-0.5-0.8-0.5-1.5s0.2-1.2,0.5-1.5s0.9-0.5,1.7-0.5
		s1.3,0.2,1.6,0.5c0.4,0.3,0.5,0.8,0.5,1.5s-0.2,1.2-0.5,1.5S181.6,31.9,180.8,31.9z M182.6,52.5h-2.7c-0.6,0-0.8-0.3-0.8-0.8v-17
		h2.7c0.6,0,0.8,0.3,0.8,0.8C182.6,35.5,182.6,52.5,182.6,52.5z"/>
	<path class="st1" d="M194,53c-2.6,0-4.6-0.8-5.7-2.2s-1.8-3.9-1.8-7.1s0.6-5.6,1.8-7.1c1.2-1.5,3.1-2.2,5.7-2.2s4.6,0.8,5.7,2.2
		s1.8,3.8,1.8,7.1s-0.6,5.6-1.8,7.1C198.6,52.2,196.7,53,194,53z M197.9,43.6c0-1.3-0.1-2.3-0.2-3.2c-0.1-0.8-0.4-1.5-0.7-2
		c-0.3-0.5-0.7-0.9-1.2-1.1c-0.5-0.2-1.1-0.3-1.8-0.3s-1.3,0.1-1.8,0.3s-0.9,0.6-1.2,1.1c-0.3,0.5-0.6,1.2-0.7,2
		c-0.1,0.8-0.2,1.9-0.2,3.2s0.1,2.3,0.2,3.2s0.4,1.5,0.7,2c0.3,0.5,0.7,0.8,1.2,1.1c0.5,0.2,1.1,0.3,1.8,0.3s1.3-0.1,1.8-0.3
		c0.5-0.2,0.9-0.6,1.2-1.1c0.3-0.5,0.6-1.2,0.7-2S197.9,44.9,197.9,43.6z"/>
	<path class="st1" d="M206.2,52.5c-0.6,0-0.8-0.3-0.8-0.8v-17h2.1c0.3,0,0.5,0.1,0.6,0.2c0.2,0.1,0.3,0.3,0.3,0.7l0.1,1.1
		c1.4-1.6,3.3-2.3,5.6-2.3c1.9,0,3.3,0.6,4.1,1.7s1.2,2.6,1.2,4.4v12.1h-2.7c-0.3,0-0.5-0.1-0.6-0.2S216,52,216,51.7v-11
		c0-1.2-0.3-2.1-0.8-2.6c-0.5-0.5-1.3-0.8-2.2-0.8s-1.8,0.2-2.4,0.6c-0.7,0.4-1.2,0.8-1.6,1.2v13.5L206.2,52.5L206.2,52.5z"/>
	<path class="st1" d="M228.4,52.9c-1.8,0-3.2-0.5-4.1-1.5c-0.9-1-1.3-2.4-1.3-4.2c0-1.1,0.2-2,0.5-2.7s0.8-1.3,1.4-1.7
		s1.4-0.7,2.2-0.9c0.8-0.2,1.8-0.3,2.7-0.3h3.6v-1.2c0-1.2-0.3-2-0.9-2.5c-0.6-0.4-1.7-0.7-3.2-0.7c-1,0-1.9,0.1-2.8,0.2
		s-1.4,0.2-1.6,0.2c-0.3,0-0.5-0.1-0.6-0.2c-0.1-0.2-0.2-0.3-0.2-0.6v-1.5c0.8-0.3,1.7-0.5,2.8-0.6c1-0.2,2.1-0.3,3.1-0.3
		c1.3,0,2.4,0.2,3.3,0.4s1.6,0.7,2.1,1.2c0.5,0.5,0.9,1.2,1.1,2s0.3,1.6,0.3,2.6v12h-2.1c-0.4,0-0.6-0.1-0.7-0.3
		c-0.1-0.2-0.2-0.4-0.2-0.6l-0.1-1.1c-0.6,0.6-1.3,1.1-2.2,1.6S229.7,52.8,228.4,52.9L228.4,52.9z M229.8,44c-0.7,0-1.3,0.1-1.8,0.2
		c-0.5,0.2-0.8,0.4-1.1,0.6s-0.5,0.6-0.6,1c-0.1,0.4-0.2,0.8-0.2,1.2c0,1.1,0.3,1.9,0.8,2.3c0.5,0.5,1.3,0.7,2.4,0.7
		c0.9,0,1.7-0.2,2.4-0.5s1.3-0.8,1.8-1.2v-4.3L229.8,44L229.8,44z"/>
	<path class="st1" d="M244.7,48.4c0,0.6,0.1,1,0.3,1.2s0.6,0.3,1.1,0.3c0.4,0,0.6,0.1,0.8,0.2s0.3,0.3,0.3,0.7v1.6
		c-0.4,0.1-0.8,0.2-1.2,0.3c-0.4,0.1-0.8,0.1-1.3,0.1c-0.7,0-1.3-0.1-1.8-0.3c-0.5-0.2-0.8-0.6-1.1-1c-0.3-0.4-0.5-1-0.6-1.7
		c-0.1-0.7-0.2-1.4-0.2-2.3v-20h2.7c0.3,0,0.5,0.1,0.6,0.2s0.2,0.3,0.2,0.6L244.7,48.4L244.7,48.4z"/>
	<path class="st1" d="M258.6,52.5c-0.6,0-0.8-0.3-0.8-0.8V28.3h2.8c0.6,0,0.8,0.3,0.8,0.8v23.5H258.6z"/>
	<path class="st1" d="M266.8,52.5c-0.6,0-0.8-0.3-0.8-0.8v-17h2.1c0.3,0,0.5,0.1,0.6,0.2c0.2,0.1,0.3,0.3,0.3,0.7l0.1,1.1
		c1.5-1.6,3.3-2.3,5.6-2.3c1.9,0,3.3,0.6,4.1,1.7s1.2,2.6,1.2,4.4v12.1h-2.7c-0.3,0-0.5-0.1-0.6-0.2s-0.2-0.3-0.2-0.6v-11
		c0-1.2-0.3-2.1-0.8-2.6c-0.5-0.5-1.3-0.8-2.2-0.8s-1.8,0.2-2.5,0.6c-0.7,0.4-1.2,0.8-1.6,1.2v13.5L266.8,52.5L266.8,52.5z"/>
	<path class="st1" d="M283.9,43.5c0-1.8,0.2-3.2,0.5-4.4s0.9-2.1,1.6-2.8c0.7-0.7,1.6-1.2,2.6-1.4c1.1-0.3,2.3-0.4,3.8-0.4
		c0.9,0,1.9,0.1,2.9,0.1c1,0.1,1.9,0.2,2.6,0.3c0.4,0.1,0.8,0.2,1,0.3c0.2,0.1,0.3,0.4,0.3,0.8v1.5h-1.3c0.1,1.5,0.1,2.9,0.1,4.4
		c0,1.4,0,2.8,0,4.3v6.3c0,2.1-0.6,3.6-1.7,4.7c-1.1,1.1-2.9,1.6-5.3,1.6c-0.4,0-0.8,0-1.3-0.1c-0.5,0-0.9-0.1-1.4-0.1
		s-0.9-0.1-1.4-0.2c-0.4-0.1-0.8-0.2-1.1-0.3c-0.3-0.1-0.5-0.3-0.6-0.4s-0.1-0.4-0.1-0.7v-1.5c0.8,0.1,1.6,0.2,2.5,0.3
		s1.6,0.1,2.4,0.1c1.7,0,2.9-0.2,3.6-0.7c0.7-0.5,1-1.3,1-2.5v-2.2c-0.7,0.5-1.4,0.8-2,1.1c-0.7,0.3-1.5,0.4-2.4,0.4
		c-1.2,0-2.2-0.2-3-0.6c-0.8-0.4-1.4-1-1.9-1.8c-0.5-0.8-0.8-1.7-1-2.7C284,45.9,283.9,44.7,283.9,43.5L283.9,43.5z M287.5,43.4
		c0,1.1,0.1,2,0.2,2.8c0.1,0.8,0.4,1.3,0.6,1.8s0.7,0.8,1.1,1s1,0.3,1.6,0.3c0.8,0,1.4-0.1,1.9-0.3s1-0.5,1.5-0.8V37.4
		c-0.4-0.1-0.8-0.1-1.1-0.1c-0.4,0-0.7,0-1.1,0c-0.9,0-1.6,0.1-2.2,0.3c-0.6,0.2-1.1,0.5-1.5,0.9c-0.4,0.5-0.7,1.1-0.9,1.9
		S287.5,42.1,287.5,43.4L287.5,43.4z"/>
	<path class="st1" d="M310.6,34.6c0.5,0,0.8,0.1,1,0.2c0.2,0.2,0.3,0.4,0.3,0.6v2.3c-0.2,0-0.3,0-0.5,0h-0.5c-1,0-1.8,0.2-2.6,0.5
		c-0.8,0.3-1.5,0.8-2.2,1.5v12.8h-2.7c-0.6,0-0.8-0.3-0.8-0.8v-17h2.1c0.3,0,0.5,0.1,0.7,0.2c0.1,0.1,0.3,0.4,0.3,0.7l0.1,1.5
		c0.5-0.7,1.2-1.2,2.1-1.8S309.6,34.6,310.6,34.6L310.6,34.6z"/>
	<path class="st1" d="M317.2,44.9c0,0.9,0.1,1.7,0.3,2.4c0.2,0.7,0.4,1.2,0.8,1.6c0.4,0.4,0.9,0.7,1.6,0.9c0.6,0.2,1.5,0.3,2.5,0.3
		c0.9,0,1.7-0.1,2.5-0.1s1.3-0.1,1.5-0.1c0.5,0,0.8,0.3,0.8,0.8V52c-0.6,0.2-1.3,0.4-2.3,0.6s-2.1,0.3-3.4,0.3
		c-1.3,0-2.5-0.2-3.5-0.5c-1-0.3-1.8-0.9-2.4-1.6c-0.6-0.7-1.1-1.7-1.4-2.9c-0.3-1.2-0.5-2.6-0.5-4.3s0.1-3.1,0.5-4.3
		c0.3-1.2,0.8-2.2,1.4-2.9c0.6-0.8,1.4-1.3,2.3-1.7c0.9-0.3,2-0.5,3.2-0.5c1.4,0,2.5,0.2,3.3,0.6c0.9,0.4,1.5,0.9,2,1.6
		c0.5,0.7,0.8,1.4,1,2.3c0.2,0.9,0.3,1.8,0.3,2.8c0,0.7,0,1.3-0.1,2s-0.2,1.1-0.3,1.4L317.2,44.9L317.2,44.9z M324.6,42.4
		c0-0.2,0-0.4,0-0.5v-0.5c0-1.5-0.2-2.6-0.7-3.4c-0.5-0.8-1.4-1.1-2.7-1.1c-0.8,0-1.5,0.1-2,0.4c-0.5,0.3-0.9,0.6-1.2,1.1
		c-0.3,0.5-0.5,1-0.6,1.7s-0.2,1.4-0.2,2.3L324.6,42.4L324.6,42.4z"/>
	<path class="st1" d="M337.2,52.9c-2.1,0-3.6-0.8-4.6-2.3c-1-1.6-1.4-3.8-1.4-6.7c0-3.4,0.6-5.8,1.7-7.2c1.2-1.5,2.9-2.2,5.2-2.2
		c1,0,1.8,0.1,2.4,0.3c0.6,0.2,1.1,0.4,1.5,0.6v-7.8h2.7c0.3,0,0.5,0.1,0.6,0.2s0.2,0.3,0.2,0.6v24.3h-2.1c-0.3,0-0.5-0.1-0.6-0.2
		s-0.3-0.3-0.3-0.7l-0.1-1.1c-0.5,0.6-1.2,1.1-2,1.6S338.5,52.8,337.2,52.9L337.2,52.9z M342.1,37.7c-0.4-0.2-0.9-0.3-1.4-0.5
		s-1.1-0.2-1.7-0.2c-0.8,0-1.5,0.1-2,0.3c-0.5,0.2-1,0.6-1.3,1.1s-0.5,1.2-0.7,2s-0.2,1.8-0.2,3c0,2.2,0.3,3.8,0.7,4.8
		s1.4,1.5,2.7,1.5c0.9,0,1.7-0.2,2.3-0.5s1.1-0.7,1.5-1.1L342.1,37.7L342.1,37.7z"/>
	<path class="st1" d="M351.7,31.9c-0.8,0-1.3-0.2-1.7-0.4c-0.3-0.3-0.5-0.8-0.5-1.5s0.2-1.2,0.5-1.5s0.9-0.5,1.7-0.5
		s1.3,0.2,1.6,0.5c0.4,0.3,0.5,0.8,0.5,1.5s-0.2,1.2-0.5,1.5S352.5,31.9,351.7,31.9z M353.5,52.5h-2.7c-0.6,0-0.8-0.3-0.8-0.8v-17
		h2.7c0.6,0,0.8,0.3,0.8,0.8C353.5,35.5,353.5,52.5,353.5,52.5z"/>
	<path class="st1" d="M360.8,44.9c0,0.9,0.1,1.7,0.3,2.4c0.2,0.7,0.4,1.2,0.8,1.6c0.4,0.4,0.9,0.7,1.6,0.9c0.6,0.2,1.5,0.3,2.5,0.3
		c0.9,0,1.7-0.1,2.5-0.1s1.3-0.1,1.5-0.1c0.5,0,0.8,0.3,0.8,0.8V52c-0.6,0.2-1.3,0.4-2.3,0.6s-2.1,0.3-3.4,0.3
		c-1.3,0-2.5-0.2-3.5-0.5c-1-0.3-1.8-0.9-2.4-1.6c-0.6-0.7-1.1-1.7-1.4-2.9c-0.3-1.2-0.5-2.6-0.5-4.3s0.1-3.1,0.5-4.3
		c0.3-1.2,0.8-2.2,1.4-2.9c0.6-0.8,1.4-1.3,2.3-1.7c0.9-0.3,2-0.5,3.2-0.5c1.4,0,2.5,0.2,3.3,0.6c0.9,0.4,1.5,0.9,2,1.6
		c0.5,0.7,0.8,1.4,1,2.3c0.2,0.9,0.3,1.8,0.3,2.8c0,0.7,0,1.3-0.1,2s-0.2,1.1-0.3,1.4L360.8,44.9L360.8,44.9z M368.2,42.4
		c0-0.2,0-0.4,0-0.5v-0.5c0-1.5-0.2-2.6-0.7-3.4c-0.5-0.8-1.4-1.1-2.7-1.1c-0.8,0-1.5,0.1-2,0.4c-0.5,0.3-0.9,0.6-1.2,1.1
		c-0.3,0.5-0.5,1-0.6,1.7s-0.2,1.4-0.2,2.3L368.2,42.4L368.2,42.4z"/>
	<path class="st1" d="M376.1,52.5c-0.6,0-0.8-0.3-0.8-0.8v-17h2.1c0.3,0,0.5,0.1,0.6,0.2c0.2,0.1,0.3,0.3,0.3,0.7l0.1,1.1
		c1.5-1.6,3.3-2.3,5.6-2.3c1.9,0,3.3,0.6,4.1,1.7s1.2,2.6,1.2,4.4v12.1h-2.7c-0.3,0-0.5-0.1-0.6-0.2s-0.2-0.3-0.2-0.6v-11
		c0-1.2-0.3-2.1-0.8-2.6c-0.5-0.5-1.3-0.8-2.2-0.8s-1.8,0.2-2.5,0.6c-0.7,0.4-1.2,0.8-1.6,1.2v13.5L376.1,52.5L376.1,52.5z"/>
	<path class="st1" d="M402.4,52.4c-0.5,0.1-1,0.3-1.5,0.3c-0.5,0.1-1,0.1-1.5,0.1c-1.7,0-2.9-0.4-3.7-1.1s-1.1-1.9-1.1-3.5V37.5
		h-1.2c-0.6,0-0.8-0.3-0.8-0.8v-2h2.1l0.2-4.6h2.5c0.6,0,0.8,0.3,0.8,0.8v3.8h3.4c0.3,0,0.5,0.1,0.6,0.2s0.2,0.3,0.2,0.6v2h-4.3V48
		c0,0.6,0.1,1.1,0.3,1.5s0.6,0.5,1.3,0.5c0.4,0,0.7,0,1,0c0.3,0,0.5,0,0.8,0c0.6,0,1,0.3,1,0.8L402.4,52.4L402.4,52.4z"/>
	<path class="st1" d="M405.3,49.6c0.8,0.1,1.6,0.2,2.5,0.3s1.8,0.1,2.7,0.1c1.5,0,2.6-0.2,3.1-0.6s0.8-1,0.8-1.9c0-0.4,0-0.7-0.2-1
		c-0.1-0.3-0.3-0.5-0.6-0.7s-0.7-0.4-1.1-0.5s-1.1-0.3-1.8-0.5c-0.8-0.2-1.6-0.4-2.3-0.7s-1.3-0.5-1.8-0.9s-0.9-0.8-1.1-1.4
		c-0.3-0.6-0.4-1.3-0.4-2.2c0-1.9,0.5-3.2,1.6-4c1.1-0.8,2.6-1.2,4.6-1.2c0.4,0,0.8,0,1.3,0.1c0.5,0,0.9,0.1,1.4,0.1
		c0.4,0.1,0.9,0.1,1.2,0.2c0.4,0.1,0.7,0.2,1,0.3c0.3,0.1,0.4,0.3,0.5,0.4s0.2,0.4,0.2,0.7v1.5c-1-0.1-2-0.2-2.8-0.3
		c-0.8-0.1-1.5-0.1-2.1-0.1c-1.3,0-2.3,0.2-2.8,0.5s-0.8,0.9-0.8,1.7c0,0.4,0.1,0.8,0.2,1c0.1,0.3,0.4,0.5,0.7,0.7
		c0.3,0.2,0.7,0.4,1.2,0.5s1.1,0.3,1.8,0.5c0.8,0.2,1.5,0.4,2.2,0.7s1.3,0.5,1.8,0.9c0.5,0.4,0.9,0.8,1.1,1.4
		c0.3,0.6,0.4,1.4,0.4,2.3c0,1-0.2,1.9-0.5,2.6c-0.3,0.7-0.8,1.3-1.4,1.7c-0.6,0.4-1.3,0.8-2.1,0.9c-0.8,0.2-1.7,0.3-2.7,0.3
		c-0.4,0-0.9,0-1.4-0.1c-0.5,0-1-0.1-1.5-0.2c-0.5-0.1-1-0.2-1.4-0.2s-0.8-0.2-1-0.3c-0.3-0.1-0.5-0.3-0.6-0.4s-0.1-0.4-0.1-0.7
		L405.3,49.6L405.3,49.6z"/>
	<path class="st2" d="M102.8,70.6h-5.2c-1,0-1.5-0.5-1.5-1.5v-4.5h19.3c1,0,1.5,0.5,1.5,1.5v4.5h-6.7v22.9h-5.7
		c-1,0-1.5-0.5-1.5-1.5L102.8,70.6L102.8,70.6z"/>
	<path class="st2" d="M129.9,86.4h-5.8c-0.2,1.3-0.3,2.5-0.5,3.8c-0.1,1.3-0.2,2.3-0.3,3.3h-5.6c-0.4,0-0.7-0.1-0.9-0.4
		c-0.2-0.3-0.3-0.7-0.3-1.3c0-0.3,0-0.5,0-0.8s0.1-0.5,0.1-0.8c0.7-4.6,1.6-8.9,2.5-13.1c0.9-4.2,2.1-8.4,3.6-12.5h7.5
		c0.6,0,0.9,0.1,1.2,0.4c0.2,0.3,0.4,0.6,0.5,0.9c1.3,3.7,2.4,7.9,3.4,12.6c1,4.7,1.9,9.7,2.8,14.9h-6c-0.9,0-1.4-0.5-1.5-1.5
		L129.9,86.4L129.9,86.4z M127,70c-0.6,2.3-1.1,4.4-1.4,6.2c-0.4,1.8-0.7,3.5-1,5.1h4.7c-0.3-1.6-0.6-3.3-1-5.1
		C128,74.3,127.6,72.3,127,70L127,70z"/>
	<path class="st2" d="M143.2,93.5c-1,0-1.5-0.5-1.5-1.5V64.6h5.7c1,0,1.5,0.5,1.5,1.5v27.4H143.2z"/>
	<path class="st2" d="M155.4,93.5c-1,0-1.5-0.5-1.5-1.5V64.6h5.7c1,0,1.5,0.5,1.5,1.5v21.4h7.7c1,0,1.5,0.5,1.5,1.5v4.5H155.4z"/>
	<path class="st2" d="M194,79.1c0,3.2-0.3,5.8-0.8,7.8s-1.3,3.5-2.2,4.6c-0.9,1.1-2.1,1.8-3.4,2.1c-1.4,0.4-2.8,0.5-4.4,0.5
		s-3.1-0.2-4.4-0.5s-2.5-1.1-3.4-2.1c-0.9-1.1-1.7-2.6-2.2-4.6c-0.5-2-0.8-4.6-0.8-7.8s0.3-5.8,0.8-7.8s1.3-3.5,2.2-4.6
		c0.9-1.1,2.1-1.8,3.4-2.1c1.3-0.3,2.8-0.5,4.4-0.5s3.1,0.2,4.4,0.5c1.4,0.3,2.5,1.1,3.4,2.1c0.9,1.1,1.7,2.6,2.2,4.6
		C193.7,73.3,194,75.8,194,79.1z M179.6,79.1c0,2,0.1,3.6,0.1,4.8c0.1,1.2,0.3,2.1,0.5,2.8s0.6,1.1,1.1,1.3c0.5,0.2,1.1,0.3,1.8,0.3
		s1.3-0.1,1.8-0.3s0.8-0.7,1.1-1.3c0.3-0.7,0.4-1.6,0.5-2.8c0.1-1.2,0.1-2.8,0.1-4.8s-0.1-3.5-0.1-4.7c-0.1-1.2-0.3-2.1-0.5-2.8
		s-0.6-1.1-1.1-1.3c-0.5-0.2-1.1-0.3-1.8-0.3s-1.3,0.1-1.8,0.3c-0.5,0.2-0.8,0.7-1.1,1.3c-0.3,0.7-0.4,1.6-0.5,2.8
		S179.6,77.1,179.6,79.1z"/>
	<path class="st2" d="M199.9,93.5c-1,0-1.5-0.5-1.5-1.5V65.1c1.6-0.3,3.1-0.5,4.7-0.7c1.6-0.2,3.1-0.2,4.6-0.2
		c3.3,0,5.8,0.7,7.5,2.2c1.7,1.5,2.5,3.9,2.5,7.2c0,0.7-0.1,1.4-0.2,2.1c-0.1,0.7-0.3,1.4-0.6,2.1s-0.7,1.3-1.2,1.9
		c-0.5,0.6-1.2,1.1-1.9,1.5c0.6,0.8,1.1,1.6,1.7,2.6c0.5,1,1.1,2,1.5,3.1s0.9,2.2,1.3,3.3c0.4,1.1,0.7,2.2,1,3.3h-6
		c-0.5,0-0.9-0.1-1.2-0.3c-0.3-0.2-0.5-0.6-0.7-1.1c-0.5-1.7-1.1-3.3-1.8-4.9s-1.4-3-2-4.2h-2v10.5L199.9,93.5L199.9,93.5z
		 M205.5,77.7h2.2c0.4,0,0.8-0.1,1.2-0.2c0.4-0.1,0.7-0.3,1-0.6s0.5-0.7,0.7-1.3s0.3-1.2,0.3-2c0-0.9-0.1-1.6-0.2-2.1
		c-0.1-0.5-0.4-0.9-0.6-1.2c-0.3-0.3-0.6-0.5-1-0.6s-0.9-0.2-1.4-0.2h-0.4c-0.2,0-0.4,0-0.6,0c-0.2,0-0.4,0-0.6,0s-0.4,0-0.5,0
		L205.5,77.7L205.5,77.7z"/>
	<path class="st2" d="M238,64.6c1,0,1.5,0.5,1.5,1.5v4.3h-10.1v5.5h7.3c1,0,1.5,0.5,1.5,1.5v4.3h-8.9v6.1h8.9c1,0,1.5,0.5,1.5,1.5
		v4.3h-16c-1,0-1.5-0.5-1.5-1.5V64.6H238L238,64.6z"/>
	<path class="st2" d="M245.6,93.5c-1,0-1.5-0.5-1.5-1.5V65.1c1.6-0.3,3.2-0.5,4.6-0.7c1.5-0.2,3-0.2,4.4-0.2c1.9,0,3.6,0.2,5.1,0.6
		c1.5,0.4,2.7,1.1,3.7,2.2c1,1.1,1.8,2.6,2.3,4.5c0.5,1.9,0.8,4.4,0.8,7.5s-0.3,5.5-0.8,7.4c-0.5,1.9-1.3,3.4-2.3,4.4
		c-1,1.1-2.2,1.8-3.7,2.1s-3.2,0.6-5.1,0.6L245.6,93.5L245.6,93.5z M253.2,69.7c-0.4,0-0.7,0-1.1,0c-0.4,0-0.7,0-0.9,0.1v18.1h1.7
		c0.9,0,1.7-0.1,2.3-0.3c0.6-0.2,1.1-0.6,1.4-1.2c0.4-0.6,0.6-1.6,0.8-2.8c0.1-1.2,0.2-2.9,0.2-4.9s-0.1-3.6-0.2-4.8
		c-0.1-1.2-0.4-2.1-0.7-2.7s-0.8-1-1.3-1.2C254.8,69.8,254.1,69.7,253.2,69.7L253.2,69.7z"/>
</g>
<g>
	<path class="st1" d="M275.6,80.4H272c-0.4,0-0.5-0.2-0.5-0.5v-1.5h10.2c0.2,0,0.3,0.1,0.4,0.1s0.1,0.2,0.1,0.4v1.5H278v13.8h-1.8
		c-0.4,0-0.5-0.2-0.5-0.5L275.6,80.4L275.6,80.4z"/>
	<path class="st1" d="M294.7,86.2c0,1.7-0.1,3.1-0.4,4.1s-0.7,1.9-1.2,2.5s-1.1,1-1.8,1.2s-1.5,0.3-2.3,0.3s-1.6-0.1-2.3-0.3
		c-0.7-0.2-1.3-0.6-1.8-1.2s-0.9-1.4-1.2-2.5s-0.4-2.4-0.4-4.1s0.1-3.1,0.4-4.1s0.7-1.9,1.2-2.5c0.5-0.6,1.1-1,1.8-1.2
		c0.7-0.2,1.5-0.3,2.3-0.3s1.6,0.1,2.3,0.3c0.7,0.2,1.3,0.6,1.8,1.2c0.5,0.6,0.9,1.4,1.2,2.5C294.6,83.2,294.7,84.6,294.7,86.2z
		 M285.7,86.2c0,1.2,0,2.1,0.1,2.9s0.3,1.4,0.5,1.9s0.6,0.8,1,1s1,0.3,1.6,0.3s1.2-0.1,1.6-0.3c0.4-0.2,0.8-0.6,1-1
		c0.3-0.5,0.4-1.1,0.5-1.9c0.1-0.8,0.2-1.8,0.2-2.9s0-2.1-0.2-2.9c-0.1-0.8-0.3-1.4-0.5-1.9c-0.3-0.5-0.6-0.8-1-1s-1-0.3-1.6-0.3
		s-1.2,0.1-1.6,0.3c-0.4,0.2-0.8,0.6-1,1c-0.3,0.5-0.4,1.1-0.5,1.9C285.8,84.1,285.7,85.1,285.7,86.2z"/>
	<path class="st1" d="M305.9,94.1c-0.4,0-0.5-0.2-0.5-0.5v-5.5c-0.5-0.9-1-1.7-1.4-2.5c-0.4-0.8-0.8-1.6-1.2-2.4s-0.7-1.6-1-2.4
		c-0.3-0.8-0.6-1.6-0.8-2.5h2.1c0.2,0,0.4,0.1,0.4,0.2c0.1,0.1,0.1,0.3,0.2,0.5c0.1,0.5,0.3,1,0.5,1.6s0.4,1.2,0.6,1.8
		s0.5,1.2,0.8,1.9s0.6,1.3,1,1.9c0.4-0.6,0.7-1.4,1-2.1c0.3-0.7,0.6-1.5,0.9-2.2c0.3-0.7,0.5-1.4,0.7-2c0.2-0.6,0.3-1.1,0.4-1.5h1.8
		c0.2,0,0.4,0.1,0.5,0.2c0.1,0.1,0.1,0.3,0,0.5c-0.3,0.9-0.5,1.7-0.8,2.4c-0.3,0.8-0.6,1.5-0.9,2.2s-0.7,1.4-1.1,2.1
		c-0.4,0.7-0.8,1.5-1.3,2.2v6L305.9,94.1L305.9,94.1z"/>
	<path class="st1" d="M324.6,86.2c0,1.7-0.1,3.1-0.4,4.1s-0.7,1.9-1.2,2.5s-1.1,1-1.8,1.2s-1.5,0.3-2.3,0.3s-1.6-0.1-2.3-0.3
		c-0.7-0.2-1.3-0.6-1.8-1.2s-0.9-1.4-1.2-2.5s-0.4-2.4-0.4-4.1s0.1-3.1,0.4-4.1s0.7-1.9,1.2-2.5c0.5-0.6,1.1-1,1.8-1.2
		c0.7-0.2,1.5-0.3,2.3-0.3s1.6,0.1,2.3,0.3c0.7,0.2,1.3,0.6,1.8,1.2c0.5,0.6,0.9,1.4,1.2,2.5C324.4,83.2,324.6,84.6,324.6,86.2z
		 M315.6,86.2c0,1.2,0,2.1,0.1,2.9s0.3,1.4,0.5,1.9s0.6,0.8,1,1s1,0.3,1.6,0.3s1.2-0.1,1.6-0.3c0.4-0.2,0.8-0.6,1-1
		c0.3-0.5,0.4-1.1,0.5-1.9c0.1-0.8,0.2-1.8,0.2-2.9s0-2.1-0.2-2.9c-0.1-0.8-0.3-1.4-0.5-1.9c-0.3-0.5-0.6-0.8-1-1s-1-0.3-1.6-0.3
		s-1.2,0.1-1.6,0.3c-0.4,0.2-0.8,0.6-1,1c-0.3,0.5-0.4,1.1-0.5,1.9C315.7,84.1,315.6,85.1,315.6,86.2z"/>
	<path class="st1" d="M337.8,88.5c0,2-0.4,3.5-1.2,4.4c-0.8,0.9-2.1,1.4-4,1.4c-0.9,0-1.6-0.1-2.3-0.3s-1.2-0.5-1.7-1
		c-0.5-0.4-0.8-1-1-1.8c-0.2-0.7-0.4-1.7-0.4-2.8V78.3h1.9c0.4,0,0.5,0.2,0.5,0.5v9.9c0,0.6,0,1,0.1,1.5c0.1,0.4,0.2,0.8,0.4,1.1
		s0.5,0.6,0.9,0.7c0.4,0.2,0.9,0.2,1.5,0.2s1-0.1,1.4-0.2c0.4-0.2,0.6-0.4,0.9-0.7c0.2-0.3,0.4-0.7,0.4-1.1c0.1-0.4,0.1-0.9,0.1-1.5
		V78.4h1.9c0.2,0,0.3,0.1,0.4,0.1s0.1,0.2,0.1,0.4L337.8,88.5L337.8,88.5z"/>
	<path class="st1" d="M341.4,94.1c-0.4,0-0.5-0.2-0.5-0.5v-15c0.7-0.1,1.4-0.2,2.3-0.3c0.8-0.1,1.7-0.1,2.5-0.1c1.8,0,3.1,0.4,4,1.2
		c0.8,0.8,1.2,2,1.2,3.6c0,1.1-0.3,2.1-0.8,2.8c-0.5,0.7-1.2,1.2-2.1,1.5c0.4,0.4,0.7,1,1.1,1.6s0.7,1.2,1,1.8
		c0.3,0.6,0.6,1.2,0.9,1.8c0.3,0.6,0.5,1.1,0.6,1.6h-2c-0.2,0-0.4,0-0.5-0.1c-0.1-0.1-0.2-0.2-0.2-0.4c-0.1-0.4-0.3-0.8-0.6-1.3
		c-0.2-0.5-0.5-1-0.8-1.5c-0.3-0.5-0.6-1.1-0.9-1.6c-0.3-0.5-0.7-1-1-1.4h-2.4v6.3L341.4,94.1L341.4,94.1z M343.2,86h2.5
		c0.4,0,0.8,0,1.1-0.1c0.3-0.1,0.6-0.2,0.9-0.4s0.4-0.5,0.6-0.9c0.1-0.4,0.2-0.9,0.2-1.5s-0.1-1.1-0.2-1.5s-0.3-0.7-0.5-0.9
		c-0.2-0.2-0.5-0.4-0.9-0.5c-0.4-0.1-0.8-0.1-1.3-0.1c-0.5,0-1,0-1.4,0.1c-0.4,0-0.7,0.1-1,0.1L343.2,86L343.2,86z"/>
	<path class="st1" d="M369.2,94.1h-1.9c-0.3,0-0.5-0.2-0.6-0.5c-0.2-0.5-0.5-1.1-0.9-1.8c-0.3-0.7-0.7-1.4-1.1-2.1
		c-0.4-0.7-0.8-1.5-1.2-2.2c-0.4-0.8-0.8-1.5-1.1-2.1c-0.4-0.7-0.7-1.3-1-1.8s-0.5-1-0.8-1.4v11.9h-1.7c-0.4,0-0.5-0.2-0.5-0.5V78.4
		h1.9c0.2,0,0.3,0.1,0.4,0.2c0.1,0.1,0.2,0.2,0.3,0.4c0.2,0.3,0.4,0.8,0.7,1.3s0.6,1.1,1,1.7c0.4,0.6,0.7,1.3,1.1,2
		c0.4,0.7,0.8,1.4,1.1,2.1s0.7,1.4,1.1,2.1s0.6,1.3,0.9,1.8V78.4h1.7c0.4,0,0.5,0.2,0.5,0.5V94.1L369.2,94.1z"/>
	<path class="st1" d="M380.7,78.4c0.4,0,0.5,0.2,0.5,0.5v1.4h-6.5v4.9h5.4c0.4,0,0.5,0.2,0.5,0.5v1.5h-5.9v5h6.2
		c0.2,0,0.3,0.1,0.4,0.1s0.1,0.2,0.1,0.4v1.4h-8.6c-0.4,0-0.5-0.2-0.5-0.5V78.4H380.7L380.7,78.4z"/>
	<path class="st1" d="M392.4,78.4c0.4,0,0.5,0.2,0.5,0.5v1.4h-6.5v4.9h5.4c0.4,0,0.5,0.2,0.5,0.5v1.5h-5.9v5h6.2
		c0.2,0,0.3,0.1,0.4,0.1s0.1,0.2,0.1,0.4v1.4h-8.6c-0.4,0-0.5-0.2-0.5-0.5V78.4H392.4L392.4,78.4z"/>
	<path class="st1" d="M396.3,94.1c-0.4,0-0.5-0.2-0.5-0.5v-15c0.4-0.1,0.7-0.1,1.1-0.2c0.4-0.1,0.8-0.1,1.2-0.1s0.8-0.1,1.2-0.1
		c0.4,0,0.8,0,1.1,0c1.1,0,2,0.1,2.8,0.4c0.8,0.3,1.4,0.7,1.9,1.3c0.5,0.6,0.9,1.4,1.1,2.5c0.2,1,0.4,2.3,0.4,3.7s-0.1,2.7-0.4,3.7
		c-0.2,1-0.6,1.8-1.1,2.5c-0.5,0.6-1.1,1.1-1.9,1.4c-0.8,0.3-1.7,0.4-2.7,0.4H396.3L396.3,94.1z M400.3,80.1c-0.4,0-0.7,0-1.2,0.1
		c-0.4,0-0.8,0.1-1,0.1v11.9h2.2c0.6,0,1.2-0.1,1.7-0.2c0.5-0.1,0.9-0.4,1.2-0.9c0.3-0.4,0.5-1.1,0.7-1.9c0.1-0.8,0.2-1.9,0.2-3.2
		c0-1.2-0.1-2.2-0.2-2.9c-0.1-0.8-0.3-1.4-0.6-1.8c-0.3-0.4-0.7-0.8-1.2-0.9C401.6,80.2,401,80.1,400.3,80.1L400.3,80.1z"/>
	<path class="st1" d="M408.8,82.5c0-1.4,0.4-2.5,1.2-3.3c0.8-0.7,2.1-1.1,3.8-1.1c0.6,0,1.3,0,1.9,0.1c0.6,0.1,1.1,0.2,1.5,0.3
		c0.2,0.1,0.4,0.2,0.4,0.3s0.1,0.3,0.1,0.4v1.1c-0.6-0.1-1.1-0.1-1.7-0.2s-1.2-0.1-1.8-0.1s-1.1,0.1-1.5,0.2c-0.4,0.1-0.7,0.2-1,0.4
		c-0.2,0.2-0.4,0.4-0.5,0.7c-0.1,0.3-0.1,0.6-0.1,1c0,0.4,0,0.8,0.2,1c0.1,0.3,0.3,0.5,0.5,0.7c0.3,0.2,0.6,0.4,1,0.5
		c0.4,0.2,0.9,0.4,1.5,0.6c0.6,0.2,1.2,0.5,1.6,0.7c0.5,0.2,0.9,0.5,1.3,0.9c0.4,0.3,0.6,0.8,0.8,1.3s0.3,1.1,0.3,1.9
		c0,1.6-0.4,2.8-1.3,3.5s-2.2,1.1-3.8,1.1c-0.7,0-1.4-0.1-2.1-0.1c-0.7-0.1-1.2-0.2-1.6-0.4c-0.2-0.1-0.3-0.2-0.4-0.3
		c-0.1-0.1-0.1-0.3-0.1-0.5V92c0.5,0.1,1.1,0.1,1.8,0.2s1.3,0.1,2.1,0.1c0.6,0,1.2-0.1,1.6-0.2c0.4-0.1,0.7-0.3,1-0.5
		c0.2-0.2,0.4-0.5,0.5-0.8c0.1-0.3,0.1-0.6,0.1-1c0-0.4,0-0.8-0.1-1.1c-0.1-0.3-0.3-0.5-0.5-0.7c-0.2-0.2-0.6-0.4-1-0.5
		c-0.4-0.2-0.9-0.4-1.5-0.6c-0.6-0.2-1.2-0.5-1.7-0.7c-0.5-0.2-0.9-0.5-1.3-0.9s-0.6-0.8-0.8-1.2C408.9,83.8,408.8,83.2,408.8,82.5
		L408.8,82.5z"/>
</g>
</svg>
