<svg xmlns="http://www.w3.org/2000/svg" id="a" viewBox="0 0 446.4 196.57"><defs><style>.b{fill:#ed2024;}.c{fill:#ed1c24;}.d{fill:#262262;}</style></defs><g><path class="b" d="M92.57,78.85c1.67-.55,2.88,.59,3.12,1.73,.33,1.6,1.53,3.45-.45,5.06-4.3,3.49-4.51,6.04-.74,10.04,1.73,1.83-.28,2.73-.62,4.03-.34,1.3-1.27,1.92-2.64,1.67-5-.91-7.69,1.4-7.39,6.53,.05,.83,.11,1.13-.7,1.65-2.91,1.88-4.96,1.41-6.42-1.71-.57-1.22-4.42-1.7-5.68-1.23-1.72,.65-2.19,3.06-4.55,2.76-2.28-.3-4.06-2.51-3.4-4.66,1.14-3.69-2.05-7.44-5.83-6.88-.38,.06-.86,0-1.19-.19-2.34-1.24-2.56-5.75-.38-7.18,3.04-2,3.38-5.68,1.03-8.44-.96-1.12-2.09-2.48-.97-4.3,1.01-1.64,1.59-3.02,4.26-2.18,3.14,1,6.07-2.06,6.13-5.52,.04-2.05,1.14-3.19,3.16-3.98,2.17-.85,2.82,.44,3.74,1.71,1.76,2.44,4.29,3,7.08,1.97,1.06-.39,.94-1.33,1.55-1.91,1.24-1.17,2.09-.71,3.39-.21,3.55,1.34,1.76,4.29,2.21,6.54,.5,2.5,2.63,5.36,5.28,4.7Zm-17.79,17.53c4.01-.09,8.4-4.01,8.46-7.56,.08-4.72-4.35-9.29-8.79-9.06-2.74,.14-7.14,4.64-7.15,7.32-.03,4.86,3.61,9.38,7.48,9.3Z"></path><path class="d" d="M48.96,55.48c-.5,1.86-1.71,3.23-1.04,5.21,.73,2.15,1.25,4.03,4.03,4.52,3.3,.58,3.9,2.08,3.41,5.47-.22,1.5-1.39,1.6-2.16,1.97-2.95,1.41-4.43,6.14-1.94,8.83,1.35,1.46,.95,2.1,.28,3.36-1.48,2.79-2.11,3.1-5.02,1.97-2.48-.96-5.9,1.25-6.13,3.97-.26,3.06-3.63,5.23-6.3,4-.32-.15-.64-.6-.71-.96-1.06-5.4-5.61-5.59-9.52-2.68-.34,.26-.32,.66-1.03,.57-1.97-.25-2.73-1.95-3.85-3.11-.46-.48,.28-1.73,.69-2.61,1.24-2.69-.61-6.38-3.55-7.26-2.74-.82-4.15-3.13-3.5-5.95,.19-.83,.74-1.52,1.64-1.93,3.52-1.63,4.5-5.97,1.88-8.7-1.11-1.16-.81-2.01-.15-3.14,1.22-2.09,2.54-3.07,5.29-2.28,3.59,1.03,5.31-.42,6.19-4.11,.51-2.13,1.36-3.82,4.02-3.98,1.4-.08,2.2,.39,2.67,1.5,1.96,4.62,5.11,5.73,9.13,2.85,1.17-.84,1.75-.72,2.64,.05,1.02,.88,2.09,1.7,3.02,2.46Zm-7.55,16.16c-.32-4.85-3.8-8.3-8.06-8.03-4.44,.29-7.47,4.67-7.07,10.23,.18,2.45,5.06,6.59,7.54,6.39,4.36-.35,7.88-4.33,7.59-8.59Z"></path><path class="d" d="M22.73,109.97c2.65,.17,5.52-3.49,4.91-5.89-.83-3.25,.11-4.9,3.25-6.04,1.07-.39,1.52,.2,2.13,.77,3.67,3.44,6.9,2.77,8.9-1.87,.32-.74,.99-.88,1.53-1.02,2.46-.65,4.85,1.17,5.03,3.72,.31,4.41,3.11,6.33,7.19,4.95,1.75-.59,3.82,1.38,3.92,3.64,.07,1.7-.91,2.92-1.75,4.21-1.46,2.26-.71,5.31,1.53,6.75,1,.65,2.43,1.5,2.57,2.43,.21,1.42-.23,3.14-.94,4.43-.63,1.14-2.33,.79-3.53,1-2.71,.48-4.86,3.71-4.01,6.39,.84,2.65-.28,5-2.87,5.7-1.2,.33-2.61-.15-2.99-1.24-.87-2.53-2.68-1.18-4.06-1.17-1.44,0-3.01-.12-3.7,1.94-.83,2.44-4.55,3.36-6.44,1.76-1.09-.92-.96-2.62-.9-3.69,.13-2.19-1.24-3.07-2.5-4.12-1.29-1.07-3.02-.74-4.3-.32-1.59,.51-2.74,.38-3.33-.99-.6-1.4-3-2.59-.54-4.64,2.67-2.23,2.04-5.17,.97-8.07-.36-.98-1.17-1.19-1.83-1.5-1.8-.84-2.34-2.18-1.69-3.89,.64-1.68,1.11-3.78,3.48-3.26Zm10.11,8.55c-.02,4.02,2.44,8.19,7.39,8.12,4.37-.06,8-3.34,8.24-7.71,.21-3.9-3.85-8.54-7.68-8.76-4.05-.24-7.84,3.74-7.95,8.34Z"></path></g><g><path class="d" d="M123.01,77.71h-9.64v7.6h7.71c.54,0,.81,.27,.81,.81v2.24h-8.52v10.61h-2.84c-.56,0-.84-.27-.84-.81v-23.46h12.51c.54,0,.81,.27,.81,.81v2.21Z"></path><path class="d" d="M139.13,81.14c.56,0,.84,.27,.84,.81v17.02h-2.14c-.26,0-.47-.06-.65-.18-.18-.12-.29-.35-.33-.7l-.14-1.09c-1.45,1.56-3.31,2.35-5.57,2.35-.96,0-1.78-.15-2.45-.44-.68-.29-1.23-.7-1.65-1.23-.42-.53-.73-1.17-.93-1.93-.2-.76-.3-1.59-.3-2.5v-12.11h2.7c.26,0,.46,.07,.61,.21,.15,.14,.23,.34,.23,.6v11.03c0,1.21,.26,2.08,.77,2.61,.51,.53,1.26,.79,2.24,.79s1.78-.19,2.45-.58c.68-.39,1.21-.78,1.61-1.17v-13.48h2.7Z"></path><path class="d" d="M145.09,98.96c-.56,0-.84-.27-.84-.81v-17.02h2.14c.26,0,.47,.06,.65,.17,.18,.12,.29,.35,.33,.7l.14,1.09c1.45-1.56,3.31-2.35,5.57-2.35,1.92,0,3.28,.55,4.1,1.66,.82,1.11,1.23,2.59,1.23,4.43v12.11h-2.7c-.26,0-.46-.07-.61-.21-.15-.14-.23-.34-.23-.6v-11.03c0-1.21-.26-2.08-.77-2.61-.51-.53-1.26-.79-2.24-.79s-1.78,.19-2.45,.58c-.68,.39-1.21,.78-1.61,1.17v13.48h-2.7Z"></path><path class="d" d="M174.07,98.47c-.54,.23-1.23,.44-2.07,.61-.84,.17-1.73,.26-2.66,.26-1.31,0-2.42-.2-3.33-.61-.91-.41-1.65-1-2.21-1.79-.56-.78-.97-1.75-1.23-2.91-.26-1.16-.39-2.47-.39-3.94,0-3.27,.58-5.64,1.73-7.13,1.16-1.48,2.94-2.22,5.34-2.22,.79,0,1.58,.06,2.35,.19,.77,.13,1.33,.27,1.68,.44,.26,.12,.44,.27,.54,.46,.11,.19,.16,.41,.16,.67v1.51c-.75-.12-1.46-.2-2.14-.26-.68-.06-1.26-.09-1.75-.09-.79,0-1.47,.1-2.01,.3-.55,.2-1,.54-1.35,1.03-.35,.49-.6,1.14-.75,1.94-.15,.81-.23,1.8-.23,2.99,0,1.33,.09,2.42,.28,3.26,.19,.84,.46,1.5,.81,1.98,.35,.48,.78,.81,1.3,.98,.51,.18,1.11,.26,1.79,.26s1.33-.04,1.94-.12c.62-.08,1.07-.12,1.35-.12,.56,0,.84,.28,.84,.84v1.47Z"></path><path class="d" d="M186.3,98.86c-.54,.14-1.05,.25-1.52,.32-.48,.07-.98,.11-1.49,.11-1.68,0-2.9-.37-3.66-1.12-.76-.75-1.14-1.93-1.14-3.54v-10.68h-1.23c-.56,0-.84-.27-.84-.81v-2h2.14l.18-4.62h2.45c.56,0,.84,.27,.84,.81v3.82h3.43c.26,0,.46,.07,.61,.21,.15,.14,.23,.34,.23,.6v2h-4.28v10.5c0,.63,.11,1.12,.32,1.47,.21,.35,.63,.53,1.26,.53,.4,0,.73,0,1-.02,.27-.01,.52-.02,.75-.02,.63,0,.95,.27,.95,.81v1.65Z"></path><path class="d" d="M191.52,78.34c-.77,0-1.33-.15-1.66-.44-.34-.29-.51-.79-.51-1.49s.17-1.17,.51-1.47c.34-.3,.89-.46,1.66-.46s1.3,.15,1.65,.46c.35,.3,.53,.79,.53,1.47s-.18,1.2-.53,1.49c-.35,.29-.9,.44-1.65,.44Zm1.79,20.62h-2.7c-.56,0-.84-.27-.84-.81v-17.02h2.7c.56,0,.84,.27,.84,.81v17.02Z"></path><path class="d" d="M204.73,99.38c-2.64,0-4.55-.75-5.73-2.24-1.18-1.49-1.77-3.86-1.77-7.11s.59-5.58,1.77-7.07c1.18-1.49,3.09-2.24,5.73-2.24s4.55,.75,5.73,2.24c1.18,1.49,1.77,3.85,1.77,7.07s-.59,5.61-1.77,7.11c-1.18,1.49-3.09,2.24-5.73,2.24Zm3.92-9.35c0-1.26-.08-2.31-.23-3.15-.15-.84-.39-1.51-.7-2.01-.32-.5-.72-.86-1.23-1.07-.5-.21-1.09-.32-1.77-.32s-1.27,.11-1.77,.32c-.5,.21-.91,.57-1.23,1.07-.32,.5-.55,1.17-.7,2.01-.15,.84-.23,1.89-.23,3.15s.08,2.35,.23,3.2c.15,.85,.39,1.53,.7,2.03,.32,.5,.72,.85,1.23,1.05,.5,.2,1.09,.3,1.77,.3s1.27-.1,1.77-.3c.5-.2,.91-.55,1.23-1.05,.32-.5,.55-1.18,.7-2.03,.15-.85,.23-1.92,.23-3.2Z"></path><path class="d" d="M216.92,98.96c-.56,0-.84-.27-.84-.81v-17.02h2.14c.26,0,.47,.06,.65,.17,.18,.12,.29,.35,.33,.7l.14,1.09c1.45-1.56,3.31-2.35,5.57-2.35,1.92,0,3.28,.55,4.1,1.66,.82,1.11,1.23,2.59,1.23,4.43v12.11h-2.7c-.26,0-.46-.07-.61-.21-.15-.14-.23-.34-.23-.6v-11.03c0-1.21-.26-2.08-.77-2.61-.51-.53-1.26-.79-2.24-.79s-1.78,.19-2.45,.58c-.68,.39-1.22,.78-1.61,1.17v13.48h-2.7Z"></path><path class="d" d="M239.14,99.28c-1.82,0-3.18-.5-4.06-1.51-.89-1-1.33-2.39-1.33-4.17,0-1.1,.17-2.01,.51-2.73,.34-.72,.82-1.3,1.44-1.73,.62-.43,1.35-.74,2.19-.91,.84-.18,1.75-.26,2.73-.26h3.61v-1.19c0-1.21-.32-2.04-.95-2.49-.63-.44-1.71-.67-3.22-.67-1.03,0-1.95,.05-2.77,.16-.82,.11-1.36,.16-1.61,.16-.3,0-.52-.08-.65-.23-.13-.15-.19-.34-.19-.58v-1.51c.82-.26,1.74-.47,2.77-.63,1.03-.16,2.08-.25,3.15-.25,1.33,0,2.44,.15,3.33,.44,.89,.29,1.6,.71,2.14,1.24,.54,.54,.92,1.19,1.14,1.96,.22,.77,.33,1.62,.33,2.56v12.01h-2.14c-.4,0-.64-.09-.74-.26-.09-.17-.16-.38-.21-.61l-.14-1.05c-.61,.58-1.34,1.1-2.19,1.56-.85,.46-1.9,.68-3.14,.68Zm1.37-8.82c-.7,0-1.29,.08-1.75,.23-.47,.15-.84,.36-1.1,.63s-.46,.59-.56,.96c-.11,.37-.16,.78-.16,1.23,0,1.07,.26,1.86,.77,2.35,.51,.49,1.3,.74,2.35,.74,.93,0,1.74-.18,2.42-.54,.68-.36,1.26-.78,1.75-1.24v-4.34h-3.71Z"></path><path class="d" d="M255.43,94.83c0,.63,.11,1.04,.32,1.23,.21,.19,.58,.29,1.12,.32,.37,.02,.65,.08,.84,.17,.19,.09,.28,.32,.28,.67v1.61c-.37,.12-.76,.2-1.16,.26-.4,.06-.83,.09-1.3,.09-.72,0-1.32-.11-1.79-.33-.47-.22-.84-.55-1.12-1-.28-.44-.47-1-.58-1.66-.11-.67-.16-1.44-.16-2.33v-20.03h2.7c.26,0,.46,.07,.61,.21,.15,.14,.23,.34,.23,.6v20.2Z"></path><path class="d" d="M269.27,98.96c-.56,0-.84-.27-.84-.81v-23.46h2.84c.56,0,.84,.27,.84,.81v23.46h-2.84Z"></path><path class="d" d="M277.54,98.96c-.56,0-.84-.27-.84-.81v-17.02h2.14c.26,0,.47,.06,.65,.17,.18,.12,.29,.35,.33,.7l.14,1.09c1.45-1.56,3.31-2.35,5.57-2.35,1.92,0,3.28,.55,4.1,1.66,.82,1.11,1.23,2.59,1.23,4.43v12.11h-2.7c-.26,0-.46-.07-.61-.21-.15-.14-.23-.34-.23-.6v-11.03c0-1.21-.26-2.08-.77-2.61-.51-.53-1.26-.79-2.24-.79s-1.78,.19-2.45,.58c-.68,.39-1.22,.78-1.61,1.17v13.48h-2.7Z"></path><path class="d" d="M294.64,89.89c0-1.75,.17-3.2,.51-4.36,.34-1.16,.86-2.08,1.56-2.77,.7-.69,1.58-1.17,2.65-1.45,1.06-.28,2.32-.42,3.77-.42,.93,0,1.9,.05,2.91,.14,1,.09,1.86,.2,2.56,.32,.44,.07,.78,.17,1,.32,.22,.14,.33,.42,.33,.84v1.51h-1.33c.07,1.47,.12,2.92,.14,4.36,.02,1.44,.04,2.85,.04,4.25v6.27c0,2.05-.57,3.62-1.72,4.69-1.14,1.07-2.92,1.61-5.33,1.61-.37,0-.79-.02-1.26-.05-.47-.04-.94-.08-1.42-.14-.48-.06-.93-.13-1.37-.21-.43-.08-.79-.18-1.07-.3-.3-.12-.5-.26-.58-.44-.08-.18-.12-.39-.12-.65v-1.47c.82,.12,1.63,.21,2.45,.28,.82,.07,1.6,.11,2.35,.11,1.71,0,2.89-.24,3.56-.72,.67-.48,1-1.3,1-2.47v-2.17c-.68,.47-1.36,.83-2.05,1.09-.69,.26-1.5,.39-2.44,.39-1.22,0-2.21-.21-3-.63-.78-.42-1.41-1.01-1.87-1.77-.47-.76-.79-1.66-.98-2.7-.19-1.04-.28-2.19-.28-3.45Zm3.54-.07c0,1.1,.07,2.02,.21,2.77,.14,.75,.36,1.35,.65,1.82,.29,.47,.67,.8,1.14,1,.47,.2,1.02,.3,1.65,.3,.75,0,1.38-.11,1.91-.33,.53-.22,1.03-.5,1.52-.82v-10.78c-.37-.05-.75-.08-1.14-.09-.39-.01-.74-.02-1.07-.02-.86,0-1.6,.08-2.21,.25-.61,.16-1.11,.47-1.51,.93-.4,.46-.69,1.08-.88,1.87-.19,.79-.28,1.83-.28,3.12Z"></path><path class="d" d="M321.35,81.03c.47,0,.78,.08,.95,.23,.16,.15,.25,.36,.25,.61v2.35c-.16-.02-.33-.04-.49-.04h-.46c-.96,0-1.83,.15-2.61,.46-.78,.3-1.51,.82-2.19,1.54v12.78h-2.7c-.56,0-.84-.27-.84-.81v-17.02h2.14c.3,0,.53,.06,.67,.19,.14,.13,.25,.36,.32,.68l.14,1.54c.54-.65,1.23-1.24,2.07-1.75,.84-.51,1.76-.77,2.77-.77Z"></path><path class="d" d="M327.94,91.36c.05,.93,.15,1.73,.32,2.38,.16,.65,.44,1.18,.82,1.59,.39,.41,.91,.71,1.56,.89,.65,.19,1.49,.28,2.52,.28,.91,0,1.74-.05,2.49-.14,.75-.09,1.26-.14,1.54-.14,.54,0,.81,.26,.81,.77v1.47c-.56,.23-1.33,.44-2.3,.61-.97,.17-2.09,.26-3.35,.26-1.33,0-2.49-.16-3.47-.49-.98-.33-1.79-.86-2.44-1.59-.64-.74-1.12-1.69-1.42-2.87-.3-1.18-.46-2.61-.46-4.29s.15-3.12,.46-4.31c.3-1.19,.76-2.16,1.38-2.92,.62-.76,1.38-1.31,2.3-1.65,.91-.34,1.97-.51,3.19-.51,1.35,0,2.46,.19,3.33,.58,.86,.39,1.54,.9,2.03,1.56,.49,.65,.83,1.42,1.02,2.29,.19,.88,.28,1.82,.28,2.82,0,.68-.04,1.33-.11,1.96s-.16,1.11-.28,1.44h-10.23Zm7.39-2.49c.02-.23,.04-.41,.04-.53v-.46c0-1.49-.23-2.62-.68-3.38-.46-.76-1.35-1.14-2.68-1.14-.79,0-1.45,.13-1.96,.39-.51,.26-.92,.62-1.23,1.09-.3,.47-.52,1.04-.65,1.73-.13,.69-.2,1.45-.23,2.29h7.39Z"></path><path class="d" d="M347.94,99.28c-2.1,0-3.63-.78-4.57-2.33-.95-1.55-1.42-3.8-1.42-6.74,0-3.36,.58-5.77,1.73-7.23,1.16-1.46,2.9-2.19,5.24-2.19,.98,0,1.79,.09,2.44,.28,.64,.19,1.13,.37,1.45,.56v-7.81h2.7c.26,0,.46,.07,.61,.21,.15,.14,.23,.34,.23,.6v24.33h-2.14c-.26,0-.47-.06-.65-.18-.18-.12-.29-.35-.33-.7l-.14-1.09c-.54,.58-1.22,1.11-2.05,1.58-.83,.47-1.86,.7-3.1,.7Zm4.87-15.16c-.44-.19-.92-.34-1.42-.46-.5-.12-1.06-.18-1.66-.18-.82,0-1.5,.12-2.05,.35-.55,.23-.98,.61-1.3,1.14s-.54,1.2-.67,2.03c-.13,.83-.19,1.84-.19,3.03,0,2.22,.25,3.83,.74,4.83,.49,1,1.4,1.51,2.73,1.51,.93,0,1.71-.18,2.33-.54,.62-.36,1.12-.73,1.49-1.1v-10.61Z"></path><path class="d" d="M362.45,78.34c-.77,0-1.33-.15-1.66-.44-.34-.29-.51-.79-.51-1.49s.17-1.17,.51-1.47c.34-.3,.89-.46,1.66-.46s1.3,.15,1.65,.46c.35,.3,.53,.79,.53,1.47s-.18,1.2-.53,1.49c-.35,.29-.9,.44-1.65,.44Zm1.79,20.62h-2.7c-.56,0-.84-.27-.84-.81v-17.02h2.7c.56,0,.84,.27,.84,.81v17.02Z"></path><path class="d" d="M371.53,91.36c.05,.93,.15,1.73,.32,2.38,.16,.65,.44,1.18,.82,1.59,.39,.41,.91,.71,1.56,.89,.65,.19,1.49,.28,2.52,.28,.91,0,1.74-.05,2.49-.14,.75-.09,1.26-.14,1.54-.14,.54,0,.81,.26,.81,.77v1.47c-.56,.23-1.33,.44-2.3,.61-.97,.17-2.09,.26-3.35,.26-1.33,0-2.49-.16-3.47-.49-.98-.33-1.79-.86-2.44-1.59-.64-.74-1.12-1.69-1.42-2.87-.3-1.18-.46-2.61-.46-4.29s.15-3.12,.46-4.31c.3-1.19,.76-2.16,1.38-2.92,.62-.76,1.38-1.31,2.3-1.65,.91-.34,1.97-.51,3.19-.51,1.35,0,2.46,.19,3.33,.58,.86,.39,1.54,.9,2.03,1.56,.49,.65,.83,1.42,1.02,2.29,.19,.88,.28,1.82,.28,2.82,0,.68-.04,1.33-.11,1.96s-.16,1.11-.28,1.44h-10.23Zm7.39-2.49c.02-.23,.04-.41,.04-.53v-.46c0-1.49-.23-2.62-.68-3.38-.46-.76-1.35-1.14-2.68-1.14-.79,0-1.45,.13-1.96,.39-.51,.26-.92,.62-1.23,1.09-.3,.47-.52,1.04-.65,1.73-.13,.69-.2,1.45-.23,2.29h7.39Z"></path><path class="d" d="M386.81,98.96c-.56,0-.84-.27-.84-.81v-17.02h2.14c.26,0,.47,.06,.65,.17,.18,.12,.29,.35,.33,.7l.14,1.09c1.45-1.56,3.31-2.35,5.57-2.35,1.92,0,3.28,.55,4.1,1.66,.82,1.11,1.23,2.59,1.23,4.43v12.11h-2.7c-.26,0-.46-.07-.61-.21-.15-.14-.23-.34-.23-.6v-11.03c0-1.21-.26-2.08-.77-2.61-.51-.53-1.26-.79-2.24-.79s-1.78,.19-2.45,.58c-.68,.39-1.22,.78-1.61,1.17v13.48h-2.7Z"></path><path class="d" d="M413.16,98.86c-.54,.14-1.05,.25-1.52,.32-.48,.07-.98,.11-1.49,.11-1.68,0-2.9-.37-3.66-1.12-.76-.75-1.14-1.93-1.14-3.54v-10.68h-1.23c-.56,0-.84-.27-.84-.81v-2h2.14l.18-4.62h2.45c.56,0,.84,.27,.84,.81v3.82h3.43c.26,0,.46,.07,.61,.21,.15,.14,.23,.34,.23,.6v2h-4.28v10.5c0,.63,.11,1.12,.32,1.47s.63,.53,1.26,.53c.4,0,.73,0,1-.02,.27-.01,.52-.02,.75-.02,.63,0,.95,.27,.95,.81v1.65Z"></path><path class="d" d="M416,96.06c.75,.09,1.58,.18,2.49,.26,.91,.08,1.8,.12,2.66,.12,1.54,0,2.58-.2,3.12-.6,.54-.4,.81-1.03,.81-1.89,0-.4-.05-.73-.16-1-.11-.27-.3-.5-.58-.7-.28-.2-.66-.38-1.14-.54-.48-.16-1.09-.34-1.84-.53-.82-.21-1.57-.43-2.26-.65-.69-.22-1.28-.52-1.77-.89-.49-.37-.87-.85-1.14-1.42-.27-.57-.4-1.31-.4-2.22,0-1.89,.55-3.24,1.65-4.04,1.1-.81,2.64-1.21,4.63-1.21,.4,0,.83,.02,1.3,.05,.47,.03,.92,.08,1.37,.14,.44,.06,.86,.13,1.24,.21,.39,.08,.71,.17,.96,.26,.26,.12,.44,.25,.54,.39s.16,.36,.16,.67v1.51c-1.05-.12-1.97-.2-2.75-.26-.78-.06-1.49-.09-2.12-.09-1.33,0-2.26,.18-2.79,.53-.53,.35-.79,.91-.79,1.68,0,.42,.07,.76,.21,1.03,.14,.27,.36,.5,.67,.68,.3,.19,.7,.36,1.19,.51,.49,.15,1.07,.31,1.75,.47,.79,.21,1.53,.43,2.21,.65,.68,.22,1.26,.51,1.75,.88,.49,.36,.87,.84,1.14,1.44,.27,.6,.4,1.36,.4,2.29,0,1.03-.16,1.9-.47,2.61-.32,.71-.77,1.29-1.35,1.73-.58,.44-1.28,.76-2.09,.95-.81,.19-1.7,.28-2.68,.28-.42,0-.88-.02-1.38-.05-.5-.04-1-.09-1.49-.16-.49-.07-.95-.15-1.37-.23s-.75-.17-.98-.26c-.28-.12-.47-.26-.56-.44-.09-.18-.14-.39-.14-.65v-1.51Z"></path><path class="c" d="M113.48,117.01h-5.24c-1.03,0-1.54-.48-1.54-1.46v-4.49h19.27c1.03,0,1.54,.49,1.54,1.46v4.49h-6.74v22.87h-5.74c-1.03,0-1.54-.48-1.54-1.46v-21.41Z"></path><path class="c" d="M140.62,132.81h-5.83c-.17,1.28-.32,2.54-.46,3.78-.14,1.25-.24,2.34-.29,3.29h-5.58c-.39,0-.7-.12-.94-.37-.24-.25-.35-.67-.35-1.25,0-.25,.01-.51,.04-.79,.03-.28,.07-.54,.12-.79,.75-4.55,1.6-8.91,2.54-13.1,.94-4.19,2.14-8.36,3.58-12.52h7.53c.55,0,.94,.14,1.17,.42,.22,.28,.39,.57,.5,.87,1.25,3.72,2.39,7.92,3.41,12.62,1.03,4.7,1.94,9.67,2.75,14.91h-5.99c-.89,0-1.4-.5-1.54-1.5l-.67-5.57Zm-2.91-16.42c-.58,2.33-1.05,4.39-1.39,6.17-.35,1.79-.67,3.49-.98,5.09h4.74c-.31-1.61-.63-3.31-.98-5.09-.35-1.79-.81-3.85-1.39-6.17Z"></path><path class="c" d="M153.89,139.88c-1.03,0-1.54-.48-1.54-1.46v-27.36h5.74c1.03,0,1.54,.49,1.54,1.46v27.36h-5.74Z"></path><path class="c" d="M166.13,139.88c-1.03,0-1.54-.48-1.54-1.46v-27.36h5.74c1.03,0,1.54,.49,1.54,1.46v21.41h7.74c1.03,0,1.54,.49,1.54,1.46v4.49h-15.02Z"></path><path class="c" d="M204.67,125.49c0,3.22-.26,5.81-.79,7.78-.53,1.97-1.26,3.49-2.21,4.55-.94,1.07-2.09,1.77-3.43,2.12-1.35,.35-2.82,.52-4.43,.52s-3.12-.17-4.45-.52-2.47-1.05-3.41-2.12c-.94-1.07-1.68-2.58-2.21-4.55-.53-1.97-.79-4.56-.79-7.78s.26-5.81,.79-7.78c.53-1.97,1.26-3.49,2.21-4.55,.94-1.07,2.08-1.77,3.41-2.12,1.33-.35,2.82-.52,4.45-.52s3.09,.17,4.43,.52c1.35,.35,2.49,1.05,3.43,2.12,.94,1.07,1.68,2.59,2.21,4.55,.53,1.97,.79,4.56,.79,7.78Zm-14.36,0c0,1.97,.05,3.56,.15,4.76,.1,1.21,.27,2.14,.52,2.81,.25,.67,.6,1.11,1.06,1.33,.46,.22,1.05,.33,1.77,.33s1.31-.11,1.77-.33c.46-.22,.81-.67,1.06-1.33,.25-.67,.42-1.6,.52-2.81,.1-1.21,.15-2.79,.15-4.76s-.05-3.51-.15-4.72c-.1-1.21-.27-2.14-.52-2.81-.25-.67-.6-1.12-1.06-1.35-.46-.24-1.05-.35-1.77-.35s-1.31,.12-1.77,.35c-.46,.24-.81,.69-1.06,1.35-.25,.67-.42,1.6-.52,2.81-.1,1.21-.15,2.78-.15,4.72Z"></path><path class="c" d="M210.66,139.88c-1.03,0-1.54-.48-1.54-1.46v-26.86c1.55-.3,3.11-.53,4.68-.69,1.57-.15,3.11-.23,4.64-.23,3.33,0,5.83,.73,7.49,2.2,1.66,1.47,2.5,3.87,2.5,7.19,0,.69-.06,1.41-.19,2.14-.12,.73-.33,1.44-.62,2.12-.29,.68-.69,1.31-1.21,1.89-.51,.58-1.16,1.08-1.94,1.5,.58,.75,1.14,1.6,1.69,2.56,.54,.96,1.05,1.98,1.52,3.06,.47,1.08,.9,2.18,1.29,3.31,.39,1.12,.71,2.21,.96,3.26h-5.99c-.5,0-.9-.1-1.21-.29-.31-.19-.54-.55-.71-1.08-.5-1.66-1.11-3.31-1.83-4.95-.72-1.64-1.4-3.02-2.04-4.16h-1.96v10.48h-5.54Zm5.54-15.76h2.21c.42,0,.81-.06,1.19-.19,.37-.12,.71-.34,1-.64,.29-.3,.52-.72,.69-1.25,.17-.53,.25-1.21,.25-2.04,0-.89-.07-1.59-.21-2.12-.14-.53-.35-.94-.62-1.23-.28-.29-.62-.48-1.04-.58-.42-.1-.89-.15-1.42-.15h-.44c-.18,0-.37,0-.56,.02-.19,.01-.39,.03-.58,.04-.19,.01-.35,.02-.46,.02v8.11Z"></path><path class="c" d="M248.74,111.06c1.03,0,1.54,.49,1.54,1.46v4.28h-10.07v5.49h7.32c1.03,0,1.54,.49,1.54,1.46v4.28h-8.86v6.11h8.95c1.03,0,1.54,.49,1.54,1.46v4.28h-16.02c-1.03,0-1.54-.48-1.54-1.46v-27.36h15.61Z"></path><path class="c" d="M256.27,139.88c-1.03,0-1.54-.48-1.54-1.46v-26.86c1.61-.3,3.16-.53,4.64-.69,1.48-.15,2.96-.23,4.43-.23,1.91,0,3.61,.19,5.1,.56,1.48,.37,2.73,1.1,3.72,2.18,1,1.08,1.75,2.58,2.27,4.49,.51,1.91,.77,4.41,.77,7.48s-.25,5.52-.75,7.4c-.5,1.89-1.25,3.35-2.25,4.41-1,1.05-2.23,1.77-3.7,2.14-1.47,.37-3.16,.56-5.08,.56h-7.62Zm7.66-23.74c-.36,0-.73,0-1.1,.02-.37,.01-.67,.04-.89,.06v18.13h1.66c.92,0,1.67-.09,2.27-.27,.6-.18,1.07-.59,1.44-1.23,.36-.64,.62-1.57,.77-2.79,.15-1.22,.23-2.87,.23-4.95s-.07-3.58-.21-4.76c-.14-1.18-.37-2.08-.71-2.7s-.78-1.03-1.33-1.23c-.56-.19-1.26-.29-2.12-.29Z"></path></g><g><path class="d" d="M286.31,126.78h-3.62c-.36,0-.55-.17-.55-.52v-1.48h10.2c.17,0,.3,.05,.4,.14,.1,.09,.15,.22,.15,.39v1.48h-4.19v13.77h-1.84c-.36,0-.55-.17-.55-.52v-13.25Z"></path><path class="d" d="M305.42,132.67c0,1.68-.14,3.06-.41,4.12-.27,1.06-.66,1.89-1.16,2.48-.5,.59-1.1,1-1.81,1.22-.71,.22-1.48,.33-2.33,.33s-1.63-.11-2.32-.33c-.7-.22-1.3-.63-1.8-1.22-.5-.59-.89-1.42-1.16-2.48-.27-1.06-.41-2.44-.41-4.12s.14-3.06,.41-4.12c.27-1.06,.66-1.89,1.16-2.48,.5-.59,1.1-1,1.8-1.22,.7-.22,1.47-.33,2.32-.33s1.63,.11,2.33,.33c.71,.22,1.31,.63,1.81,1.22,.5,.59,.89,1.42,1.16,2.48,.27,1.06,.41,2.44,.41,4.12Zm-8.97,0c0,1.17,.05,2.14,.15,2.92,.1,.78,.27,1.41,.52,1.89,.25,.48,.58,.82,1,1.02,.42,.2,.95,.31,1.58,.31s1.17-.1,1.58-.31c.42-.2,.75-.55,1-1.02,.25-.48,.43-1.11,.54-1.89,.11-.78,.16-1.76,.16-2.92s-.05-2.14-.16-2.92c-.11-.78-.28-1.41-.54-1.89-.25-.48-.58-.82-1-1.02-.42-.2-.95-.31-1.58-.31s-1.17,.1-1.58,.31c-.42,.2-.75,.55-1,1.02-.25,.48-.43,1.11-.52,1.89-.1,.78-.15,1.76-.15,2.92Z"></path><path class="d" d="M316.63,140.55c-.36,0-.55-.17-.55-.52v-5.46c-.52-.86-.99-1.7-1.41-2.49-.43-.8-.81-1.59-1.16-2.39-.35-.8-.67-1.6-.97-2.4-.3-.8-.57-1.64-.81-2.5h2.07c.23,0,.38,.05,.44,.15,.07,.1,.13,.25,.19,.47,.14,.49,.3,1.01,.5,1.57,.2,.56,.41,1.15,.65,1.76,.24,.61,.5,1.24,.79,1.89,.29,.65,.61,1.29,.96,1.92,.35-.65,.69-1.35,1.01-2.08,.33-.74,.62-1.46,.89-2.16,.27-.71,.5-1.37,.69-1.98,.2-.61,.33-1.13,.41-1.54h1.78c.21,0,.36,.07,.46,.22,.09,.14,.1,.32,.02,.53-.27,.86-.55,1.68-.84,2.44-.29,.76-.6,1.5-.93,2.22-.33,.72-.69,1.44-1.08,2.15-.39,.71-.81,1.46-1.26,2.23v5.99h-1.84Z"></path><path class="d" d="M335.3,132.67c0,1.68-.14,3.06-.41,4.12-.27,1.06-.66,1.89-1.16,2.48-.5,.59-1.1,1-1.81,1.22-.71,.22-1.48,.33-2.33,.33s-1.63-.11-2.32-.33c-.7-.22-1.3-.63-1.8-1.22-.5-.59-.89-1.42-1.16-2.48-.27-1.06-.41-2.44-.41-4.12s.14-3.06,.41-4.12c.27-1.06,.66-1.89,1.16-2.48,.5-.59,1.1-1,1.8-1.22,.7-.22,1.47-.33,2.32-.33s1.63,.11,2.33,.33c.71,.22,1.31,.63,1.81,1.22,.5,.59,.89,1.42,1.16,2.48,.27,1.06,.41,2.44,.41,4.12Zm-8.97,0c0,1.17,.05,2.14,.15,2.92,.1,.78,.27,1.41,.52,1.89,.25,.48,.58,.82,1,1.02,.42,.2,.95,.31,1.58,.31s1.17-.1,1.58-.31c.42-.2,.75-.55,1-1.02,.25-.48,.43-1.11,.54-1.89,.11-.78,.16-1.76,.16-2.92s-.05-2.14-.16-2.92c-.11-.78-.28-1.41-.54-1.89-.25-.48-.58-.82-1-1.02-.42-.2-.95-.31-1.58-.31s-1.17,.1-1.58,.31c-.42,.2-.75,.55-1,1.02-.25,.48-.43,1.11-.52,1.89-.1,.78-.15,1.76-.15,2.92Z"></path><path class="d" d="M348.49,134.97c0,2-.41,3.47-1.22,4.42-.81,.94-2.14,1.41-4,1.41-.85,0-1.61-.09-2.27-.28-.66-.19-1.22-.51-1.66-.96-.45-.45-.79-1.04-1.03-1.79-.24-.74-.35-1.68-.35-2.8v-10.2h1.85c.36,0,.55,.17,.55,.52v9.92c0,.55,.04,1.04,.13,1.48,.08,.44,.23,.82,.44,1.13,.21,.31,.5,.55,.88,.71,.37,.16,.85,.24,1.45,.24s1.05-.08,1.41-.24c.36-.16,.65-.39,.87-.69,.21-.3,.36-.68,.44-1.12,.08-.44,.13-.95,.13-1.52v-10.42h1.85c.17,0,.3,.05,.4,.14,.1,.09,.15,.22,.15,.39v9.67Z"></path><path class="d" d="M352.14,140.55c-.36,0-.55-.17-.55-.52v-14.98c.67-.12,1.42-.22,2.25-.31,.83-.08,1.68-.13,2.53-.13,1.82,0,3.14,.4,3.96,1.19,.82,.8,1.23,2,1.23,3.61,0,1.14-.26,2.06-.79,2.78-.52,.71-1.22,1.22-2.08,1.52,.36,.44,.73,.96,1.1,1.55,.37,.59,.72,1.2,1.05,1.82,.33,.62,.62,1.24,.89,1.84,.27,.61,.47,1.15,.63,1.62h-1.98c-.21,0-.37-.04-.47-.13-.1-.08-.18-.21-.24-.38-.14-.38-.32-.82-.56-1.31-.24-.49-.49-1-.78-1.52-.28-.52-.59-1.05-.92-1.57-.33-.52-.68-1-1.03-1.42h-2.44v6.33h-1.82Zm1.82-8.17h2.51c.39,0,.76-.04,1.1-.13,.34-.08,.64-.23,.89-.44,.25-.21,.44-.51,.58-.9,.14-.39,.2-.88,.2-1.47s-.06-1.08-.18-1.46c-.12-.38-.3-.68-.54-.91-.24-.23-.54-.38-.9-.47-.36-.08-.79-.13-1.28-.13-.52,0-.98,.02-1.39,.05-.41,.03-.74,.07-1,.11v5.74Z"></path><path class="d" d="M379.88,140.55h-1.89c-.26,0-.46-.17-.61-.52-.24-.52-.53-1.11-.87-1.78-.33-.67-.69-1.37-1.07-2.09-.38-.73-.77-1.47-1.16-2.22-.4-.75-.77-1.46-1.14-2.14-.36-.67-.7-1.29-1-1.84-.3-.55-.55-1-.75-1.35v11.95h-1.73c-.36,0-.55-.17-.55-.52v-15.25h1.91c.17,0,.3,.05,.39,.15,.09,.1,.18,.22,.27,.38,.2,.35,.44,.79,.74,1.32,.3,.53,.62,1.12,.98,1.75,.36,.64,.73,1.31,1.1,2.03,.38,.71,.76,1.42,1.13,2.13,.37,.71,.73,1.39,1.07,2.05,.34,.66,.64,1.26,.9,1.79v-11.58h1.73c.36,0,.55,.17,.55,.52v15.25Z"></path><path class="d" d="M391.45,124.78c.35,0,.52,.17,.52,.52v1.43h-6.51v4.85h5.4c.35,0,.52,.17,.52,.52v1.46h-5.92v5.03h6.24c.17,0,.3,.05,.4,.14,.1,.09,.15,.22,.15,.39v1.43h-8.63c-.36,0-.55-.17-.55-.52v-15.25h8.38Z"></path><path class="d" d="M403.14,124.78c.35,0,.52,.17,.52,.52v1.43h-6.51v4.85h5.4c.35,0,.52,.17,.52,.52v1.46h-5.92v5.03h6.24c.17,0,.3,.05,.4,.14,.1,.09,.15,.22,.15,.39v1.43h-8.63c-.36,0-.55-.17-.55-.52v-15.25h8.38Z"></path><path class="d" d="M406.98,140.55c-.36,0-.55-.17-.55-.52v-14.98c.35-.06,.72-.12,1.13-.17,.4-.05,.81-.1,1.23-.14,.42-.04,.82-.07,1.22-.09,.39-.02,.77-.03,1.12-.03,1.08,0,2,.14,2.78,.41,.77,.27,1.41,.72,1.91,1.34,.5,.62,.87,1.44,1.1,2.46,.24,1.02,.35,2.26,.35,3.73s-.12,2.72-.35,3.73c-.24,1.02-.6,1.84-1.08,2.47-.49,.63-1.11,1.08-1.88,1.37-.77,.28-1.68,.42-2.74,.42h-4.24Zm4.05-14.02c-.35,0-.74,.02-1.16,.05-.43,.03-.77,.07-1.05,.11v11.95h2.16c.65,0,1.22-.07,1.71-.22,.49-.14,.89-.44,1.21-.88,.32-.44,.55-1.07,.71-1.88,.15-.81,.23-1.89,.23-3.22,0-1.18-.06-2.16-.19-2.92-.13-.77-.34-1.37-.64-1.82-.3-.45-.69-.75-1.17-.92-.49-.17-1.09-.25-1.8-.25Z"></path><path class="d" d="M419.49,128.9c0-1.44,.41-2.53,1.23-3.25,.82-.73,2.09-1.09,3.8-1.09,.64,0,1.28,.04,1.91,.13,.64,.08,1.13,.19,1.48,.31,.24,.11,.39,.22,.44,.35,.05,.13,.08,.28,.08,.44v1.05c-.56-.08-1.14-.14-1.73-.19-.59-.05-1.2-.08-1.82-.08s-1.09,.05-1.48,.15c-.4,.1-.71,.24-.95,.42-.24,.18-.4,.41-.5,.68-.1,.27-.15,.59-.15,.96,0,.41,.05,.75,.16,1.01,.11,.27,.28,.5,.54,.69,.25,.2,.58,.38,.98,.53,.4,.16,.9,.35,1.49,.56,.61,.23,1.16,.46,1.65,.68,.49,.23,.92,.51,1.28,.85,.36,.34,.63,.76,.82,1.25,.19,.49,.28,1.12,.28,1.88,0,1.64-.44,2.81-1.32,3.52-.88,.71-2.16,1.06-3.83,1.06-.73,0-1.44-.05-2.12-.15-.68-.1-1.22-.22-1.59-.35-.2-.08-.33-.17-.41-.3-.08-.12-.11-.27-.11-.46v-1.14c.53,.08,1.12,.15,1.77,.23,.65,.08,1.33,.11,2.06,.11,.64,0,1.17-.06,1.58-.17,.42-.11,.74-.27,.98-.48,.24-.2,.4-.46,.49-.76,.09-.3,.14-.64,.14-1.02,0-.42-.05-.77-.15-1.05-.1-.27-.27-.5-.51-.69-.24-.19-.57-.37-.97-.53-.4-.17-.91-.36-1.51-.57-.64-.23-1.2-.46-1.7-.71-.49-.24-.91-.53-1.25-.88s-.6-.75-.79-1.23c-.18-.48-.27-1.07-.27-1.76Z"></path></g></svg>