<?xml version="1.0" encoding="utf-8"?>
<!-- Generator: Adobe Illustrator 24.1.1, SVG Export Plug-In . SVG Version: 6.00 Build 0)  -->
<svg version="1.1" id="Layer_1" xmlns="http://www.w3.org/2000/svg" xmlns:xlink="http://www.w3.org/1999/xlink" x="0px" y="0px"
	 viewBox="0 0 358.9 600" style="enable-background:new 0 0 358.9 600;" xml:space="preserve">
<style type="text/css">
	.st0{opacity:0.19;}
	.st1{fill:#292561;stroke:#FFFFFF;stroke-linecap:round;stroke-linejoin:round;}
</style>
<g class="st0">
	<path class="st1" d="M593.2,219.3c-1.6-5.7-3.4-11.3-5.2-16.8c-1.5-4.4-3.1-8.8-4.8-13.1c-1.9-4.6-3.8-9.2-5.8-13.7
		c-10.6-23.3-24.1-44.8-39.9-64.2c0.3-0.2,0.6-0.4,0.9-0.6c-0.6-0.2-1.2-0.3-1.8-0.4c-2.7-3.4-5.6-6.6-8.5-9.8
		c-2.4-2.7-4.9-5.4-7.5-8c-17.3-17.8-36.7-33.4-57.8-46.5c-4.8-3-9.7-5.8-14.7-8.6C391.3,6.8,324.3-5.8,256.2,5.8H256
		c-2.3,0.4-4.6,0.8-6.9,1.2h-0.3c-2.3,0.5-4.5,1-6.8,1.6h-0.2C174.2,23.5,117,60.5,76,110.4c-3.6,4.4-7.1,8.9-10.4,13.5
		c-14.6,20-26.7,41.8-35.9,64.8c-1.4,3.4-2.7,6.8-3.9,10.3c-1.5,4.1-2.9,8.2-4.1,12.3c-0.5,0.4-1,0.7-1.6,1.1l1.2,0.2
		c-7.4,24.2-11.7,49.3-12.8,74.6C8.2,292,8.1,297,8.2,302c0,4.7,0.2,9.3,0.5,14c0.3,5.8,0.8,11.7,1.5,17.6
		c0.9,7.7,2.1,15.4,3.6,23.1c3.7,19.3,9.4,37.8,16.5,55.4c2.4,5.9,5,11.7,7.8,17.5c18,37,43.2,69.4,73.6,95.5
		c7.1,6.1,14.5,11.9,22.1,17.3c62.5,44.4,141.8,64.8,222.7,50.9c2.3-0.4,4.4-0.8,6.7-1.2h0.3l0.3-0.2c2.3-0.5,4.4-0.9,6.6-1.4
		c80.1-17.6,145.9-66.4,187.1-131.1c5-7.9,9.7-16,14-24.3C589.7,399.5,601,360,603.6,319c0.4-6.3,0.6-12.7,0.6-19.1
		c0-18.9-1.8-38.2-5.5-57.5c-1.5-7.7-3.4-15.4-5.4-22.8L593.2,219.3L593.2,219.3z M565.8,185c-3.7,2.8-7.4,5.6-11.4,8.4
		c-1.4,1-2.8,2-4.3,3c-4,2.8-8.1,5.5-12.2,8.2c-4.4,2.8-8.9,5.5-13.4,8.3c-8.4-26.6-19.5-51.4-32.8-74c11.8-6.2,23.1-12.8,33.7-19.6
		C541.6,139,555.2,161,565.8,185L565.8,185z M521.2,257.3c6.2,32,8.1,63.6,5.9,93.8c-19.4,10.2-40.2,19.7-62.3,28.4
		c0-34.9-3.6-71.8-10.8-109l-1.4-6.5c22.4-9,43.6-19,63.2-29.7C517.8,241.8,519.5,249.5,521.2,257.3L521.2,257.3z M91.2,341.4
		c-1.5-7.8-2.8-15.6-3.8-23.5c22.2,2.5,45.5,3.7,69.8,3.7c0.4,2.2,0.8,4.4,1.2,6.6c7.2,37.3,17.8,72.7,31,105.1
		c-23.7,0.3-46.6-0.6-68.4-2.8C107.7,403.4,97.5,373.3,91.2,341.4L91.2,341.4z M440,273.1c7.5,38.3,11,76.1,10.6,111.6
		c-35.6,13-74,23.9-114.2,32l-21.9-111.9c44-9,86-21.1,124.6-35.8C439.5,270.4,439.7,271.7,440,273.1z M433.9,494.8
		c-25.1,7.8-51.3,14.5-78.3,20l-16.4-83.9c38.8-8,76.2-18.3,111-30.7c-1.3,28.6-5.2,55.5-11.8,79.7C437,485,435.4,490,433.9,494.8
		L433.9,494.8z M251.8,516.3c-15.2-20-29-43.4-40.9-69.4c36.9-1.6,75.4-6.1,114.3-13.3l16.4,83.9c-27,5.1-53.9,8.7-80,11
		C258.2,524.5,254.9,520.4,251.8,516.3L251.8,516.3z M172.4,325.5c-0.2-1.3-0.5-2.7-0.8-4.1c41.3-0.9,84.8-5.6,128.9-13.9
		l21.9,111.9c-40.2,7.6-79.9,12-117.8,13.3C190.8,400,179.8,363.7,172.4,325.5L172.4,325.5z M161.8,223.2c9.7-0.4,19.5-0.9,29.4-1.6
		c29.5-2.3,59.7-6.2,90.2-11.9l16.4,83.9c-44.1,8.3-87.5,12.8-128.7,13.6C164.4,278.6,162,250.3,161.8,223.2L161.8,223.2z
		 M436.1,255c-38.4,14.7-80.4,26.9-124.4,35.9L295.3,207c30.4-6.2,59.9-14,88-23c9.4-3,18.8-6.2,27.9-9.6
		C421.2,199.5,429.6,226.6,436.1,255L436.1,255z M292.6,193l-16.4-84c30.2-6.2,59.4-13.8,87.3-22.8c15.9,21.6,30.2,46.9,42.3,75
		C370.5,174.1,332.4,184.9,292.6,193L292.6,193z M273.5,95l-14.7-75c30.8-2.6,64.2,16.4,95.5,54.4C328.4,82.5,301.4,89.3,273.5,95
		L273.5,95z M244.8,22.7l14.7,75.1c-27.9,5.2-55.7,9-82.6,11.3C191.5,62.1,215.2,31.9,244.8,22.7z M172.8,123.6
		c30-2.3,59.8-6.3,89.4-11.8l16.4,83.9c-39.9,7.5-79.2,11.9-116.8,13.3C162.5,178.3,166.2,149.5,172.8,123.6L172.8,123.6z
		 M344.3,531.6l9.3,47.2c-25.7,2.2-53.2-10.7-79.7-37.1C297.5,539.3,321,535.9,344.3,531.6L344.3,531.6z M367.5,576.1l-9.3-47.2
		c23.3-4.7,46.3-10.5,69.1-17.1C412.7,546.1,392.1,568.4,367.5,576.1L367.5,576.1z M424.6,169.4c19.1-7.4,37.3-15.4,54.5-24
		c13.4,22.7,24.6,47.8,32.7,74.7c-19.3,10.7-40.1,20.6-62.4,29.6C442.9,221.5,434.5,194.5,424.6,169.4L424.6,169.4z M419.1,156.3
		c-11.9-27.7-25.9-52.9-41.4-74.7C389.9,77.4,402,73,414,68.1c21.4,17.8,40.9,39.8,57.5,65.2C455.1,141.5,437.5,149.2,419.1,156.3
		L419.1,156.3z M368.7,69.6c-17.3-21.8-35.5-38.3-53.9-49.2c30.2,5.3,59.5,18.2,86,37.5C390.2,62,379.5,65.9,368.7,69.6z
		 M161.6,110.1c-11.5,0.7-23,1.2-34.2,1.3C144.8,83.6,167,60.6,193,44.3C180.1,61.2,169.4,83.3,161.6,110.1L161.6,110.1z
		 M157.8,124.6c-6.2,26-9.6,54.6-10.2,84.8c-19.6,0.3-38.8-0.2-57.2-1.6c5.8-29.8,15.5-57.4,28.7-82
		C131.8,125.9,144.7,125.5,157.8,124.6L157.8,124.6z M147.5,223.7c0.2,27,2.6,55.3,7.2,83.8c-23.9,0-47-1.3-68.9-4
		C83.3,275.4,84.1,248,88,222C107.1,223.5,127,224,147.5,223.7z M195.4,447.5c12.9,29.1,28.1,55.4,45.1,77.6
		c1.2,1.6,2.5,3.3,3.7,4.8c-15.3,0.9-30.3,1.5-45.1,1.5c-27.2-22.4-51.3-51.5-70.3-85.7C150.1,447.4,172.4,447.9,195.4,447.5
		L195.4,447.5z M255.6,543.3c13.6,15,27.7,26.7,41.9,35c-27.7-4.8-54.7-16.2-79.6-33C230.3,545,242.9,544.3,255.6,543.3L255.6,543.3
		z M444.9,506.3c12-3.8,23.9-8,35.8-12.4l-61.3,60.6C429.3,541.5,437.8,525.3,444.9,506.3z M450.4,489.5c0.5-1.9,1.2-3.9,1.6-5.9
		c7.3-26.9,11.5-56.9,12.5-88.8c21.4-8.2,41.9-17.1,61-26.8c-4.7,38.9-16,74.9-32.8,105.9C478.7,479.5,464.6,484.7,450.4,489.5
		L450.4,489.5z M496,88.7c6,5.5,11.8,11.1,17.4,17.1c0.9,0.9,1.7,1.7,2.5,2.6c-10.1,6.3-20.7,12.4-31.7,18.3
		C468.1,101.9,449.3,80,428.6,62c6.4-2.7,12.7-5.6,18.9-8.5C464.8,63.4,481,75.3,496,88.7L496,88.7z M431.7,45.1
		c-5.1,2.3-10.3,4.4-15.5,6.6c-15-11.7-31-21.5-47.5-29.1C390.5,27.6,411.6,35.2,431.7,45.1z M143.8,66.6
		C131.4,80,120.3,95,110.7,111.5c-5.7,0-11.3-0.2-16.8-0.3C108.6,94.5,125.4,79.6,143.8,66.6z M82.5,124.9
		c6.8,0.4,13.6,0.6,20.7,0.8c-12.3,24.6-21.5,51.8-27,80.9c-12.5-1.2-24.6-2.9-36.2-5c0.4-1.2,0.9-2.3,1.3-3.4
		c2.9-7.6,6.2-15,9.7-22.4C59.6,157.8,70.3,140.7,82.5,124.9L82.5,124.9z M35.2,215.2c12.4,2.3,25.3,4.1,38.6,5.5
		c-3.8,25.9-4.8,53.1-2.5,80.9c-5.2-0.8-10.4-1.6-15.5-2.6c-4.9-0.9-9.7-1.9-14.4-3c-1.7-0.4-3.4-0.8-5.1-1.2
		c-4.6-1.1-9.2-2.2-13.7-3.5C23.3,265.2,27.7,239.7,35.2,215.2L35.2,215.2z M27.6,353.8c-2.1-10.6-3.5-21.2-4.4-31.7
		c-0.5-5.4-0.7-10.8-0.9-16.1c5.1,1.4,10.3,2.6,15.7,3.9c0.3,0,0.7,0.2,1,0.2c10.8,2.4,22,4.4,33.5,6c1.1,9.3,2.6,18.6,4.4,28.1
		c5.9,30.1,15.1,58.5,27.1,84.5c-13.3-1.8-26.1-4-38.3-6.7c-6-1.4-11.9-2.8-17.8-4.4C38.9,397.6,32,376.3,27.6,353.8L27.6,353.8z
		 M56.5,434.4c2.1,0.5,4.1,1,6.2,1.5c15.5,3.4,31.9,6.2,48.9,8c17.6,33.8,39.9,63.3,65.4,87c-13.1-0.5-25.9-1.3-38.3-2.6
		C105.2,503.7,76.8,471.8,56.5,434.4L56.5,434.4z M163.7,544.6c10,0.5,20.1,0.9,30.4,0.9c15.6,12.3,32.2,22.6,49.3,30.5
		C215.4,569.6,188.5,559,163.7,544.6L163.7,544.6z M468.3,532c12.9-13.9,24.4-29.5,34.2-46.8c9.5-4,18.8-8,27.8-12.3
		C512.9,495.5,492,515.5,468.3,532L468.3,532z M547.3,448.5c-11,5.8-22.5,11.5-34.5,16.8c14.7-31.6,24.2-67.3,27.8-105.2
		c15-8.2,29.2-16.8,42.2-25.9c1.8-1.2,3.5-2.5,5.2-3.7C583.4,372.8,569.2,413.1,547.3,448.5L547.3,448.5z M574.8,322.4
		c-10.3,7.2-21.4,14-33,20.7c1.3-28.6-0.8-58.4-6.7-88.5c-1.9-9.3-4-18.5-6.5-27.6c10.1-5.8,19.7-11.9,28.8-18.2
		c0.3-0.2,0.5-0.4,0.9-0.5c4.4-3.1,8.8-6.2,13.1-9.5c1.9,5,3.7,10.1,5.3,15.2c3.2,10.2,5.9,20.5,7.9,31c4.4,22.4,6,44.8,5.1,66.6
		C584.9,315.3,579.9,318.9,574.8,322.4L574.8,322.4z"/>
	<path class="st1" d="M306,599.5L306,599.5c-62.4,0-122.4-19.3-173.6-55.6c-7.7-5.5-15.1-11.3-22.2-17.4
		c-31.3-26.9-56.1-59.2-74-96.2c-2.8-5.7-5.4-11.6-7.8-17.5c-7.3-18-12.9-36.7-16.7-55.8c-1.5-7.6-2.7-15.5-3.6-23.3
		C7.5,328,7,322.1,6.7,316c-0.2-4.7-0.4-9.4-0.5-14c0-5,0-10.1,0.2-15c1-24.8,5.2-49.4,12.3-73.2c-0.3-0.3-0.5-0.7-0.6-1.1
		c-0.2-0.8,0.2-1.6,0.9-2.1l0.9-0.7c1.2-3.8,2.5-7.6,4-11.7c1.2-3.5,2.6-6.9,4-10.4c9.3-23.1,21.5-45.1,36.2-65.2
		c3.5-4.8,7-9.4,10.4-13.6c43-52.4,100.7-87.8,166.9-102.5c2.4-0.5,4.8-1.1,7-1.6c2.7-0.5,5-0.9,7.2-1.2c16.8-2.9,33.7-4.3,50.7-4.3
		c49.6,0,98.9,12.5,142.6,36.3c4.8,2.6,9.7,5.5,14.8,8.7c21.3,13.2,40.8,28.9,58.1,46.8c2.6,2.6,5.1,5.4,7.6,8.1
		c2.8,3.2,5.5,6.3,8.1,9.4l1.2,0.2c0.8,0.2,1.4,0.9,1.6,1.6c0.1,0.4,0,0.9-0.2,1.2c15.6,19.3,28.7,40.6,39,63.1
		c2,4.5,4.1,9.2,5.8,13.8c1.7,4.3,3.4,8.7,4.9,13.2c1.9,5.8,3.7,11.5,5.3,17c2.1,7.6,3.9,15.3,5.5,22.9c3.7,19,5.6,38.5,5.6,57.9
		c0,6.4-0.2,12.9-0.6,19.2c-2.6,40.9-13.6,80.3-32.3,117c-4.3,8.3-9,16.6-14,24.5c-43.2,67.9-110.1,114.7-188.4,132
		c-2.2,0.5-4.4,0.9-6.7,1.4h-0.5c-2.3,0.5-4.6,0.9-6.9,1.3c-16.8,2.9-33.7,4.3-50.7,4.3L306,599.5z M23.3,212.3c0,0,0,0.5-0.1,0.7
		c-7.4,24.1-11.7,48.9-12.7,74c-0.2,4.9-0.3,9.8-0.2,14.8c0,4.5,0.2,9.2,0.5,13.9c0.3,6,0.9,11.8,1.5,17.5c0.9,7.7,2.1,15.4,3.6,23
		c3.7,18.8,9.2,37.3,16.4,55c2.4,5.8,5,11.7,7.7,17.3c17.7,36.4,42.2,68.3,73,94.8c7,6,14.3,11.8,21.9,17.1
		c50.5,35.9,109.7,54.8,171.2,54.8l0,0c16.6,0,33.4-1.4,50-4.3c2.2-0.4,4.4-0.8,6.6-1.2l0.7-0.2c2.2-0.5,4.4-0.9,6.5-1.4
		c77.2-17,143.2-63.2,185.7-130.2c5-7.8,9.7-16,13.9-24.2c18.6-36.2,29.3-75,31.9-115.4c0.4-6.2,0.6-12.6,0.6-18.9
		c0-19.1-1.9-38.3-5.5-57.1c-1.5-7.6-3.3-15.1-5.4-22.6c-1.5-5.5-3.3-11.1-5.2-16.8c-1.5-4.4-3.1-8.7-4.8-13
		c-1.8-4.6-3.7-9.1-5.8-13.6c-10.5-22.9-23.8-44.3-39.7-63.8c-0.2-0.2-0.2-0.4-0.3-0.6c-0.2-0.2-0.4-0.2-0.5-0.5
		c-2.7-3.3-5.5-6.6-8.4-9.7c-2.4-2.7-4.9-5.4-7.4-8c-17.1-17.6-36.4-33.2-57.4-46.1c-5-3-9.9-5.9-14.7-8.5
		C389.1,7.9,321.5-3.4,256.5,7.7c-2.5,0.4-4.8,0.8-7,1.2c-2.6,0.5-4.8,1-7.1,1.6C176.9,25,119.9,59.9,77.6,111.6
		c-3.4,4.1-6.9,8.7-10.4,13.4c-14.5,19.9-26.5,41.5-35.7,64.3c-1.3,3.4-2.6,6.8-3.9,10.2c-1.5,4-2.8,8.1-4.1,12.2
		c0,0.2-0.2,0.4-0.3,0.6H23.3L23.3,212.3z M348,581.1c-24.5,0-50.7-13.1-75.6-37.9c-0.5-0.5-0.8-1.4-0.5-2.2
		c0.2-0.8,0.9-1.3,1.8-1.4c23.1-2.3,46.8-5.8,70.3-10.1c1.1-0.2,2.2,0.5,2.4,1.6l9.3,47.2c0.1,0.6,0,1.2-0.4,1.6
		c-0.4,0.5-0.9,0.8-1.5,0.9C351.9,581,350,581.1,348,581.1L348,581.1z M278.5,543.3c24.2,23,49.3,34.6,72.6,33.5l-8.4-42.9
		C321.4,537.8,300,541,278.5,543.3L278.5,543.3z M297.5,580.4h-0.4c-27.7-4.8-54.9-16.1-80.4-33.4c-0.8-0.5-1.1-1.5-0.9-2.3
		c0.2-0.9,1-1.5,1.9-1.5c12.4-0.3,25.1-1,37.6-1.9c0.7,0,1.2,0.2,1.7,0.7c13.4,14.7,27.3,26.3,41.3,34.6c0.9,0.5,1.2,1.6,0.9,2.5
		C299.1,579.9,298.3,580.4,297.5,580.4L297.5,580.4z M224.7,547.2c20,12.7,40.9,21.7,62.3,26.8c-10.9-7.6-21.6-17.1-32-28.4
		C244.9,546.3,234.7,546.8,224.7,547.2L224.7,547.2z M243.7,578.1h-0.5c-28.3-6.5-55.3-17.1-80.4-31.6c-0.9-0.5-1.3-1.5-0.9-2.4
		c0.3-0.9,1.1-1.6,2.1-1.5c9.6,0.5,19.8,0.9,30.3,0.9c0.5,0,0.9,0.2,1.2,0.5c15.5,12.2,32,22.4,48.9,30.2c1,0.5,1.5,1.6,1.1,2.6
		C245.3,577.6,244.5,578.2,243.7,578.1L243.7,578.1z M172.7,547.1c16.8,9.1,34.5,16.4,52.8,22c-11-6.2-21.7-13.4-32-21.4
		C186.4,547.6,179.5,547.4,172.7,547.1L172.7,547.1z M367.7,578.1c0,0-0.8-0.1-1.1-0.3c-0.5-0.3-0.9-0.8-1-1.4l-9.3-47.2
		c-0.2-1.1,0.5-2.2,1.6-2.5c23.2-4.7,46.2-10.4,69-17.1c0.8-0.2,1.6,0,2.2,0.6c0.5,0.6,0.7,1.5,0.4,2.2
		c-15,35.1-36.1,57.8-61.2,65.5c-0.2,0-0.4,0.1-0.6,0.1V578.1L367.7,578.1z M360.9,530.4l8.4,42.9c22-7.7,40.8-27.8,54.6-58.4
		C403.1,520.9,382.1,526.1,360.9,530.4L360.9,530.4z M419.4,556.5c-0.5,0-1-0.2-1.4-0.5c-0.9-0.7-0.9-1.9-0.3-2.9
		c9.9-12.9,18.4-28.9,25.3-47.6c0.2-0.6,0.7-1.1,1.3-1.2c12-3.8,24-8,35.6-12.4c0.9-0.4,1.9,0,2.5,0.9c0.5,0.9,0.4,1.9-0.3,2.6
		L420.8,556C420.4,556.4,419.9,556.6,419.4,556.5L419.4,556.5L419.4,556.5z M446.6,508c-4.2,11.2-9,21.5-14.3,30.8l40.1-39.6
		C463.9,502.2,455.3,505.1,446.6,508L446.6,508z M468.5,534.1c-0.6,0-1.2-0.2-1.6-0.7c-0.7-0.8-0.7-2,0-2.8
		c12.8-13.6,24.2-29.3,33.9-46.5c0.2-0.4,0.6-0.7,1-0.9c9.7-4.1,19-8.2,27.7-12.3c0.9-0.4,1.9-0.2,2.5,0.5c0.6,0.8,0.6,1.8,0,2.6
		c-17.7,22.9-38.7,43-62.5,59.6C469.2,533.9,468.9,534.1,468.5,534.1L468.5,534.1z M504.2,486.8c-6.5,11.4-13.6,22.1-21.5,32
		c14.9-12,28.5-25.5,40.7-40.3C517.1,481.4,510.7,484.2,504.2,486.8z M199.5,533.4c-0.5,0-1.2-0.2-1.5-0.5
		c-27.9-22.9-51.8-52-70.8-86.4c-0.4-0.7-0.3-1.5,0-2.2c0.4-0.6,1.2-1,1.9-0.9c21.1,1.7,43.5,2.3,66.3,1.9c0.9-0.1,1.6,0.5,1.9,1.2
		c13,29.3,28.1,55.3,44.8,77.2c1.2,1.6,2.5,3.2,3.7,4.8c0.5,0.6,0.6,1.4,0.3,2.2c-0.3,0.7-1,1.2-1.8,1.2
		C229.6,532.9,214.6,533.4,199.5,533.4L199.5,533.4z M132.8,447.9c18.2,31.7,41.3,59.8,67.3,81.2c13.1,0,26.5-0.4,40.1-1.2
		c-0.5-0.5-0.9-1.2-1.3-1.7c-16.6-21.8-31.6-47.6-44.7-76.7C173,449.9,152.4,449.4,132.8,447.9L132.8,447.9z M177.4,533L177.4,533
		c-13.3-0.5-26.2-1.3-38.4-2.6c-0.4,0-0.7-0.2-1-0.4c-34.2-24.9-62.9-57.8-82.9-94.7c-0.4-0.7-0.3-1.6,0.2-2.3
		c0.5-0.6,1.3-0.9,2.2-0.8c2,0.5,4.1,1,6.2,1.5c15,3.4,31.4,6.1,48.7,8c0.7,0,1.3,0.5,1.6,1.1c17.4,33.4,39.3,62.5,65,86.4
		c0.6,0.6,0.9,1.6,0.5,2.3c-0.3,0.8-1.1,1.3-1.9,1.3h-0.2V533z M139.9,526.3c10.7,1.1,21.3,1.8,32,2.3
		c-24.1-23.3-44.7-51.1-61.3-82.8c-17.1-1.9-33.2-4.7-48-8c-0.5-0.2-1.1-0.2-1.6-0.4C80.6,472,107.8,502.6,139.9,526.3L139.9,526.3z
		 M261.8,530.6c-0.6,0-1.2-0.2-1.6-0.7c-3.3-3.9-6.7-8-9.9-12.3c-15.1-19.9-29-43.3-41.2-69.8c-0.3-0.6-0.2-1.4,0.1-1.9
		c0.4-0.6,1-0.9,1.7-1c37-1.6,75.4-6.1,114.1-13.3c1.1-0.2,2.3,0.5,2.4,1.6l16.4,83.9c0.1,0.5,0,1.1-0.3,1.6s-0.8,0.8-1.3,0.9
		c-26.9,5.1-53.9,8.7-80.2,11L261.8,530.6L261.8,530.6L261.8,530.6z M214.2,448.8c11.8,25,24.9,47.3,39.4,66.2c3,3.9,6,7.6,9,11.3
		c25.2-2.2,51-5.8,76.6-10.5L323.6,436C286.6,442.8,249.8,447.1,214.2,448.8L214.2,448.8z M355.8,516.8c-0.4,0-0.8-0.2-1.2-0.4
		c-0.5-0.3-0.8-0.8-0.9-1.3l-16.4-83.9c-0.2-1.1,0.5-2.2,1.6-2.5c38.5-7.9,75.8-18.2,110.7-30.6c0.6-0.2,1.4-0.2,1.9,0.3
		c0.5,0.4,0.9,1.1,0.9,1.8c-1.3,29.1-5.3,56.1-11.8,80.2c-1.4,5.1-2.9,10.1-4.6,15.1c-0.2,0.6-0.7,1.2-1.4,1.3
		c-25.8,8-52,14.7-78.5,20L355.8,516.8L355.8,516.8z M341.8,432.4l15.6,79.8c25.3-5.2,50.3-11.6,75-19.2c1.5-4.4,2.9-9.1,4.1-13.9
		c6.2-22.9,10.1-48.6,11.5-76.1C414.4,414.9,378.7,424.8,341.8,432.4L341.8,432.4z M450.6,491.5c-0.6,0-1.1-0.2-1.5-0.6
		c-0.5-0.5-0.8-1.3-0.5-2.1l1.6-5.8c7.2-26.5,11.4-56.2,12.4-88.3c0-0.9,0.5-1.6,1.3-1.9c21.4-8.2,41.8-17.1,60.7-26.7
		c0.7-0.3,1.5-0.3,2.2,0.2c0.6,0.5,0.9,1.2,0.9,1.9c-4.7,39-15.8,74.9-33,106.6c-0.2,0.4-0.6,0.8-1.1,0.9
		c-14,5.7-28.1,10.9-42.4,15.7c-0.2,0-0.5,0.1-0.7,0.1L450.6,491.5L450.6,491.5z M466.8,396.2c-1.1,31.9-5.3,61.5-12.5,87.9
		c-0.2,0.7-0.4,1.4-0.5,2.1c13-4.4,25.6-9.1,37.6-14c16-29.7,26.9-64.4,31.7-100.6C505.4,380.4,486.6,388.6,466.8,396.2z
		 M513.1,467.3c-0.6,0-1.1-0.2-1.5-0.6c-0.6-0.6-0.8-1.6-0.4-2.3c14.8-31.9,24.1-67.1,27.6-104.6c0-0.7,0.5-1.3,1.1-1.6
		c15.3-8.3,29.5-17,42.1-25.8c1.8-1.2,3.5-2.5,5.2-3.7c0.7-0.5,1.6-0.5,2.3-0.1s1.1,1.2,1,2c-4.6,41.8-18.9,82.9-41.2,118.9
		c-0.2,0.3-0.5,0.6-0.8,0.8c-10.8,5.8-22.5,11.5-34.6,16.8C513.6,467.3,513.4,467.3,513.1,467.3L513.1,467.3z M542.8,361.3
		c-3.4,35.5-12,69.1-25.6,99.8c10.1-4.6,19.7-9.4,28.8-14.2c21-34.1,34.7-72.6,39.7-112.1c-0.5,0.3-0.9,0.6-1.4,1
		C571.8,344.4,557.9,353,542.8,361.3z M180.3,435.5c-20.3,0-40.3-0.9-59.4-2.9c-0.7,0-1.3-0.5-1.6-1.2c-13.7-28-23.8-58.1-30-89.6
		c-1.5-7.6-2.8-15.6-3.8-23.5c-0.1-0.6,0.2-1.2,0.6-1.7c0.5-0.5,1.1-0.7,1.7-0.6c21.4,2.4,44.2,3.7,67.7,3.7h1.7c1,0,1.9,0.7,2,1.7
		l0.5,2.5c0.2,1.4,0.5,2.7,0.8,4.1c7.2,36.8,17.6,72,30.9,104.7c0.2,0.6,0.2,1.3-0.2,1.9c-0.4,0.5-1,0.9-1.7,0.9H180.3L180.3,435.5z
		 M122.5,428.5c20.5,2,42,2.9,63.9,2.7c-12.9-32.1-23-66.6-30-102.6c-0.3-1.4-0.5-2.8-0.8-4.2l-0.2-0.7c-22.8,0-44.8-1.2-65.5-3.4
		c0.9,6.9,2.1,13.8,3.4,20.7c6,30.7,15.8,60.2,29.2,87.6V428.5z M204.7,435c-0.9,0-1.6-0.5-1.9-1.2c-14-33.4-24.9-69.6-32.4-107.8
		l-0.8-4.1c-0.1-0.6,0-1.2,0.5-1.7c0.4-0.5,0.9-0.8,1.6-0.8c41.5-0.9,84.9-5.6,128.6-13.8c1.1-0.2,2.2,0.5,2.4,1.6l21.9,111.9
		c0.1,0.5,0,1.1-0.3,1.6s-0.8,0.8-1.3,0.9C282.7,429.2,242.9,433.6,204.7,435L204.7,435L204.7,435z M174.2,323.5l0.3,1.6
		c7.3,37.4,17.9,73,31.6,105.7c36.9-1.4,75.2-5.8,114-12.9L299,310.1C256.5,318,214.5,322.4,174.2,323.5L174.2,323.5z M104.4,430.6
		h-0.3c-13.7-1.8-26.7-4.1-38.5-6.7c-6-1.3-12-2.9-17.8-4.4c-0.6-0.2-1.1-0.6-1.3-1.2c-9.4-20.4-16.3-42-20.7-64.1
		c-2.1-10.6-3.5-21.2-4.4-32c-0.5-5.5-0.7-10.9-0.9-16.2c0-0.6,0.3-1.3,0.8-1.7c0.5-0.4,1.2-0.5,1.9-0.4c5.2,1.4,10.4,2.7,15.7,3.8
		l1,0.2c10.2,2.3,21.4,4.3,33.4,6c0.9,0.1,1.6,0.9,1.8,1.8c1.1,9.4,2.5,18.7,4.4,27.9c5.7,29.3,14.8,57.5,27,84
		c0.3,0.7,0.2,1.5-0.2,2.1C105.7,430.3,105.1,430.6,104.4,430.6L104.4,430.6z M49.8,415.7c5.6,1.5,11.1,2.9,16.8,4.1
		c10.6,2.3,22.1,4.4,34.4,6.2c-11.5-25.7-20.2-53.2-25.7-81.5c-1.7-8.7-3.1-17.6-4.2-26.6c-11.5-1.6-22.2-3.6-32.1-5.8l-1-0.2
		c-4.4-1-8.8-2-13.1-3.2c0.2,4.4,0.4,8.8,0.8,13.2c0.9,10.6,2.3,21.2,4.3,31.5C34,374.9,40.7,395.8,49.8,415.7L49.8,415.7z
		 M336.4,418.9c-0.4,0-0.8-0.2-1.2-0.4c-0.5-0.3-0.8-0.8-0.9-1.3l-21.9-111.9c-0.2-1.1,0.5-2.2,1.6-2.5
		c43.6-8.9,85.4-20.9,124.3-35.7c0.5-0.2,1.2-0.2,1.8,0.2c0.5,0.3,0.9,0.8,1,1.4l0.9,4.1c7.5,38.2,11.1,75.9,10.6,112.1
		c0,0.9-0.5,1.6-1.4,1.9c-35.9,13.1-74.4,23.9-114.5,32.1L336.4,418.9L336.4,418.9z M317,306.5l21.1,107.8
		c38.7-8,75.8-18.4,110.4-31c0.3-35.5-3.2-72.4-10.5-109.7l-0.3-1.6C400,286.1,359.4,297.7,317,306.5L317,306.5z M464.9,381.4
		c-0.4,0-0.9-0.2-1.2-0.4c-0.5-0.4-0.9-1-0.9-1.7c0-35.3-3.6-71.9-10.8-108.6c-0.3-1.4-0.5-2.8-0.9-4.2l-0.5-2.3
		c-0.2-1,0.3-2,1.2-2.3c22.4-9,43.6-19,63-29.6c0.5-0.3,1.2-0.3,1.9-0.1c0.6,0.2,1,0.8,1.2,1.4c2,7.7,3.8,15.4,5.4,23.2
		c6.2,31.5,8.2,63.2,6,94.4c0,0.7-0.5,1.4-1.1,1.7c-19.6,10.3-40.5,19.9-62.5,28.4C465.4,381.5,465.2,381.5,464.9,381.4L464.9,381.4
		z M455.1,265l0.2,0.6c0.3,1.4,0.6,2.8,0.9,4.3c7,36,10.7,71.7,10.8,106.3c20.3-8.1,39.9-17,58.1-26.6c2-30.4,0-61.3-6-92.1
		c-1.3-6.7-2.9-13.6-4.6-20.4C496.1,247,476.1,256.4,455.1,265L455.1,265z M541.9,345c0,0-0.8-0.1-1.1-0.3c-0.6-0.4-1-1.1-1-1.9
		c1.3-29.1-0.9-58.7-6.6-88c-1.8-9.2-4-18.4-6.5-27.5c-0.2-0.9,0.2-1.9,0.9-2.3c10.4-6.1,20-12.2,28.7-18.1l0.9-0.5
		c4.4-3,8.7-6.2,13-9.4c0.5-0.4,1.2-0.5,1.9-0.3c0.6,0.2,1.2,0.6,1.4,1.2c1.9,5.1,3.7,10.2,5.3,15.4c3.3,10.3,5.9,20.8,7.9,31.3
		c4.4,22.1,6,44.7,5.1,67.2c0,0.6-0.3,1.2-0.8,1.6c-4.9,3.8-9.8,7.4-14.9,10.9c-9.9,6.9-21,13.9-33.1,20.7c-0.3,0.2-0.7,0.3-1,0.3
		L541.9,345L541.9,345z M531.1,227.8c2.3,8.7,4.4,17.5,6.1,26.2c5.5,28.3,7.9,57,6.9,85.2c10.7-6.2,20.6-12.5,29.5-18.6
		c4.8-3.3,9.4-6.7,14-10.1c0.9-21.8-0.9-43.7-5.1-65.2c-2-10.3-4.7-20.6-7.9-30.8c-1.3-4.2-2.7-8.4-4.3-12.5
		c-3.6,2.7-7.2,5.3-10.9,7.9l-0.9,0.5C550.2,216.1,541,222,531.1,227.8L531.1,227.8z M154.7,309.4L154.7,309.4
		c-24.1,0-47.3-1.4-69.1-4c-1-0.2-1.7-0.9-1.9-1.9c-2.5-27.7-1.7-55.3,2.3-82.1c0.2-1.1,1.2-1.9,2.3-1.8c19,1.5,39,2,59.3,1.7
		c1.2,0,2.1,0.9,2.1,2.1c0.2,27.1,2.7,55.2,7.2,83.5c0.1,0.6,0,1.2-0.5,1.7C155.9,309.2,155.3,309.4,154.7,309.4L154.7,309.4z
		 M87.7,301.5c20.4,2.4,42.1,3.7,64.5,3.7c-4.2-27-6.5-53.7-6.8-79.6c-19.1,0.2-37.8-0.3-55.7-1.6C86.2,249.3,85.5,275.3,87.7,301.5
		z M169.1,309.3c-1,0-1.9-0.8-2.1-1.8c-4.7-28.6-7.2-57-7.3-84.3c0-1.2,0.9-2.1,2-2.1c9.8-0.4,19.6-0.9,29.3-1.6
		c29.5-2.3,59.9-6.2,89.9-11.8c1.1-0.2,2.2,0.5,2.4,1.6l16.4,83.9c0.1,0.5,0,1.1-0.3,1.6s-0.8,0.8-1.3,0.9
		C254.1,303.8,210.7,308.4,169.1,309.3L169.1,309.3L169.1,309.3z M163.9,225.2c0.3,26,2.7,52.8,7,79.9c40.1-0.9,82-5.4,124.5-13.2
		l-15.6-79.8c-29.6,5.5-59.3,9.4-88.4,11.5C182.3,224.3,173.1,224.9,163.9,225.2L163.9,225.2z M71.4,303.5H71
		c-5.3-0.8-10.5-1.6-15.6-2.6c-4.9-0.9-9.7-1.9-14.5-3c-1.6-0.4-3.2-0.7-4.8-1.1c-5.1-1.2-9.7-2.4-14.2-3.7
		c-0.9-0.2-1.6-1.1-1.6-2.1c0.7-26,5.1-51.8,12.8-76.6c0.3-1,1.4-1.6,2.4-1.4c12.2,2.3,25,4.1,38.3,5.4c0.5,0,1.1,0.3,1.4,0.8
		c0.4,0.5,0.5,1,0.4,1.6C72,247,71.1,274,73.3,301.2c0,0.6-0.2,1.2-0.6,1.7C72.3,303.3,71.7,303.4,71.4,303.5L71.4,303.5z
		 M24.7,289.6c4,1.1,8,2.1,12.1,3c1.9,0.5,3.5,0.9,5.1,1.2c4.8,1,9.5,2,14.3,3c4.2,0.8,8.5,1.5,12.9,2.2
		c-1.9-25.9-1.1-51.6,2.4-76.5c-12-1.2-23.7-3-34.7-4.9C29.7,240.8,25.7,265.1,24.7,289.6L24.7,289.6z M311.8,292.9
		c-0.4,0-0.8-0.2-1.2-0.4c-0.5-0.3-0.8-0.8-0.9-1.3l-16.4-83.9c-0.2-1.1,0.5-2.2,1.6-2.5c30-6.2,59.5-13.9,87.8-22.9
		c9.3-3,18.6-6.2,27.8-9.5c1.1-0.4,2.3,0.2,2.7,1.2c10.1,25.4,18.6,52.6,25,80.9c0.2,1-0.3,2-1.3,2.4c-38.8,14.9-80.8,27-124.7,35.9
		L311.8,292.9L311.8,292.9L311.8,292.9z M297.9,208.5l15.6,79.8c42.2-8.7,82.7-20.4,120.3-34.7c-6.2-26.7-14.1-52.5-23.6-76.6
		c-8.6,3.1-17.3,6.1-26,8.9C356.3,194.8,327.3,202.4,297.9,208.5L297.9,208.5z M449.6,251.8c0,0-0.7,0-0.9-0.2
		c-0.5-0.3-0.9-0.8-1.1-1.4c-6.5-28-14.9-54.9-24.9-80c-0.2-0.5-0.2-1.1,0-1.6s0.6-0.9,1.2-1.1c18.5-7.1,36.6-15.1,54.3-23.9
		c1-0.5,2.2-0.2,2.7,0.8c13.7,23.2,24.8,48.5,33,75.1c0.3,0.9-0.2,1.9-1,2.4c-19.3,10.7-40.3,20.7-62.5,29.8
		C450.2,251.6,449.8,251.7,449.6,251.8L449.6,251.8z M427.4,170.5c9.4,24.1,17.5,49.7,23.7,76.3c20.7-8.6,40.3-17.8,58.3-27.7
		c-7.8-25.1-18.2-48.9-31.1-70.9C462.2,156.1,445.1,163.7,427.4,170.5L427.4,170.5z M524.6,214.9c0,0-0.5,0-0.8-0.2
		c-0.6-0.2-1.1-0.7-1.2-1.3c-8.3-26-19.2-50.7-32.6-73.5c-0.3-0.5-0.4-1.1-0.2-1.6c0.2-0.5,0.5-1,1-1.2
		c11.8-6.3,23.1-12.9,33.5-19.5c0.9-0.5,2.1-0.4,2.7,0.5c16.5,20.1,30.2,42.3,40.8,66.2c0.4,0.9,0.2,1.9-0.6,2.5
		c-3.6,2.8-7.4,5.6-11.5,8.5c-1.4,1-2.8,2-4.3,3c-4,2.8-8.1,5.6-12.3,8.2c-4.4,2.8-8.9,5.5-13.5,8.3
		C525.3,214.9,524.9,215,524.6,214.9L524.6,214.9z M494.7,139.7c12.6,21.7,23.1,45.3,31.1,70c3.7-2.3,7.5-4.5,11.1-6.9
		c4.1-2.6,8.3-5.4,12.2-8.1l4.2-3c3.4-2.4,6.7-4.9,10-7.4c-10-22.3-22.8-43.3-38.3-62.2C515.1,128.3,505,134.2,494.7,139.7
		L494.7,139.7z M136.4,211.5c-15.7,0-31.3-0.5-46.1-1.7c-0.6,0-1.2-0.3-1.5-0.8c-0.4-0.5-0.5-1.1-0.4-1.6
		c5.8-29.9,15.5-57.7,28.9-82.6c0.4-0.7,1.1-1.1,1.9-1.1c12.6,0,25.6-0.5,38.6-1.2c0.7,0,1.3,0.2,1.7,0.8c0.4,0.5,0.6,1.2,0.5,1.9
		c-6.1,25.6-9.5,54-10.1,84.3c0,1.1-0.9,2-2,2c-3.8,0-7.6,0.1-11.3,0.1L136.4,211.5L136.4,211.5z M92.9,205.8
		c16.9,1.2,34.6,1.7,52.6,1.4c0.7-28.8,4-55.8,9.6-80.4c-11.7,0.6-23.4,0.9-34.8,1C107.8,151.5,98.6,177.7,92.9,205.8z M161.8,211.1
		c-0.6,0-1.1-0.2-1.5-0.6c-0.4-0.4-0.6-1-0.6-1.6c0.7-31,4.4-59.9,11-85.9c0.2-0.9,1-1.5,1.9-1.6c29.4-2.3,59.4-6.2,89.2-11.8
		c1.1-0.2,2.2,0.5,2.4,1.6l16.4,83.9c0.1,0.5,0,1.1-0.3,1.6s-0.8,0.8-1.3,0.9C239.2,205.1,199.9,209.6,161.8,211.1L161.8,211.1
		L161.8,211.1z M174.5,125.6c-6.2,24.6-9.7,52-10.4,81.2c36.4-1.5,74.1-5.8,112.2-12.8l-15.6-79.8
		C231.8,119.5,202.8,123.3,174.5,125.6L174.5,125.6z M76.2,208.7H76c-12.9-1.3-25.2-3-36.4-5c-0.6-0.1-1.2-0.5-1.5-1
		s-0.4-1.2-0.2-1.8c0.3-0.9,0.6-1.6,0.9-2.5l0.4-0.9c2.9-7.6,6.2-15.2,9.7-22.5c8.8-18.2,19.6-35.4,32-51.3c0.4-0.5,1.1-0.9,1.8-0.8
		c6.5,0.4,13.5,0.6,20.6,0.8c0.7,0,1.4,0.4,1.7,1c0.4,0.6,0.4,1.4,0.1,2c-12.4,24.6-21.4,51.6-26.9,80.4
		C78.1,208,77.1,208.7,76.2,208.7L76.2,208.7z M42.7,199.9c10.5,1.8,21.1,3.2,31.7,4.3c5.4-27.3,13.9-53,25.4-76.6
		c-5.6-0.2-11.1-0.4-16.3-0.6c-11.9,15.4-22.3,32.1-30.8,49.6c-3.5,7.3-6.7,14.7-9.6,22.2L42.7,199.9L42.7,199.9L42.7,199.9z
		 M292.6,195.1c-0.4,0-0.8-0.2-1.2-0.4c-0.5-0.3-0.8-0.8-0.9-1.3l-16.4-83.9c-0.2-1.1,0.5-2.2,1.6-2.5c29.8-6.1,59-13.7,87.1-22.7
		c0.9-0.2,1.8,0,2.3,0.8c15.9,21.6,30.2,46.9,42.6,75.4c0.2,0.5,0.2,1.2,0,1.6c-0.2,0.5-0.7,0.9-1.2,1.2
		c-35.7,13-73.9,23.7-113.5,31.8H292.6L292.6,195.1z M278.6,110.7l15.6,79.8c37.9-7.8,74.4-18.1,108.7-30.4
		c-11.8-26.8-25.3-50.8-40.3-71.3C335.5,97.4,307.3,104.8,278.6,110.7z M419.1,158.4c-0.8,0-1.6-0.5-1.9-1.2
		c-12-27.8-25.9-52.8-41.2-74.3c-0.4-0.5-0.5-1.2-0.3-1.9c0.2-0.6,0.7-1.1,1.3-1.3c12.2-4.2,24.5-8.7,36.2-13.5
		c0.7-0.3,1.6-0.2,2.1,0.3c21.8,18.1,41.3,40.1,57.9,65.6c0.3,0.5,0.4,1.1,0.2,1.7c-0.2,0.5-0.5,1.1-1.1,1.3
		c-16.5,8.2-34.2,16-52.5,23.1C419.5,158.3,419.3,158.4,419.1,158.4L419.1,158.4z M380.9,82.7c14.5,20.7,27.7,44.5,39.2,70.9
		c16.8-6.5,33-13.6,48.2-21.1c-15.8-23.9-34.3-44.7-54.8-62C403,74.8,392,78.9,380.9,82.7L380.9,82.7z M484.1,128.8
		c-0.7,0-1.4-0.3-1.8-0.9c-15.9-24.6-34.4-46.1-55.2-64.3c-0.5-0.5-0.8-1.2-0.7-1.9c0.1-0.7,0.5-1.3,1.2-1.6
		c6.5-2.8,12.8-5.6,18.8-8.4c0.6-0.3,1.3-0.2,1.9,0.1c17.5,10.1,33.9,22,48.9,35.5c6,5.4,11.9,11.1,17.5,17.2l2.5,2.7
		c0.4,0.5,0.6,1.1,0.5,1.7s-0.5,1.2-0.9,1.5c-9.7,6.1-20.4,12.3-31.9,18.4c-0.3,0.2-0.7,0.2-1,0.2L484.1,128.8L484.1,128.8z
		 M432.5,62.6c19.6,17.5,37.2,38.1,52.4,61.3c9.4-5,18.7-10.4,27.7-16l-0.8-0.8c-5.5-5.9-11.3-11.5-17.3-16.9
		c-14.5-13-30.4-24.6-47.2-34.4C442.4,58.1,437.5,60.4,432.5,62.6L432.5,62.6z M110.8,113.6L110.8,113.6c-5.7,0-11.4-0.2-16.9-0.3
		c-0.8,0-1.6-0.5-1.9-1.2c-0.3-0.8-0.2-1.6,0.4-2.2c15-16.8,31.9-32,50.3-44.9c0.9-0.6,2.1-0.5,2.8,0.3s0.7,2,0,2.8
		c-12.2,13.1-23.3,28.1-32.8,44.5C112.3,113.2,111.6,113.6,110.8,113.6L110.8,113.6L110.8,113.6z M98.5,109.3
		c3.7,0.1,7.4,0.2,11.1,0.2c6-10.3,12.7-20.1,20.1-29.5C118.5,88.9,108.1,98.8,98.5,109.3z M127.3,113.6c-0.8,0-1.5-0.4-1.8-1.1
		c-0.4-0.7-0.4-1.5,0-2.1c17.9-28.8,40.2-51.6,66.2-67.9c0.9-0.5,1.9-0.4,2.7,0.4c0.7,0.8,0.7,1.9,0.1,2.6
		c-12.9,16.8-23.4,38.8-31,65.2c-0.2,0.9-1,1.5-1.9,1.5C150.2,112.9,138.7,113.3,127.3,113.6L127.3,113.6L127.3,113.6z M184.7,52.3
		c-20.6,14.7-38.5,33.8-53.5,57c9.6-0.2,19.2-0.6,28.8-1.2C166.3,86.4,174.6,67.7,184.7,52.3L184.7,52.3z M176.7,111.1
		c-0.6,0-1.2-0.3-1.6-0.8c-0.5-0.5-0.5-1.2-0.4-1.9c15-47.9,38.9-78.3,69.3-87.7c0.5-0.2,1.2-0.1,1.7,0.2c0.5,0.3,0.9,0.8,1,1.4
		l14.7,75.1c0.1,0.5,0,1.1-0.3,1.6s-0.8,0.8-1.3,0.9c-28.1,5.2-56,9-82.9,11.3L176.7,111.1L176.7,111.1z M243.1,25.5
		c-27.4,9.6-49.2,37.6-63.4,81.2c25.1-2.2,51.1-5.8,77.2-10.6L243.1,25.5L243.1,25.5z M273.3,97.2c-0.4,0-0.8-0.2-1.2-0.4
		c-0.5-0.3-0.8-0.8-0.9-1.3l-14.7-75.1c-0.1-0.6,0-1.2,0.4-1.6c0.4-0.5,0.9-0.8,1.5-0.9C290,15.2,324,34.5,355.7,73
		c0.5,0.5,0.6,1.2,0.4,1.9c-0.2,0.7-0.7,1.2-1.4,1.4c-25.7,8-52.9,15-81,20.7L273.3,97.2L273.3,97.2z M261.1,22l13.8,70.6
		c26.1-5.4,51.4-11.8,75.5-19.3C321,38.4,290.1,20.6,261.1,22L261.1,22z M368.5,71.8c-0.6,0-1.2-0.3-1.6-0.8
		c-17.1-21.5-35-37.9-53.3-48.6c-0.9-0.5-1.2-1.6-0.9-2.5c0.4-0.9,1.3-1.5,2.3-1.3c30.2,5.3,59.5,18,87,37.9
		c0.6,0.5,0.9,1.2,0.9,1.9c-0.1,0.8-0.6,1.4-1.3,1.7c-10.7,4.1-21.6,8.1-32.3,11.7C368.9,71.8,368.7,71.9,368.5,71.8L368.5,71.8z
		 M325.3,24.9c15.1,10.5,29.9,24.7,44,42.4c9-3,18.1-6.3,27.1-9.7C373.7,41.7,349.9,30.7,325.3,24.9L325.3,24.9z M416.1,54
		c-0.5,0-0.9-0.2-1.3-0.5c-15-11.6-30.9-21.4-47.2-28.8c-1-0.5-1.5-1.6-1.1-2.6c0.3-1,1.4-1.6,2.4-1.4c22,5,43.3,12.6,63.5,22.6
		c0.7,0.4,1.2,1.1,1.2,1.9c0,0.8-0.5,1.6-1.2,1.9c-5.1,2.3-10.3,4.5-15.5,6.7C416.6,53.9,416.3,54,416.1,54L416.1,54z M386.7,29.8
		c10.2,5.8,20.1,12.4,29.7,19.7c3.4-1.4,6.8-2.9,10.2-4.4C413.8,39,400.3,33.8,386.7,29.8L386.7,29.8z"/>
</g>
</svg>
