<?xml version="1.0" encoding="utf-8"?>
<!-- Generator: Adobe Illustrator 24.1.1, SVG Export Plug-In . SVG Version: 6.00 Build 0)  -->
<svg version="1.1" id="Layer_1" xmlns="http://www.w3.org/2000/svg" xmlns:xlink="http://www.w3.org/1999/xlink" x="0px" y="0px"
	 viewBox="0 0 245.1 398.6" style="enable-background:new 0 0 245.1 398.6;" xml:space="preserve">
<style type="text/css">
	.st0{fill:#42437D;}
</style>
<path class="st0" d="M167.5,8C274.1-12.6,377.4,57.2,398,163.8c20.3,104.8-46.9,206.3-150.5,229.3c-1.8,0.5-3.5,0.9-5.4,1.3
	c-1.8,0.4-3.6,0.7-5.5,0.8C132,412.5,31.9,343.3,11.6,238.5C-9,131.9,60.9,28.6,167.5,8L167.5,8z M176.8,20.6l15.3,79.3l65-12.6
	c-5.5-9.9-11.2-19-17.3-26.9C219.5,34.1,197.2,20.1,176.8,20.6L176.8,20.6z M163.5,23.2c-19.2,7.1-34.6,28.4-43.6,60.5
	c-2.7,9.6-4.6,20.2-6,31.4l65-12.6L163.5,23.2z M214.4,18.3c12.8,7.9,25,19.6,36.2,34c7.3,9.5,14.2,20.5,20.5,32.3l64.1-12.4
	C303.6,40.4,260.6,20.7,214.4,18.3L214.4,18.3z M127.8,35.1c-42,19.4-74.5,53.7-92,95.1l64.1-12.4c1.5-13.3,3.8-26.1,7-37.6
	C111.8,62.6,118.9,47.2,127.8,35.1L127.8,35.1z M345.9,84.1l-68.3,13.2c10.9,23,19.6,49.4,25.7,78l79.9-15.5
	C376.5,131.1,363.6,105.4,345.9,84.1L345.9,84.1z M263.9,99.9l-69.1,13.4l15.5,79.9l79.7-15.4C283.8,149,274.9,122.5,263.9,99.9
	L263.9,99.9z M181.4,115.9l-69.1,13.4c-1.8,25.1-0.2,53,4.8,82l79.7-15.4L181.4,115.9L181.4,115.9z M98.6,131.9l-68.3,13.2
	c-8.5,26.4-10.9,55.1-6.4,84.2l79.9-15.5C98.8,185,97,157.3,98.6,131.9L98.6,131.9z M385.8,173.1l-79.9,15.5
	c5.1,28.8,6.8,56.5,5.3,81.9l68.3-13.2C387.9,230.9,390.3,202.2,385.8,173.1L385.8,173.1z M292.5,191.1l-79.7,15.4l15.5,79.9
	l69.1-13.4C299.2,248.1,297.6,220.1,292.5,191.1L292.5,191.1z M199.5,209.1l-79.7,15.4c6.1,28.8,15.1,55.3,26.1,77.9l69.1-13.4
	L199.5,209.1L199.5,209.1z M106.4,227.1l-79.9,15.5c6.6,28.7,19.6,54.4,37.3,75.7l68.3-13.2C121.1,282.1,112.4,255.7,106.4,227.1
	L106.4,227.1z M374.1,272.1l-64.3,12.4c-1.5,13.3-3.8,25.9-7,37.4c-5,17.8-12.1,33.3-21.2,45.6C323.7,348.1,356.6,313.8,374.1,272.1
	L374.1,272.1z M295.8,287.3l-65,12.6l15.3,79.3c19.1-7.1,34.6-28.6,43.6-60.7C292.4,308.8,294.4,298.4,295.8,287.3L295.8,287.3z
	 M217.5,302.4l-65,12.6c5.5,9.8,11.2,18.8,17.3,26.7c20.3,26.5,42.6,40.6,63,40.1L217.5,302.4z M138.6,317.6l-64.3,12.4
	c31.7,32.1,75,51.8,121.5,54.1c-13-8-25.4-19.7-36.7-34.4C151.8,340.3,144.9,329.4,138.6,317.6L138.6,317.6z"/>
</svg>
