<svg xmlns="http://www.w3.org/2000/svg" width="32" height="32.005" viewBox="0 0 32 32.005">
  <g id="globe-blue" transform="translate(-6.2 0.6)">
    <path id="Path_6007" data-name="Path 6007" d="M39.365,13.157c-.085-.3-.181-.6-.277-.9-.08-.235-.165-.469-.256-.7-.1-.245-.2-.491-.309-.731a15.751,15.751,0,0,0-2.128-3.424l.048-.032a.62.62,0,0,0-.1-.021c-.144-.181-.3-.352-.453-.523-.128-.144-.261-.288-.4-.427a16.247,16.247,0,0,0-3.083-2.48c-.256-.16-.517-.309-.784-.459a15.834,15.834,0,0,0-10.235-1.7h-.011l-.368.064H21c-.123.027-.24.053-.363.085h-.011a15.817,15.817,0,0,0-8.843,5.429c-.192.235-.379.475-.555.72a15.855,15.855,0,0,0-1.915,3.456c-.075.181-.144.363-.208.549-.08.219-.155.437-.219.656-.027.021-.053.037-.085.059l.064.011a15.99,15.99,0,0,0-.683,3.979c-.016.256-.021.523-.016.789,0,.251.011.5.027.747.016.309.043.624.08.939q.072.616.192,1.232a15.9,15.9,0,0,0,.88,2.955c.128.315.267.624.416.933a15.85,15.85,0,0,0,3.925,5.093c.379.325.773.635,1.179.923A15.831,15.831,0,0,0,26.741,33.1l.357-.064h.016l.016-.011c.123-.027.235-.048.352-.075a15.843,15.843,0,0,0,9.979-6.992c.267-.421.517-.853.747-1.3a15.821,15.821,0,0,0,1.712-6.192c.021-.336.032-.677.032-1.019a16.308,16.308,0,0,0-.293-3.067c-.08-.411-.181-.821-.288-1.216l-.005-.016ZM37.9,11.328c-.2.149-.395.3-.608.448-.075.053-.149.107-.229.16-.213.149-.432.293-.651.437-.235.149-.475.293-.715.443a19.15,19.15,0,0,0-1.749-3.947c.629-.331,1.232-.683,1.8-1.045a15.128,15.128,0,0,1,2.155,3.5Zm-2.379,3.856a19.064,19.064,0,0,1,.315,5A33.551,33.551,0,0,1,32.517,21.7a30.8,30.8,0,0,0-.576-5.813l-.075-.347a31.776,31.776,0,0,0,3.371-1.584c.107.4.2.811.288,1.227ZM12.591,19.669c-.08-.416-.149-.832-.2-1.253a33.32,33.32,0,0,0,3.723.2l.064.352a29.95,29.95,0,0,0,1.653,5.605,32.36,32.36,0,0,1-3.648-.149,19.3,19.3,0,0,1-1.589-4.752Zm18.6-3.643a29.457,29.457,0,0,1,.565,5.952,42,42,0,0,1-6.091,1.707L24.5,17.717a42.922,42.922,0,0,0,6.645-1.909C31.167,15.882,31.178,15.952,31.194,16.026ZM30.869,27.85a43.044,43.044,0,0,1-4.176,1.067l-.875-4.475a44.47,44.47,0,0,0,5.92-1.637,19.639,19.639,0,0,1-.629,4.251c-.075.272-.16.539-.24.795ZM21.157,29a19.627,19.627,0,0,1-2.181-3.7,44.2,44.2,0,0,0,6.1-.709l.875,4.475c-1.44.272-2.875.464-4.267.587-.181-.213-.357-.432-.523-.651ZM16.922,18.821c-.011-.069-.027-.144-.043-.219a42.4,42.4,0,0,0,6.875-.741l1.168,5.968a41.671,41.671,0,0,1-6.283.709,28.944,28.944,0,0,1-1.717-5.717Zm-.565-5.456c.517-.021,1.04-.048,1.568-.085a45.446,45.446,0,0,0,4.811-.635l.875,4.475a41.675,41.675,0,0,1-6.864.725,29.068,29.068,0,0,1-.389-4.48Zm14.629,1.7a42.449,42.449,0,0,1-6.635,1.915L23.477,12.5a44.721,44.721,0,0,0,4.693-1.227c.5-.16,1-.331,1.488-.512a29.331,29.331,0,0,1,1.328,4.3Zm-7.653-3.307-.875-4.48a44.013,44.013,0,0,0,4.656-1.216,20.312,20.312,0,0,1,2.256,4,42.143,42.143,0,0,1-6.037,1.7ZM22.314,6.528l-.784-4c1.643-.139,3.424.875,5.093,2.9a43.859,43.859,0,0,1-4.309,1.1ZM20.783,2.672l.784,4.005c-1.488.277-2.971.48-4.405.6C17.941,4.773,19.2,3.162,20.783,2.672Zm-3.84,5.381a44.86,44.86,0,0,0,4.768-.629l.875,4.475a42.4,42.4,0,0,1-6.229.709,20.428,20.428,0,0,1,.587-4.555Zm9.147,21.76.5,2.517a5.567,5.567,0,0,1-4.251-1.979q1.888-.192,3.755-.539Zm1.237,2.373-.5-2.517c1.243-.251,2.469-.56,3.685-.912a5.586,5.586,0,0,1-3.189,3.429ZM30.373,10.5Q31.9,9.9,33.279,9.216A18.138,18.138,0,0,1,35.023,13.2,30.066,30.066,0,0,1,31.7,14.778,30.193,30.193,0,0,0,30.373,10.5Zm-.293-.7a21.621,21.621,0,0,0-2.208-3.984c.651-.224,1.3-.459,1.936-.72A15.653,15.653,0,0,1,32.874,8.57c-.875.437-1.813.848-2.795,1.227ZM27.391,5.173a10.809,10.809,0,0,0-2.875-2.624,11.074,11.074,0,0,1,4.587,2Q28.255,4.877,27.391,5.173ZM16.346,7.333c-.613.037-1.227.064-1.824.069a11.172,11.172,0,0,1,3.5-3.579,10.7,10.7,0,0,0-1.675,3.509Zm-.2.773a21.436,21.436,0,0,0-.544,4.523c-1.045.016-2.069-.011-3.051-.085A15.5,15.5,0,0,1,14.079,8.17q1.016.008,2.064-.064Zm-.549,5.285a29.588,29.588,0,0,0,.384,4.469,30.136,30.136,0,0,1-3.675-.213,18.368,18.368,0,0,1,.117-4.347C13.439,13.381,14.5,13.408,15.594,13.392Zm2.555,11.936a20.473,20.473,0,0,0,2.405,4.139c.064.085.133.176.2.256-.816.048-1.616.08-2.405.08A15.928,15.928,0,0,1,14.6,25.232c1.136.091,2.325.117,3.552.1Zm3.211,5.109A9.617,9.617,0,0,0,23.594,32.3a10.976,10.976,0,0,1-4.245-1.76c.661-.016,1.333-.053,2.011-.107Zm10.1-1.973c.64-.2,1.275-.427,1.909-.661L30.1,31.034A10.033,10.033,0,0,0,31.455,28.464Zm.293-.9c.027-.1.064-.208.085-.315a20.659,20.659,0,0,0,.667-4.736,34.35,34.35,0,0,0,3.253-1.429A15.852,15.852,0,0,1,34,26.736q-1.12.448-2.256.832ZM34.181,6.192c.32.293.629.592.928.912.048.048.091.091.133.139-.539.336-1.1.661-1.691.976a16.408,16.408,0,0,0-2.965-3.451c.341-.144.677-.3,1.008-.453a15.3,15.3,0,0,1,2.587,1.877ZM30.751,3.866c-.272.123-.549.235-.827.352a12.931,12.931,0,0,0-2.533-1.552A15.392,15.392,0,0,1,30.751,3.866ZM15.4,5.013a13.554,13.554,0,0,0-1.765,2.395c-.3,0-.6-.011-.9-.016A15.294,15.294,0,0,1,15.4,5.013ZM12.127,8.122c.363.021.725.032,1.1.043a16.494,16.494,0,0,0-1.44,4.315c-.667-.064-1.312-.155-1.931-.267.021-.064.048-.123.069-.181.155-.405.331-.8.517-1.195a15.14,15.14,0,0,1,1.68-2.715ZM9.6,12.938c.661.123,1.349.219,2.059.293a18.976,18.976,0,0,0-.133,4.315c-.277-.043-.555-.085-.827-.139s-.517-.1-.768-.16l-.272-.064c-.245-.059-.491-.117-.731-.187A15.245,15.245,0,0,1,9.6,12.938ZM9.2,20.33a15.51,15.51,0,0,1-.235-1.691c-.027-.288-.037-.576-.048-.859.272.075.549.139.837.208.016,0,.037.011.053.011.576.128,1.173.235,1.787.32.059.5.139.992.235,1.5a19.892,19.892,0,0,0,1.445,4.507c-.709-.1-1.392-.213-2.043-.357-.32-.075-.635-.149-.949-.235A15.549,15.549,0,0,1,9.2,20.33Zm1.541,4.3.331.08a23.977,23.977,0,0,0,2.608.427,17.121,17.121,0,0,0,3.488,4.64c-.7-.027-1.381-.069-2.043-.139a15.261,15.261,0,0,1-4.384-5.008Zm5.717,5.877c.533.027,1.072.048,1.621.048a13.229,13.229,0,0,0,2.629,1.627,15.227,15.227,0,0,1-4.251-1.675ZM32.7,29.834a13.291,13.291,0,0,0,1.824-2.5c.507-.213,1-.427,1.483-.656A14.973,14.973,0,0,1,32.7,29.834Zm4.213-4.453c-.587.309-1.2.613-1.84.9a17.171,17.171,0,0,0,1.483-5.611,24.047,24.047,0,0,0,2.251-1.381c.1-.064.187-.133.277-.2a15.074,15.074,0,0,1-2.171,6.293Zm1.467-6.725c-.549.384-1.141.747-1.76,1.1a19.883,19.883,0,0,0-.357-4.72c-.1-.5-.213-.987-.347-1.472.539-.309,1.051-.635,1.536-.971a.14.14,0,0,1,.048-.027c.235-.165.469-.331.7-.507.1.267.2.539.283.811a14.721,14.721,0,0,1,.421,1.653,15.191,15.191,0,0,1,.272,3.552c-.256.2-.523.389-.795.576Z" transform="translate(-1.858 -2.029)" fill="#292561"/>
    <path id="Path_6008" data-name="Path 6008" d="M22.189,31.405h0a15.931,15.931,0,0,1-9.259-2.965q-.616-.44-1.184-.928A15.775,15.775,0,0,1,7.8,22.381c-.149-.3-.288-.619-.416-.933a16.477,16.477,0,0,1-.891-2.976c-.08-.405-.144-.827-.192-1.243-.032-.3-.059-.619-.075-.944-.011-.251-.021-.5-.027-.747,0-.267,0-.539.011-.8a15.907,15.907,0,0,1,.656-3.9.127.127,0,0,1-.032-.059.108.108,0,0,1,.048-.112l.048-.037c.064-.2.133-.405.213-.624.064-.187.139-.368.213-.555A16.067,16.067,0,0,1,9.288,5.971c.187-.256.373-.5.555-.725a15.849,15.849,0,0,1,8.9-5.467c.128-.027.256-.059.373-.085.144-.027.267-.048.384-.064A15.944,15.944,0,0,1,29.811,1.336c.256.139.517.293.789.464a16.1,16.1,0,0,1,3.1,2.5c.139.139.272.288.405.432.149.171.293.336.432.5l.064.011a.125.125,0,0,1,.085.085.087.087,0,0,1-.011.064,15.863,15.863,0,0,1,2.08,3.365c.107.24.219.491.309.736.091.229.181.464.261.7.1.309.2.613.283.907.112.405.208.816.293,1.221a16.2,16.2,0,0,1,.3,3.088c0,.341-.011.688-.032,1.024a15.909,15.909,0,0,1-1.723,6.24c-.229.443-.48.885-.747,1.307a15.893,15.893,0,0,1-10.048,7.04c-.117.027-.235.048-.357.075h-.027c-.123.027-.245.048-.368.069a15.864,15.864,0,0,1-2.7.229ZM7.112,10.755a.12.12,0,0,1-.005.037,15.538,15.538,0,0,0-.677,3.947c-.011.261-.016.523-.011.789,0,.24.011.491.027.741.016.32.048.629.08.933.048.411.112.821.192,1.227a16,16,0,0,0,.875,2.933c.128.309.267.624.411.923A15.665,15.665,0,0,0,11.9,27.341c.373.32.763.629,1.168.912a15.676,15.676,0,0,0,9.131,2.923h0a15.525,15.525,0,0,0,2.667-.229l.352-.064.037-.011c.117-.027.235-.048.347-.075a15.634,15.634,0,0,0,9.9-6.944c.267-.416.517-.853.741-1.291a15.572,15.572,0,0,0,1.7-6.155c.021-.331.032-.672.032-1.008a16.232,16.232,0,0,0-.293-3.045c-.08-.405-.176-.805-.288-1.205-.08-.293-.176-.592-.277-.9-.08-.235-.165-.464-.256-.693-.1-.245-.2-.485-.309-.725a15.8,15.8,0,0,0-2.117-3.4c-.011-.011-.011-.021-.016-.032s-.021-.011-.027-.027c-.144-.176-.293-.352-.448-.517-.128-.144-.261-.288-.395-.427a15.84,15.84,0,0,0-3.061-2.459c-.267-.16-.528-.315-.784-.453A15.858,15.858,0,0,0,19.549-.157c-.133.021-.256.043-.373.064-.139.027-.256.053-.379.085a15.6,15.6,0,0,0-8.789,5.392c-.181.219-.368.464-.555.715a15.977,15.977,0,0,0-1.9,3.429l-.208.544c-.08.213-.149.432-.219.651,0,.011-.011.021-.016.032ZM24.429,30.424A5.946,5.946,0,0,1,20.4,28.4a.115.115,0,0,1-.027-.117.1.1,0,0,1,.1-.075c1.232-.123,2.5-.309,3.749-.539a.109.109,0,0,1,.128.085l.5,2.517a.1.1,0,0,1-.021.085.126.126,0,0,1-.08.048,2.927,2.927,0,0,1-.309.016Zm-3.707-2.016a5.449,5.449,0,0,0,3.872,1.787l-.448-2.288c-1.136.208-2.277.379-3.424.5Zm1.013,1.979h-.021a11,11,0,0,1-4.288-1.781.115.115,0,0,1-.048-.123.1.1,0,0,1,.1-.08c.661-.016,1.339-.053,2.005-.1a.117.117,0,0,1,.091.037,9.781,9.781,0,0,0,2.2,1.845.112.112,0,0,1,.048.133.087.087,0,0,1-.091.069Zm-3.883-1.771a10.924,10.924,0,0,0,3.323,1.429,10.517,10.517,0,0,1-1.707-1.515c-.539.037-1.083.064-1.616.085Zm1.013,1.648H18.84a15.484,15.484,0,0,1-4.288-1.685.1.1,0,0,1-.048-.128.109.109,0,0,1,.112-.08c.512.027,1.056.048,1.616.048a.088.088,0,0,1,.064.027A13.152,13.152,0,0,0,18.9,30.056a.11.11,0,0,1,.059.139.092.092,0,0,1-.1.069ZM15.08,28.611A15.314,15.314,0,0,0,17.9,29.784a13.992,13.992,0,0,1-1.707-1.141c-.379-.005-.747-.016-1.109-.032Zm10.4,1.653a.194.194,0,0,1-.059-.016.11.11,0,0,1-.053-.075l-.5-2.517a.118.118,0,0,1,.085-.133q1.856-.376,3.68-.912a.12.12,0,0,1,.117.032.118.118,0,0,1,.021.117,5.677,5.677,0,0,1-3.264,3.493c-.011,0-.021.005-.032.005v.005Zm-.363-2.544.448,2.288a5.417,5.417,0,0,0,2.912-3.115q-1.664.48-3.36.827Zm3.12,1.392a.127.127,0,0,1-.075-.027.114.114,0,0,1-.016-.155A9.646,9.646,0,0,0,29.5,26.392a.093.093,0,0,1,.069-.064c.64-.2,1.28-.427,1.9-.661a.108.108,0,0,1,.133.048.112.112,0,0,1-.016.139l-3.269,3.232a.083.083,0,0,1-.075.027Zm1.451-2.587a11.412,11.412,0,0,1-.763,1.643l2.139-2.112c-.453.16-.912.315-1.376.469Zm1.168,1.392a.106.106,0,0,1-.085-.037.114.114,0,0,1,0-.149,12.77,12.77,0,0,0,1.808-2.48.117.117,0,0,1,.053-.048c.517-.219,1.013-.437,1.477-.656a.108.108,0,0,1,.133.165,15.209,15.209,0,0,1-3.333,3.179.074.074,0,0,1-.053.027Zm1.9-2.523A13.239,13.239,0,0,1,31.613,27.1a15.034,15.034,0,0,0,2.171-2.149C33.448,25.107,33.107,25.256,32.76,25.395ZM16.509,27.88a.131.131,0,0,1-.08-.027,15.786,15.786,0,0,1-3.776-4.608.13.13,0,0,1,0-.117.111.111,0,0,1,.1-.048c1.125.091,2.32.123,3.536.1a.1.1,0,0,1,.1.064,20.523,20.523,0,0,0,2.389,4.117c.064.085.133.171.2.256a.115.115,0,0,1,.016.117.105.105,0,0,1-.1.064c-.784.053-1.584.08-2.389.08Zm-3.557-4.56a15.84,15.84,0,0,0,3.589,4.331c.7,0,1.413-.021,2.139-.064a1.025,1.025,0,0,1-.069-.091,20.949,20.949,0,0,1-2.384-4.091C15.1,23.427,14,23.4,12.952,23.32Zm2.379,4.539h0c-.709-.027-1.4-.069-2.048-.139a.1.1,0,0,1-.053-.021,15.335,15.335,0,0,1-4.421-5.051.115.115,0,0,1,.011-.123.13.13,0,0,1,.117-.043l.331.08a23.364,23.364,0,0,0,2.6.427.1.1,0,0,1,.085.059,16.954,16.954,0,0,0,3.467,4.608.111.111,0,0,1-.075.192h-.011v.011Zm-2-.357c.571.059,1.136.1,1.707.123a17.218,17.218,0,0,1-3.269-4.416,23.926,23.926,0,0,1-2.56-.427c-.027-.011-.059-.011-.085-.021A15.311,15.311,0,0,0,13.331,27.5Zm6.5.229a.106.106,0,0,1-.085-.037c-.176-.208-.357-.427-.528-.656a19.985,19.985,0,0,1-2.2-3.723.112.112,0,0,1,.005-.1.124.124,0,0,1,.091-.053,43.766,43.766,0,0,0,6.085-.709.107.107,0,0,1,.128.085l.875,4.475a.124.124,0,0,1-.016.085.1.1,0,0,1-.069.048c-1.435.272-2.875.464-4.277.587Zm-2.539-4.363a19.422,19.422,0,0,0,2.1,3.531c.16.208.32.405.48.6,1.344-.117,2.72-.309,4.085-.56l-.832-4.256a44.033,44.033,0,0,1-5.835.683Zm7.552,3.627a.152.152,0,0,1-.064-.021.1.1,0,0,1-.048-.069l-.875-4.475a.118.118,0,0,1,.085-.133,44.318,44.318,0,0,0,5.9-1.632.1.1,0,0,1,.1.016.13.13,0,0,1,.048.1,19.922,19.922,0,0,1-.629,4.277c-.075.272-.155.539-.245.805a.1.1,0,0,1-.075.069,41.853,41.853,0,0,1-4.187,1.067Zm-.747-4.5.832,4.256q2.024-.416,4-1.024c.08-.235.155-.485.219-.741a19.408,19.408,0,0,0,.613-4.059A43.006,43.006,0,0,1,24.1,22.493Zm5.8,3.152a.109.109,0,0,1-.08-.032.106.106,0,0,1-.027-.112l.085-.309a20.468,20.468,0,0,0,.661-4.709.1.1,0,0,1,.069-.1,34.177,34.177,0,0,0,3.237-1.424.117.117,0,0,1,.117.011.131.131,0,0,1,.048.1,15.835,15.835,0,0,1-1.76,5.685.089.089,0,0,1-.059.048c-.747.3-1.5.581-2.261.837-.011,0-.027.005-.037.005Zm.864-5.083a20.6,20.6,0,0,1-.667,4.688.853.853,0,0,0-.027.112c.693-.235,1.365-.485,2.005-.747a15.773,15.773,0,0,0,1.691-5.365Q32.352,19.955,30.765,20.563Zm2.469,3.792a.109.109,0,0,1-.08-.032.107.107,0,0,1-.021-.123,16.958,16.958,0,0,0,1.472-5.579.1.1,0,0,1,.059-.085,23.59,23.59,0,0,0,2.245-1.376c.1-.064.187-.133.277-.2a.114.114,0,0,1,.123-.005.108.108,0,0,1,.053.107,15.3,15.3,0,0,1-2.2,6.341.162.162,0,0,1-.043.043c-.576.309-1.2.613-1.845.9a.064.064,0,0,1-.043.011ZM34.819,18.7a17.15,17.15,0,0,1-1.365,5.323c.539-.245,1.051-.5,1.536-.757a15.059,15.059,0,0,0,2.117-5.979.647.647,0,0,0-.075.053C36.365,17.8,35.624,18.259,34.819,18.7ZM15.485,22.659a30.594,30.594,0,0,1-3.168-.155.1.1,0,0,1-.085-.064,19.383,19.383,0,0,1-1.6-4.779c-.08-.405-.149-.832-.2-1.253a.119.119,0,0,1,.032-.091.1.1,0,0,1,.091-.032,32.556,32.556,0,0,0,3.611.2h.091a.1.1,0,0,1,.107.091l.027.133c.011.075.027.144.043.219a30.281,30.281,0,0,0,1.648,5.584.115.115,0,0,1-.011.1.119.119,0,0,1-.091.048ZM12.4,22.285a32.233,32.233,0,0,0,3.408.144,30.123,30.123,0,0,1-1.6-5.472c-.016-.075-.027-.149-.043-.224l-.011-.037a33.172,33.172,0,0,1-3.493-.181c.048.368.112.736.181,1.1A18.878,18.878,0,0,0,12.4,22.291Zm4.384.347a.107.107,0,0,1-.1-.064,29.68,29.68,0,0,1-1.728-5.749l-.043-.219a.1.1,0,0,1,.027-.091.1.1,0,0,1,.085-.043,42.4,42.4,0,0,0,6.859-.736.109.109,0,0,1,.128.085l1.168,5.968a.124.124,0,0,1-.016.085.1.1,0,0,1-.069.048,42.581,42.581,0,0,1-6.309.715ZM15.16,16.685l.016.085a29,29,0,0,0,1.685,5.637,42.977,42.977,0,0,0,6.08-.688l-1.125-5.749a42.969,42.969,0,0,1-6.656.715ZM11.437,22.4h-.016c-.731-.1-1.424-.219-2.053-.357-.32-.069-.64-.155-.949-.235a.1.1,0,0,1-.069-.064,15.151,15.151,0,0,1-1.339-5.125c-.027-.293-.037-.581-.048-.864a.122.122,0,0,1,.043-.091.131.131,0,0,1,.1-.021c.277.075.555.144.837.2L8,15.853c.544.123,1.141.229,1.781.32a.119.119,0,0,1,.1.1c.059.5.133,1,.235,1.488a19.715,19.715,0,0,0,1.44,4.48.119.119,0,0,1-.011.112.14.14,0,0,1-.1.048ZM8.525,21.6c.3.08.592.155.9.219.565.123,1.179.235,1.835.331a20.025,20.025,0,0,1-1.371-4.347c-.091-.464-.165-.939-.224-1.419-.613-.085-1.184-.192-1.712-.309L7.9,16.067c-.235-.053-.469-.107-.7-.171.011.235.021.469.043.7a15.906,15.906,0,0,0,.229,1.68A14.267,14.267,0,0,0,8.525,21.6Zm15.285.171a.152.152,0,0,1-.064-.021.1.1,0,0,1-.048-.069l-1.168-5.968a.118.118,0,0,1,.085-.133,42.728,42.728,0,0,0,6.629-1.9.105.105,0,0,1,.1.011.11.11,0,0,1,.053.075l.048.219a29.054,29.054,0,0,1,.565,5.979.1.1,0,0,1-.075.1,43,43,0,0,1-6.107,1.712Zm-1.035-5.995L23.9,21.528a42.259,42.259,0,0,0,5.888-1.653,29.265,29.265,0,0,0-.56-5.851l-.016-.085a43.908,43.908,0,0,1-6.437,1.84Zm7.888,3.995a.131.131,0,0,1-.064-.021.119.119,0,0,1-.048-.091,30.2,30.2,0,0,0-.576-5.792c-.016-.075-.027-.149-.048-.224l-.027-.123a.105.105,0,0,1,.064-.123,31.635,31.635,0,0,0,3.36-1.579.131.131,0,0,1,.1-.005.113.113,0,0,1,.064.075c.107.411.2.821.288,1.237a19.1,19.1,0,0,1,.32,5.035.108.108,0,0,1-.059.091,31.856,31.856,0,0,1-3.333,1.515.042.042,0,0,1-.043.005Zm-.523-6.208.011.032c.016.075.032.149.048.229a30.249,30.249,0,0,1,.576,5.669,32.449,32.449,0,0,0,3.1-1.419,19.11,19.11,0,0,0-.32-4.912c-.069-.357-.155-.725-.245-1.088a33.56,33.56,0,0,1-3.168,1.488Zm4.629,4.267a.194.194,0,0,1-.059-.016.121.121,0,0,1-.053-.1,19.945,19.945,0,0,0-.352-4.693c-.1-.491-.213-.981-.347-1.467a.116.116,0,0,1,.048-.123c.555-.325,1.067-.651,1.531-.965l.048-.027c.235-.16.464-.331.693-.5a.112.112,0,0,1,.1-.016.113.113,0,0,1,.075.064c.1.272.2.544.283.821a14.162,14.162,0,0,1,.421,1.669,15.245,15.245,0,0,1,.272,3.584.111.111,0,0,1-.043.085c-.261.2-.523.395-.795.581-.528.368-1.12.741-1.765,1.1a.1.1,0,0,1-.053.016l-.005-.016Zm-.576-6.251c.123.464.235.933.325,1.4a20.139,20.139,0,0,1,.368,4.544c.571-.331,1.1-.667,1.573-.992.256-.176.5-.357.747-.539a14.937,14.937,0,0,0-.272-3.477,15.151,15.151,0,0,0-.421-1.643c-.069-.224-.144-.448-.229-.667-.192.144-.384.283-.581.421l-.048.027c-.443.3-.933.619-1.461.928ZM14.12,15.933h0a31.225,31.225,0,0,1-3.685-.213.125.125,0,0,1-.1-.1,18.45,18.45,0,0,1,.123-4.379.116.116,0,0,1,.123-.1c1.013.08,2.08.107,3.163.091a.109.109,0,0,1,.112.112,29.9,29.9,0,0,0,.384,4.453.1.1,0,0,1-.027.091.113.113,0,0,1-.091.043Zm-3.573-.421a29.567,29.567,0,0,0,3.44.2,29.953,29.953,0,0,1-.363-4.245c-1.019.011-2.016-.016-2.971-.085A18.732,18.732,0,0,0,10.547,15.512Zm4.341.416a.119.119,0,0,1-.112-.1,28.509,28.509,0,0,1-.389-4.5.108.108,0,0,1,.107-.112c.523-.021,1.045-.048,1.563-.085a45.605,45.605,0,0,0,4.795-.629.109.109,0,0,1,.128.085l.875,4.475a.124.124,0,0,1-.016.085.1.1,0,0,1-.069.048,43.352,43.352,0,0,1-6.88.725Zm-.277-4.485a29.443,29.443,0,0,0,.373,4.261,42.218,42.218,0,0,0,6.64-.7l-.832-4.256a42.75,42.75,0,0,1-4.715.613c-.485.037-.976.069-1.467.085ZM9.677,15.619H9.656c-.283-.043-.56-.085-.832-.139s-.517-.1-.773-.16c-.085-.021-.171-.037-.256-.059-.272-.064-.517-.128-.757-.2a.115.115,0,0,1-.085-.112,15.169,15.169,0,0,1,.683-4.085.113.113,0,0,1,.128-.075c.651.123,1.333.219,2.043.288a.092.092,0,0,1,.075.043.1.1,0,0,1,.021.085A19.8,19.8,0,0,0,9.779,15.5a.145.145,0,0,1-.032.091.158.158,0,0,1-.069.032Zm-2.491-.741c.213.059.427.112.645.16.1.027.187.048.272.064l.763.16c.224.043.453.08.688.117a19.237,19.237,0,0,1,.128-4.08c-.64-.064-1.264-.16-1.851-.261a15.27,15.27,0,0,0-.645,3.84Zm15.312.176a.152.152,0,0,1-.064-.021.1.1,0,0,1-.048-.069l-.875-4.475a.118.118,0,0,1,.085-.133A46.667,46.667,0,0,0,26.28,9.133c.5-.16.992-.331,1.483-.507a.115.115,0,0,1,.144.064,29.064,29.064,0,0,1,1.333,4.315.112.112,0,0,1-.069.128,41.769,41.769,0,0,1-6.651,1.915l-.021.005Zm-.741-4.5.832,4.256a41.927,41.927,0,0,0,6.416-1.851,29.175,29.175,0,0,0-1.259-4.085c-.459.165-.923.325-1.387.475a45.837,45.837,0,0,1-4.6,1.205Zm8.091,2.309s-.037,0-.048-.011a.138.138,0,0,1-.059-.075,29.723,29.723,0,0,0-1.328-4.267.118.118,0,0,1,0-.085.1.1,0,0,1,.064-.059q1.48-.568,2.9-1.275a.105.105,0,0,1,.144.043,18.745,18.745,0,0,1,1.76,4.005.114.114,0,0,1-.053.128,31.67,31.67,0,0,1-3.333,1.589.06.06,0,0,0-.043.005ZM28.664,8.525a29.916,29.916,0,0,1,1.264,4.069,31.756,31.756,0,0,0,3.109-1.477,18.071,18.071,0,0,0-1.659-3.781c-.859.421-1.771.827-2.715,1.189Zm5.184,2.368a.092.092,0,0,1-.043-.011.093.093,0,0,1-.064-.069A19.344,19.344,0,0,0,32,6.893a.1.1,0,0,1-.011-.085.107.107,0,0,1,.053-.064c.629-.336,1.232-.688,1.787-1.04a.108.108,0,0,1,.144.027,15.392,15.392,0,0,1,2.176,3.531.107.107,0,0,1-.032.133c-.192.149-.395.3-.613.453-.075.053-.149.107-.229.16-.213.149-.432.3-.656.437s-.475.293-.72.443a.092.092,0,0,1-.053.005ZM32.253,6.883a19.291,19.291,0,0,1,1.659,3.733c.2-.123.4-.24.592-.368.219-.139.443-.288.651-.432l.224-.16c.181-.128.357-.261.533-.395a14.735,14.735,0,0,0-2.043-3.317c-.528.331-1.067.645-1.616.939ZM13.144,10.712c-.837,0-1.669-.027-2.459-.091a.094.094,0,0,1-.08-.043.1.1,0,0,1-.021-.085,15.51,15.51,0,0,1,1.541-4.405.114.114,0,0,1,.1-.059c.672,0,1.365-.027,2.059-.064a.1.1,0,0,1,.091.043.134.134,0,0,1,.027.1,21.321,21.321,0,0,0-.539,4.5.107.107,0,0,1-.107.107c-.2,0-.405.005-.6.005l-.011-.005Zm-2.32-.3c.9.064,1.845.091,2.805.075a21.762,21.762,0,0,1,.512-4.288c-.624.032-1.248.048-1.856.053A15.506,15.506,0,0,0,10.824,10.408Zm3.675.283a.109.109,0,0,1-.08-.032.121.121,0,0,1-.032-.085,20.59,20.59,0,0,1,.587-4.581.114.114,0,0,1,.1-.085,44.741,44.741,0,0,0,4.757-.629.109.109,0,0,1,.128.085l.875,4.475a.124.124,0,0,1-.016.085.1.1,0,0,1-.069.048,42.96,42.96,0,0,1-6.251.72Zm.677-4.56a19.761,19.761,0,0,0-.555,4.331,43.047,43.047,0,0,0,5.984-.683l-.832-4.256c-1.541.283-3.088.485-4.6.608ZM9.933,10.563H9.923c-.688-.069-1.344-.16-1.941-.267a.114.114,0,0,1-.091-.149c.016-.048.032-.085.048-.133l.021-.048c.155-.405.331-.811.517-1.2a15.257,15.257,0,0,1,1.707-2.736.11.11,0,0,1,.1-.043c.347.021.72.032,1.1.043a.1.1,0,0,1,.091.053.109.109,0,0,1,.005.107,16.3,16.3,0,0,0-1.435,4.288.109.109,0,0,1-.107.085Zm-1.787-.469c.56.1,1.125.171,1.691.229a16.714,16.714,0,0,1,1.355-4.085l-.869-.032A15.2,15.2,0,0,0,8.68,8.851q-.28.584-.512,1.184l-.021.059Zm13.328-.256a.152.152,0,0,1-.064-.021.1.1,0,0,1-.048-.069l-.875-4.475a.118.118,0,0,1,.085-.133,44.552,44.552,0,0,0,4.645-1.211.109.109,0,0,1,.123.043,20.735,20.735,0,0,1,2.272,4.021.118.118,0,0,1,0,.085.148.148,0,0,1-.064.064,42.851,42.851,0,0,1-6.053,1.7Zm-.747-4.5.832,4.256a42.75,42.75,0,0,0,5.8-1.621,20.294,20.294,0,0,0-2.149-3.8A44.442,44.442,0,0,1,20.728,5.336ZM28.221,7.88a.113.113,0,0,1-.1-.064,21.632,21.632,0,0,0-2.2-3.963.111.111,0,0,1,.053-.171c.651-.224,1.307-.464,1.931-.72a.106.106,0,0,1,.112.016,15.557,15.557,0,0,1,3.088,3.5.114.114,0,0,1-.048.16c-.88.437-1.824.853-2.8,1.232a.136.136,0,0,1-.037.011ZM26.184,3.843a21.705,21.705,0,0,1,2.091,3.781c.9-.347,1.76-.725,2.571-1.125a15.5,15.5,0,0,0-2.923-3.307c-.56.229-1.147.448-1.739.651Zm5.5,2.459a.114.114,0,0,1-.1-.048,16.264,16.264,0,0,0-2.944-3.429.122.122,0,0,1-.037-.1.106.106,0,0,1,.064-.085c.347-.149.683-.3,1-.448a.113.113,0,0,1,.1.005,15.424,15.424,0,0,1,2.608,1.893c.32.288.635.592.933.917l.133.144a.115.115,0,0,1,.027.091.136.136,0,0,1-.048.08c-.517.325-1.088.656-1.7.981a.1.1,0,0,1-.053.011l.011-.011ZM28.936,2.771A16.471,16.471,0,0,1,31.731,6.04c.5-.267,1-.555,1.477-.853l-.043-.043c-.293-.315-.6-.613-.923-.9a15.428,15.428,0,0,0-2.517-1.835c-.261.123-.523.245-.789.363ZM11.779,5.491h0c-.3,0-.608-.011-.9-.016a.113.113,0,0,1-.1-.064.106.106,0,0,1,.021-.117A15.673,15.673,0,0,1,13.48,2.9a.112.112,0,0,1,.149.165A13.189,13.189,0,0,0,11.88,5.437a.121.121,0,0,1-.1.053Zm-.656-.229c.2.005.395.011.592.011A13.633,13.633,0,0,1,12.787,3.7,14.423,14.423,0,0,0,11.123,5.261Zm1.536.229a.1.1,0,0,1-.1-.059.106.106,0,0,1,0-.112A11.144,11.144,0,0,1,16.093,1.7a.115.115,0,0,1,.144.021.106.106,0,0,1,.005.139,10.445,10.445,0,0,0-1.653,3.477.1.1,0,0,1-.1.08c-.608.037-1.221.059-1.829.075ZM15.72,2.221a11.067,11.067,0,0,0-2.853,3.04q.768-.016,1.536-.064A11.019,11.019,0,0,1,15.72,2.221Zm-.427,3.136a.111.111,0,0,1-.085-.043.113.113,0,0,1-.021-.1c.8-2.555,2.075-4.176,3.7-4.677a.113.113,0,0,1,.144.085l.784,4.005a.124.124,0,0,1-.016.085.1.1,0,0,1-.069.048c-1.5.277-2.987.48-4.421.6l-.011-.005ZM18.835.792C17.373,1.3,16.211,2.8,15.453,5.123c1.339-.117,2.725-.309,4.117-.565L18.835.792Zm1.611,3.824a.152.152,0,0,1-.064-.021.1.1,0,0,1-.048-.069L19.549.52a.1.1,0,0,1,.021-.085.126.126,0,0,1,.08-.048c1.685-.144,3.5.885,5.189,2.939a.1.1,0,0,1,.021.1.106.106,0,0,1-.075.075,44.039,44.039,0,0,1-4.32,1.1l-.021.011ZM19.795.605l.736,3.765c1.392-.288,2.741-.629,4.027-1.029C22.989,1.48,21.341.531,19.795.605Zm5.728,2.656a.111.111,0,0,1-.085-.043A10.566,10.566,0,0,0,22.595.627a.11.11,0,0,1,.075-.2,11.206,11.206,0,0,1,4.64,2.021.131.131,0,0,1,.048.1.112.112,0,0,1-.069.091c-.571.219-1.152.432-1.723.624-.021,0-.032.005-.043,0Zm-2.3-2.5a11.32,11.32,0,0,1,2.347,2.261c.48-.16.965-.336,1.445-.517A11.014,11.014,0,0,0,23.219.76Zm4.843,1.552a.112.112,0,0,1-.069-.027A12.791,12.791,0,0,0,25.475.749a.11.11,0,0,1-.059-.139.113.113,0,0,1,.128-.075,15.251,15.251,0,0,1,3.387,1.205.12.12,0,0,1,.064.1.113.113,0,0,1-.064.1c-.272.123-.549.24-.827.357a.165.165,0,0,1-.043.011ZM26.493,1.021a14.292,14.292,0,0,1,1.584,1.051c.181-.075.363-.155.544-.235a14.469,14.469,0,0,0-2.128-.816Z" fill="#292561"/>
  </g>
</svg>
