<?xml version="1.0" encoding="UTF-8"?>
<svg id="Layer_1" data-name="Layer 1" xmlns="http://www.w3.org/2000/svg" viewBox="0 0 1049.89 402.97">
  <defs>
    <style>
      .cls-1 {
        fill: #ed1c24;
      }

      .cls-2 {
        fill: #262262;
      }

      .cls-3 {
        fill: #231f20;
      }
    </style>
  </defs>
  <g>
    <g>
      <path class="cls-2" d="m250.73,268.74s93.41-67.6,142.19-70.82l4.6,33.11s-92.95,16.09-100.31,21.61c-7.36,5.52-28.53,22.53-29.45,23.91-.92,1.38-17.03-7.82-17.03-7.82Z"/>
      <g>
        <path class="cls-2" d="m525.4,199.43c.72.61,1.43,1.23,2.15,1.84-3.35,7-5.74,14.69-10.23,20.86-9.98,13.74-24.76,17.97-41.18,19.03-30.86,2-53.29-13.24-61.53-43.05-7.2-26.06-6.12-52.2,1.78-77.79,9.37-30.35,29.42-44.49,59.44-43.55,21.93.68,38.86,12.48,45.61,32.29,1.82,5.33,2.46,11.05,3.66,16.69h71.38c0-31.02,0-61.68,0-92.55h-67.6v16.81c-8.72-4.56-16.74-9.84-25.5-13.13-28.82-10.84-58.57-10.77-88.2-4.44-44.4,9.49-73.44,36.08-85.31,80.31-6.15,22.93-6.83,46.25-3.62,69.73,3.23,23.6,10.49,45.65,25.71,64.38,18.93,23.3,44.15,35.57,73.36,40.06,29.19,4.49,58.27,4.82,86.18-6.62,7.11-2.92,13.39-7.88,20.73-12.31v16.93h67.6v-85.84h19.43v-45.71h-121.45v46.06h27.59Zm168.29,71.45c9.95,8.69,19.85,14.02,31.42,16.16,21.16,3.93,42.35,3.45,63.35-.3,34.59-6.17,63.48-24.34,66.99-66.46,2.79-33.45-6.12-56.31-38.37-71.36-16.74-7.81-34.55-13.29-51.82-19.98-15.83-6.13-31.73-12.14-47.31-18.89-6.76-2.93-10.19-9.12-9.46-16.8.73-7.69,5.51-12.46,12.5-14.77,5.2-1.72,10.63-3.27,16.05-3.67,21.88-1.6,39.62,5.06,44.44,29.53.84,4.27.9,8.68,1.33,13.16h66.17V33.41h-64.01c-.23,4.24-.41,7.8-.58,10.98-7.43-3.53-13.89-7.57-20.93-9.78-28.23-8.89-56.7-8.17-84.86.28-17.79,5.34-32.13,15.79-40.94,32.59-7.59,14.47-9.38,30.18-8.93,46.29.49,17.31,7.92,30.95,21.38,41.56,17.8,14.03,39.25,19.68,60.24,26.59,17.37,5.72,34.55,12.11,51.53,18.91,8.93,3.58,12.93,11.31,11.8,20.94-1.1,9.44-6.55,16.4-15.61,18.67-8,2-16.6,3.03-24.8,2.48-21.08-1.41-34.22-15.55-35.5-36.65-.24-3.92-.52-7.83-.77-11.65h-70.3v90.3h66.99v-14.05Zm283.99-31.58c-.32-1.66-.63-2.5-.63-3.34-.03-50.7,0-101.4-.09-152.1,0-4.08,1.48-5.45,5.47-5.33,7.42.22,14.84.06,22.36.06v-45.46h-138.4v45.48c6.94,0,13.58.43,20.14-.12,6.8-.57,8.58,1.84,8.53,8.56-.28,48.04-.15,96.08-.14,144.13v8.23h-28.45v45.58h138.12v-45.7h-26.91Z"/>
        <path class="cls-2" d="m525.4,199.43h-27.59v-46.06h121.45v45.71h-19.43v85.84h-67.6v-16.93c-7.34,4.43-13.62,9.4-20.73,12.31-27.92,11.44-56.99,11.11-86.18,6.62-29.21-4.49-54.43-16.76-73.36-40.06-15.22-18.73-22.49-40.78-25.71-64.38-3.21-23.48-2.53-46.8,3.62-69.73,11.87-44.23,40.9-70.82,85.31-80.31,29.63-6.33,59.38-6.4,88.2,4.44,8.76,3.3,16.78,8.58,25.5,13.13v-16.81h67.6c0,30.88,0,61.53,0,92.55h-71.38c-1.2-5.63-1.84-11.36-3.66-16.69-6.74-19.8-23.67-31.6-45.61-32.29-30.02-.94-50.07,13.2-59.44,43.55-7.9,25.58-8.98,51.72-1.78,77.79,8.24,29.81,30.67,45.05,61.53,43.05,16.42-1.07,31.2-5.3,41.18-19.03,4.49-6.17,6.88-13.86,10.23-20.86-.72-.61-1.43-1.23-2.15-1.84Z"/>
        <path class="cls-2" d="m693.69,270.88v14.05h-66.99v-90.3h70.3c.25,3.81.53,7.73.77,11.65,1.28,21.1,14.42,35.23,35.5,36.65,8.2.55,16.81-.48,24.8-2.48,9.06-2.27,14.51-9.23,15.61-18.67,1.12-9.63-2.87-17.36-11.8-20.94-16.98-6.81-34.16-13.2-51.53-18.91-20.99-6.91-42.43-12.56-60.24-26.59-13.46-10.6-20.89-24.24-21.38-41.56-.45-16.12,1.34-31.82,8.93-46.29,8.81-16.8,23.14-27.25,40.94-32.59,28.16-8.45,56.63-9.17,84.86-.28,7.04,2.21,13.5,6.25,20.93,9.78.17-3.18.36-6.74.58-10.98h64.01v84.11h-66.17c-.43-4.48-.49-8.89-1.33-13.16-4.83-24.47-22.57-31.13-44.44-29.53-5.42.4-10.86,1.95-16.05,3.67-6.98,2.31-11.77,7.08-12.5,14.77-.73,7.67,2.7,13.87,9.46,16.8,15.57,6.75,31.47,12.75,47.31,18.89,17.27,6.69,35.08,12.17,51.82,19.98,32.25,15.05,41.16,37.9,38.37,71.36-3.51,42.12-32.4,60.28-66.99,66.46-21.01,3.75-42.19,4.23-63.35.3-11.57-2.15-21.47-7.48-31.42-16.16Z"/>
        <path class="cls-1" d="m977.68,239.3h26.91v45.7h-138.12v-45.58h28.45v-8.23c0-48.04-.14-96.09.14-144.13.04-6.73-1.74-9.13-8.53-8.56-6.56.55-13.21.12-20.14.12v-45.48h138.4v45.46c-7.52,0-14.95.16-22.36-.06-3.99-.12-5.48,1.25-5.47,5.33.09,50.7.07,101.4.09,152.1,0,.84.31,1.68.63,3.34Z"/>
      </g>
      <path class="cls-2" d="m163.97,319.19c-88.06,0-159.7-71.59-159.7-159.59S75.91,0,163.97,0c26.3,0,52.38,6.53,75.41,18.88l-3.1,5.77c-22.08-11.84-47.08-18.1-72.31-18.1C79.52,6.54,10.82,75.2,10.82,159.59s68.7,153.05,153.15,153.05c18.57,0,36.72-3.28,53.94-9.76,14.41-5.42,27.88-13.6,40.89-21.51,12.61-7.66,25.66-15.59,39.77-21.19,30.73-12.19,66.88-15.64,101.78-9.71,8.48,1.44,17.1,3.43,25.64,5.9l-1.83,6.28c-8.3-2.41-16.68-4.34-24.91-5.74-33.74-5.73-68.63-2.41-98.27,9.34-13.6,5.4-26.4,13.18-38.79,20.7-13.28,8.07-27,16.41-41.99,22.05-17.96,6.76-36.89,10.18-56.25,10.18Z"/>
      <path class="cls-2" d="m237.82,21.76s-.74-.36-2.18-1.06c-1.43-.72-3.59-1.71-6.42-2.96-5.69-2.42-14.16-5.77-25.36-8.44-11.17-2.67-25.11-4.69-41.03-4.19-15.92.47-33.83,3.51-51.93,10.67-18.07,7.12-36.22,18.46-51.83,34.09-15.58,15.59-28.52,35.49-36.15,58.05-7.69,22.5-9.93,47.57-5.97,71.96,3.89,24.38,14.2,47.91,29.57,67.36,15.33,19.48,35.58,34.82,57.76,44.17,22.18,9.44,46.17,12.8,68.76,10.77,11.29-1,22.24-3.32,32.51-6.74,5.17-1.71,10.02-3.67,14.98-6.01,1.13-.56,2.19-1.03,3.37-1.65,1.18-.61,2.35-1.23,3.52-1.84,2.34-1.29,4.66-2.54,6.98-3.93,18.47-10.85,36.4-24.29,56.83-33.2l1.89-.84.47-.21.73-.29.85-.34c1.14-.46,2.27-.91,3.4-1.36,1.05-.44,2.42-.92,3.71-1.38,1.3-.46,2.6-.92,3.89-1.38,2.52-.83,4.95-1.58,7.4-2.33,2.45-.66,4.87-1.36,7.27-1.97,9.62-2.4,18.9-3.95,27.66-4.9,17.54-1.89,32.96-1.29,45.54.02,3.15.29,6.12.76,8.92,1.11-1.01-.16-.21-.04-.41-.07h.12s.24.04.24.04l.47.06.47.06.23.03h.04c.05-.02.11-.03.16-.03h.32c.7.02,1.51,0,2.37-.01,1.73-.05,3.69-.16,5.67-.26,1.98-.1,3.96-.18,5.93-.19,3.89-.04,7.61.25,10.35.74,1.32.2,2.48.49,3.21.67.74.18,1.12.28,1.12.28l-10.95,37.71s-.03,0-.07-.02c-.06-.01-.07-.06-.33-.11-.4-.11-1.42-.32-3.73-.41-1.12-.05-2.6-.06-4.43-.05-1.82,0-4.02.05-6.78,0-1.38-.03-2.9-.08-4.61-.2l-.66-.05-.84-.08c-.56-.06-1.12-.12-1.69-.19l-.42-.05-.23-.04-.47-.08c-.49-.08-.98-.16-1.47-.24-2.3-.38-4.72-.91-7.32-1.26-10.34-1.57-23.13-2.68-37.72-1.79-14.57.9-30.95,3.65-47.56,10.07-8.16,3.11-58.35,30-67.38,35.07-9.06,5.06,23.06-11.67,12.42-6.08-2.62,1.41-5.4,2.76-8.17,4.11-1.41.66-2.83,1.31-4.25,1.97-1.42.66-3.04,1.31-4.56,1.96-5.71,2.37-11.92,4.56-18.17,6.3-12.54,3.53-25.72,5.67-39.17,6.23-3.23.14-7.1.18-10.03.12l-2.64-.07-2.54-.09c-1.69-.11-3.39-.18-5.09-.32-6.79-.53-13.6-1.46-20.36-2.81-13.52-2.72-26.83-7.14-39.45-13.18-25.26-12.07-47.57-30.78-63.89-53.65C14.36,236.18,4.11,209.22,1.07,182.04c-3.12-27.17.69-54.44,10.15-78.42,9.41-24.03,24.29-44.63,41.54-60.36,17.29-15.77,36.89-26.74,56.01-33.26C127.92,3.44,146.54,1.2,162.79,1.47c16.33.25,30.35,2.97,41.51,6.19,11.19,3.22,19.53,6.99,25.12,9.67,2.78,1.4,4.89,2.48,6.28,3.27,1.4.77,2.13,1.16,2.13,1.16Z"/>
      <g>
        <path class="cls-1" d="m278.74,115.47c-.61-2.2-1.29-4.37-2.03-6.5-.59-1.71-1.21-3.39-1.87-5.06-.71-1.79-1.46-3.55-2.25-5.28-4.11-8.99-9.31-17.3-15.41-24.78.12-.08.25-.16.37-.25-.23-.06-.47-.11-.7-.16-1.06-1.29-2.16-2.55-3.27-3.79-.95-1.05-1.91-2.08-2.89-3.1-6.67-6.88-14.16-12.9-22.28-17.92-1.86-1.15-3.75-2.26-5.68-3.3-21.9-11.88-47.76-16.75-74.05-12.27-.03,0-.05,0-.08.01-.88.14-1.76.29-2.64.46-.02,0-.05,0-.07.01-.02,0-.04.01-.06.01-.88.17-1.75.37-2.62.57-.03,0-.05.01-.08.02-26.04,5.75-48.16,19.99-63.97,39.25-1.39,1.69-2.73,3.43-4.02,5.2-5.63,7.71-10.3,16.1-13.88,24.99-.53,1.31-1.03,2.63-1.51,3.96-.57,1.57-1.1,3.15-1.6,4.75-.2.14-.39.28-.59.42.14.03.29.06.44.09-2.83,9.23-4.52,18.88-4.93,28.76-.08,1.91-.11,3.82-.09,5.74.02,1.79.08,3.59.18,5.39.13,2.26.31,4.52.58,6.79.34,2.97.8,5.94,1.39,8.92,1.46,7.45,3.62,14.58,6.38,21.36.93,2.28,1.93,4.52,3,6.72,6.94,14.28,16.67,26.75,28.38,36.83,2.74,2.35,5.58,4.58,8.52,6.66,24.11,17.11,54.73,24.98,85.95,19.64.86-.15,1.72-.3,2.58-.47.04,0,.09-.01.13-.02.04,0,.08-.02.13-.03.86-.17,1.71-.35,2.57-.54,30.93-6.81,56.32-25.63,72.21-50.56,1.94-3.04,3.73-6.17,5.38-9.38,7.05-13.75,11.37-28.96,12.41-44.8.16-2.44.24-4.89.24-7.36,0-7.32-.69-14.74-2.14-22.19-.58-2.98-1.28-5.91-2.08-8.79Zm-10.56-13.25c-1.41,1.09-2.87,2.18-4.39,3.26-.54.39-1.09.78-1.65,1.16-1.54,1.06-3.11,2.11-4.73,3.15-1.68,1.08-3.42,2.14-5.18,3.18-3.24-10.25-7.53-19.82-12.65-28.53,4.55-2.41,8.89-4.93,12.99-7.54,6.26,7.59,11.54,16.08,15.6,25.32Zm-17.24,27.88c2.42,12.35,3.12,24.54,2.3,36.18-7.48,3.94-15.52,7.6-24.04,10.93.01-13.47-1.37-27.68-4.18-42.05-.17-.85-.35-1.69-.53-2.54,8.66-3.5,16.83-7.32,24.4-11.45.77,2.92,1.46,5.9,2.05,8.92Zm-165.96,32.45c-.59-3.02-1.08-6.04-1.46-9.03,8.56.97,17.58,1.44,26.92,1.42.16.85.3,1.7.47,2.55,2.81,14.36,6.89,28.05,11.98,40.52-9.15.13-17.98-.24-26.39-1.07-5.14-10.47-9.09-22.03-11.51-34.38Zm134.64-26.32c2.89,14.77,4.24,29.35,4.08,43.06-13.74,5.02-28.59,9.19-44.06,12.35l-8.45-43.17c16.97-3.46,33.2-8.14,48.11-13.8.11.52.22,1.04.32,1.56Zm-2.39,85.49c-9.68,2.99-19.8,5.58-30.2,7.7l-6.34-32.39c14.99-3.06,29.4-7.06,42.83-11.85-.5,11.02-2,21.4-4.54,30.75-.54,2-1.13,3.93-1.75,5.78Zm-70.28,8.3c-5.88-7.7-11.18-16.75-15.8-26.77,14.26-.62,29.11-2.34,44.14-5.15l6.34,32.39c-10.44,1.95-20.78,3.37-30.88,4.24-1.28-1.49-2.54-3.05-3.8-4.7Zm-30.65-73.59c-.1-.52-.19-1.04-.29-1.57,15.95-.37,32.74-2.15,49.77-5.34l8.45,43.17c-15.53,2.9-30.85,4.63-45.47,5.15-5.33-12.64-9.57-26.66-12.46-41.42Zm-4.08-39.45c3.75-.14,7.53-.34,11.35-.63,11.36-.86,23.03-2.38,34.81-4.59l6.34,32.37c-17.03,3.18-33.8,4.94-49.68,5.26-1.81-11.07-2.75-21.97-2.83-32.42Zm105.9,12.26c-14.83,5.68-31.03,10.37-48,13.83l-6.34-32.37c11.74-2.4,23.13-5.38,33.98-8.86,3.65-1.17,7.24-2.4,10.76-3.69,3.87,9.71,7.11,20.16,9.6,31.09Zm-55.39-23.94l-6.34-32.37c11.64-2.38,22.93-5.33,33.69-8.77,6.13,8.31,11.63,18.09,16.32,28.92-13.63,4.96-28.34,9.1-43.68,12.23Zm-7.4-37.78l-5.67-28.95c11.9-1,24.79,6.33,36.84,20.97-9.98,3.12-20.43,5.79-31.18,7.98Zm-11.07-27.9l5.67,28.95c-10.78,2.02-21.47,3.48-31.89,4.35,5.65-18.1,14.82-29.75,26.22-33.3Zm-27.79,38.93c11.27-.86,22.84-2.38,34.52-4.56l6.34,32.37c-15.39,2.88-30.57,4.59-45.07,5.12.26-11.8,1.67-22.93,4.22-32.93Zm66.21,157.34l3.57,18.22c-9.92.84-20.54-4.13-30.78-14.3,8.94-.9,18.04-2.2,27.22-3.92Zm8.97,17.16l-3.57-18.22c9.14-1.87,18.07-4.08,26.69-6.62-5.66,13.28-13.62,21.87-23.12,24.84Zm22.01-156.82c7.37-2.85,14.4-5.95,21.03-9.26,5.17,8.75,9.46,18.42,12.65,28.81-7.43,4.11-15.49,7.94-24.05,11.43-2.52-10.87-5.77-21.28-9.63-30.98Zm-2.11-5.08c-4.62-10.7-9.99-20.42-15.99-28.8,4.8-1.64,9.47-3.38,14.02-5.21,8.29,6.86,15.8,15.35,22.19,25.14-6.38,3.17-13.14,6.14-20.22,8.88Zm-19.46-33.43c-6.67-8.43-13.69-14.8-20.79-18.97,11.65,2.03,22.94,7.04,33.22,14.47-4.05,1.57-8.19,3.08-12.43,4.5Zm-79.93,15.63c-4.47.28-8.87.45-13.21.52,6.72-10.76,15.29-19.64,25.32-25.91-5,6.53-9.1,15.07-12.1,25.4Zm-1.47,5.59c-2.39,10.02-3.7,21.05-3.95,32.7-7.59.13-14.97-.08-22.07-.61,2.22-11.47,5.99-22.16,11.08-31.64,4.9-.02,9.89-.17,14.95-.45Zm-3.98,38.2c.08,10.44,1,21.31,2.76,32.33-9.25,0-18.15-.52-26.59-1.53-.97-10.83-.64-21.4.85-31.45,7.39.57,15.07.78,22.97.65Zm18.47,86.32c5,11.24,10.85,21.37,17.38,29.92.48.63.97,1.26,1.46,1.87-5.9.37-11.71.57-17.38.56-10.51-8.63-19.8-19.87-27.13-33.07,8.23.68,16.82.92,25.68.72Zm23.27,36.99c5.25,5.76,10.67,10.28,16.14,13.49-10.72-1.87-21.12-6.26-30.73-12.73,4.79-.13,9.66-.38,14.58-.76Zm73.04-14.28c4.71-1.5,9.31-3.1,13.8-4.79l-23.66,23.37c3.86-5.03,7.17-11.26,9.87-18.58Zm2.14-6.49c.22-.75.44-1.51.64-2.28,2.82-10.38,4.42-21.96,4.82-34.26,8.28-3.16,16.15-6.61,23.51-10.34-1.81,14.99-6.18,28.89-12.66,40.85-5.26,2.14-10.71,4.15-16.32,6.02Zm17.59-154.58c2.33,2.09,4.57,4.29,6.72,6.58.32.34.65.68.97,1.03-3.87,2.44-7.97,4.79-12.24,7.05-6.2-9.58-13.45-17.99-21.44-24.97,2.47-1.06,4.89-2.15,7.27-3.27,6.7,3.85,12.98,8.4,18.73,13.57Zm-24.8-16.81c-1.96.88-3.96,1.73-5.98,2.57-5.82-4.51-11.97-8.28-18.36-11.23,8.47,1.93,16.64,4.85,24.33,8.66Zm-111.08,8.3c-4.8,5.13-9.08,10.94-12.77,17.31-2.18-.02-4.36-.05-6.51-.13,5.69-6.43,12.16-12.21,19.28-17.18Zm-23.68,22.47c2.62.14,5.28.24,7.96.29-4.77,9.47-8.31,19.99-10.44,31.2-4.81-.49-9.49-1.12-14-1.92.16-.44.34-.88.51-1.32,1.13-2.93,2.37-5.81,3.74-8.63,3.38-6.96,7.48-13.54,12.23-19.63Zm-18.27,34.85c4.78.88,9.75,1.57,14.88,2.1-1.46,9.99-1.83,20.47-.96,31.19-2.03-.31-4.03-.63-6-1-1.88-.35-3.74-.73-5.56-1.14-.66-.15-1.31-.3-1.96-.46-1.81-.43-3.58-.88-5.29-1.36.29-10.09,1.97-19.94,4.91-29.33Zm-2.91,53.45c-.8-4.09-1.35-8.17-1.68-12.22-.17-2.08-.28-4.15-.33-6.21,1.97.53,3.98,1.03,6.06,1.49.13.03.26.05.39.08,4.16.92,8.49,1.68,12.94,2.31.43,3.58.99,7.19,1.7,10.81,2.27,11.6,5.85,22.54,10.47,32.58-5.12-.68-10.07-1.53-14.79-2.58-2.37-.53-4.65-1.1-6.86-1.72-3.52-7.69-6.21-15.9-7.9-24.55Zm11.15,31.07c.8.19,1.6.38,2.41.56,5.98,1.34,12.31,2.36,18.88,3.11,6.79,13.06,15.41,24.42,25.25,33.56-5.05-.17-9.98-.5-14.77-.98-12.99-9.47-23.94-21.79-31.78-36.25Zm41.36,42.51c3.84.21,7.76.33,11.74.36,6.02,4.75,12.41,8.71,19.05,11.77-10.88-2.48-21.26-6.59-30.79-12.12Zm117.57-4.84c4.99-5.34,9.42-11.41,13.21-18.08,3.67-1.53,7.26-3.11,10.74-4.75-6.74,8.72-14.8,16.43-23.95,22.83Zm30.47-32.23c-4.25,2.25-8.7,4.41-13.31,6.47,5.66-12.17,9.36-25.94,10.73-40.6,5.81-3.17,11.28-6.5,16.32-9.99.69-.48,1.36-.95,2.02-1.43-1.81,16.35-7.3,31.88-15.77,45.55Zm10.61-48.64c-3.98,2.76-8.24,5.41-12.73,7.96.5-11.04-.31-22.52-2.58-34.12-.71-3.62-1.55-7.17-2.5-10.65,3.88-2.26,7.6-4.6,11.11-7.01.11-.08.22-.15.33-.22,1.75-1.21,3.43-2.44,5.05-3.67.73,1.93,1.41,3.89,2.04,5.87,1.22,3.88,2.25,7.87,3.05,11.95,1.69,8.65,2.31,17.27,1.94,25.72-1.82,1.4-3.72,2.79-5.71,4.17Z"/>
        <path class="cls-1" d="m167.92,262.07h0c-24.07,0-47.24-7.42-67-21.44-2.96-2.1-5.84-4.36-8.58-6.71-12.06-10.37-21.67-22.85-28.58-37.09-1.07-2.21-2.09-4.48-3.02-6.77-2.83-6.93-4.99-14.17-6.43-21.51-.58-2.95-1.05-5.98-1.4-8.99-.25-2.19-.45-4.49-.58-6.84-.1-1.83-.16-3.66-.18-5.43-.02-1.93.02-3.87.1-5.78.4-9.55,1.99-19.04,4.75-28.23-.12-.11-.2-.26-.23-.42-.06-.31.06-.63.32-.82l.37-.26c.46-1.46.96-2.95,1.53-4.52.48-1.34.99-2.67,1.52-3.99,3.59-8.91,8.29-17.38,13.98-25.17,1.35-1.85,2.71-3.61,4.04-5.23,16.59-20.21,38.87-33.88,64.42-39.53.95-.22,1.83-.42,2.72-.6,1.03-.2,1.92-.35,2.81-.49,6.52-1.11,13.08-1.67,19.58-1.67,19.13,0,38.17,4.84,55.06,14.01,1.85,1,3.77,2.12,5.72,3.33,8.2,5.07,15.75,11.14,22.44,18.05.99,1.02,1.96,2.06,2.91,3.12,1.1,1.22,2.15,2.43,3.12,3.61l.44.1c.31.07.55.32.61.64.03.17,0,.33-.06.48,6.01,7.47,11.07,15.66,15.04,24.36.8,1.74,1.56,3.53,2.27,5.32.66,1.65,1.29,3.37,1.88,5.09.76,2.22,1.45,4.42,2.04,6.55.81,2.93,1.52,5.91,2.09,8.85,1.44,7.34,2.16,14.86,2.16,22.35,0,2.48-.08,4.97-.24,7.41-1.03,15.79-5.24,30.97-12.49,45.12-1.65,3.21-3.47,6.39-5.42,9.45-16.68,26.18-42.5,44.26-72.72,50.91-.86.19-1.72.37-2.58.54,0,0-.21.04-.22.04-.91.18-1.77.33-2.64.48-6.46,1.11-13.04,1.67-19.55,1.67ZM58.8,112.76c0,.09,0,.18-.03.27-2.85,9.28-4.5,18.88-4.9,28.55-.08,1.88-.11,3.8-.09,5.7.02,1.74.07,3.54.17,5.35.13,2.31.32,4.58.57,6.74.34,2.97.81,5.95,1.38,8.86,1.42,7.24,3.55,14.38,6.34,21.21.92,2.26,1.92,4.5,2.98,6.68,6.82,14.04,16.3,26.34,28.18,36.57,2.7,2.32,5.54,4.55,8.46,6.62,19.49,13.83,42.33,21.15,66.06,21.15h0c6.42,0,12.91-.55,19.28-1.64.85-.15,1.71-.3,2.56-.47,0,0,.26-.05.26-.05.84-.17,1.69-.35,2.54-.53,29.79-6.56,55.25-24.38,71.7-50.2,1.92-3.01,3.72-6.15,5.34-9.31,7.15-13.95,11.3-28.92,12.32-44.49.16-2.4.24-4.86.24-7.3,0-7.38-.71-14.79-2.13-22.03-.57-2.9-1.26-5.84-2.07-8.73-.58-2.1-1.26-4.27-2.01-6.46-.58-1.7-1.21-3.39-1.86-5.02-.7-1.76-1.45-3.52-2.24-5.24-4.02-8.81-9.17-17.08-15.31-24.6-.06-.07-.1-.15-.13-.24-.07-.05-.14-.1-.2-.17-1.01-1.23-2.1-2.49-3.25-3.77-.94-1.04-1.9-2.07-2.87-3.08-6.6-6.81-14.04-12.79-22.13-17.79-1.92-1.19-3.82-2.29-5.64-3.28-22.31-12.11-48.45-16.45-73.53-12.18-.96.15-1.83.3-2.71.47-1,.2-1.87.39-2.72.59-25.28,5.59-47.24,19.06-63.6,39-1.32,1.6-2.66,3.34-3.99,5.16-5.6,7.68-10.24,16.03-13.78,24.82-.52,1.3-1.02,2.61-1.5,3.93-.59,1.65-1.11,3.19-1.59,4.71-.03.08-.07.16-.12.23Zm125.29,142.23c-9.45,0-19.55-5.06-29.19-14.62-.22-.22-.3-.55-.19-.84.1-.3.37-.5.68-.53,8.95-.9,18.08-2.21,27.15-3.91.43-.08.86.2.94.64l3.57,18.22c.04.23,0,.46-.15.64-.14.18-.35.3-.58.32-.74.06-1.49.09-2.23.09Zm-26.81-14.57c9.36,8.87,19.02,13.35,28,12.92l-3.24-16.53c-8.27,1.53-16.59,2.74-24.77,3.6Zm7.33,14.3s-.09,0-.14-.01c-10.72-1.87-21.16-6.2-31.04-12.86-.29-.2-.42-.56-.32-.9.1-.34.4-.57.76-.58,4.79-.13,9.68-.38,14.54-.76.26-.01.49.08.66.26,5.17,5.68,10.54,10.16,15.95,13.34.34.2.49.61.35.98-.12.32-.43.53-.76.53Zm-28.14-12.81c7.73,4.9,15.79,8.37,24.03,10.33-4.2-2.92-8.34-6.6-12.37-10.98-3.89.29-7.8.51-11.66.65Zm7.33,11.94c-.06,0-.12,0-.18-.02-10.91-2.48-21.34-6.59-31.02-12.21-.32-.19-.48-.57-.37-.93.11-.36.44-.59.82-.58,3.71.2,7.65.32,11.7.35.18,0,.35.06.5.17,5.98,4.72,12.34,8.65,18.89,11.67.38.17.56.6.43,1-.11.33-.43.55-.77.55Zm-27.4-11.96c6.5,3.51,13.33,6.35,20.4,8.47-4.24-2.4-8.36-5.17-12.33-8.28-2.76-.02-5.46-.09-8.07-.19Zm75.26,11.96c-.14,0-.29-.04-.41-.11-.2-.12-.34-.31-.38-.54l-3.57-18.22c-.09-.44.2-.86.63-.95,9.04-1.84,18-4.07,26.62-6.6.3-.09.63,0,.83.24.21.23.26.57.14.85-5.76,13.53-13.93,22.27-23.63,25.29-.08.02-.16.04-.24.04Zm-2.62-18.39l3.24,16.53c8.48-2.99,15.73-10.74,21.07-22.52-7.9,2.28-16.06,4.29-24.3,5.99Zm22.6,10.08c-.19,0-.38-.07-.54-.2-.32-.28-.37-.76-.11-1.1,3.81-4.98,7.1-11.16,9.75-18.36.09-.23.28-.41.51-.49,4.64-1.48,9.26-3.09,13.76-4.78.36-.14.76,0,.97.32.21.32.16.74-.11,1.01l-23.66,23.37c-.16.16-.36.23-.57.23Zm10.49-18.73c-1.62,4.33-3.46,8.3-5.51,11.87l15.45-15.26c-3.28,1.18-6.61,2.32-9.94,3.39Zm8.45,10.09c-.23,0-.45-.1-.61-.28-.27-.31-.26-.78.02-1.08,4.93-5.26,9.33-11.29,13.09-17.92.09-.16.23-.28.39-.35,3.74-1.55,7.34-3.15,10.71-4.74.34-.16.74-.07.98.22.23.29.24.71,0,1-6.84,8.85-14.96,16.59-24.12,22.99-.14.1-.3.15-.46.15Zm13.77-18.24c-2.5,4.38-5.28,8.5-8.3,12.31,5.75-4.63,11-9.83,15.7-15.53-2.38,1.08-4.86,2.16-7.4,3.22Zm-117.64,17.96c-.19,0-.44-.06-.58-.18-10.78-8.85-19.97-20.05-27.33-33.3-.15-.26-.13-.58.03-.83.16-.25.44-.39.75-.37,8.16.67,16.78.91,25.59.72.35-.04.62.18.76.48,5.04,11.32,10.85,21.33,17.28,29.75.48.63.96,1.25,1.45,1.85.19.24.23.56.11.83-.12.28-.39.46-.69.48-5.92.38-11.77.57-17.37.57Zm-25.75-32.95c7,12.25,15.95,23.05,25.97,31.33,5.05,0,10.24-.16,15.5-.47-.17-.22-.34-.44-.51-.66-6.41-8.4-12.22-18.36-17.26-29.59-8.14.17-16.11-.04-23.71-.61Zm17.23,32.81s-.02,0-.03,0c-5.11-.17-10.1-.51-14.82-.99-.14-.01-.28-.07-.4-.15-13.21-9.63-24.28-22.26-32.01-36.52-.15-.28-.12-.62.07-.88.2-.25.52-.37.83-.29.79.19,1.59.38,2.4.56,5.79,1.29,12.11,2.34,18.8,3.1.27.03.5.19.63.43,6.71,12.89,15.15,24.11,25.08,33.34.25.23.33.59.2.9-.12.3-.42.5-.75.5Zm-14.47-2.57c3.96.4,8.1.69,12.35.87-9.3-8.98-17.25-19.7-23.65-31.91-6.58-.76-12.82-1.8-18.54-3.08-.22-.05-.43-.1-.64-.15,7.53,13.33,18.04,25.15,30.49,34.26Zm47.02,1.65c-.23,0-.46-.1-.61-.28-1.29-1.5-2.58-3.1-3.83-4.74-5.84-7.66-11.19-16.72-15.89-26.92-.11-.24-.1-.53.04-.76.14-.23.39-.38.66-.39,14.3-.62,29.12-2.35,44.03-5.14.44-.08.86.2.94.64l6.34,32.39c.04.21,0,.43-.12.61-.12.18-.31.3-.52.34-10.38,1.94-20.8,3.37-30.96,4.25-.02,0-.05,0-.07,0Zm-18.36-31.53c4.53,9.66,9.64,18.24,15.2,25.53,1.15,1.5,2.32,2.96,3.5,4.35,9.71-.85,19.66-2.21,29.58-4.04l-6.03-30.8c-14.3,2.64-28.51,4.31-42.26,4.97Zm54.64,26.23c-.16,0-.32-.05-.45-.14-.18-.12-.3-.31-.35-.52l-6.34-32.39c-.09-.44.2-.86.63-.95,14.87-3.03,29.24-7.01,42.72-11.82.25-.09.54-.05.75.11.22.16.34.42.33.69-.51,11.23-2.04,21.63-4.57,30.93-.54,1.99-1.14,3.95-1.76,5.83-.08.25-.28.44-.53.52-9.74,3.01-19.92,5.61-30.28,7.72-.05.01-.11.02-.16.02Zm-5.39-32.56l6.03,30.8c9.89-2.04,19.61-4.53,28.93-7.4.57-1.73,1.11-3.52,1.61-5.35,2.4-8.85,3.9-18.72,4.46-29.37-12.98,4.57-26.77,8.37-41.02,11.32Zm42.01,22.8c-.21,0-.41-.08-.56-.23-.22-.21-.3-.52-.22-.81.22-.75.43-1.5.64-2.26,2.78-10.22,4.39-21.69,4.79-34.07.01-.33.22-.61.52-.73,8.25-3.14,16.13-6.61,23.44-10.3.27-.14.58-.11.83.06.24.17.37.46.34.76-1.82,15.04-6.11,28.88-12.76,41.14-.09.16-.23.29-.41.36-5.2,2.12-10.71,4.15-16.36,6.04-.08.03-.17.04-.26.04Zm6.26-36.78c-.43,12.3-2.06,23.71-4.83,33.9-.07.27-.15.54-.22.81,5.01-1.71,9.9-3.52,14.54-5.4,6.16-11.44,10.38-24.82,12.24-38.8-6.82,3.39-14.12,6.58-21.73,9.5Zm17.83,27.44c-.21,0-.42-.08-.58-.24-.24-.24-.3-.6-.16-.91,5.72-12.3,9.31-25.87,10.66-40.33.03-.27.18-.51.42-.64,5.9-3.22,11.37-6.57,16.25-9.95.68-.47,1.35-.95,2.01-1.42.26-.18.61-.2.88-.04.28.16.43.47.4.79-1.78,16.12-7.28,31.99-15.88,45.88-.08.12-.18.22-.31.29-4.19,2.22-8.68,4.4-13.36,6.5-.11.05-.22.07-.33.07Zm11.5-40.9c-1.32,13.72-4.64,26.65-9.87,38.47,3.87-1.77,7.6-3.6,11.11-5.46,8.09-13.13,13.37-28.03,15.32-43.22-.18.13-.36.25-.54.38-4.82,3.34-10.21,6.65-16.02,9.83Zm-139.9,28.61c-7.84,0-15.55-.37-22.92-1.1-.28-.03-.52-.2-.65-.45-5.31-10.81-9.2-22.44-11.58-34.58-.58-2.96-1.07-6.01-1.47-9.09-.03-.25.05-.49.23-.67.17-.18.42-.27.67-.24,8.25.94,17.05,1.41,26.15,1.41h.67s0,0,0,0c.39,0,.72.28.8.66l.17.95c.09.53.19,1.06.29,1.59,2.78,14.19,6.79,27.77,11.94,40.37.1.25.07.53-.07.75-.15.22-.4.36-.66.36-1.19.02-2.38.03-3.56.03Zm-22.31-2.67c7.92.77,16.21,1.11,24.66,1.04-4.97-12.39-8.86-25.7-11.58-39.57-.11-.54-.2-1.08-.3-1.62l-.05-.28c-8.78,0-17.29-.44-25.3-1.31.37,2.69.81,5.37,1.32,7.96,2.32,11.85,6.1,23.21,11.25,33.78Zm31.74,2.49c-.32,0-.62-.19-.75-.5-5.42-12.87-9.63-26.86-12.51-41.58l-.29-1.57c-.04-.23.02-.47.17-.66.15-.18.37-.29.61-.3,16.05-.37,32.75-2.16,49.64-5.32.43-.08.86.2.94.64l8.45,43.17c.04.21,0,.43-.13.61-.12.18-.31.3-.52.34-15.52,2.9-30.86,4.64-45.59,5.17-.01,0-.02,0-.03,0Zm-11.78-43.01l.12.63c2.82,14.42,6.93,28.13,12.2,40.75,14.22-.54,29.01-2.21,43.99-4.97l-8.14-41.58c-16.38,3.02-32.57,4.76-48.16,5.18Zm-26.93,41.35s-.07,0-.11,0c-5.3-.7-10.3-1.58-14.86-2.59-2.32-.52-4.64-1.1-6.9-1.72-.23-.06-.42-.23-.52-.44-3.61-7.88-6.29-16.2-7.96-24.73-.79-4.01-1.36-8.15-1.69-12.31-.17-2.09-.28-4.19-.33-6.25,0-.26.11-.5.31-.66.2-.16.46-.21.71-.15,2.01.54,4.04,1.04,6.03,1.49l.39.08c3.95.87,8.28,1.65,12.87,2.3.36.05.65.34.69.7.43,3.63,1,7.25,1.69,10.75,2.21,11.3,5.71,22.19,10.41,32.4.12.27.09.58-.08.82-.15.21-.4.33-.65.33Zm-21.07-5.79c2.12.58,4.29,1.12,6.46,1.61,4.09.91,8.55,1.71,13.27,2.37-4.45-9.93-7.78-20.49-9.92-31.42-.66-3.35-1.2-6.8-1.63-10.25-4.41-.64-8.57-1.39-12.38-2.24l-.39-.08c-1.67-.37-3.36-.78-5.05-1.22.06,1.68.16,3.39.29,5.08.33,4.1.9,8.18,1.67,12.13,1.62,8.29,4.21,16.37,7.68,24.03Zm110.65,1.24c-.16,0-.32-.05-.45-.14-.18-.12-.3-.31-.35-.52l-8.45-43.17c-.09-.44.2-.86.63-.95,16.83-3.43,32.98-8.07,47.99-13.76.22-.09.47-.07.68.05.21.11.36.31.4.55l.33,1.56c2.88,14.73,4.26,29.27,4.09,43.23,0,.34-.22.64-.53.75-13.84,5.06-28.7,9.22-44.18,12.38-.05.01-.11.02-.16.02Zm-7.5-43.35l8.14,41.58c14.92-3.08,29.25-7.11,42.62-11.96.12-13.67-1.24-27.92-4.07-42.34l-.13-.62c-14.6,5.49-30.26,9.97-46.57,13.34Zm57.07,28.93c-.16,0-.32-.05-.46-.14-.22-.15-.35-.4-.35-.67.01-13.61-1.39-27.7-4.17-41.89-.11-.54-.22-1.08-.33-1.62l-.19-.91c-.08-.38.13-.77.49-.91,8.66-3.5,16.85-7.34,24.32-11.41.22-.12.48-.13.71-.03.23.1.4.3.46.54.79,2.99,1.48,6.01,2.06,8.97,2.38,12.15,3.16,24.39,2.31,36.4-.02.28-.18.53-.43.66-7.54,3.97-15.66,7.66-24.12,10.97-.1.04-.2.06-.29.06Zm-3.78-44.9l.05.25c.12.55.23,1.09.34,1.64,2.72,13.88,4.13,27.67,4.19,41.01,7.86-3.11,15.41-6.56,22.45-10.25.78-11.72,0-23.67-2.32-35.52-.51-2.6-1.11-5.24-1.78-7.87-7.09,3.82-14.8,7.43-22.94,10.74Zm33.5,30.85c-.15,0-.29-.04-.42-.12-.25-.15-.4-.43-.39-.73.51-11.22-.36-22.64-2.57-33.93-.69-3.5-1.52-7.07-2.49-10.6-.1-.35.06-.73.37-.91,4.01-2.34,7.73-4.69,11.06-6.98l.33-.22c1.68-1.16,3.37-2.39,5.03-3.65.2-.15.47-.21.71-.13.25.07.44.25.53.49.73,1.93,1.42,3.92,2.05,5.92,1.25,3.98,2.29,8.03,3.07,12.04,1.67,8.54,2.33,17.25,1.95,25.91-.01.24-.13.46-.31.61-1.86,1.43-3.79,2.85-5.74,4.2-3.83,2.66-8.14,5.35-12.79,8-.12.07-.26.11-.4.11Zm-4.14-45.2c.91,3.37,1.7,6.77,2.35,10.11,2.14,10.93,3.03,21.97,2.66,32.84,4.12-2.39,7.95-4.81,11.4-7.19,1.82-1.26,3.63-2.58,5.38-3.92.33-8.41-.32-16.87-1.94-25.15-.77-3.96-1.79-7.95-3.03-11.87-.51-1.62-1.06-3.24-1.64-4.82-1.39,1.04-2.81,2.06-4.21,3.03l-.33.22c-3.21,2.21-6.78,4.48-10.63,6.73Zm-145.29,31.48h0c-9.28,0-18.26-.53-26.68-1.54-.38-.05-.68-.35-.71-.73-.96-10.71-.67-21.35.86-31.64.06-.42.44-.71.86-.69,7.33.56,15.03.78,22.9.65.22.01.42.08.58.23.15.15.24.36.24.57.08,10.45,1.01,21.29,2.75,32.21.04.23-.03.47-.18.65-.15.18-.38.28-.62.28Zm-25.84-3.07c7.88.92,16.25,1.4,24.89,1.44-1.62-10.4-2.5-20.72-2.62-30.69-7.36.1-14.58-.11-21.48-.61-1.38,9.72-1.65,19.76-.8,29.86Zm31.4,3.01c-.4,0-.74-.29-.8-.68-1.81-11.04-2.76-21.99-2.84-32.54,0-.44.34-.8.78-.81,3.78-.14,7.59-.35,11.32-.63,11.41-.86,23.09-2.4,34.72-4.57.43-.07.86.2.94.64l6.34,32.37c.04.21,0,.43-.12.61-.12.18-.31.3-.52.34-16.99,3.18-33.75,4.95-49.81,5.28h-.02Zm-2.01-32.45c.12,10.01,1.02,20.37,2.7,30.81,15.5-.35,31.65-2.06,48.04-5.09l-6.03-30.78c-11.43,2.11-22.9,3.6-34.11,4.45-3.49.26-7.05.47-10.6.61Zm-35.72,30.22s-.08,0-.12,0c-2.04-.31-4.05-.64-6.03-1-1.89-.35-3.76-.73-5.59-1.14-.62-.14-1.23-.28-1.83-.43-1.98-.47-3.77-.93-5.46-1.41-.36-.1-.6-.43-.59-.8.28-10.03,1.95-19.97,4.94-29.55.12-.39.52-.63.92-.55,4.68.86,9.66,1.56,14.81,2.09.22.02.42.13.56.31.14.17.19.4.16.61-1.48,10.09-1.8,20.52-.96,31.01.02.25-.07.49-.26.66-.15.14-.35.22-.55.22Zm-17.99-5.37c1.49.41,3.05.81,4.65,1.19.74.18,1.34.32,1.95.45,1.81.41,3.66.78,5.54,1.13,1.63.3,3.29.58,4.97.84-.73-9.98-.42-19.9.93-29.52-4.64-.49-9.14-1.13-13.39-1.89-2.76,9.03-4.32,18.37-4.64,27.8Zm110.8,1.28c-.16,0-.32-.05-.45-.14-.18-.12-.3-.31-.35-.52l-6.34-32.37c-.09-.44.2-.86.63-.95,11.59-2.37,22.99-5.34,33.89-8.84,3.56-1.14,7.17-2.38,10.73-3.68.41-.15.87.05,1.03.46,3.91,9.8,7.15,20.31,9.64,31.21.09.39-.12.79-.5.94-15,5.75-31.19,10.41-48.13,13.87-.05.01-.11.02-.16.02Zm-5.39-32.55l6.03,30.78c16.32-3.37,31.92-7.87,46.41-13.38-2.39-10.31-5.45-20.24-9.12-29.56-3.34,1.21-6.71,2.36-10.05,3.43-10.71,3.44-21.9,6.37-33.27,8.72Zm58.56,16.68c-.13,0-.26-.03-.37-.09-.21-.11-.36-.3-.42-.54-2.5-10.78-5.73-21.16-9.59-30.87-.08-.2-.08-.43,0-.62.09-.2.25-.35.45-.43,7.33-2.84,14.39-5.95,20.96-9.23.38-.19.84-.05,1.06.31,5.29,8.95,9.57,18.71,12.73,28.99.11.37-.05.76-.38.94-7.42,4.11-15.54,7.97-24.14,11.47-.1.04-.2.06-.31.06Zm-8.58-31.33c3.65,9.28,6.73,19.17,9.15,29.42,7.99-3.29,15.56-6.89,22.51-10.71-3.02-9.68-7.05-18.88-12-27.36-6.2,3.07-12.81,5.98-19.66,8.66Zm37.52,17.11c-.1,0-.2-.02-.29-.05-.23-.09-.41-.28-.48-.51-3.18-10.04-7.41-19.58-12.58-28.36-.11-.19-.14-.42-.08-.63.06-.21.2-.39.4-.49,4.57-2.43,8.92-4.96,12.94-7.51.35-.22.8-.15,1.06.17,6.39,7.75,11.68,16.33,15.72,25.51.15.34.05.74-.24.97-1.38,1.07-2.87,2.17-4.41,3.28-.55.39-1.09.78-1.66,1.17-1.54,1.07-3.13,2.12-4.75,3.16-1.69,1.08-3.43,2.15-5.2,3.2-.13.08-.27.11-.41.11Zm-11.53-29.02c4.88,8.4,8.91,17.47,11.99,26.99,1.46-.87,2.89-1.75,4.28-2.65,1.6-1.03,3.17-2.07,4.7-3.13.55-.39,1.1-.77,1.64-1.16,1.34-.96,2.64-1.91,3.86-2.85-3.85-8.61-8.82-16.68-14.78-24-3.66,2.31-7.58,4.59-11.69,6.79Zm-138.3,27.71c-6.07,0-12.05-.22-17.77-.65-.23-.02-.44-.13-.58-.32-.14-.18-.2-.42-.15-.65,2.23-11.52,5.99-22.24,11.16-31.87.14-.26.41-.43.71-.43,4.88-.02,9.9-.17,14.9-.45.26-.01.5.09.67.29.16.2.23.46.17.71-2.36,9.89-3.68,20.83-3.93,32.53,0,.44-.36.79-.8.79-1.47.02-2.92.04-4.37.04Zm-16.74-2.19c6.52.46,13.35.65,20.31.55.28-11.11,1.52-21.54,3.71-31.04-4.51.24-9.02.37-13.43.39-4.84,9.12-8.4,19.24-10.59,30.09Zm26.6,2.01c-.21,0-.42-.08-.57-.23-.16-.16-.25-.37-.24-.59.27-11.96,1.7-23.11,4.24-33.11.09-.34.38-.58.72-.61,11.33-.87,22.91-2.4,34.43-4.55.43-.07.86.21.94.64l6.34,32.37c.04.21,0,.43-.12.61-.12.18-.31.3-.52.34-15.33,2.87-30.54,4.59-45.19,5.13-.01,0-.02,0-.03,0Zm4.86-32.98c-2.37,9.5-3.72,20.04-4.03,31.33,14.05-.56,28.6-2.22,43.29-4.93l-6.03-30.78c-11.12,2.05-22.29,3.52-33.23,4.38Zm-37.92,32.04s-.05,0-.08,0c-4.98-.5-9.71-1.15-14.06-1.93-.24-.04-.44-.19-.56-.39-.12-.21-.14-.46-.06-.68.12-.32.24-.64.36-.96l.14-.37c1.14-2.97,2.41-5.89,3.77-8.69,3.4-6.99,7.54-13.64,12.32-19.77.16-.21.42-.32.68-.31,2.53.14,5.2.23,7.94.29.28,0,.53.15.68.39.14.24.15.53.03.78-4.78,9.49-8.26,19.92-10.37,30.99-.07.38-.41.66-.79.66Zm-12.89-3.36c3.83.66,7.93,1.22,12.24,1.67,2.06-10.51,5.36-20.44,9.81-29.55-2.16-.06-4.27-.14-6.29-.24-4.6,5.95-8.6,12.39-11.88,19.15-1.34,2.75-2.59,5.64-3.71,8.56l-.15.38s0,.02,0,.02Zm96.43-1.88c-.16,0-.32-.05-.45-.14-.18-.12-.3-.31-.35-.52l-6.34-32.37c-.09-.44.2-.86.63-.95,11.48-2.34,22.78-5.29,33.61-8.75.33-.1.69.01.9.29,6.13,8.32,11.66,18.1,16.42,29.08.09.2.09.44,0,.64-.09.2-.26.36-.47.44-13.78,5.02-28.51,9.14-43.79,12.26-.05.01-.11.02-.16.02Zm-5.39-32.55l6.03,30.78c14.62-3.02,28.72-6.97,41.95-11.74-4.54-10.34-9.77-19.59-15.54-27.5-10.46,3.33-21.37,6.17-32.43,8.46Zm54.22,18.39c-.31,0-.61-.18-.74-.49-4.64-10.74-9.99-20.38-15.9-28.65-.15-.21-.19-.47-.11-.72.08-.24.27-.44.51-.52,4.74-1.62,9.44-3.37,13.97-5.19.28-.11.59-.06.82.13,8.42,6.97,15.94,15.49,22.35,25.32.13.19.16.43.1.65-.06.22-.21.41-.42.51-6.37,3.16-13.2,6.16-20.29,8.91-.1.04-.2.05-.29.05Zm-14.7-29.2c5.6,7.98,10.69,17.17,15.13,27.35,6.48-2.53,12.74-5.27,18.61-8.16-6.12-9.23-13.23-17.26-21.16-23.88-4.1,1.64-8.32,3.22-12.58,4.69Zm39.82,17.81c-.27,0-.53-.13-.68-.37-6.13-9.47-13.29-17.81-21.29-24.8-.21-.18-.31-.46-.27-.73.04-.27.22-.51.48-.62,2.49-1.07,4.93-2.17,7.24-3.26.24-.11.52-.1.75.03,6.74,3.88,13.09,8.48,18.87,13.67,2.32,2.08,4.59,4.31,6.77,6.63l.97,1.04c.16.18.24.42.2.65-.03.24-.17.45-.37.58-3.74,2.36-7.88,4.74-12.3,7.08-.12.06-.25.09-.38.09Zm-19.95-25.54c7.56,6.76,14.35,14.71,20.23,23.67,3.81-2.04,7.41-4.1,10.71-6.15l-.3-.31c-2.14-2.28-4.38-4.48-6.67-6.53-5.59-5.03-11.72-9.49-18.23-13.26-1.85.87-3.77,1.74-5.74,2.59Zm-124.14,19.68h0c-2.19-.02-4.38-.05-6.53-.13-.31-.01-.59-.2-.71-.49-.12-.29-.07-.62.14-.86,5.76-6.51,12.29-12.33,19.42-17.31.34-.24.8-.18,1.08.13.27.31.26.78-.02,1.08-4.73,5.05-8.99,10.83-12.66,17.16-.14.25-.41.4-.7.4Zm-4.74-1.69c1.42.04,2.84.06,4.28.07,2.36-4.03,4.95-7.83,7.76-11.37-4.29,3.46-8.32,7.24-12.03,11.3Zm11.12,1.66c-.29,0-.56-.16-.71-.41-.15-.26-.14-.57.02-.83,6.93-11.08,15.53-19.89,25.57-26.17.33-.21.76-.15,1.03.14.26.29.28.73.04,1.04-4.98,6.5-9.01,14.96-11.97,25.13-.09.33-.39.56-.73.58-4.39.28-8.85.45-13.25.52h-.01Zm22.14-23.63c-7.93,5.66-14.86,13.03-20.65,21.98,3.7-.08,7.42-.23,11.11-.45,2.48-8.36,5.68-15.58,9.55-21.53Zm-3.06,22.7c-.24,0-.48-.11-.63-.3-.17-.21-.22-.49-.14-.75,5.76-18.48,15.01-30.18,26.75-33.83.22-.07.46-.04.66.08.2.12.34.31.38.54l5.67,28.95c.04.21,0,.43-.12.61-.12.18-.31.3-.52.34-10.85,2.03-21.6,3.49-31.97,4.36-.02,0-.05,0-.07,0Zm25.6-33.05c-10.56,3.71-18.99,14.51-24.46,31.34,9.68-.85,19.7-2.22,29.8-4.09l-5.33-27.25Zm11.69,27.65c-.16,0-.32-.05-.45-.14-.18-.12-.3-.31-.35-.52l-5.67-28.95c-.04-.23,0-.46.15-.64.14-.18.35-.3.58-.32,12.22-1.05,25.29,6.39,37.54,21.26.17.21.23.49.15.75-.08.26-.28.46-.53.54-9.92,3.1-20.44,5.79-31.26,8-.05.01-.11.02-.16.02Zm-4.7-29.02l5.33,27.25c10.07-2.08,19.86-4.58,29.14-7.44-11.36-13.47-23.31-20.34-34.48-19.81Zm41.47,19.21c-.24,0-.48-.11-.63-.31-6.58-8.31-13.5-14.63-20.56-18.77-.34-.2-.49-.61-.35-.98.14-.37.52-.58.9-.52,11.67,2.04,22.96,6.95,33.56,14.61.24.17.37.46.33.76-.04.29-.23.54-.51.65-4.13,1.61-8.32,3.12-12.47,4.51-.08.03-.17.04-.26.04Zm-16.68-18.1c5.82,4.05,11.51,9.53,16.96,16.35,3.48-1.17,6.99-2.43,10.46-3.76-8.74-6.11-17.94-10.33-27.42-12.58Zm35.04,11.23c-.18,0-.35-.06-.5-.17-5.79-4.48-11.91-8.23-18.2-11.13-.38-.17-.56-.6-.43-1,.13-.39.55-.62.95-.53,8.48,1.93,16.73,4.86,24.52,8.72.28.14.46.43.45.74,0,.31-.19.59-.48.72-1.96.88-3.98,1.73-6,2.58-.1.04-.21.06-.31.06Zm-11.35-9.35c3.93,2.22,7.77,4.77,11.47,7.61,1.32-.55,2.64-1.11,3.93-1.68-4.97-2.37-10.13-4.35-15.41-5.94Z"/>
      </g>
      <path class="cls-2" d="m168.08,264.44c-2.64,0-5.32-.09-7.96-.26-31.5-2.1-60.3-16.32-81.09-40.06-20.79-23.74-31.09-54.15-28.99-85.63,4.12-61.84,55.87-110.28,117.82-110.28,2.64,0,5.32.09,7.96.26,31.5,2.1,60.3,16.32,81.09,40.06,20.79,23.74,31.09,54.15,28.99,85.63-4.12,61.84-55.87,110.28-117.82,110.28Zm-.23-229.77c-58.55,0-107.46,45.79-111.36,104.24-1.98,29.76,7.75,58.5,27.4,80.94,19.65,22.44,46.87,35.89,76.65,37.87,2.5.17,5.04.25,7.53.25,58.55,0,107.46-45.78,111.36-104.23,1.98-29.76-7.75-58.5-27.4-80.94-19.65-22.44-46.87-35.89-76.65-37.87-2.5-.17-5.04-.25-7.53-.25Z"/>
      <path class="cls-1" d="m320.91,192.52c-.46.21-.92.42-1.38.64l-7.26,3.54c-15.3,7.45-29.79,16.53-43.31,26.86-13.88,10.61-26.65,22.21-41.85,31.04-8.86,5.89-19.05,9.9-29.21,12.84-6.45,1.86-13.06,3.2-19.76,3.98l-2.5.29-2.39.19c-.84.06-1.51.16-2.49.18l-2.79.11-1.4.05h-.29s-.14.01-.14.01h-.63s-2.54-.01-2.54-.01c-1.69.01-3.39,0-5.08-.13-1.69-.12-3.39-.12-5.07-.33l-5.06-.53-5.02-.78c-1.68-.24-3.32-.67-4.99-.98-6.63-1.44-13.15-3.42-19.49-5.92-12.63-5.1-24.49-12.27-34.91-21.23-10.35-9.01-19.38-19.68-26.32-31.64-6.92-11.95-12.02-25.05-14.63-38.72l-.52-2.56-.39-2.58c-.23-1.71-.58-3.48-.7-5.13l-.5-5.05-.25-5.58-.05-1.17v-1.31s.02-2.62.02-2.62c0-.87,0-1.75.02-2.63l.15-2.62c.12-3.5.55-6.98.95-10.46,1.93-13.88,6.1-27.5,12.5-40.09,6.43-12.55,14.83-24.21,25.1-34.07,10.21-9.88,22.05-18.22,35.03-24.25,6.48-3.04,13.21-5.56,20.12-7.53,6.91-1.9,14.05-3.25,21.15-4.03,1.78-.15,3.49-.38,5.34-.48l5.59-.25c1.63-.05,3.56-.03,5.33-.03,1.8.08,3.62.07,5.42.21,7.22.43,14.43,1.4,21.5,3.02,3.98.9,7.92,2.02,11.8,3.29,29.65,10.43,55.16,31.31,71.08,59.47,11.08,19.6,16.94,41.93,16.94,64.59h6.55c0-23.78-6.15-47.23-17.78-67.81-15.91-28.16-40.96-49.37-70.2-60.79-5.42-2.24-10.99-4.14-16.67-5.67-7.39-2-14.96-3.34-22.6-4.1-1.91-.22-3.83-.3-5.74-.45-1.96-.08-3.75-.17-5.85-.19l-5.59.03c-1.88.03-3.88.19-5.82.29-7.75.53-15.35,1.66-22.9,3.42-7.51,1.81-14.89,4.24-22.03,7.25-14.31,5.98-27.57,14.51-39.19,24.9-11.67,10.36-21.46,22.82-29.17,36.48-7.66,13.7-12.97,28.76-15.76,44.3-.62,3.9-1.24,7.8-1.54,11.74l-.28,2.95c-.07.99-.1,1.97-.15,2.96l-.13,2.96-.06,1.48v1.62s.03,5.59.03,5.59l.33,6.09c.08,2.07.38,3.97.57,5.97l.33,2.96.47,2.94c2.37,15.72,7.59,31.03,15.05,45.16,7.47,14.14,17.44,26.97,29.14,37.99,11.76,10.97,25.38,20,40.16,26.65,7.41,3.28,15.09,5.95,22.95,7.99,1.97.47,3.93,1.04,5.93,1.41l5.98,1.18,6.04.88c2.01.32,4.04.42,6.07.64,2.03.23,4.06.33,6.09.4l3.05.13.76.03h.19c.17,0-.11.02.43.01h1.75s2.8,0,2.8,0c.88.02,2.07-.06,3.09-.09l3.19-.13,3.06-.22c8.14-.62,16.25-1.92,24.21-3.88,28.61-7.05,51.44-25.49,76.71-39.51,25.35-14.06,51.99-25.85,79.42-35.21,34.83-11.89,98.61-19.06,136.9-19.06v-46.06s-103.85,1.37-176.91,39.16Z"/>
    </g>
    <g>
      <path class="cls-3" d="m1016.11,266.55c0-9.35,7.58-16.91,16.91-16.89,9.35.02,16.9,7.58,16.88,16.92-.02,9.33-7.59,16.88-16.91,16.86-9.34-.02-16.88-7.57-16.88-16.9Zm16.9-13.46c-7.44,0-13.47,6.01-13.47,13.45,0,7.46,6.02,13.48,13.47,13.47,7.44,0,13.45-6.02,13.45-13.46,0-7.44-6.02-13.46-13.46-13.46Z"/>
      <path class="cls-3" d="m1030.16,268.33v6.66h-4.54v-17.66c.09,0,.18,0,.28,0,2.28,0,4.56,0,6.83,0,1.3,0,2.59.12,3.82.58,1.75.66,2.62,1.95,2.73,3.78.05.86,0,1.71-.33,2.53-.51,1.26-1.51,1.97-2.74,2.42-.07.03-.15.05-.27.1,1.32.38,2.11,1.31,2.69,2.43.98,1.88,1.91,3.79,2.86,5.69.02.04.03.08.04.14-.1,0-.18.01-.25.01-1.44,0-2.88,0-4.31,0-.18,0-.28-.05-.37-.22-.71-1.45-1.42-2.9-2.14-4.34-.15-.3-.33-.59-.52-.87-.5-.76-1.21-1.18-2.11-1.24-.54-.03-1.09,0-1.67,0Zm.01-3.12c.97-.04,1.91-.03,2.85-.12.81-.08,1.42-.52,1.63-1.36.13-.52.13-1.04.02-1.57-.15-.71-.57-1.18-1.28-1.36-.18-.05-.37-.11-.55-.11-.89-.01-1.78,0-2.68,0v4.53Z"/>
    </g>
  </g>
  <g>
    <path d="m76.49,336.38c.04,1.28.08,2.25.12,2.91.04.66.06,1.25.06,1.77v.42c.04.24.06.46.06.67v.74c.04,1.09.11,2.59.21,4.5.1,1.91.27,3.91.52,5.99.37,3.07.91,5.87,1.65,8.4.73,2.53,1.75,3.8,3.05,3.8.57,0,1.12-.2,1.65-.6.53-.4.99-.82,1.4-1.24.08-.09.15-.18.21-.25.06-.07.13-.15.21-.25.45-.52,1.68-2.1,3.69-4.75,2.01-2.65,4.17-6.22,6.49-10.71.85-1.65,1.71-3.44,2.56-5.35.85-1.91,1.67-3.94,2.44-6.06h7.01c-.28,1.04-.53,1.96-.73,2.77-.2.8-.41,1.61-.61,2.41-.04.24-.09.5-.15.78-.06.28-.11.54-.15.78-.12.57-.24,1.14-.37,1.7-.12.57-.24,1.21-.37,1.91-.04.24-.09.47-.15.71-.06.24-.11.47-.15.71,0,.05-.01.11-.03.18-.02.07-.03.15-.03.25-.37,1.66-.8,3.59-1.31,5.82-.51,2.22-1.37,5.79-2.59,10.71-.2.8-.39,1.53-.55,2.16-.16.64-.33,1.29-.49,1.95-.16.71-.33,1.44-.52,2.2-.18.76-.4,1.63-.64,2.62.57-.19,1.09-.36,1.55-.5.47-.14.92-.28,1.37-.42.37-.09.71-.22,1.04-.36.32-.14.67-.28,1.04-.42.57-.24,1.18-.53,1.83-.89.65-.35,1.36-.82,2.13-1.38l-1.65,6.1c-.16.1-.32.19-.46.28-.14.1-.27.17-.4.22-1.22.71-2.48,1.29-3.78,1.73-1.3.45-2.76.86-4.39,1.24-1.63,5.15-3.68,9.29-6.16,12.41-2.48,3.12-5.06,5.51-7.74,7.16-2.28,1.42-4.5,2.4-6.67,2.94-2.17.54-4.07.82-5.7.82-3.13,0-5.55-.64-7.25-1.91-1.71-1.28-2.85-2.67-3.41-4.18-.16-.47-.28-.92-.37-1.35-.08-.43-.12-.83-.12-1.21,0-3.45.98-6.19,2.96-8.23,1.97-2.03,4.13-3.59,6.49-4.68,1.58-.71,3.12-1.25,4.6-1.63,1.48-.38,2.65-.66,3.51-.85,1.26-.28,2.43-.53,3.5-.75,1.08-.21,2.14-.44,3.2-.67.41-.05.82-.12,1.25-.21.43-.09.86-.19,1.31-.28.77-.14,1.56-.28,2.38-.43.81-.14,1.69-.28,2.62-.43l6.03-20.64h-.67c-.49.99-1.13,2.14-1.92,3.44-.79,1.3-1.66,2.64-2.59,4.01-.98,1.42-2.02,2.79-3.14,4.11-1.12,1.32-2.27,2.48-3.44,3.47-.94.81-1.86,1.44-2.77,1.91-.91.47-1.8.71-2.65.71-2.36,0-4.19-1.09-5.49-3.26-1.3-2.17-2.28-4.58-2.93-7.23-.28-1.09-.53-2.19-.73-3.3-.2-1.11-.39-2.12-.55-3.02-.12-.76-.24-1.5-.37-2.23-.12-.73-.22-1.45-.31-2.16-.24-1.7-.45-3.41-.61-5.14-.16-1.72-.24-3.56-.24-5.5,0-.8.02-1.61.06-2.41.04-.8.08-1.65.12-2.55h7.01Zm8.68,46.34c-1.69.35-3.42.79-5.21,1.31-3.33.94-6.39,2.22-9.17,3.83-2.78,1.61-4.18,3.76-4.18,6.45,0,.99.47,1.85,1.4,2.59.93.73,2.15,1.1,3.66,1.1.93,0,1.93-.17,2.99-.5,1.06-.33,2.13-.8,3.23-1.42,2.36-1.37,4.62-3.31,6.79-5.81,2.17-2.51,3.81-5.34,4.91-8.51-1.26.28-2.73.6-4.42.96Z"/>
    <path d="m124.14,391.62c-.33-.05-.66-.08-1.01-.11-.35-.02-.68-.06-1.01-.11-2.6-.47-4.99-1.77-7.16-3.9-2.17-2.13-3.26-5.18-3.26-9.15,0-4.96,2.03-9.36,6.09-13.19,4.06-3.83,8.73-5.74,14.02-5.74,3.37,0,6,1.25,7.89,3.76,1.89,2.51,2.83,5.49,2.83,8.94,0,4.77-1.32,8.71-3.96,11.81-2.64,3.1-5.55,5.24-8.72,6.42-.97.43-1.95.73-2.92.92-.97.19-1.91.28-2.8.28v.07Zm7.65-9.43c1.89-2.5,3.06-5.27,3.5-8.3.04-.38.07-.74.09-1.1.02-.35.03-.72.03-1.1,0-1.94-.4-3.37-1.19-4.29-.79-.92-1.68-1.55-2.65-1.88-.45-.19-.87-.31-1.28-.35-.41-.05-.79-.07-1.16-.07-2.23,0-4.11.9-5.64,2.7-1.52,1.8-2.67,3.76-3.44,5.89-.41,1.13-.71,2.25-.91,3.33-.2,1.09-.3,2.03-.3,2.84,0,1.75.53,3.2,1.58,4.36,1.06,1.16,2.48,1.74,4.27,1.74,2.84,0,5.21-1.25,7.1-3.76Z"/>
    <path d="m172.16,380.56c-.28,1.13-.47,1.97-.55,2.52-.08.55-.12,1-.12,1.38,0,.61.08,1.03.24,1.24.16.21.37.34.61.39h.67c.41-.09.94-.33,1.61-.71.67-.38,1.98-1.21,3.93-2.48l.06,3.55c.04.95-.53,1.82-1.71,2.62-1.18.8-2.46,1.42-3.84,1.84-.61.19-1.21.34-1.8.46-.59.12-1.13.18-1.61.18-1.42,0-2.49-.32-3.2-.96-.71-.64-1.15-1.34-1.31-2.09,0-.14,0-.27-.03-.39-.02-.12-.03-.25-.03-.39,0-.71.07-1.57.21-2.59.14-1.02.34-2.07.58-3.16.12-.61.25-1.23.4-1.85.14-.61.29-1.2.46-1.77.12-.38.23-.76.33-1.13.1-.38.21-.71.34-.99l1.04-2.98h-.43c-.24.66-.51,1.35-.79,2.06-.29.71-.61,1.42-.97,2.13-1.18,2.37-2.61,4.63-4.3,6.81-1.69,2.18-3.42,3.92-5.21,5.25-.94.61-1.85,1.11-2.74,1.49-.89.38-1.75.57-2.56.57-1.34,0-2.53-.63-3.56-1.88-1.04-1.25-1.55-3.06-1.55-5.43,0-.76.12-1.6.37-2.52.24-.92.57-2.14.97-3.65l4.57-17.3h6.09l-4.94,18.65c-.04.14-.07.26-.09.36-.02.09-.03.19-.03.28v.07c-.04.14-.08.3-.12.46-.04.17-.12.44-.24.82-.08.33-.16.7-.24,1.1-.08.4-.12.86-.12,1.38,0,.43.07.79.21,1.1.14.31.44.46.88.46.49,0,1.02-.15,1.58-.46.57-.31,1.16-.7,1.77-1.17.45-.38.89-.8,1.34-1.27.45-.47.87-.95,1.28-1.42.57-.61,1.08-1.21,1.52-1.77.45-.57.83-1.06,1.16-1.49,1.67-2.22,3.23-4.69,4.69-7.41,1.46-2.72,2.7-5.95,3.72-9.68h6.03l-4.57,19.79Z"/>
    <path d="m207.82,368.22c-.65.28-1.23.56-1.74.82-.51.26-.99.51-1.43.75-.2.09-.4.2-.58.32-.18.12-.36.23-.52.32-.41.24-.79.47-1.16.71-.37.24-.77.5-1.22.78-.2.14-.39.26-.55.36-.16.09-.32.19-.49.28-.2.14-.44.3-.7.46-.26.17-.6.37-1.01.6-.41.24-1.04.63-1.89,1.17-.85.54-1.77,1.19-2.74,1.95-.65.47-1.3,1-1.95,1.6-.65.59-1.22,1.17-1.71,1.74-.41.52-.73,1.02-.97,1.49-.24.47-.37.95-.37,1.42,0,.14,0,.27.03.39.02.12.07.25.15.39.2.57.64,1.08,1.31,1.52.67.45,1.57.67,2.71.67.49,0,1.01-.05,1.55-.14.55-.09,1.09-.22,1.62-.36.77-.19,1.52-.43,2.26-.71.73-.28,1.4-.59,2.01-.92.85-.38,1.58-.74,2.19-1.1.61-.36,1.06-.63,1.34-.82.2-.09.39-.18.55-.25.16-.07.3-.11.43-.11.2,0,.37.08.49.25.12.16.18.44.18.81,0,.1-.01.18-.03.25-.02.07-.03.15-.03.25-.04.05-.07.1-.09.14-.02.05-.03.1-.03.14-.04.05-.07.11-.09.18-.02.07-.03.13-.03.18l-.61,2.84c-3.09,2.37-5.9,3.78-8.44,4.25-2.54.47-4.54.71-6,.71-2.36,0-4.15-.5-5.39-1.49-1.24-.99-2.1-2.08-2.59-3.26-.24-.52-.41-1.03-.49-1.52-.08-.5-.12-.96-.12-1.38,0-2.32.93-4.5,2.8-6.56,1.87-2.06,3.9-3.86,6.09-5.42,1.75-1.18,3.39-2.17,4.94-2.98,1.54-.8,2.66-1.37,3.35-1.7l2.38-1.06v-.64c-.53.24-1.1.45-1.71.64-.61.19-1.22.36-1.83.5-1.22.28-2.38.47-3.47.57-1.1.09-1.95.14-2.56.14s-1.16-.06-1.64-.18c-.49-.12-.94-.25-1.34-.39l-2.19,3.26h-2.68c-.49,0-.92-.05-1.31-.14-.39-.09-.58-.38-.58-.85,0-.09.01-.2.03-.32.02-.12.05-.22.09-.32.08-.19.16-.37.24-.53.08-.16.18-.34.3-.53,0-.05.01-.08.03-.11.02-.02.05-.06.09-.11.04-.09.08-.17.12-.21.04-.05.08-.09.12-.14s.09-.12.15-.21c.06-.09.13-.21.21-.35.08-.14.15-.26.21-.35.06-.09.11-.19.15-.28l.06-.07s.09-.11.15-.18c.06-.07.11-.15.15-.25-.16-.14-.29-.29-.4-.46-.1-.16-.19-.34-.27-.53-.12-.19-.2-.36-.24-.53-.04-.16-.08-.32-.12-.46-.04-.14-.07-.28-.09-.43-.02-.14-.01-.28.03-.43v-.43c0-.14.02-.26.06-.35.08-.52.26-1.09.55-1.7.28-.61.67-1.23,1.16-1.84.53-.71,1.19-1.38,1.98-2.02.79-.64,1.7-1.24,2.71-1.81h4.81l-2.68,7.09c.37.09.72.18,1.07.25.34.07.68.15,1.01.25.53.05,1.06.09,1.58.14.53.05,1.06.07,1.58.07.61,0,1.54-.05,2.8-.14,1.26-.09,2.58-.21,3.96-.36.24-.05.49-.08.73-.11.24-.02.49-.03.73-.03.89-.09,1.73-.19,2.5-.28.77-.09,1.44-.17,2.01-.21l-1.71,7.45Z"/>
    <path d="m265.53,371.27c-.24,1.23-.57,2.68-.97,4.36-.41,1.68-.97,3.42-1.71,5.21-1.18,3.03-2.96,5.79-5.33,8.3-2.38,2.5-5.68,3.92-9.9,4.25-.12,0-.24,0-.37.03-.12.02-.22.04-.3.04h-1.34c-.12-.05-.23-.07-.34-.07h-.34c-.89-.05-1.56-.12-2.01-.21-.45-.09-.77-.21-.98-.36-.04-.05-.08-.08-.12-.1-.04-.03-.08-.06-.12-.11-.08-.1-.13-.19-.15-.28-.02-.1-.03-.19-.03-.28v-3.33c.08,0,.17.01.27.04.1.03.21.06.34.11.37.05.76.11,1.19.18.43.07.88.11,1.37.11.2.05.41.07.61.07.2,0,.41,0,.61,0,4.51,0,7.81-2.08,9.9-6.24,2.09-4.16,3.75-9.29,4.97-15.39l4.39-21.77c-1.42.28-2.98.6-4.66.96-1.69.35-3.38.77-5.09,1.24-3.94,1.13-7.56,2.77-10.85,4.89-3.29,2.13-4.94,5.08-4.94,8.87,0,.43.03.9.09,1.42.06.52.17,1.06.34,1.63.41,1.28,1.19,2.46,2.35,3.55,1.16,1.09,2.96,1.63,5.39,1.63.53,0,1.1-.03,1.71-.11.61-.07,1.24-.18,1.89-.32l-.91,3.26c-.33.09-.64.18-.95.25-.3.07-.62.13-.94.18-.73.14-1.47.22-2.22.25-.75.02-1.53.03-2.35.03-3.13,0-5.54-.67-7.22-2.02-1.69-1.35-2.87-2.82-3.57-4.43-.28-.71-.49-1.39-.61-2.06-.12-.66-.18-1.28-.18-1.85,0-.94.09-1.93.27-2.94.18-1.02.5-2.02.94-3.01.73-1.65,1.88-3.27,3.44-4.86,1.56-1.58,3.73-3.06,6.49-4.43.49-.24,1.01-.47,1.55-.71.55-.24,1.13-.47,1.74-.71,2.44-.94,5.64-1.88,9.6-2.8,3.96-.92,9.09-1.81,15.39-2.66l-6.34,30.21Z"/>
    <path d="m273.39,390.27l6.03-29.5h6.09l-3.35,15.53h.24c.93-2.55,2.24-5.04,3.93-7.45,1.69-2.41,3.46-4.42,5.33-6.03,1.18-1.04,2.36-1.87,3.53-2.48,1.18-.61,2.23-.92,3.17-.92,1.22,0,2.33.52,3.32,1.56,1,1.04,1.49,2.51,1.49,4.4,0,.47-.02.93-.06,1.38-.04.45-.1.91-.18,1.38,0,.05-.01.11-.03.18-.02.07-.03.13-.03.18-.16.9-.39,1.87-.67,2.91-.29,1.04-.67,2.46-1.16,4.25-.69,2.55-1.16,4.25-1.4,5.11-.24.85-.43,1.54-.55,2.06v.07s-.01.12-.03.21c-.02.1-.03.17-.03.21v.81c0,.12.02.23.06.32.08.47.25.83.52,1.06.26.24.6.35,1.01.35.16,0,.6-.09,1.31-.28.71-.19,2.06-.8,4.05-1.84v2.77c0,.33-.02.63-.06.89-.04.26-.16.53-.37.81-.2.28-.58.58-1.13.89-.55.31-1.33.67-2.35,1.1-.89.33-1.75.64-2.56.92-.81.28-1.56.43-2.25.43-.24,0-.55-.05-.91-.14-.37-.09-.75-.24-1.16-.43-.69-.38-1.31-.97-1.86-1.77-.55-.8-.82-1.99-.82-3.55,0-.24,0-.46.03-.67.02-.21.05-.44.09-.67.04-.19.08-.4.12-.64.04-.24.08-.45.12-.64.16-.76.34-1.51.55-2.27.2-.76.41-1.51.61-2.27.08-.24.15-.47.21-.71.06-.24.13-.47.21-.71.89-2.98,1.46-5.05,1.71-6.21.24-1.16.37-1.97.37-2.45v-.39c0-.12-.02-.22-.06-.32-.04-.28-.14-.53-.3-.74-.16-.21-.45-.32-.85-.32-.49,0-1.03.18-1.62.53-.59.36-1.21.82-1.86,1.38-.37.33-.74.7-1.13,1.1-.39.4-.76.82-1.13,1.24-.45.47-.86.96-1.25,1.45-.39.5-.72.93-1.01,1.31-.45.62-.92,1.3-1.43,2.06-.51.76-1,1.59-1.49,2.48-.97,1.7-1.9,3.55-2.77,5.53-.87,1.98-1.53,4.02-1.98,6.1-.04.05-.07.11-.09.18-.02.07-.03.15-.03.25h-6.15Z"/>
    <path d="m309.04,390.27l6.03-29.5h6.09l-3.35,15.53h.24c.93-2.55,2.24-5.04,3.93-7.45,1.69-2.41,3.46-4.42,5.33-6.03,1.18-1.04,2.36-1.87,3.53-2.48,1.18-.61,2.23-.92,3.17-.92,1.22,0,2.33.52,3.32,1.56,1,1.04,1.49,2.51,1.49,4.4,0,.47-.02.93-.06,1.38-.04.45-.1.91-.18,1.38,0,.05-.01.11-.03.18-.02.07-.03.13-.03.18-.16.9-.39,1.87-.67,2.91-.29,1.04-.67,2.46-1.16,4.25-.69,2.55-1.16,4.25-1.4,5.11-.24.85-.43,1.54-.55,2.06v.07s-.01.12-.03.21c-.02.1-.03.17-.03.21v.81c0,.12.02.23.06.32.08.47.25.83.52,1.06.26.24.6.35,1.01.35.16,0,.6-.09,1.31-.28.71-.19,2.06-.8,4.05-1.84v2.77c0,.33-.02.63-.06.89-.04.26-.16.53-.37.81-.2.28-.58.58-1.13.89-.55.31-1.33.67-2.35,1.1-.89.33-1.75.64-2.56.92-.81.28-1.56.43-2.25.43-.24,0-.55-.05-.91-.14-.37-.09-.75-.24-1.16-.43-.69-.38-1.31-.97-1.86-1.77-.55-.8-.82-1.99-.82-3.55,0-.24,0-.46.03-.67.02-.21.05-.44.09-.67.04-.19.08-.4.12-.64.04-.24.08-.45.12-.64.16-.76.34-1.51.55-2.27.2-.76.41-1.51.61-2.27.08-.24.15-.47.21-.71.06-.24.13-.47.21-.71.89-2.98,1.46-5.05,1.71-6.21.24-1.16.37-1.97.37-2.45v-.39c0-.12-.02-.22-.06-.32-.04-.28-.14-.53-.3-.74-.16-.21-.45-.32-.85-.32-.49,0-1.03.18-1.62.53-.59.36-1.21.82-1.86,1.38-.37.33-.74.7-1.13,1.1-.39.4-.76.82-1.13,1.24-.45.47-.86.96-1.25,1.45-.39.5-.72.93-1.01,1.31-.45.62-.92,1.3-1.43,2.06-.51.76-1,1.59-1.49,2.48-.97,1.7-1.9,3.55-2.77,5.53-.87,1.98-1.54,4.02-1.98,6.1-.04.05-.07.11-.09.18-.02.07-.03.15-.03.25h-6.15Z"/>
    <path d="m357.86,391.62c-.33-.05-.66-.08-1.01-.11s-.68-.06-1.01-.11c-2.6-.47-4.99-1.77-7.16-3.9-2.17-2.13-3.26-5.18-3.26-9.15,0-4.96,2.03-9.36,6.09-13.19,4.06-3.83,8.73-5.74,14.02-5.74,3.37,0,6,1.25,7.89,3.76,1.89,2.51,2.83,5.49,2.83,8.94,0,4.77-1.32,8.71-3.96,11.81-2.64,3.1-5.55,5.24-8.71,6.42-.97.43-1.95.73-2.92.92-.98.19-1.91.28-2.8.28v.07Zm7.65-9.43c1.89-2.5,3.06-5.27,3.51-8.3.04-.38.07-.74.09-1.1.02-.35.03-.72.03-1.1,0-1.94-.4-3.37-1.19-4.29-.79-.92-1.68-1.55-2.65-1.88-.45-.19-.87-.31-1.28-.35-.41-.05-.79-.07-1.16-.07-2.23,0-4.11.9-5.64,2.7-1.52,1.8-2.67,3.76-3.44,5.89-.41,1.13-.71,2.25-.91,3.33-.2,1.09-.31,2.03-.31,2.84,0,1.75.53,3.2,1.58,4.36,1.06,1.16,2.48,1.74,4.27,1.74,2.84,0,5.21-1.25,7.1-3.76Z"/>
    <path d="m389.24,382.33l7.19-10.57c-.16-.24-.33-.48-.49-.74-.16-.26-.28-.51-.37-.75-.04-.09-.07-.19-.09-.28-.02-.09-.03-.19-.03-.28v-.92c.04-.33.08-.66.12-.99.04-.33.12-.66.24-.99.28-.8.81-1.63,1.58-2.48.77-.85,2.01-1.87,3.72-3.05.16-.09.31-.19.46-.28.14-.09.27-.19.4-.28l.06-.07c.24-.14.49-.31.73-.5.24-.19.57-.43.97-.71l4.81,1.98-6.16,9.5s.13.14.27.28c.14.14.31.26.52.35.32.24.78.43,1.37.57.59.14,1.33.21,2.22.21h.79c.28,0,.57-.02.85-.07l-.73,3.55c-.41.24-.84.41-1.31.53-.47.12-.94.15-1.43.11-.16,0-.34,0-.52-.03-.18-.02-.38-.03-.58-.03-.69-.09-1.38-.28-2.07-.57-.69-.28-1.28-.66-1.77-1.14l-10.12,15.6h-6.09l-3.78-29.5h6.09l3.11,21.56Z"/>
    <path d="m439.7,380.49c-.08.38-.15.72-.21,1.03-.06.31-.09.6-.09.89-.04.24-.06.47-.06.71v.92c0,.28.06.57.18.85.12.28.41.43.85.43.32,0,.76-.09,1.31-.28.55-.19,1.11-.45,1.68-.78.2-.09.41-.19.61-.28.2-.09.39-.19.55-.28.45-.28.85-.54,1.22-.78.37-.24.65-.43.85-.57l-1.1,5.03c-.49.62-1.03,1.16-1.62,1.63-.59.47-1.17.88-1.74,1.21-.97.47-1.91.81-2.8,1.03-.89.21-1.63.32-2.19.32-1.18,0-2.14-.32-2.89-.96-.75-.64-1.27-1.38-1.55-2.23-.12-.24-.2-.48-.24-.74-.04-.26-.06-.51-.06-.74,0-.33.04-.75.12-1.24.08-.5.18-1,.3-1.52.08-.24.15-.47.21-.71.06-.24.13-.47.21-.71.04-.19.09-.38.15-.57.06-.19.11-.36.15-.5h-.61c-.49,1.94-1.66,3.77-3.5,5.5-1.85,1.73-3.81,2.94-5.88,3.65-.61.19-1.2.34-1.77.46-.57.12-1.14.18-1.71.18-2.48,0-4.64-.89-6.49-2.66-1.85-1.77-2.77-4.43-2.77-7.98v-.43c.12-4.87,2.17-9.35,6.15-13.44,3.98-4.09,8.51-6.13,13.59-6.13.57,0,1.12.05,1.65.14.53.09,1.06.24,1.58.43.57.24,1.15.51,1.74.81.59.31,1.21.67,1.86,1.1l.55-2.48h6.03l-4.27,19.72Zm-6.25-13.69c-.91-.24-1.82-.33-2.71-.28-2.93,0-5.48,1.05-7.65,3.16-2.17,2.1-3.67,4.43-4.48,6.99-.2.66-.37,1.31-.49,1.95-.12.64-.18,1.26-.18,1.88,0,1.61.31,2.85.94,3.72.63.88,1.51,1.31,2.65,1.31.53,0,1.06-.07,1.58-.21.53-.14,1.08-.33,1.65-.57,2.28-1.13,4.46-3.23,6.55-6.28,2.09-3.05,3.73-6.56,4.91-10.53-.94-.52-1.86-.9-2.77-1.13Z"/>
    <path d="m462.74,361.55c.24-.05.54-.08.88-.11.35-.02.68-.06,1.01-.1.41-.09.78-.17,1.13-.21.34-.04.66-.09.94-.14.93-.24,1.65-.44,2.16-.6.51-.16.97-.27,1.37-.32h.49c.24,0,.44.06.58.18.14.12.23.23.27.32.04.1.07.18.09.25.02.07.03.13.03.18,0,.1-.01.19-.03.28-.02.1-.05.19-.09.28,0,.05,0,.1,0,.14-.04.05-.07.11-.09.18-.02.07-.03.15-.03.25l-.37,2.27c-.08.66-.54,1.16-1.37,1.49-.83.33-3.46.59-7.89.78l-1.83,9.64c-.32,1.65-.55,2.81-.67,3.47-.12.66-.2,1.21-.24,1.63,0,.14-.01.3-.03.46-.02.17-.03.32-.03.46-.04.14-.06.26-.06.36v.78c0,.14,0,.27.03.39.02.12.03.25.03.39.08.43.26.82.55,1.17.28.35.73.53,1.34.53.45,0,1.04-.13,1.77-.39.73-.26,1.5-.58,2.32-.96.37-.14.72-.31,1.07-.5.35-.19.7-.38,1.07-.57.41-.24.78-.47,1.13-.71.34-.24.64-.45.88-.64.04-.05.07-.08.09-.11.02-.02.05-.03.09-.03.16-.14.34-.26.52-.35.18-.09.37-.14.58-.14.28,0,.47.06.55.18.08.12.12.27.12.46v.36s-.01.11-.03.18c-.02.07-.03.13-.03.18l-.31,2.13c-.16.99-.55,1.74-1.16,2.24-.61.5-1.32.93-2.13,1.31-.24.14-.48.26-.7.36-.22.09-.46.21-.7.35-.61.33-1.17.61-1.68.85-.51.24-1,.45-1.49.64-.65.24-1.32.43-2.01.57-.69.14-1.54.21-2.56.21-2.23,0-3.77-.9-4.6-2.7-.83-1.8-1.25-3.83-1.25-6.1,0-1.37.12-2.67.37-3.9.24-1.23.51-2.41.79-3.55.16-.61.31-1.22.46-1.81.14-.59.27-1.17.4-1.74l.97-5.1c-.49-.05-.99-.08-1.49-.11-.51-.02-1.03-.03-1.55-.03h-.91c-.45,0-.86-.03-1.25-.11-.39-.07-.58-.32-.58-.74,0-.14,0-.32.03-.53.02-.21.07-.53.15-.96l.43-2.27c.08-.57.19-.99.34-1.28.14-.28.42-.43.82-.43.16,0,.44.05.82.14.39.09,1.27.33,2.65.71.12.05.22.08.3.11.08.02.16.06.24.1.16.05.33.08.49.11.16.02.35.03.55.03l2.86-13.19h6.09l-2.68,13.33Z"/>
    <path d="m486.26,360.77l-4.57,19.79c-.04.19-.08.37-.12.53-.04.17-.08.34-.12.53-.12.43-.22.86-.31,1.31-.08.45-.12.93-.12,1.46v.57c.04.24.13.47.27.71.14.24.4.35.76.35.45,0,1.05-.22,1.8-.67.75-.45,2.1-1.27,4.05-2.45l.06,3.55c0,.9-.5,1.72-1.49,2.45-1,.73-2.1,1.31-3.32,1.74-.81.28-1.59.51-2.35.67-.75.16-1.35.25-1.8.25-1.3,0-2.34-.41-3.11-1.24-.77-.83-1.16-2.07-1.16-3.72v-.57c.04-.71.12-1.43.24-2.16.12-.73.25-1.43.37-2.09.08-.24.15-.48.21-.75.06-.26.11-.51.15-.74l4.45-19.5h6.1Zm-3.96-4.18c-.45-.43-.75-.9-.91-1.42-.04-.19-.08-.38-.12-.57-.04-.19-.06-.38-.06-.57,0-1.61.42-3.03,1.25-4.25.83-1.23,1.88-1.84,3.14-1.84.93,0,1.74.37,2.41,1.1.67.73,1.01,1.67,1.01,2.8,0,.28-.03.61-.09.99-.06.38-.17.76-.34,1.14-.28.8-.77,1.55-1.46,2.23-.69.69-1.67,1.03-2.92,1.03-.81,0-1.44-.21-1.89-.64Z"/>
    <path d="m505.21,391.62c-.32-.05-.66-.08-1-.11-.35-.02-.68-.06-1.01-.11-2.6-.47-4.99-1.77-7.16-3.9-2.17-2.13-3.26-5.18-3.26-9.15,0-4.96,2.03-9.36,6.09-13.19,4.06-3.83,8.73-5.74,14.02-5.74,3.37,0,6,1.25,7.89,3.76,1.89,2.51,2.83,5.49,2.83,8.94,0,4.77-1.32,8.71-3.96,11.81-2.64,3.1-5.55,5.24-8.71,6.42-.98.43-1.95.73-2.92.92-.98.19-1.91.28-2.8.28v.07Zm7.65-9.43c1.89-2.5,3.06-5.27,3.5-8.3.04-.38.07-.74.09-1.1.02-.35.03-.72.03-1.1,0-1.94-.4-3.37-1.19-4.29-.79-.92-1.68-1.55-2.65-1.88-.45-.19-.87-.31-1.28-.35-.41-.05-.79-.07-1.16-.07-2.24,0-4.12.9-5.64,2.7-1.52,1.8-2.67,3.76-3.44,5.89-.41,1.13-.71,2.25-.91,3.33-.2,1.09-.31,2.03-.31,2.84,0,1.75.53,3.2,1.58,4.36,1.06,1.16,2.48,1.74,4.27,1.74,2.84,0,5.21-1.25,7.1-3.76Z"/>
    <path d="m527.4,390.27l6.03-29.5h6.09l-3.35,15.53h.25c.93-2.55,2.24-5.04,3.93-7.45,1.69-2.41,3.46-4.42,5.33-6.03,1.18-1.04,2.36-1.87,3.54-2.48,1.18-.61,2.23-.92,3.17-.92,1.22,0,2.33.52,3.32,1.56.99,1.04,1.49,2.51,1.49,4.4,0,.47-.02.93-.06,1.38-.04.45-.1.91-.18,1.38,0,.05,0,.11-.03.18-.02.07-.03.13-.03.18-.16.9-.39,1.87-.67,2.91-.28,1.04-.67,2.46-1.16,4.25-.69,2.55-1.16,4.25-1.4,5.11-.25.85-.43,1.54-.55,2.06v.07s-.01.12-.03.21c-.02.1-.03.17-.03.21v.81c0,.12.02.23.06.32.08.47.25.83.52,1.06.26.24.6.35,1.01.35.16,0,.6-.09,1.31-.28.71-.19,2.06-.8,4.05-1.84v2.77c0,.33-.02.63-.06.89-.04.26-.16.53-.36.81-.21.28-.58.58-1.13.89-.55.31-1.33.67-2.34,1.1-.89.33-1.75.64-2.56.92-.81.28-1.56.43-2.25.43-.24,0-.55-.05-.91-.14-.37-.09-.75-.24-1.16-.43-.69-.38-1.31-.97-1.86-1.77-.55-.8-.82-1.99-.82-3.55,0-.24.01-.46.03-.67.02-.21.05-.44.09-.67.04-.19.08-.4.12-.64.04-.24.08-.45.12-.64.16-.76.34-1.51.55-2.27.2-.76.41-1.51.61-2.27.08-.24.15-.47.21-.71.06-.24.13-.47.21-.71.89-2.98,1.46-5.05,1.71-6.21.24-1.16.37-1.97.37-2.45v-.39c0-.12-.02-.22-.06-.32-.04-.28-.14-.53-.31-.74-.16-.21-.45-.32-.85-.32-.49,0-1.03.18-1.61.53-.59.36-1.21.82-1.86,1.38-.37.33-.74.7-1.13,1.1-.39.4-.76.82-1.13,1.24-.45.47-.86.96-1.25,1.45-.39.5-.72.93-1.01,1.31-.45.62-.92,1.3-1.43,2.06-.51.76-1,1.59-1.49,2.48-.98,1.7-1.9,3.55-2.77,5.53-.87,1.98-1.53,4.02-1.98,6.1-.04.05-.07.11-.09.18-.02.07-.03.15-.03.25h-6.15Z"/>
    <path d="m593.27,343.96c.12-.66.31-1.13.58-1.42.26-.28.56-.47.88-.57.04-.05.1-.08.18-.11.08-.02.14-.04.18-.04,3.17-.9,6.24-1.56,9.23-1.98,2.99-.43,5.56-.64,7.71-.64,6.38,0,11.1,2.07,14.17,6.2,3.07,4.14,4.72,8.66,4.97,13.58v1.21c0,8.84-2.84,16.29-8.53,22.34-5.69,6.05-12.17,9.08-19.44,9.08-5.65,0-9.93-2.07-12.86-6.21-2.92-4.13-4.39-8.97-4.39-14.5,0-3.78.96-7.4,2.89-10.85,1.93-3.45,4.07-6.31,6.43-8.58,1.5-1.51,2.97-2.71,4.39-3.58,1.42-.87,2.56-1.31,3.41-1.31.25,0,.44.03.58.11.14.07.29.18.46.32.04,0,.06.03.06.07.08.05.15.08.21.11.06.03.11.06.15.11l1.4.85c.16.1.26.21.31.36.04.14.08.31.12.5v.43c0,.09-.02.18-.06.25-.04.07-.08.15-.12.25-.12.14-.28.28-.49.43-.2.14-.45.33-.73.57-.89.71-1.73,1.43-2.5,2.16-.77.73-1.48,1.48-2.13,2.23-2.89,3.26-4.81,6.39-5.76,9.4-.96,3-1.43,5.35-1.43,7.05,0,4.21,1.2,7.52,3.6,9.93,2.4,2.41,5.04,3.71,7.92,3.9.12,0,.23,0,.33,0s.21,0,.34,0c.77,0,1.56-.08,2.35-.25.79-.17,1.59-.41,2.41-.74,3.45-1.47,6.63-4.33,9.54-8.58,2.9-4.25,4.36-9.52,4.36-15.81,0-4.63-1.37-8.27-4.12-10.92-2.74-2.65-6.45-3.97-11.12-3.97-2.6,0-4.9.19-6.89.57-1.99.38-3.84.83-5.55,1.35-1.02.33-1.69.56-2.01.67-.33.12-.59.18-.79.18h-.06c-.33,0-.53-.08-.61-.25-.08-.16-.12-.37-.12-.6,0-.09,0-.2.03-.32.02-.12.05-.22.09-.32l.43-2.62Z"/>
    <path d="m661.59,380.56c-.28,1.13-.47,1.97-.55,2.52-.08.55-.12,1-.12,1.38,0,.61.08,1.03.25,1.24.16.21.37.34.61.39h.67c.41-.09.95-.33,1.62-.71.67-.38,1.98-1.21,3.93-2.48l.06,3.55c.04.95-.53,1.82-1.71,2.62-1.18.8-2.46,1.42-3.84,1.84-.61.19-1.21.34-1.8.46-.59.12-1.13.18-1.62.18-1.42,0-2.49-.32-3.2-.96-.71-.64-1.15-1.34-1.31-2.09,0-.14-.01-.27-.03-.39-.02-.12-.03-.25-.03-.39,0-.71.07-1.57.22-2.59.14-1.02.33-2.07.58-3.16.12-.61.25-1.23.4-1.85.14-.61.29-1.2.46-1.77.12-.38.23-.76.34-1.13.1-.38.21-.71.34-.99l1.04-2.98h-.43c-.25.66-.51,1.35-.79,2.06-.28.71-.61,1.42-.98,2.13-1.18,2.37-2.61,4.63-4.3,6.81-1.69,2.18-3.42,3.92-5.21,5.25-.93.61-1.85,1.11-2.74,1.49-.89.38-1.75.57-2.56.57-1.34,0-2.53-.63-3.57-1.88-1.04-1.25-1.55-3.06-1.55-5.43,0-.76.12-1.6.37-2.52.24-.92.57-2.14.98-3.65l4.57-17.3h6.09l-4.94,18.65c-.04.14-.07.26-.09.36-.02.09-.03.19-.03.28v.07c-.04.14-.08.3-.12.46-.04.17-.12.44-.24.82-.08.33-.16.7-.24,1.1-.08.4-.12.86-.12,1.38,0,.43.07.79.21,1.1.14.31.44.46.88.46.49,0,1.01-.15,1.59-.46.57-.31,1.16-.7,1.77-1.17.45-.38.89-.8,1.34-1.27.45-.47.87-.95,1.28-1.42.57-.61,1.08-1.21,1.52-1.77.45-.57.83-1.06,1.16-1.49,1.66-2.22,3.23-4.69,4.69-7.41,1.46-2.72,2.7-5.95,3.72-9.68h6.03l-4.57,19.79Z"/>
    <path d="m697.24,368.22c-.65.28-1.23.56-1.74.82-.51.26-.99.51-1.43.75-.2.09-.4.2-.58.32-.18.12-.36.23-.52.32-.41.24-.79.47-1.16.71-.37.24-.77.5-1.22.78-.2.14-.39.26-.55.36-.16.09-.33.19-.49.28-.2.14-.44.3-.7.46-.26.17-.6.37-1,.6-.41.24-1.04.63-1.89,1.17-.85.54-1.77,1.19-2.74,1.95-.65.47-1.3,1-1.95,1.6-.65.59-1.22,1.17-1.7,1.74-.41.52-.73,1.02-.98,1.49-.25.47-.37.95-.37,1.42,0,.14.01.27.03.39.02.12.07.25.15.39.2.57.64,1.08,1.31,1.52.67.45,1.57.67,2.71.67.49,0,1-.05,1.55-.14.55-.09,1.09-.22,1.62-.36.77-.19,1.52-.43,2.25-.71.73-.28,1.4-.59,2.01-.92.85-.38,1.58-.74,2.19-1.1.61-.36,1.06-.63,1.34-.82.2-.09.39-.18.55-.25.16-.07.31-.11.43-.11.2,0,.37.08.49.25.12.16.18.44.18.81,0,.1-.01.18-.03.25-.02.07-.03.15-.03.25-.04.05-.07.1-.09.14-.02.05-.03.1-.03.14-.04.05-.07.11-.09.18-.02.07-.03.13-.03.18l-.61,2.84c-3.09,2.37-5.9,3.78-8.44,4.25-2.54.47-4.54.71-6,.71-2.36,0-4.15-.5-5.39-1.49-1.24-.99-2.1-2.08-2.59-3.26-.25-.52-.41-1.03-.49-1.52-.08-.5-.12-.96-.12-1.38,0-2.32.93-4.5,2.8-6.56,1.87-2.06,3.9-3.86,6.09-5.42,1.75-1.18,3.39-2.17,4.94-2.98,1.54-.8,2.66-1.37,3.35-1.7l2.38-1.06v-.64c-.53.24-1.1.45-1.71.64-.61.19-1.22.36-1.83.5-1.22.28-2.38.47-3.47.57-1.1.09-1.95.14-2.56.14s-1.16-.06-1.65-.18c-.49-.12-.94-.25-1.34-.39l-2.19,3.26h-2.68c-.49,0-.92-.05-1.31-.14-.39-.09-.58-.38-.58-.85,0-.09,0-.2.03-.32.02-.12.05-.22.09-.32.08-.19.16-.37.25-.53.08-.16.18-.34.31-.53,0-.05,0-.08.03-.11.02-.02.05-.06.09-.11.04-.09.08-.17.12-.21.04-.05.08-.09.12-.14.04-.05.09-.12.15-.21.06-.09.13-.21.21-.35.08-.14.15-.26.21-.35.06-.09.11-.19.15-.28l.06-.07s.09-.11.15-.18c.06-.07.11-.15.15-.25-.16-.14-.3-.29-.4-.46-.1-.16-.19-.34-.27-.53-.12-.19-.2-.36-.25-.53-.04-.16-.08-.32-.12-.46-.04-.14-.07-.28-.09-.43-.02-.14-.01-.28.03-.43v-.43c0-.14.02-.26.06-.35.08-.52.26-1.09.55-1.7.28-.61.67-1.23,1.16-1.84.53-.71,1.19-1.38,1.98-2.02.79-.64,1.7-1.24,2.71-1.81h4.81l-2.68,7.09c.37.09.72.18,1.07.25.34.07.68.15,1.01.25.53.05,1.06.09,1.59.14.53.05,1.06.07,1.58.07.61,0,1.54-.05,2.8-.14,1.26-.09,2.58-.21,3.96-.36.24-.05.49-.08.73-.11.24-.02.49-.03.73-.03.89-.09,1.73-.19,2.5-.28.77-.09,1.44-.17,2.01-.21l-1.71,7.45Z"/>
    <path d="m769.82,347.44c-.61-.24-1.22-.44-1.83-.6-.61-.16-1.2-.32-1.77-.46-1.3-.24-2.62-.4-3.96-.5-1.34-.09-2.74-.14-4.21-.14-5.57,0-9.93.7-13.1,2.09-3.17,1.4-5.5,2.92-7.01,4.57-.97,1.04-1.65,2.07-2.04,3.08-.39,1.02-.58,1.83-.58,2.45,0,1.51.59,2.57,1.77,3.16,1.18.59,2.5.96,3.96,1.1.57.05,1.13.08,1.68.1.55.03,1.07.03,1.55.03h2.98c.12,0,.27-.02.43-.07h2.99c.77,0,1.58.01,2.44.03.85.03,1.71.08,2.56.18,2.88.28,5.53,1.1,7.92,2.45,2.4,1.35,3.6,3.77,3.6,7.27,0,5.3-2.71,9.81-8.14,13.55-5.42,3.74-11.39,5.7-17.89,5.89h-.85c-1.18,0-2.42-.08-3.72-.25-1.3-.16-2.6-.39-3.9-.67-1.91-.38-3.81-.92-5.7-1.63s-3.61-1.51-5.15-2.41l1.34-5.32c2.11.61,4.12,1.14,6.03,1.56,1.91.43,3.8.76,5.67.99.93.09,1.87.17,2.8.21.93.05,1.89.07,2.86.07,4.79,0,8.83-.91,12.1-2.73,3.27-1.82,5.33-3.82,6.18-5.99.12-.33.21-.65.28-.96.06-.31.09-.63.09-.96,0-1.37-.46-2.28-1.37-2.73-.91-.45-1.92-.7-3.02-.74h-1.52c-.16.05-.32.07-.46.07h-.4c-.69.05-1.39.07-2.1.07h-5.12c-.51,0-1.03-.02-1.55-.07-3.9-.19-7.46-.97-10.7-2.34-3.23-1.37-4.84-3.95-4.84-7.73,0-1.13.17-2.4.52-3.79.34-1.39.92-2.83,1.74-4.29,1.78-3.17,4.92-6.09,9.41-8.76,4.49-2.67,11-4.01,19.53-4.01,1.5,0,2.91.08,4.24.25,1.32.17,2.63.39,3.93.67.65.14,1.3.31,1.95.5.65.19,1.3.4,1.95.64l-1.58,6.17Z"/>
    <path d="m786.1,391.62c-.33-.05-.66-.08-1.01-.11-.35-.02-.68-.06-1.01-.11-2.6-.47-4.99-1.77-7.16-3.9-2.17-2.13-3.26-5.18-3.26-9.15,0-4.96,2.03-9.36,6.09-13.19,4.06-3.83,8.74-5.74,14.02-5.74,3.37,0,6,1.25,7.89,3.76,1.89,2.51,2.83,5.49,2.83,8.94,0,4.77-1.32,8.71-3.96,11.81-2.64,3.1-5.55,5.24-8.71,6.42-.98.43-1.95.73-2.92.92-.98.19-1.91.28-2.8.28v.07Zm7.65-9.43c1.89-2.5,3.06-5.27,3.51-8.3.04-.38.07-.74.09-1.1.02-.35.03-.72.03-1.1,0-1.94-.4-3.37-1.19-4.29-.79-.92-1.68-1.55-2.65-1.88-.45-.19-.87-.31-1.28-.35-.41-.05-.79-.07-1.16-.07-2.24,0-4.11.9-5.64,2.7-1.52,1.8-2.67,3.76-3.44,5.89-.41,1.13-.71,2.25-.91,3.33-.2,1.09-.31,2.03-.31,2.84,0,1.75.53,3.2,1.58,4.36,1.06,1.16,2.48,1.74,4.27,1.74,2.84,0,5.21-1.25,7.1-3.76Z"/>
    <path d="m817.3,384.32c1.06,1.09,2.34,1.63,3.84,1.63.73,0,1.71-.18,2.92-.53,1.22-.35,2.48-.79,3.78-1.31.85-.38,1.69-.76,2.5-1.13.81-.38,1.56-.78,2.25-1.21.37-.19.71-.4,1.04-.64.32-.24.61-.45.85-.64.33-.24.61-.44.85-.6.24-.17.47-.25.67-.25s.37.09.49.28.18.47.18.85c0,.09-.01.18-.03.25-.02.07-.03.15-.03.25-.04.05-.07.09-.09.14-.02.05-.03.09-.03.14-.04.05-.07.11-.09.18-.02.07-.03.13-.03.18l-.61,2.98c-2.24,1.75-4.72,3.3-7.47,4.65-2.74,1.35-5.58,2.02-8.5,2.02-3.09,0-5.78-1.09-8.08-3.26-2.29-2.17-3.44-5.58-3.44-10.21,0-2.51.57-6.21,1.71-11.1,1.14-4.89,3.8-10.39,7.98-16.49.25-.33.72-.97,1.43-1.91.71-.94,1.59-1.94,2.65-2.98,1.26-1.32,2.7-2.52,4.33-3.58,1.62-1.06,3.31-1.6,5.06-1.6,2.15,0,3.88.83,5.18,2.48,1.3,1.66,1.95,3.59,1.95,5.81,0,3.64-1.54,8.18-4.63,13.61-3.09,5.44-9.26,11.37-18.53,17.8.2,1.7.83,3.1,1.89,4.19Zm4.66-15.82c1.97-2.27,3.67-4.58,5.09-6.95,1.38-2.27,2.46-4.53,3.23-6.77.77-2.24,1.16-4.29,1.16-6.13v-.36c0-.57-.05-1.07-.15-1.52-.1-.45-.44-.67-1.01-.67-.69,0-1.61.5-2.77,1.49-1.16.99-2.37,2.41-3.63,4.25-.37.57-.73,1.16-1.1,1.77-.37.61-.73,1.25-1.1,1.91-2.19,4.11-3.72,7.78-4.57,10.99-.85,3.22-1.4,5.96-1.64,8.23,2.35-1.89,4.52-3.97,6.49-6.24Z"/>
    <path d="m867.45,380.56c-.28,1.13-.47,1.97-.55,2.52-.08.55-.12,1-.12,1.38,0,.61.08,1.03.25,1.24.16.21.37.34.61.39h.67c.41-.09.95-.33,1.62-.71.67-.38,1.98-1.21,3.93-2.48l.06,3.55c.04.95-.53,1.82-1.71,2.62-1.18.8-2.46,1.42-3.84,1.84-.61.19-1.21.34-1.8.46-.59.12-1.13.18-1.61.18-1.42,0-2.49-.32-3.2-.96-.71-.64-1.15-1.34-1.31-2.09,0-.14-.01-.27-.03-.39-.02-.12-.03-.25-.03-.39,0-.71.07-1.57.21-2.59.14-1.02.33-2.07.58-3.16.12-.61.25-1.23.4-1.85.14-.61.29-1.2.46-1.77.12-.38.23-.76.34-1.13.1-.38.21-.71.34-.99l1.04-2.98h-.43c-.25.66-.51,1.35-.79,2.06-.28.71-.61,1.42-.98,2.13-1.18,2.37-2.61,4.63-4.3,6.81-1.69,2.18-3.42,3.92-5.21,5.25-.93.61-1.85,1.11-2.74,1.49-.89.38-1.75.57-2.56.57-1.34,0-2.53-.63-3.57-1.88-1.04-1.25-1.55-3.06-1.55-5.43,0-.76.12-1.6.37-2.52.24-.92.57-2.14.98-3.65l4.57-17.3h6.09l-4.94,18.65c-.04.14-.07.26-.09.36-.02.09-.03.19-.03.28v.07c-.04.14-.08.3-.12.46-.04.17-.12.44-.24.82-.08.33-.16.7-.24,1.1-.08.4-.12.86-.12,1.38,0,.43.07.79.21,1.1.14.31.44.46.88.46.49,0,1.02-.15,1.59-.46.57-.31,1.16-.7,1.77-1.17.45-.38.89-.8,1.34-1.27.45-.47.87-.95,1.28-1.42.57-.61,1.08-1.21,1.52-1.77.45-.57.83-1.06,1.16-1.49,1.66-2.22,3.23-4.69,4.69-7.41,1.46-2.72,2.7-5.95,3.72-9.68h6.03l-4.57,19.79Z"/>
    <path d="m890.06,361.55c.25-.05.54-.08.88-.11.35-.02.68-.06,1.01-.1.41-.09.78-.17,1.13-.21.34-.04.66-.09.94-.14.93-.24,1.66-.44,2.16-.6.51-.16.97-.27,1.37-.32h.49c.24,0,.43.06.58.18.14.12.23.23.28.32.04.1.07.18.09.25.02.07.03.13.03.18,0,.1,0,.19-.03.28-.02.1-.05.19-.09.28,0,.05,0,.1,0,.14-.04.05-.07.11-.09.18-.02.07-.03.15-.03.25l-.37,2.27c-.08.66-.54,1.16-1.37,1.49-.83.33-3.46.59-7.89.78l-1.83,9.64c-.33,1.65-.55,2.81-.67,3.47-.12.66-.2,1.21-.24,1.63,0,.14-.01.3-.03.46-.02.17-.03.32-.03.46-.04.14-.06.26-.06.36v.78c0,.14.01.27.03.39.02.12.03.25.03.39.08.43.26.82.55,1.17.28.35.73.53,1.34.53.45,0,1.03-.13,1.77-.39.73-.26,1.5-.58,2.32-.96.37-.14.72-.31,1.07-.5.34-.19.7-.38,1.07-.57.4-.24.78-.47,1.13-.71.34-.24.64-.45.88-.64.04-.05.07-.08.09-.11.02-.02.05-.03.09-.03.16-.14.34-.26.52-.35.18-.09.38-.14.58-.14.28,0,.47.06.55.18.08.12.12.27.12.46v.36s0,.11-.03.18c-.02.07-.03.13-.03.18l-.3,2.13c-.16.99-.55,1.74-1.16,2.24-.61.5-1.32.93-2.13,1.31-.24.14-.48.26-.7.36-.23.09-.46.21-.7.35-.61.33-1.17.61-1.68.85-.51.24-1,.45-1.49.64-.65.24-1.32.43-2.01.57-.69.14-1.54.21-2.56.21-2.24,0-3.77-.9-4.6-2.7-.83-1.8-1.25-3.83-1.25-6.1,0-1.37.12-2.67.37-3.9.24-1.23.51-2.41.79-3.55.16-.61.31-1.22.46-1.81.14-.59.28-1.17.4-1.74l.97-5.1c-.49-.05-.98-.08-1.49-.11-.51-.02-1.03-.03-1.55-.03h-.91c-.45,0-.86-.03-1.25-.11-.39-.07-.58-.32-.58-.74,0-.14,0-.32.03-.53.02-.21.07-.53.15-.96l.43-2.27c.08-.57.19-.99.34-1.28.14-.28.42-.43.82-.43.16,0,.43.05.82.14.39.09,1.27.33,2.65.71.12.05.22.08.31.11.08.02.16.06.24.1.16.05.33.08.49.11.16.02.34.03.55.03l2.86-13.19h6.09l-2.68,13.33Z"/>
    <path d="m913.59,360.77l-4.57,19.79c-.04.19-.08.37-.12.53-.04.17-.08.34-.12.53-.12.43-.22.86-.31,1.31-.08.45-.12.93-.12,1.46v.57c.04.24.13.47.27.71.14.24.4.35.76.35.45,0,1.05-.22,1.8-.67.75-.45,2.1-1.27,4.05-2.45l.06,3.55c0,.9-.5,1.72-1.49,2.45-.99.73-2.1,1.31-3.32,1.74-.81.28-1.6.51-2.35.67-.75.16-1.35.25-1.8.25-1.3,0-2.34-.41-3.11-1.24-.77-.83-1.16-2.07-1.16-3.72v-.57c.04-.71.12-1.43.25-2.16.12-.73.24-1.43.36-2.09.08-.24.15-.48.21-.75.06-.26.11-.51.15-.74l4.45-19.5h6.09Zm-3.96-4.18c-.45-.43-.75-.9-.91-1.42-.04-.19-.08-.38-.12-.57-.04-.19-.06-.38-.06-.57,0-1.61.42-3.03,1.25-4.25.83-1.23,1.88-1.84,3.14-1.84.93,0,1.74.37,2.41,1.1.67.73,1.01,1.67,1.01,2.8,0,.28-.03.61-.09.99-.06.38-.17.76-.34,1.14-.28.8-.77,1.55-1.46,2.23-.69.69-1.67,1.03-2.92,1.03-.81,0-1.44-.21-1.89-.64Z"/>
    <path d="m932.54,391.62c-.32-.05-.66-.08-1-.11-.35-.02-.68-.06-1.01-.11-2.6-.47-4.99-1.77-7.16-3.9-2.17-2.13-3.26-5.18-3.26-9.15,0-4.96,2.03-9.36,6.09-13.19,4.06-3.83,8.73-5.74,14.02-5.74,3.37,0,6,1.25,7.89,3.76,1.89,2.51,2.83,5.49,2.83,8.94,0,4.77-1.32,8.71-3.96,11.81-2.64,3.1-5.55,5.24-8.71,6.42-.98.43-1.95.73-2.92.92-.98.19-1.91.28-2.8.28v.07Zm7.65-9.43c1.89-2.5,3.06-5.27,3.5-8.3.04-.38.07-.74.09-1.1.02-.35.03-.72.03-1.1,0-1.94-.4-3.37-1.19-4.29-.79-.92-1.68-1.55-2.65-1.88-.45-.19-.87-.31-1.28-.35-.41-.05-.79-.07-1.16-.07-2.24,0-4.12.9-5.64,2.7-1.52,1.8-2.67,3.76-3.44,5.89-.41,1.13-.71,2.25-.91,3.33-.2,1.09-.31,2.03-.31,2.84,0,1.75.53,3.2,1.58,4.36,1.06,1.16,2.48,1.74,4.27,1.74,2.84,0,5.21-1.25,7.1-3.76Z"/>
    <path d="m954.72,390.27l6.03-29.5h6.09l-3.35,15.53h.25c.93-2.55,2.24-5.04,3.93-7.45,1.69-2.41,3.46-4.42,5.33-6.03,1.18-1.04,2.36-1.87,3.54-2.48,1.18-.61,2.23-.92,3.17-.92,1.22,0,2.33.52,3.32,1.56.99,1.04,1.49,2.51,1.49,4.4,0,.47-.02.93-.06,1.38-.04.45-.1.91-.18,1.38,0,.05,0,.11-.03.18-.02.07-.03.13-.03.18-.16.9-.39,1.87-.67,2.91-.28,1.04-.67,2.46-1.16,4.25-.69,2.55-1.16,4.25-1.4,5.11-.25.85-.43,1.54-.55,2.06v.07s-.01.12-.03.21c-.02.1-.03.17-.03.21v.81c0,.12.02.23.06.32.08.47.25.83.52,1.06.26.24.6.35,1.01.35.16,0,.6-.09,1.31-.28.71-.19,2.06-.8,4.05-1.84v2.77c0,.33-.02.63-.06.89-.04.26-.16.53-.36.81-.21.28-.58.58-1.13.89-.55.31-1.33.67-2.34,1.1-.89.33-1.75.64-2.56.92-.81.28-1.56.43-2.25.43-.24,0-.55-.05-.91-.14-.37-.09-.75-.24-1.16-.43-.69-.38-1.31-.97-1.86-1.77-.55-.8-.82-1.99-.82-3.55,0-.24.01-.46.03-.67.02-.21.05-.44.09-.67.04-.19.08-.4.12-.64.04-.24.08-.45.12-.64.16-.76.34-1.51.55-2.27.2-.76.41-1.51.61-2.27.08-.24.15-.47.21-.71.06-.24.13-.47.21-.71.89-2.98,1.46-5.05,1.71-6.21.24-1.16.37-1.97.37-2.45v-.39c0-.12-.02-.22-.06-.32-.04-.28-.14-.53-.31-.74-.16-.21-.45-.32-.85-.32-.49,0-1.03.18-1.62.53-.59.36-1.21.82-1.86,1.38-.37.33-.74.7-1.13,1.1-.39.4-.76.82-1.13,1.24-.45.47-.86.96-1.25,1.45-.39.5-.72.93-1.01,1.31-.45.62-.92,1.3-1.43,2.06-.51.76-1,1.59-1.49,2.48-.98,1.7-1.9,3.55-2.77,5.53-.87,1.98-1.53,4.02-1.98,6.1-.04.05-.07.11-.09.18-.02.07-.03.15-.03.25h-6.15Z"/>
  </g>
</svg>