<?xml version="1.0" encoding="utf-8"?>
<!-- Generator: Adobe Illustrator 24.1.1, SVG Export Plug-In . SVG Version: 6.00 Build 0)  -->
<svg version="1.1" id="a" xmlns="http://www.w3.org/2000/svg" xmlns:xlink="http://www.w3.org/1999/xlink" x="0px" y="0px"
	 viewBox="0 0 337.5 140.1" style="enable-background:new 0 0 337.5 140.1;" xml:space="preserve">
<style type="text/css">
	.st0{fill:#262262;}
	.st1{fill:#ED1C24;}
	.st2{fill:#231F20;}
</style>
<g>
	<path class="st0" d="M85.4,92.4c0,0,31.1-22.5,47.3-23.6l1.5,11c0,0-30.9,5.3-33.4,7.2c-2.4,1.8-9.5,7.5-9.8,7.9
		C90.8,95.4,85.4,92.4,85.4,92.4L85.4,92.4z"/>
	<g>
		<path class="st0" d="M176.8,69.3c0.2,0.2,0.5,0.4,0.7,0.6c-1.1,2.3-1.9,4.9-3.4,6.9c-3.3,4.6-8.2,6-13.7,6.3
			c-10.3,0.7-17.7-4.4-20.4-14.3c-2.4-8.7-2-17.4,0.6-25.9c3.1-10.1,9.8-14.8,19.8-14.5c7.3,0.2,12.9,4.2,15.2,10.7
			c0.6,1.8,0.8,3.7,1.2,5.5h23.7V14h-22.5v5.6c-2.9-1.5-5.6-3.3-8.5-4.4c-9.6-3.6-19.5-3.6-29.3-1.5c-14.8,3.2-24.4,12-28.4,26.7
			c-2.1,7.6-2.3,15.4-1.2,23.2c1.1,7.8,3.5,15.2,8.6,21.4c6.3,7.8,14.7,11.8,24.4,13.3c9.7,1.5,19.4,1.6,28.6-2.2
			c2.4-1,4.4-2.6,6.9-4.1v5.6h22.5V69.2h6.5V54h-40.4v15.3L176.8,69.3L176.8,69.3z M232.7,93.1c3.3,2.9,6.6,4.7,10.4,5.4
			c7,1.3,14.1,1.2,21.1-0.1c11.5-2.1,21.1-8.1,22.3-22.1c0.9-11.1-2-18.7-12.8-23.7c-5.6-2.6-11.5-4.4-17.2-6.7
			c-5.3-2-10.6-4-15.7-6.3c-2.3-1-3.4-3-3.1-5.6s1.8-4.1,4.1-4.9c1.7-0.6,3.5-1.1,5.3-1.2c7.3-0.5,13.2,1.7,14.8,9.8
			c0.3,1.4,0.3,2.9,0.4,4.4h22v-28H263c-0.1,1.4-0.1,2.6-0.2,3.6c-2.5-1.2-4.6-2.5-7-3.3c-9.4-3-18.9-2.7-28.2,0.1
			c-5.9,1.8-10.7,5.3-13.6,10.8c-2.5,4.8-3.1,10-3,15.4c0.2,5.8,2.6,10.3,7.1,13.8c5.9,4.7,13.1,6.6,20,8.8c5.8,1.9,11.5,4,17.1,6.3
			c3,1.2,4.3,3.8,3.9,7c-0.4,3.1-2.2,5.4-5.2,6.2c-2.7,0.7-5.5,1-8.3,0.8c-7-0.5-11.4-5.2-11.8-12.2c-0.1-1.3-0.2-2.6-0.3-3.9h-23.4
			v30h22.3L232.7,93.1L232.7,93.1z M327.1,82.6c-0.1-0.6-0.2-0.8-0.2-1.1c0-16.9,0-33.7,0-50.6c0-1.4,0.5-1.8,1.8-1.8
			c2.5,0.1,4.9,0,7.4,0V14h-46v15.1c2.3,0,4.5,0.1,6.7,0c2.3-0.2,2.9,0.6,2.8,2.8c-0.1,16,0,32,0,47.9v2.7h-9.5v15.2h45.9V82.6
			L327.1,82.6L327.1,82.6z"/>
		<path class="st0" d="M176.8,69.3h-9.2V54H208v15.2h-6.5v28.5H179v-5.6c-2.4,1.5-4.5,3.1-6.9,4.1c-9.3,3.8-18.9,3.7-28.6,2.2
			c-9.7-1.5-18.1-5.6-24.4-13.3c-5.1-6.2-7.5-13.6-8.6-21.4c-1.1-7.8-0.8-15.6,1.2-23.2c3.9-14.7,13.6-23.6,28.4-26.7
			c9.9-2.1,19.7-2.1,29.3,1.5c2.9,1.1,5.6,2.9,8.5,4.4V14h22.5v30.8h-23.7c-0.4-1.9-0.6-3.8-1.2-5.5c-2.2-6.6-7.9-10.5-15.2-10.7
			c-10-0.3-16.6,4.4-19.8,14.5c-2.6,8.5-3,17.2-0.6,25.9c2.7,9.9,10.2,15,20.4,14.3c5.5-0.3,10.4-1.8,13.7-6.3
			c1.5-2.1,2.3-4.6,3.4-6.9C177.2,69.7,177,69.5,176.8,69.3L176.8,69.3z"/>
		<path class="st0" d="M232.7,93.1v4.7h-22.3v-30h23.4c0.1,1.3,0.2,2.6,0.3,3.9c0.4,7,4.8,11.7,11.8,12.2c2.7,0.2,5.6-0.2,8.3-0.8
			c3-0.8,4.8-3.1,5.2-6.2c0.4-3.2-1-5.8-3.9-7c-5.6-2.3-11.4-4.4-17.1-6.3c-7-2.3-14.1-4.2-20-8.8c-4.5-3.5-6.9-8.1-7.1-13.8
			c-0.1-5.4,0.4-10.6,3-15.4c2.9-5.6,7.7-9.1,13.6-10.8c9.4-2.8,18.8-3,28.2-0.1c2.3,0.7,4.5,2.1,7,3.3c0.1-1.1,0.1-2.2,0.2-3.6
			h21.3v28h-22c-0.1-1.5-0.2-3-0.4-4.4c-1.6-8.1-7.5-10.4-14.8-9.8c-1.8,0.1-3.6,0.7-5.3,1.2c-2.3,0.8-3.9,2.3-4.1,4.9
			c-0.2,2.5,0.9,4.6,3.1,5.6c5.2,2.2,10.5,4.2,15.7,6.3c5.7,2.2,11.7,4,17.2,6.7c10.7,5,13.7,12.6,12.8,23.7
			c-1.2,14-10.8,20.1-22.3,22.1c-7,1.3-14,1.4-21.1,0.1C239.3,97.7,236,96,232.7,93.1L232.7,93.1z"/>
		<path class="st1" d="M327.1,82.6h9v15.2h-45.9V82.6h9.5v-2.7c0-16,0-32,0-47.9c0-2.2-0.6-3-2.8-2.8c-2.2,0.2-4.4,0-6.7,0V14h46
			v15.1c-2.5,0-5,0-7.4,0c-1.3,0-1.8,0.4-1.8,1.8c0,16.9,0,33.7,0,50.6C326.9,81.7,327,82,327.1,82.6L327.1,82.6z"/>
	</g>
	<path class="st0" d="M56.6,109.1c-29.3,0-53.1-23.8-53.1-53.1S27.3,3,56.6,3C65.3,3,74,5.1,81.7,9.2l-1,1.9c-7.3-3.9-15.7-6-24-6
		C28.5,5.1,5.7,28,5.7,56.1S28.5,107,56.6,107c6.2,0,12.2-1.1,17.9-3.3c4.8-1.8,9.3-4.5,13.6-7.2c4.2-2.6,8.5-5.2,13.2-7.1
		c10.2-4.1,22.2-5.2,33.8-3.2c2.8,0.5,5.7,1.1,8.5,2l-0.6,2.1c-2.8-0.8-5.5-1.4-8.3-1.9c-11.2-1.9-22.8-0.8-32.7,3.1
		c-4.5,1.8-8.8,4.4-12.9,6.9c-4.4,2.7-9,5.5-14,7.3C69.3,108,63,109.1,56.6,109.1L56.6,109.1z"/>
	<path class="st0" d="M81.2,10.2c0,0-0.3-0.1-0.7-0.4c-0.5-0.2-1.2-0.6-2.1-1c-1.9-0.8-4.7-1.9-8.4-2.8c-3.7-0.9-8.3-1.6-13.6-1.4
		C50.9,4.8,45,5.8,39,8.2c-6,2.4-12,6.1-17.2,11.3c-5.2,5.2-9.5,11.8-12,19.3c-2.6,7.5-3.3,15.8-2,23.9c1.3,8.1,4.7,15.9,9.8,22.4
		c5.1,6.5,11.8,11.6,19.2,14.7c7.4,3.1,15.3,4.3,22.9,3.6c3.8-0.3,7.4-1.1,10.8-2.2c1.7-0.6,3.3-1.2,5-2c0.4-0.2,0.7-0.3,1.1-0.6
		c0.4-0.2,0.8-0.4,1.2-0.6c0.8-0.4,1.6-0.8,2.3-1.3c6.1-3.6,12.1-8.1,18.9-11l0.6-0.3l0.2-0.1l0.2-0.1l0.3-0.1
		c0.4-0.2,0.8-0.3,1.1-0.4c0.3-0.2,0.8-0.3,1.2-0.5s0.9-0.3,1.3-0.5c0.8-0.3,1.7-0.5,2.5-0.8c0.8-0.2,1.6-0.4,2.4-0.7
		c3.2-0.8,6.3-1.3,9.2-1.6c5.8-0.6,11-0.4,15.1,0c1.1,0.1,2,0.3,3,0.4c-0.3-0.1-0.1,0-0.1,0h0.1l0.2,0l0.2,0h0.1c0,0,0,0,0.1,0h0.1
		c0.2,0,0.5,0,0.8,0c0.6,0,1.2-0.1,1.9-0.1c0.7,0,1.3-0.1,2-0.1c1.3,0,2.5,0.1,3.4,0.3c0.4,0.1,0.8,0.2,1.1,0.2l0.4,0.1l-3.6,12.5
		c0,0,0,0,0,0s0,0-0.1,0c-0.1,0-0.5-0.1-1.2-0.1c-0.4,0-0.9,0-1.5,0c-0.6,0-1.3,0-2.3,0c-0.5,0-1,0-1.5-0.1l-0.2,0l-0.3,0
		c-0.2,0-0.4,0-0.6-0.1l-0.1,0h-0.1l-0.2,0c-0.2,0-0.3-0.1-0.5-0.1c-0.8-0.1-1.6-0.3-2.4-0.4c-3.4-0.5-7.7-0.9-12.5-0.6
		c-4.8,0.3-10.3,1.2-15.8,3.3c-2.7,1-5.6,2.5-8.6,4.2c-3,1.7-6.2,3.6-9.7,5.5c-0.9,0.5-1.8,0.9-2.7,1.4c-0.5,0.2-0.9,0.4-1.4,0.7
		s-1,0.4-1.5,0.7c-1.9,0.8-4,1.5-6,2.1c-4.2,1.2-8.6,1.9-13,2.1c-1.1,0.1-2.4,0.1-3.3,0l-0.9,0l-0.8,0c-0.6,0-1.1-0.1-1.7-0.1
		c-2.3-0.2-4.5-0.5-6.8-0.9c-4.5-0.9-8.9-2.4-13.1-4.4c-8.4-4-15.8-10.2-21.2-17.8c-5.4-7.6-8.9-16.6-9.9-25.6
		c-1-9,0.2-18.1,3.4-26.1c3.1-8,8.1-14.8,13.8-20.1c5.8-5.3,12.3-8.9,18.6-11.1c6.4-2.2,12.6-2.9,18-2.8c5.4,0.1,10.1,1,13.8,2.1
		c3.7,1.1,6.5,2.3,8.3,3.2c0.9,0.5,1.6,0.8,2.1,1.1C80.9,10.1,81.2,10.2,81.2,10.2L81.2,10.2z"/>
	<g>
		<path class="st1" d="M94.8,41.4c-0.2-0.7-0.4-1.5-0.7-2.2c-0.2-0.6-0.4-1.1-0.6-1.7c-0.2-0.6-0.5-1.2-0.8-1.8
			c-1.4-3-3.1-5.8-5.1-8.2c0,0,0.1,0,0.1-0.1c-0.1,0-0.2,0-0.2,0c-0.3-0.4-0.7-0.8-1.1-1.3c-0.3-0.3-0.6-0.7-1-1
			c-2.2-2.3-4.7-4.3-7.4-6c-0.6-0.4-1.3-0.8-1.9-1.1c-7.3-4-15.9-5.6-24.6-4.1h0c-0.3,0-0.6,0.1-0.9,0.2h0c-0.3,0.1-0.6,0.1-0.9,0.2
			h0c-8.7,1.9-16,6.7-21.3,13.1c-0.5,0.6-0.9,1.1-1.3,1.7c-1.9,2.6-3.4,5.4-4.6,8.3c-0.2,0.4-0.3,0.9-0.5,1.3
			c-0.2,0.5-0.4,1-0.5,1.6c-0.1,0-0.1,0.1-0.2,0.1c0,0,0.1,0,0.1,0c-0.9,3.1-1.5,6.3-1.6,9.6c0,0.6,0,1.3,0,1.9c0,0.6,0,1.2,0.1,1.8
			c0,0.8,0.1,1.5,0.2,2.3c0.1,1,0.3,2,0.5,3c0.5,2.5,1.2,4.8,2.1,7.1c0.3,0.8,0.6,1.5,1,2.2c2.3,4.8,5.5,8.9,9.4,12.3
			c0.9,0.8,1.8,1.5,2.8,2.2c8,5.7,18.2,8.3,28.6,6.5c0.3-0.1,0.6-0.1,0.9-0.2h0l0,0c0.3-0.1,0.6-0.1,0.8-0.2
			c10.3-2.3,18.7-8.5,24-16.8c0.6-1,1.2-2.1,1.8-3.1c2.3-4.6,3.8-9.6,4.1-14.9c0.1-0.8,0.1-1.6,0.1-2.5c0-2.4-0.2-4.9-0.7-7.4
			C95.3,43.3,95,42.4,94.8,41.4L94.8,41.4z M91.2,37c-0.5,0.4-0.9,0.7-1.5,1.1c-0.2,0.1-0.4,0.3-0.6,0.4c-0.5,0.3-1,0.7-1.6,1
			c-0.6,0.4-1.1,0.7-1.7,1.1c-1.1-3.4-2.5-6.6-4.2-9.5c1.5-0.8,3-1.6,4.3-2.5C88.1,31.1,89.9,33.9,91.2,37z M85.5,46.2
			c0.8,4.1,1,8.2,0.8,12c-2.5,1.3-5.2,2.5-8,3.6c0-4.5-0.5-9.2-1.4-14c-0.1-0.3-0.1-0.6-0.2-0.8c2.9-1.2,5.6-2.4,8.1-3.8
			C85.1,44.3,85.3,45.2,85.5,46.2L85.5,46.2z M30.3,57c-0.2-1-0.4-2-0.5-3c2.8,0.3,5.8,0.5,9,0.5c0,0.3,0.1,0.6,0.2,0.8
			c0.9,4.8,2.3,9.3,4,13.5c-3,0-6-0.1-8.8-0.4C32.5,65,31.2,61.1,30.3,57L30.3,57z M75.1,48.3c1,4.9,1.4,9.8,1.4,14.3
			c-4.6,1.7-9.5,3.1-14.6,4.1L59,52.3c5.6-1.2,11-2.7,16-4.6C75,47.9,75.1,48.1,75.1,48.3z M74.3,76.7c-3.2,1-6.6,1.9-10,2.6
			l-2.1-10.8c5-1,9.8-2.3,14.2-3.9c-0.2,3.7-0.7,7.1-1.5,10.2C74.7,75.5,74.5,76.1,74.3,76.7L74.3,76.7z M51,79.5
			c-2-2.6-3.7-5.6-5.3-8.9c4.7-0.2,9.7-0.8,14.7-1.7l2.1,10.8c-3.5,0.7-6.9,1.1-10.3,1.4C51.8,80.5,51.4,80,51,79.5z M40.8,55
			c0-0.2-0.1-0.3-0.1-0.5c5.3-0.1,10.9-0.7,16.5-1.8L60,67.1c-5.2,1-10.3,1.5-15.1,1.7C43.1,64.6,41.7,59.9,40.8,55L40.8,55z
			 M39.4,41.9c1.3,0,2.5-0.1,3.8-0.2c3.8-0.3,7.7-0.8,11.6-1.5l2.1,10.8c-5.7,1.1-11.2,1.6-16.5,1.8C39.7,49,39.4,45.3,39.4,41.9z
			 M74.6,46c-4.9,1.9-10.3,3.5-16,4.6l-2.1-10.8c3.9-0.8,7.7-1.8,11.3-3c1.2-0.4,2.4-0.8,3.6-1.2C72.7,38.8,73.8,42.3,74.6,46
			L74.6,46z M56.2,38l-2.1-10.8c3.9-0.8,7.6-1.8,11.2-2.9c2,2.8,3.9,6,5.4,9.6C66.2,35.6,61.3,37,56.2,38z M53.7,25.4l-1.9-9.6
			c4-0.3,8.2,2.1,12.2,7C60.8,23.8,57.3,24.7,53.7,25.4L53.7,25.4z M50.1,16.1l1.9,9.6c-3.6,0.7-7.1,1.2-10.6,1.5
			C43.2,21.2,46.3,17.3,50.1,16.1z M40.8,29.1c3.8-0.3,7.6-0.8,11.5-1.5l2.1,10.8c-5.1,1-10.2,1.5-15,1.7
			C39.5,36.1,40,32.4,40.8,29.1L40.8,29.1z M62.8,81.4l1.2,6.1c-3.3,0.3-6.8-1.4-10.2-4.8C56.8,82.4,59.8,82,62.8,81.4L62.8,81.4z
			 M65.8,87.1l-1.2-6.1c3-0.6,6-1.4,8.9-2.2C71.6,83.3,69,86.2,65.8,87.1L65.8,87.1z M73.1,35c2.4-1,4.8-2,7-3.1
			c1.7,2.9,3.2,6.1,4.2,9.6c-2.5,1.4-5.2,2.6-8,3.8C75.5,41.7,74.4,38.2,73.1,35L73.1,35z M72.4,33.3c-1.5-3.6-3.3-6.8-5.3-9.6
			c1.6-0.5,3.2-1.1,4.7-1.7c2.8,2.3,5.3,5.1,7.4,8.4C77,31.4,74.8,32.4,72.4,33.3L72.4,33.3z M66,22.2c-2.2-2.8-4.5-4.9-6.9-6.3
			c3.9,0.7,7.6,2.3,11,4.8C68.7,21.2,67.4,21.7,66,22.2z M39.4,27.4c-1.5,0.1-3,0.2-4.4,0.2c2.2-3.6,5.1-6.5,8.4-8.6
			C41.8,21.1,40.4,23.9,39.4,27.4L39.4,27.4z M38.9,29.2c-0.8,3.3-1.2,7-1.3,10.9c-2.5,0-5,0-7.3-0.2c0.7-3.8,2-7.4,3.7-10.5
			C35.6,29.4,37.2,29.3,38.9,29.2L38.9,29.2z M37.6,41.9c0,3.5,0.3,7.1,0.9,10.8c-3.1,0-6-0.2-8.8-0.5c-0.3-3.6-0.2-7.1,0.3-10.5
			C32.4,41.9,34.9,42,37.6,41.9z M43.7,70.6c1.7,3.7,3.6,7.1,5.8,9.9c0.2,0.2,0.3,0.4,0.5,0.6c-2,0.1-3.9,0.2-5.8,0.2
			c-3.5-2.9-6.6-6.6-9-11C37.9,70.6,40.8,70.7,43.7,70.6z M51.4,82.9c1.8,1.9,3.5,3.4,5.4,4.5c-3.6-0.6-7-2.1-10.2-4.2
			C48.2,83.2,49.8,83.1,51.4,82.9L51.4,82.9z M75.7,78.2c1.6-0.5,3.1-1,4.6-1.6l-7.9,7.8C73.7,82.7,74.8,80.6,75.7,78.2z M76.4,76
			c0.1-0.3,0.2-0.5,0.2-0.8c0.9-3.4,1.5-7.3,1.6-11.4c2.8-1.1,5.4-2.2,7.8-3.4c-0.6,5-2.1,9.6-4.2,13.6C80.1,74.7,78.3,75.4,76.4,76
			z M82.3,24.6c0.8,0.7,1.5,1.4,2.2,2.2c0.1,0.1,0.2,0.2,0.3,0.3c-1.3,0.8-2.7,1.6-4.1,2.3c-2.1-3.2-4.5-6-7.1-8.3
			c0.8-0.4,1.6-0.7,2.4-1.1C78.3,21.4,80.4,22.9,82.3,24.6z M74,19c-0.7,0.3-1.3,0.6-2,0.9c-1.9-1.5-4-2.8-6.1-3.7
			C68.8,16.8,71.5,17.8,74,19z M37.1,21.8c-1.6,1.7-3,3.6-4.3,5.8c-0.7,0-1.5,0-2.2,0C32.6,25.4,34.7,23.4,37.1,21.8z M29.2,29.3
			c0.9,0,1.8,0.1,2.7,0.1c-1.6,3.2-2.8,6.7-3.5,10.4c-1.6-0.2-3.2-0.4-4.6-0.6c0-0.2,0.1-0.3,0.2-0.4c0.4-1,0.8-1.9,1.2-2.9
			C26.3,33.5,27.7,31.3,29.2,29.3L29.2,29.3z M23.2,40.8c1.6,0.3,3.2,0.5,5,0.7c-0.5,3.3-0.6,6.8-0.3,10.4c-0.7-0.1-1.3-0.2-2-0.3
			c-0.6-0.1-1.2-0.2-1.9-0.4c-0.2,0-0.4-0.1-0.6-0.2c-0.6-0.1-1.2-0.3-1.8-0.5C21.6,47.3,22.2,44,23.2,40.8L23.2,40.8z M22.2,58.6
			c-0.3-1.4-0.5-2.7-0.6-4.1c-0.1-0.7-0.1-1.4-0.1-2.1c0.6,0.2,1.3,0.3,2,0.5c0,0,0.1,0,0.1,0c1.4,0.3,2.8,0.6,4.3,0.8
			c0.1,1.2,0.3,2.4,0.6,3.6c0.8,3.9,1.9,7.5,3.5,10.8c-1.7-0.2-3.3-0.5-4.9-0.9c-0.8-0.2-1.5-0.4-2.3-0.6
			C23.6,64.2,22.8,61.5,22.2,58.6L22.2,58.6z M25.9,69c0.3,0.1,0.5,0.1,0.8,0.2c2,0.4,4.1,0.8,6.3,1c2.3,4.3,5.1,8.1,8.4,11.2
			c-1.7-0.1-3.3-0.2-4.9-0.3C32.1,77.9,28.5,73.8,25.9,69L25.9,69z M39.7,83.1c1.3,0.1,2.6,0.1,3.9,0.1c2,1.6,4.1,2.9,6.3,3.9
			C46.3,86.3,42.8,84.9,39.7,83.1z M78.7,81.5c1.7-1.8,3.1-3.8,4.4-6c1.2-0.5,2.4-1,3.6-1.6C84.5,76.8,81.8,79.4,78.7,81.5z
			 M88.9,70.8c-1.4,0.8-2.9,1.5-4.4,2.2c1.9-4.1,3.1-8.6,3.6-13.5c1.9-1.1,3.8-2.2,5.4-3.3c0.2-0.2,0.4-0.3,0.7-0.5
			C93.5,61.1,91.7,66.2,88.9,70.8z M92.4,54.6c-1.3,0.9-2.7,1.8-4.2,2.7c0.2-3.7-0.1-7.5-0.9-11.3c-0.2-1.2-0.5-2.4-0.8-3.5
			c1.3-0.8,2.5-1.5,3.7-2.3c0,0,0.1,0,0.1-0.1c0.6-0.4,1.1-0.8,1.7-1.2c0.2,0.6,0.5,1.3,0.7,2c0.4,1.3,0.8,2.6,1,4
			c0.6,2.9,0.8,5.8,0.7,8.5C93.7,53.7,93.1,54.1,92.4,54.6L92.4,54.6z"/>
		<path class="st1" d="M57.9,90.1L57.9,90.1c-8,0-15.7-2.5-22.3-7.1c-1-0.7-1.9-1.4-2.8-2.2c-4-3.4-7.2-7.6-9.5-12.3
			c-0.4-0.7-0.7-1.5-1-2.3c-0.9-2.3-1.7-4.7-2.1-7.2c-0.2-1-0.4-2-0.5-3c-0.1-0.7-0.1-1.5-0.2-2.3c0-0.6,0-1.2-0.1-1.8
			c0-0.6,0-1.3,0-1.9c0.1-3.2,0.7-6.3,1.6-9.4c0,0-0.1-0.1-0.1-0.1c0-0.1,0-0.2,0.1-0.3l0.1-0.1c0.1-0.5,0.3-1,0.5-1.5
			c0.2-0.5,0.3-0.9,0.5-1.3c1.2-3,2.8-5.8,4.7-8.4c0.5-0.6,0.9-1.2,1.3-1.7c5.5-6.7,12.9-11.3,21.4-13.1c0.3-0.1,0.6-0.1,0.9-0.2
			c0.3-0.1,0.6-0.1,0.9-0.2c2.2-0.4,4.3-0.5,6.5-0.5c6.4,0,12.7,1.6,18.3,4.7c0.6,0.3,1.3,0.7,1.9,1.1c2.7,1.7,5.2,3.7,7.5,6
			c0.3,0.3,0.7,0.7,1,1c0.4,0.4,0.7,0.8,1,1.2l0.2,0c0.1,0,0.2,0.1,0.2,0.2c0,0,0,0.1,0,0.2c2,2.5,3.7,5.2,5,8.1
			c0.3,0.6,0.5,1.2,0.8,1.8c0.2,0.5,0.4,1.1,0.6,1.7c0.3,0.7,0.5,1.5,0.7,2.2c0.3,1,0.5,2,0.7,2.9c0.5,2.4,0.7,4.9,0.7,7.4
			c0,0.8,0,1.7-0.1,2.5c-0.3,5.3-1.7,10.3-4.2,15c-0.6,1.1-1.2,2.1-1.8,3.1C84.9,81,76.3,87,66.2,89.2c-0.3,0.1-0.6,0.1-0.9,0.2
			h-0.1c-0.3,0.1-0.6,0.1-0.9,0.2C62.3,90,60.1,90.1,57.9,90.1L57.9,90.1z M21.6,40.5C21.6,40.5,21.6,40.5,21.6,40.5
			c-1,3.2-1.5,6.4-1.6,9.6c0,0.6,0,1.3,0,1.9c0,0.6,0,1.2,0.1,1.8c0,0.8,0.1,1.5,0.2,2.2c0.1,1,0.3,2,0.5,2.9
			c0.5,2.4,1.2,4.8,2.1,7.1c0.3,0.8,0.6,1.5,1,2.2c2.3,4.7,5.4,8.8,9.4,12.2c0.9,0.8,1.8,1.5,2.8,2.2c6.5,4.6,14.1,7,22,7l0,0
			c2.1,0,4.3-0.2,6.4-0.6c0.3-0.1,0.6-0.1,0.8-0.2l0.1,0c0.3-0.1,0.6-0.1,0.8-0.2C76,86.5,84.5,80.6,89.9,72c0.6-1,1.2-2.1,1.8-3.1
			c2.4-4.6,3.8-9.6,4.1-14.8c0.1-0.8,0.1-1.6,0.1-2.4c0-2.5-0.2-4.9-0.7-7.3c-0.2-1-0.4-1.9-0.7-2.9c-0.2-0.7-0.4-1.4-0.7-2.2
			c-0.2-0.6-0.4-1.1-0.6-1.7c-0.2-0.6-0.5-1.2-0.7-1.7c-1.3-2.9-3.1-5.7-5.1-8.2c0,0,0,0,0-0.1c0,0-0.1,0-0.1-0.1
			c-0.3-0.4-0.7-0.8-1.1-1.3c-0.3-0.3-0.6-0.7-0.9-1C83,23,80.6,21,77.9,19.4c-0.6-0.4-1.3-0.8-1.9-1.1c-7.4-4-16.1-5.5-24.4-4.1
			c-0.3,0-0.6,0.1-0.9,0.2c-0.3,0.1-0.6,0.1-0.9,0.2c-8.4,1.9-15.7,6.3-21.1,13c-0.4,0.5-0.9,1.1-1.3,1.7c-1.9,2.5-3.4,5.3-4.6,8.3
			c-0.2,0.4-0.3,0.9-0.5,1.3C22,39.4,21.8,39.9,21.6,40.5C21.7,40.4,21.6,40.5,21.6,40.5L21.6,40.5z M63.3,87.8
			c-3.1,0-6.5-1.7-9.7-4.9c-0.1-0.1-0.1-0.2-0.1-0.3c0-0.1,0.1-0.2,0.2-0.2c3-0.3,6-0.7,9-1.3c0.1,0,0.3,0.1,0.3,0.2l1.2,6.1
			c0,0.1,0,0.2-0.1,0.2s-0.1,0.1-0.2,0.1C63.8,87.8,63.6,87.8,63.3,87.8L63.3,87.8z M54.4,82.9c3.1,2.9,6.3,4.4,9.3,4.3l-1.1-5.5
			C59.9,82.2,57.1,82.6,54.4,82.9z M56.8,87.7C56.8,87.7,56.8,87.7,56.8,87.7c-3.6-0.6-7.1-2.1-10.4-4.3c-0.1-0.1-0.1-0.2-0.1-0.3
			s0.1-0.2,0.3-0.2c1.6,0,3.2-0.1,4.8-0.3c0.1,0,0.2,0,0.2,0.1c1.7,1.9,3.5,3.4,5.3,4.4c0.1,0.1,0.2,0.2,0.1,0.3
			C57,87.6,56.9,87.7,56.8,87.7L56.8,87.7z M47.5,83.4c2.6,1.6,5.3,2.8,8,3.4c-1.4-1-2.8-2.2-4.1-3.7C50.1,83.3,48.8,83.4,47.5,83.4
			L47.5,83.4z M49.9,87.4C49.9,87.4,49.9,87.4,49.9,87.4c-3.7-0.8-7.2-2.2-10.4-4.1c-0.1-0.1-0.2-0.2-0.1-0.3c0-0.1,0.1-0.2,0.3-0.2
			c1.2,0.1,2.5,0.1,3.9,0.1c0.1,0,0.1,0,0.2,0.1c2,1.6,4.1,2.9,6.3,3.9c0.1,0.1,0.2,0.2,0.1,0.3C50.1,87.3,50,87.4,49.9,87.4
			L49.9,87.4z M40.8,83.4c2.2,1.2,4.4,2.1,6.8,2.8c-1.4-0.8-2.8-1.7-4.1-2.8C42.6,83.5,41.7,83.5,40.8,83.4L40.8,83.4z M65.8,87.4
			c0,0-0.1,0-0.1,0c-0.1,0-0.1-0.1-0.1-0.2l-1.2-6.1c0-0.2,0.1-0.3,0.2-0.3c3-0.6,6-1.3,8.8-2.2c0.1,0,0.2,0,0.3,0.1
			s0.1,0.2,0.1,0.3C71.8,83.5,69.1,86.4,65.8,87.4C65.9,87.4,65.9,87.4,65.8,87.4L65.8,87.4z M65,81.3l1.1,5.5c2.8-1,5.2-3.6,7-7.5
			C70.4,80.1,67.7,80.7,65,81.3z M72.5,84.6c-0.1,0-0.1,0-0.2-0.1c-0.1-0.1-0.1-0.3,0-0.4c1.3-1.7,2.4-3.7,3.2-6.1
			c0-0.1,0.1-0.1,0.2-0.2c1.5-0.5,3.1-1,4.6-1.6c0.1-0.1,0.3,0,0.3,0.1s0.1,0.3,0,0.3l-7.9,7.8C72.6,84.6,72.5,84.6,72.5,84.6
			L72.5,84.6z M76,78.4c-0.5,1.4-1.2,2.8-1.8,3.9l5.1-5.1C78.2,77.7,77.1,78,76,78.4z M78.8,81.8c-0.1,0-0.2,0-0.2-0.1
			c-0.1-0.1-0.1-0.3,0-0.4c1.6-1.8,3.1-3.8,4.3-6c0-0.1,0.1-0.1,0.1-0.1c1.2-0.5,2.4-1.1,3.6-1.6c0.1-0.1,0.3,0,0.3,0.1
			c0.1,0.1,0.1,0.2,0,0.3c-2.3,2.9-5,5.5-8,7.7C78.9,81.7,78.8,81.8,78.8,81.8L78.8,81.8z M83.3,75.7c-0.8,1.5-1.8,2.8-2.8,4.1
			c1.9-1.5,3.7-3.3,5.2-5.2C85,75,84.2,75.3,83.3,75.7z M44.2,81.7c-0.1,0-0.2,0-0.2-0.1c-3.6-2.9-6.6-6.7-9.1-11.1
			c0-0.1,0-0.2,0-0.3c0-0.1,0.2-0.1,0.3-0.1c2.7,0.2,5.6,0.3,8.5,0.2c0.1,0,0.2,0.1,0.3,0.2c1.7,3.8,3.6,7.1,5.8,9.9
			c0.2,0.2,0.3,0.4,0.5,0.6c0.1,0.1,0.1,0.2,0,0.3c0,0.1-0.1,0.2-0.2,0.2C48.1,81.6,46.1,81.7,44.2,81.7L44.2,81.7z M35.7,70.7
			c2.3,4.1,5.3,7.7,8.6,10.4c1.7,0,3.4-0.1,5.2-0.2c-0.1-0.1-0.1-0.2-0.2-0.2c-2.1-2.8-4.1-6.1-5.7-9.8C40.8,71,38.2,70.9,35.7,70.7
			L35.7,70.7z M41.4,81.6L41.4,81.6c-1.7-0.1-3.4-0.2-4.9-0.3c0,0-0.1,0-0.1-0.1C32,78,28.3,73.8,25.7,69.1c0-0.1,0-0.2,0-0.3
			c0.1-0.1,0.2-0.1,0.3-0.1c0.3,0.1,0.5,0.1,0.8,0.2c1.9,0.4,4,0.8,6.3,1c0.1,0,0.2,0.1,0.2,0.1c2.2,4.3,5,8,8.3,11.1
			c0.1,0.1,0.1,0.2,0.1,0.3C41.6,81.5,41.5,81.6,41.4,81.6L41.4,81.6z M36.6,80.8c1.3,0.1,2.7,0.2,4.1,0.3c-3.1-3-5.7-6.6-7.9-10.6
			c-2.2-0.3-4.3-0.6-6.2-1c-0.1,0-0.1,0-0.2-0.1C29,73.8,32.5,77.7,36.6,80.8L36.6,80.8z M52.2,81.3c-0.1,0-0.2,0-0.2-0.1
			c-0.4-0.5-0.9-1-1.3-1.6c-1.9-2.6-3.7-5.6-5.3-9c0-0.1,0-0.2,0-0.3c0-0.1,0.1-0.1,0.2-0.1c4.8-0.2,9.7-0.8,14.6-1.7
			c0.1,0,0.3,0.1,0.3,0.2l2.1,10.8c0,0.1,0,0.1,0,0.2s-0.1,0.1-0.2,0.1C59.1,80.5,55.7,81,52.2,81.3L52.2,81.3L52.2,81.3z
			 M46.1,70.8c1.5,3.2,3.2,6.1,5,8.5c0.4,0.5,0.8,1,1.2,1.4c3.2-0.3,6.5-0.7,9.8-1.3l-2-10.2C55.4,70,50.7,70.6,46.1,70.8L46.1,70.8
			z M64.3,79.5c-0.1,0-0.1,0-0.2-0.1c-0.1,0-0.1-0.1-0.1-0.2l-2.1-10.8c0-0.2,0.1-0.3,0.2-0.3c4.9-1,9.7-2.3,14.2-3.9
			c0.1,0,0.2,0,0.3,0c0.1,0.1,0.1,0.1,0.1,0.2c-0.2,3.7-0.7,7.2-1.5,10.3c-0.2,0.7-0.4,1.3-0.6,1.9c0,0.1-0.1,0.2-0.2,0.2
			C71.2,78,67.8,78.8,64.3,79.5C64.3,79.5,64.3,79.5,64.3,79.5L64.3,79.5z M62.5,68.7l2,10.2c3.3-0.7,6.5-1.5,9.6-2.5
			c0.2-0.6,0.4-1.2,0.5-1.8c0.8-2.9,1.3-6.2,1.5-9.8C71.8,66.5,67.2,67.7,62.5,68.7L62.5,68.7z M76.5,76.3c-0.1,0-0.1,0-0.2-0.1
			c-0.1-0.1-0.1-0.2-0.1-0.3c0.1-0.3,0.1-0.5,0.2-0.8c0.9-3.4,1.5-7.2,1.6-11.3c0-0.1,0.1-0.2,0.2-0.2c2.7-1.1,5.4-2.2,7.8-3.4
			c0.1,0,0.2,0,0.3,0c0.1,0.1,0.1,0.2,0.1,0.3c-0.6,5-2,9.6-4.2,13.7c0,0.1-0.1,0.1-0.1,0.1C80.2,75,78.4,75.6,76.5,76.3
			C76.5,76.3,76.5,76.3,76.5,76.3L76.5,76.3z M78.5,64.1c-0.1,4.1-0.7,7.9-1.6,11.3c0,0.1-0.1,0.2-0.1,0.3c1.7-0.6,3.3-1.2,4.8-1.8
			c2.1-3.8,3.4-8.3,4.1-12.9C83.5,62,81.1,63.1,78.5,64.1z M84.5,73.2c-0.1,0-0.1,0-0.2-0.1c-0.1-0.1-0.1-0.2-0.1-0.3
			c1.9-4.1,3.1-8.6,3.5-13.4c0-0.1,0.1-0.2,0.1-0.2c2-1.1,3.8-2.2,5.4-3.3c0.2-0.2,0.4-0.3,0.7-0.5c0.1-0.1,0.2-0.1,0.3,0
			c0.1,0.1,0.1,0.2,0.1,0.3C93.8,61,92,66.3,89.1,70.9c0,0-0.1,0.1-0.1,0.1c-1.4,0.7-2.9,1.5-4.4,2.2C84.5,73.2,84.5,73.2,84.5,73.2
			z M88.3,59.6c-0.4,4.6-1.5,8.9-3.3,12.8c1.3-0.6,2.5-1.2,3.7-1.8c2.7-4.4,4.4-9.3,5.1-14.4c-0.1,0-0.1,0.1-0.2,0.1
			C92,57.4,90.2,58.5,88.3,59.6z M41.8,69.1c-2.6,0-5.2-0.1-7.6-0.4c-0.1,0-0.2-0.1-0.2-0.2c-1.8-3.6-3.1-7.5-3.8-11.5
			c-0.2-1-0.4-2-0.5-3c0-0.1,0-0.2,0.1-0.2s0.1-0.1,0.2-0.1c2.7,0.3,5.7,0.5,8.7,0.5h0.2c0.1,0,0.2,0.1,0.3,0.2l0.1,0.3
			c0,0.2,0.1,0.3,0.1,0.5c0.9,4.7,2.3,9.2,4,13.4c0,0.1,0,0.2,0,0.3c0,0.1-0.1,0.1-0.2,0.1C42.6,69.1,42.2,69.1,41.8,69.1L41.8,69.1
			z M34.4,68.2c2.6,0.3,5.4,0.4,8.2,0.3c-1.7-4.1-3-8.5-3.8-13.2c0-0.2-0.1-0.4-0.1-0.5l0-0.1c-2.9,0-5.8-0.2-8.4-0.4
			c0.1,0.9,0.3,1.8,0.4,2.7C31.4,60.9,32.7,64.7,34.4,68.2L34.4,68.2z M44.9,69c-0.1,0-0.2-0.1-0.3-0.2c-1.8-4.3-3.2-8.9-4.2-13.8
			l-0.1-0.5c0-0.1,0-0.2,0.1-0.2c0-0.1,0.1-0.1,0.2-0.1c5.3-0.1,10.9-0.7,16.5-1.8c0.1,0,0.3,0.1,0.3,0.2L60.3,67c0,0.1,0,0.1,0,0.2
			s-0.1,0.1-0.2,0.1C54.9,68.3,49.8,68.9,44.9,69C44.9,69,44.9,69,44.9,69z M41,54.7l0,0.2c0.9,4.8,2.3,9.4,4,13.6
			c4.7-0.2,9.6-0.7,14.6-1.7L57,53C51.6,54,46.2,54.6,41,54.7L41,54.7z M32,68.5C32,68.5,32,68.5,32,68.5c-1.8-0.2-3.5-0.5-5-0.9
			c-0.8-0.2-1.5-0.4-2.3-0.6c-0.1,0-0.1-0.1-0.2-0.2c-1.2-2.6-2.1-5.4-2.6-8.2c-0.3-1.3-0.5-2.7-0.6-4.1c-0.1-0.7-0.1-1.4-0.1-2.1
			c0-0.1,0-0.2,0.1-0.2c0.1,0,0.1-0.1,0.2,0c0.7,0.2,1.3,0.3,2,0.5l0.1,0c1.3,0.3,2.7,0.5,4.3,0.8c0.1,0,0.2,0.1,0.2,0.2
			c0.1,1.2,0.3,2.4,0.6,3.6c0.7,3.8,1.9,7.4,3.5,10.8c0,0.1,0,0.2,0,0.3C32.2,68.4,32.1,68.5,32,68.5z M25,66.6
			c0.7,0.2,1.4,0.4,2.1,0.5c1.4,0.3,2.8,0.6,4.4,0.8c-1.5-3.3-2.6-6.8-3.3-10.4c-0.2-1.1-0.4-2.3-0.5-3.4c-1.5-0.2-2.9-0.5-4.1-0.7
			l-0.1,0c-0.5-0.1-1.1-0.3-1.7-0.4c0,0.6,0,1.1,0.1,1.7c0.1,1.4,0.3,2.7,0.5,4C23,61.3,23.9,64,25,66.6L25,66.6z M61.8,67
			c-0.1,0-0.1,0-0.2-0.1c-0.1,0-0.1-0.1-0.1-0.2l-2.8-14.4c0-0.2,0.1-0.3,0.2-0.3c5.6-1.1,11-2.7,15.9-4.6c0.1,0,0.2,0,0.2,0
			s0.1,0.1,0.1,0.2l0.1,0.5c1,4.9,1.4,9.7,1.4,14.4c0,0.1-0.1,0.2-0.2,0.3C72,64.5,67,65.9,61.8,67C61.8,67,61.8,67,61.8,67L61.8,67
			z M59.3,52.6L62,66.4c5-1,9.7-2.4,14.2-4c0-4.6-0.4-9.3-1.3-14.1l0-0.2C70,49.9,64.8,51.4,59.3,52.6L59.3,52.6z M78.3,62.2
			c-0.1,0-0.1,0-0.2-0.1C78.1,62.1,78,62,78,61.9c0-4.5-0.5-9.2-1.4-13.9c0-0.2-0.1-0.4-0.1-0.5l-0.1-0.3c0-0.1,0-0.3,0.2-0.3
			c2.9-1.2,5.6-2.4,8.1-3.8c0.1,0,0.2,0,0.2,0c0.1,0,0.1,0.1,0.2,0.2c0.3,1,0.5,2,0.7,3c0.8,4,1.1,8.1,0.8,12.1
			c0,0.1-0.1,0.2-0.1,0.2c-2.5,1.3-5.2,2.6-8,3.7C78.4,62.2,78.3,62.2,78.3,62.2L78.3,62.2z M77,47.2L77,47.2
			c0.1,0.3,0.1,0.4,0.1,0.6c0.9,4.6,1.4,9.2,1.4,13.6c2.6-1,5.1-2.2,7.5-3.4c0.3-3.9,0-7.9-0.8-11.8c-0.2-0.9-0.4-1.7-0.6-2.6
			C82.3,44.9,79.7,46.1,77,47.2L77,47.2z M88.2,57.5c0,0-0.1,0-0.1,0c-0.1-0.1-0.1-0.1-0.1-0.2c0.2-3.7-0.1-7.5-0.8-11.3
			c-0.2-1.2-0.5-2.3-0.8-3.5c0-0.1,0-0.2,0.1-0.3c1.3-0.8,2.6-1.6,3.7-2.3l0.1-0.1c0.6-0.4,1.1-0.8,1.7-1.2c0.1,0,0.2-0.1,0.2,0
			c0.1,0,0.2,0.1,0.2,0.2c0.2,0.6,0.5,1.3,0.7,2c0.4,1.3,0.8,2.7,1,4c0.6,2.8,0.8,5.7,0.7,8.6c0,0.1,0,0.2-0.1,0.2
			c-0.6,0.5-1.3,0.9-1.9,1.4c-1.3,0.9-2.7,1.8-4.3,2.7C88.3,57.5,88.2,57.5,88.2,57.5L88.2,57.5z M86.8,42.5
			c0.3,1.1,0.6,2.3,0.8,3.4c0.7,3.6,1,7.3,0.9,10.9c1.4-0.8,2.6-1.6,3.8-2.4c0.6-0.4,1.2-0.9,1.8-1.3c0.1-2.8-0.1-5.6-0.7-8.4
			c-0.3-1.3-0.6-2.6-1-4c-0.2-0.5-0.3-1.1-0.6-1.6c-0.5,0.3-0.9,0.7-1.4,1l-0.1,0.1C89.2,41,88.1,41.7,86.8,42.5L86.8,42.5z
			 M38.5,52.9L38.5,52.9c-3.1,0-6.1-0.2-8.9-0.5c-0.1,0-0.2-0.1-0.2-0.2c-0.3-3.6-0.2-7.1,0.3-10.5c0-0.1,0.2-0.2,0.3-0.2
			c2.4,0.2,5,0.3,7.6,0.2c0.1,0,0.1,0,0.2,0.1c0,0,0.1,0.1,0.1,0.2c0,3.5,0.3,7.1,0.9,10.7c0,0.1,0,0.2-0.1,0.2
			C38.7,52.9,38.6,52.9,38.5,52.9L38.5,52.9z M29.9,51.9c2.6,0.3,5.4,0.5,8.3,0.5c-0.5-3.5-0.8-6.9-0.9-10.2c-2.5,0-4.8,0-7.1-0.2
			C29.7,45.2,29.6,48.6,29.9,51.9z M40.3,52.9c-0.1,0-0.2-0.1-0.3-0.2c-0.6-3.7-0.9-7.3-0.9-10.8c0-0.2,0.1-0.3,0.3-0.3
			c1.3,0,2.5-0.1,3.8-0.2c3.8-0.3,7.7-0.8,11.5-1.5c0.1,0,0.3,0.1,0.3,0.2l2.1,10.8c0,0.1,0,0.1,0,0.2s-0.1,0.1-0.2,0.1
			C51.3,52.2,45.7,52.8,40.3,52.9C40.3,52.9,40.3,52.9,40.3,52.9z M39.7,42.1c0,3.3,0.3,6.8,0.9,10.3c5.2-0.1,10.5-0.7,16-1.7
			l-2-10.2c-3.8,0.7-7.6,1.2-11.3,1.5C42,42,40.9,42.1,39.7,42.1L39.7,42.1z M27.8,52.2C27.8,52.2,27.8,52.2,27.8,52.2
			c-0.7-0.1-1.4-0.2-2-0.3c-0.6-0.1-1.3-0.2-1.9-0.4c-0.2,0-0.4-0.1-0.6-0.1c-0.7-0.2-1.3-0.3-1.8-0.5c-0.1,0-0.2-0.1-0.2-0.3
			c0.1-3.3,0.6-6.6,1.6-9.8c0-0.1,0.2-0.2,0.3-0.2c1.6,0.3,3.2,0.5,4.9,0.7c0.1,0,0.1,0,0.2,0.1c0,0.1,0.1,0.1,0,0.2
			c-0.5,3.4-0.6,6.8-0.3,10.3c0,0.1,0,0.2-0.1,0.2C27.9,52.1,27.9,52.2,27.8,52.2L27.8,52.2z M21.8,50.4c0.5,0.1,1,0.3,1.5,0.4
			c0.3,0.1,0.5,0.1,0.6,0.2c0.6,0.1,1.2,0.3,1.8,0.4c0.5,0.1,1.1,0.2,1.6,0.3c-0.2-3.3-0.1-6.6,0.3-9.8c-1.5-0.2-3-0.4-4.5-0.6
			C22.5,44.1,21.9,47.2,21.8,50.4L21.8,50.4z M58.7,50.8c-0.1,0-0.1,0-0.2,0c-0.1,0-0.1-0.1-0.1-0.2l-2.1-10.8
			c0-0.2,0.1-0.3,0.2-0.3c3.8-0.8,7.6-1.8,11.3-2.9c1.2-0.4,2.4-0.8,3.6-1.2c0.1,0,0.3,0,0.3,0.2c1.3,3.3,2.4,6.8,3.2,10.4
			c0,0.1,0,0.3-0.2,0.3C69.7,48.1,64.3,49.6,58.7,50.8C58.7,50.8,58.7,50.8,58.7,50.8L58.7,50.8z M56.9,40l2,10.2
			c5.4-1.1,10.6-2.6,15.4-4.5c-0.8-3.4-1.8-6.7-3-9.8c-1.1,0.4-2.2,0.8-3.3,1.1C64.4,38.2,60.6,39.2,56.9,40z M76.3,45.5
			c0,0-0.1,0-0.1,0c-0.1,0-0.1-0.1-0.1-0.2c-0.8-3.6-1.9-7-3.2-10.3c0-0.1,0-0.1,0-0.2s0.1-0.1,0.2-0.1c2.4-0.9,4.8-2,7-3.1
			c0.1-0.1,0.3,0,0.3,0.1c1.8,3,3.2,6.2,4.2,9.6c0,0.1,0,0.3-0.1,0.3C82,43.1,79.3,44.3,76.3,45.5C76.4,45.5,76.4,45.5,76.3,45.5
			L76.3,45.5z M73.5,35.1c1.2,3.1,2.2,6.4,3,9.8c2.7-1.1,5.2-2.3,7.5-3.6c-1-3.2-2.3-6.3-4-9.1C78,33.3,75.8,34.2,73.5,35.1
			L73.5,35.1z M86,40.8C86,40.8,85.9,40.8,86,40.8c-0.2,0-0.2-0.1-0.3-0.2c-1.1-3.3-2.5-6.5-4.2-9.4c0-0.1-0.1-0.1,0-0.2
			c0-0.1,0.1-0.1,0.1-0.2c1.5-0.8,3-1.7,4.3-2.5c0.1-0.1,0.3,0,0.3,0.1c2.1,2.6,3.9,5.4,5.2,8.5c0.1,0.1,0,0.3-0.1,0.3
			c-0.5,0.4-0.9,0.7-1.5,1.1c-0.2,0.1-0.4,0.3-0.6,0.4c-0.5,0.4-1,0.7-1.6,1c-0.6,0.4-1.1,0.7-1.7,1.1C86,40.8,86,40.8,86,40.8
			L86,40.8z M82.1,31.2c1.6,2.8,3,5.8,4,9c0.5-0.3,1-0.6,1.4-0.9c0.5-0.3,1.1-0.7,1.6-1c0.2-0.1,0.4-0.3,0.5-0.4
			c0.4-0.3,0.9-0.6,1.3-1c-1.3-2.9-2.9-5.6-4.9-8C84.8,29.7,83.5,30.4,82.1,31.2L82.1,31.2z M36.1,40.4c-2,0-4-0.1-5.9-0.2
			c-0.1,0-0.2,0-0.2-0.1c0-0.1-0.1-0.1,0-0.2c0.7-3.8,2-7.4,3.7-10.6c0-0.1,0.1-0.1,0.2-0.1c1.6,0,3.3-0.1,5-0.2
			c0.1,0,0.2,0,0.2,0.1c0,0.1,0.1,0.2,0.1,0.2c-0.8,3.3-1.2,6.9-1.3,10.8c0,0.1-0.1,0.3-0.3,0.3C37.1,40.4,36.6,40.4,36.1,40.4
			L36.1,40.4z M30.6,39.6c2.2,0.2,4.4,0.2,6.8,0.2c0.1-3.7,0.5-7.2,1.2-10.3c-1.5,0.1-3,0.1-4.5,0.1C32.5,32.7,31.3,36,30.6,39.6z
			 M39.4,40.3c-0.1,0-0.1,0-0.2-0.1c0,0-0.1-0.1-0.1-0.2c0.1-4,0.6-7.7,1.4-11c0-0.1,0.1-0.2,0.2-0.2c3.8-0.3,7.6-0.8,11.4-1.5
			c0.1,0,0.3,0.1,0.3,0.2l2.1,10.8c0,0.1,0,0.1,0,0.2s-0.1,0.1-0.2,0.1C49.3,39.5,44.3,40.1,39.4,40.3L39.4,40.3L39.4,40.3z
			 M41,29.3c-0.8,3.2-1.2,6.7-1.3,10.4c4.7-0.2,9.5-0.7,14.4-1.6l-2-10.2C48.4,28.6,44.7,29.1,41,29.3z M28.4,40L28.4,40
			c-1.7-0.2-3.3-0.4-4.7-0.6c-0.1,0-0.1-0.1-0.2-0.1s0-0.2,0-0.2c0-0.1,0.1-0.2,0.1-0.3l0-0.1c0.4-1,0.8-2,1.3-2.9
			c1.1-2.3,2.5-4.5,4.1-6.6c0-0.1,0.1-0.1,0.2-0.1c0.8,0,1.7,0.1,2.6,0.1c0.1,0,0.2,0,0.2,0.1c0,0.1,0,0.2,0,0.3
			c-1.6,3.2-2.8,6.6-3.5,10.3C28.7,39.9,28.5,40,28.4,40L28.4,40z M24.1,38.9c1.3,0.2,2.6,0.4,4.1,0.5c0.7-3.5,1.8-6.8,3.3-9.8
			c-0.7,0-1.4,0-2.1-0.1c-1.5,2-2.9,4.1-4,6.4c-0.5,0.9-0.9,1.9-1.2,2.8L24.1,38.9L24.1,38.9L24.1,38.9z M56.2,38.3c0,0-0.1,0-0.2,0
			c-0.1,0-0.1-0.1-0.1-0.2l-2.1-10.8c0-0.2,0.1-0.3,0.2-0.3c3.8-0.8,7.6-1.8,11.2-2.9c0.1,0,0.2,0,0.3,0.1c2,2.8,3.9,6,5.5,9.7
			c0,0.1,0,0.2,0,0.2c0,0.1-0.1,0.1-0.2,0.2C66.2,35.8,61.3,37.2,56.2,38.3C56.2,38.3,56.2,38.3,56.2,38.3L56.2,38.3z M54.4,27.4
			l2,10.2c4.9-1,9.5-2.3,13.9-3.9c-1.5-3.4-3.3-6.5-5.2-9.2C61.7,25.7,58.1,26.7,54.4,27.4z M72.4,33.6c-0.1,0-0.2-0.1-0.3-0.2
			c-1.5-3.6-3.3-6.8-5.3-9.5c-0.1-0.1-0.1-0.2,0-0.2c0-0.1,0.1-0.1,0.2-0.2c1.6-0.5,3.1-1.1,4.7-1.7c0.1,0,0.2,0,0.3,0
			c2.8,2.3,5.3,5.2,7.4,8.4c0,0.1,0.1,0.1,0,0.2c0,0.1-0.1,0.1-0.1,0.2C77.1,31.6,74.9,32.6,72.4,33.6
			C72.5,33.5,72.4,33.6,72.4,33.6L72.4,33.6z M67.5,23.8c1.9,2.7,3.6,5.7,5,9.1c2.2-0.8,4.2-1.8,6.2-2.7c-2-3.1-4.4-5.7-7-8
			C70.4,22.8,68.9,23.4,67.5,23.8L67.5,23.8z M80.8,29.8c-0.1,0-0.2,0-0.2-0.1c-2-3.2-4.4-5.9-7.1-8.3c-0.1-0.1-0.1-0.1-0.1-0.2
			s0.1-0.2,0.2-0.2c0.8-0.4,1.6-0.7,2.4-1.1c0.1,0,0.2,0,0.3,0c2.2,1.3,4.3,2.8,6.3,4.6c0.8,0.7,1.5,1.4,2.3,2.2L85,27
			c0.1,0.1,0.1,0.1,0.1,0.2S85,27.4,85,27.4c-1.2,0.8-2.6,1.6-4.1,2.4C80.8,29.8,80.8,29.8,80.8,29.8L80.8,29.8z M74.1,21.3
			c2.5,2.3,4.8,4.9,6.7,7.9c1.3-0.7,2.5-1.4,3.6-2L84.3,27c-0.7-0.8-1.5-1.5-2.2-2.2c-1.9-1.7-3.9-3.2-6.1-4.4
			C75.4,20.7,74.8,21,74.1,21.3L74.1,21.3z M32.9,27.8L32.9,27.8c-0.7,0-1.5,0-2.2,0c-0.1,0-0.2-0.1-0.2-0.2c0-0.1,0-0.2,0-0.3
			c1.9-2.2,4.1-4.1,6.5-5.8c0.1-0.1,0.3-0.1,0.4,0s0.1,0.3,0,0.4c-1.6,1.7-3,3.6-4.2,5.7C33.1,27.8,33,27.8,32.9,27.8L32.9,27.8z
			 M31.3,27.3c0.5,0,1,0,1.4,0c0.8-1.3,1.7-2.6,2.6-3.8C33.9,24.6,32.5,25.9,31.3,27.3z M35,27.8c-0.1,0-0.2,0-0.2-0.1
			c0-0.1,0-0.2,0-0.3c2.3-3.7,5.2-6.6,8.5-8.7c0.1-0.1,0.3,0,0.3,0c0.1,0.1,0.1,0.2,0,0.3c-1.7,2.2-3,5-4,8.4c0,0.1-0.1,0.2-0.2,0.2
			C37.9,27.7,36.4,27.8,35,27.8L35,27.8L35,27.8z M42.3,19.9c-2.6,1.9-4.9,4.3-6.9,7.3c1.2,0,2.5-0.1,3.7-0.2
			C40,24.3,41.1,21.9,42.3,19.9L42.3,19.9z M41.3,27.5c-0.1,0-0.2,0-0.2-0.1c-0.1-0.1-0.1-0.2,0-0.3c1.9-6.1,5-10,8.9-11.3
			c0.1,0,0.2,0,0.2,0s0.1,0.1,0.1,0.2l1.9,9.6c0,0.1,0,0.1,0,0.2S52,26,52,26C48.4,26.7,44.8,27.2,41.3,27.5
			C41.3,27.5,41.3,27.5,41.3,27.5z M49.8,16.5c-3.5,1.2-6.3,4.8-8.1,10.4c3.2-0.3,6.5-0.7,9.9-1.4L49.8,16.5L49.8,16.5z M53.7,25.7
			c0,0-0.1,0-0.2,0c-0.1,0-0.1-0.1-0.1-0.2l-1.9-9.6c0-0.1,0-0.1,0-0.2s0.1-0.1,0.2-0.1c4.1-0.4,8.4,2.1,12.5,7.1
			c0.1,0.1,0.1,0.2,0.1,0.3S64.3,23,64.2,23C60.9,24.1,57.4,25,53.7,25.7C53.8,25.7,53.7,25.7,53.7,25.7L53.7,25.7z M52.2,16.1
			l1.8,9.1c3.3-0.7,6.6-1.5,9.7-2.5C59.8,18.2,55.9,15.9,52.2,16.1z M65.9,22.4c-0.1,0-0.2,0-0.2-0.1c-2.2-2.8-4.5-4.9-6.8-6.2
			c-0.1-0.1-0.2-0.2-0.1-0.3c0.1-0.1,0.2-0.2,0.3-0.2c3.9,0.7,7.6,2.3,11.2,4.9c0.1,0.1,0.1,0.1,0.1,0.3s-0.1,0.2-0.2,0.2
			C68.8,21.5,67.4,22,65.9,22.4C66,22.4,66,22.5,65.9,22.4L65.9,22.4z M60.4,16.4c1.9,1.4,3.8,3.2,5.6,5.4c1.2-0.4,2.3-0.8,3.5-1.3
			C66.6,18.6,63.5,17.2,60.4,16.4z M72,20.2c-0.1,0-0.1,0-0.2-0.1c-1.9-1.5-4-2.7-6.1-3.7c-0.1-0.1-0.2-0.2-0.1-0.3
			c0-0.1,0.2-0.2,0.3-0.2c2.8,0.6,5.6,1.6,8.2,2.9c0.1,0,0.2,0.1,0.2,0.3c0,0.1-0.1,0.2-0.2,0.2C73.5,19.6,72.8,19.9,72,20.2
			C72.1,20.2,72.1,20.2,72,20.2z M68.3,17.1c1.3,0.7,2.6,1.6,3.8,2.5c0.4-0.2,0.9-0.4,1.3-0.6C71.7,18.2,70,17.6,68.3,17.1
			L68.3,17.1z"/>
	</g>
	<path class="st0" d="M58,90.9c-0.9,0-1.8,0-2.7-0.1c-10.5-0.7-20-5.4-27-13.3S18,59.5,18.7,49c1.4-20.6,18.6-36.7,39.2-36.7
		c0.9,0,1.8,0,2.6,0.1c10.5,0.7,20,5.4,27,13.3s10.3,18,9.6,28.5C95.8,74.8,78.6,90.9,58,90.9L58,90.9z M57.9,14.5
		c-19.5,0-35.7,15.2-37,34.7c-0.7,9.9,2.6,19.5,9.1,26.9S45.6,88,55.5,88.7c0.8,0.1,1.7,0.1,2.5,0.1c19.5,0,35.7-15.2,37-34.7
		c0.7-9.9-2.6-19.5-9.1-26.9S70.3,15.2,60.4,14.6C59.6,14.5,58.7,14.5,57.9,14.5z"/>
	<path class="st1" d="M108.8,67c-0.2,0.1-0.3,0.1-0.5,0.2l-2.4,1.2c-5.1,2.5-9.9,5.5-14.4,8.9c-4.6,3.5-8.9,7.4-13.9,10.3
		c-2.9,2-6.3,3.3-9.7,4.3c-2.1,0.6-4.3,1.1-6.6,1.3l-0.8,0.1l-0.8,0.1c-0.3,0-0.5,0.1-0.8,0.1l-0.9,0l-0.5,0h-1.2
		c-0.6,0-1.1,0-1.7,0c-0.6,0-1.1,0-1.7-0.1l-1.7-0.2l-1.7-0.3c-0.6-0.1-1.1-0.2-1.7-0.3c-2.2-0.5-4.4-1.1-6.5-2
		c-4.2-1.7-8.1-4.1-11.6-7.1c-3.4-3-6.4-6.5-8.8-10.5c-2.3-4-4-8.3-4.9-12.9L16,59.3l-0.1-0.9c-0.1-0.6-0.2-1.2-0.2-1.7l-0.2-1.7
		l-0.1-1.9l0-0.4v-1.3c0-0.3,0-0.6,0-0.9l0-0.9c0-1.2,0.2-2.3,0.3-3.5c0.6-4.6,2-9.2,4.2-13.3c2.1-4.2,4.9-8.1,8.3-11.3
		c3.4-3.3,7.3-6.1,11.7-8.1c2.2-1,4.4-1.9,6.7-2.5c2.3-0.6,4.7-1.1,7-1.3c0.6,0,1.2-0.1,1.8-0.2l1.9-0.1c0.5,0,1.2,0,1.8,0
		c0.6,0,1.2,0,1.8,0.1c2.4,0.1,4.8,0.5,7.1,1c1.3,0.3,2.6,0.7,3.9,1.1c9.9,3.5,18.3,10.4,23.6,19.8c3.7,6.5,5.6,14,5.6,21.5h2.2
		c0-7.9-2-15.7-5.9-22.6C92.1,21,83.8,13.9,74.1,10.1c-1.8-0.7-3.7-1.4-5.5-1.9c-2.5-0.7-5-1.1-7.5-1.4c-0.6-0.1-1.3-0.1-1.9-0.1
		c-0.7,0-1.3-0.1-1.9-0.1h-1.9c-0.6,0-1.3,0.1-1.9,0.1c-2.6,0.2-5.1,0.5-7.6,1.1c-2.5,0.6-5,1.4-7.3,2.4c-4.8,2-9.2,4.8-13,8.3
		c-3.9,3.4-7.1,7.6-9.7,12.1c-2.5,4.6-4.3,9.6-5.2,14.7c-0.2,1.3-0.4,2.6-0.5,3.9l-0.1,1c0,0.3,0,0.7-0.1,1l0,1l0,0.5v2.4l0.1,2
		c0,0.7,0.1,1.3,0.2,2l0.1,1l0.2,1c0.8,5.2,2.5,10.3,5,15s5.8,9,9.7,12.6c3.9,3.7,8.4,6.7,13.3,8.9c2.5,1.1,5,2,7.6,2.7
		c0.7,0.2,1.3,0.3,2,0.5l2,0.4l2,0.3c0.7,0.1,1.3,0.1,2,0.2c0.7,0.1,1.3,0.1,2,0.1l1,0h0.3c0.1,0,0,0,0.1,0H59c0.3,0,0.7,0,1,0
		l1.1,0l1-0.1c2.7-0.2,5.4-0.6,8-1.3c9.5-2.3,17.1-8.5,25.5-13.1c8.4-4.7,17.3-8.6,26.4-11.7c11.6-3.9,32.8-6.3,45.5-6.3V54
		C167.6,54,133.1,54.5,108.8,67L108.8,67z"/>
</g>
<g>
	<path class="st2" d="M20.5,116.1c0,0.4,0,0.8,0,1s0,0.4,0,0.6v0.1c0,0.1,0,0.2,0,0.2v0.3c0,0.4,0,0.9,0.1,1.5c0,0.6,0.1,1.3,0.2,2
		c0.1,1,0.3,1.9,0.5,2.8c0.2,0.8,0.6,1.3,1,1.3c0.2,0,0.4-0.1,0.5-0.2c0.2-0.1,0.3-0.3,0.5-0.4c0,0,0-0.1,0.1-0.1s0-0.1,0.1-0.1
		c0.1-0.2,0.6-0.7,1.2-1.6s1.4-2.1,2.2-3.6c0.3-0.6,0.6-1.1,0.8-1.8s0.5-1.3,0.8-2h2.3c-0.1,0.3-0.2,0.7-0.2,0.9
		c-0.1,0.3-0.1,0.5-0.2,0.8c0,0.1,0,0.2,0,0.3c0,0.1,0,0.2,0,0.3c0,0.2-0.1,0.4-0.1,0.6c0,0.2-0.1,0.4-0.1,0.6c0,0.1,0,0.2,0,0.2
		s0,0.2,0,0.2c0,0,0,0,0,0.1c0,0,0,0.1,0,0.1c-0.1,0.6-0.3,1.2-0.4,1.9c-0.2,0.7-0.5,1.9-0.9,3.6c-0.1,0.3-0.1,0.5-0.2,0.7
		s-0.1,0.4-0.2,0.6c0,0.2-0.1,0.5-0.2,0.7c-0.1,0.3-0.1,0.5-0.2,0.9c0.2-0.1,0.4-0.1,0.5-0.2s0.3-0.1,0.5-0.1c0.1,0,0.2-0.1,0.3-0.1
		c0.1-0.1,0.2-0.1,0.3-0.1c0.2-0.1,0.4-0.2,0.6-0.3c0.2-0.1,0.5-0.3,0.7-0.5l-0.5,2c0,0-0.1,0.1-0.2,0.1c0,0-0.1,0.1-0.1,0.1
		c-0.4,0.2-0.8,0.4-1.3,0.6c-0.4,0.1-0.9,0.3-1.5,0.4c-0.5,1.7-1.2,3.1-2,4.1c-0.8,1-1.7,1.8-2.6,2.4c-0.8,0.5-1.5,0.8-2.2,1
		s-1.4,0.3-1.9,0.3c-1,0-1.8-0.2-2.4-0.6c-0.6-0.4-1-0.9-1.1-1.4c0-0.2-0.1-0.3-0.1-0.4s0-0.3,0-0.4c0-1.1,0.3-2.1,1-2.7
		c0.7-0.7,1.4-1.2,2.2-1.6c0.5-0.2,1-0.4,1.5-0.5c0.5-0.1,0.9-0.2,1.2-0.3c0.4-0.1,0.8-0.2,1.2-0.3c0.4-0.1,0.7-0.1,1.1-0.2
		c0.1,0,0.3,0,0.4-0.1c0.1,0,0.3-0.1,0.4-0.1c0.3-0.1,0.5-0.1,0.8-0.1s0.6-0.1,0.9-0.1l2-6.9h-0.2c-0.2,0.3-0.4,0.7-0.6,1.1
		c-0.3,0.4-0.5,0.9-0.9,1.3c-0.3,0.5-0.7,0.9-1,1.4s-0.8,0.8-1.1,1.2c-0.3,0.3-0.6,0.5-0.9,0.6s-0.6,0.2-0.9,0.2
		c-0.8,0-1.4-0.4-1.8-1.1c-0.4-0.7-0.8-1.5-1-2.4c-0.1-0.4-0.2-0.7-0.2-1.1s-0.1-0.7-0.2-1c0-0.3-0.1-0.5-0.1-0.7s-0.1-0.5-0.1-0.7
		c-0.1-0.6-0.1-1.1-0.2-1.7c0-0.6-0.1-1.2-0.1-1.8c0-0.3,0-0.5,0-0.8c0-0.3,0-0.6,0-0.8L20.5,116.1L20.5,116.1z M23.4,131.5
		c-0.6,0.1-1.1,0.3-1.7,0.4c-1.1,0.3-2.1,0.7-3,1.3c-0.9,0.5-1.4,1.3-1.4,2.1c0,0.3,0.2,0.6,0.5,0.9s0.7,0.4,1.2,0.4
		c0.3,0,0.6-0.1,1-0.2s0.7-0.3,1.1-0.5c0.8-0.5,1.5-1.1,2.3-1.9c0.7-0.8,1.3-1.8,1.6-2.8C24.4,131.3,23.9,131.4,23.4,131.5
		L23.4,131.5z"/>
	<path class="st2" d="M36.3,134.5c-0.1,0-0.2,0-0.3,0c-0.1,0-0.2,0-0.3,0c-0.9-0.2-1.7-0.6-2.4-1.3s-1.1-1.7-1.1-3
		c0-1.6,0.7-3.1,2-4.4c1.3-1.3,2.9-1.9,4.7-1.9c1.1,0,2,0.4,2.6,1.3c0.6,0.8,0.9,1.8,0.9,3c0,1.6-0.4,2.9-1.3,3.9s-1.8,1.7-2.9,2.1
		c-0.3,0.1-0.7,0.2-1,0.3C36.9,134.4,36.6,134.4,36.3,134.5L36.3,134.5L36.3,134.5z M38.9,131.3c0.6-0.8,1-1.8,1.2-2.8
		c0-0.1,0-0.3,0-0.4c0-0.1,0-0.2,0-0.4c0-0.6-0.1-1.1-0.4-1.4s-0.6-0.5-0.9-0.6c-0.2-0.1-0.3-0.1-0.4-0.1c-0.1,0-0.3,0-0.4,0
		c-0.7,0-1.4,0.3-1.9,0.9c-0.5,0.6-0.9,1.3-1.1,2c-0.1,0.4-0.2,0.8-0.3,1.1s-0.1,0.7-0.1,0.9c0,0.6,0.2,1.1,0.5,1.4
		c0.3,0.4,0.8,0.6,1.4,0.6C37.5,132.6,38.2,132.1,38.9,131.3L38.9,131.3z"/>
	<path class="st2" d="M52.3,130.8c-0.1,0.4-0.2,0.7-0.2,0.8c0,0.2,0,0.3,0,0.5c0,0.2,0,0.3,0.1,0.4c0,0.1,0.1,0.1,0.2,0.1h0.2
		c0.1,0,0.3-0.1,0.5-0.2c0.2-0.1,0.7-0.4,1.3-0.8l0,1.2c0,0.3-0.2,0.6-0.6,0.9c-0.4,0.3-0.8,0.5-1.3,0.6c-0.2,0.1-0.4,0.1-0.6,0.1
		c-0.2,0-0.4,0.1-0.5,0.1c-0.5,0-0.8-0.1-1.1-0.3c-0.2-0.2-0.4-0.4-0.4-0.7c0-0.1,0-0.1,0-0.1c0,0,0-0.1,0-0.1c0-0.2,0-0.5,0.1-0.9
		s0.1-0.7,0.2-1.1c0-0.2,0.1-0.4,0.1-0.6s0.1-0.4,0.2-0.6c0-0.1,0.1-0.3,0.1-0.4s0.1-0.2,0.1-0.3l0.3-1h-0.1
		c-0.1,0.2-0.2,0.4-0.3,0.7c-0.1,0.2-0.2,0.5-0.3,0.7c-0.4,0.8-0.9,1.5-1.4,2.3s-1.1,1.3-1.7,1.8c-0.3,0.2-0.6,0.4-0.9,0.5
		s-0.6,0.2-0.8,0.2c-0.5,0-0.8-0.2-1.2-0.6c-0.3-0.4-0.5-1-0.5-1.8c0-0.3,0-0.5,0.1-0.8c0.1-0.3,0.2-0.7,0.3-1.2l1.5-5.8h2l-1.6,6.2
		c0,0,0,0.1,0,0.1c0,0,0,0.1,0,0.1v0c0,0,0,0.1,0,0.1c0,0.1,0,0.1-0.1,0.3c0,0.1,0,0.2-0.1,0.4c0,0.1,0,0.3,0,0.5
		c0,0.1,0,0.3,0.1,0.4c0,0.1,0.2,0.1,0.3,0.1c0.2,0,0.3-0.1,0.5-0.1c0.2-0.1,0.4-0.2,0.6-0.4c0.2-0.1,0.3-0.3,0.5-0.4
		c0.2-0.2,0.3-0.3,0.4-0.5c0.2-0.2,0.4-0.4,0.5-0.6c0.2-0.2,0.3-0.4,0.4-0.5c0.5-0.7,1.1-1.6,1.6-2.5c0.5-0.9,0.9-2,1.2-3.2h2
		L52.3,130.8L52.3,130.8z"/>
	<path class="st2" d="M64.1,126.7c-0.2,0.1-0.4,0.2-0.6,0.3c-0.2,0.1-0.3,0.2-0.5,0.3c-0.1,0-0.1,0.1-0.2,0.1
		c-0.1,0-0.1,0.1-0.2,0.1c-0.1,0.1-0.3,0.2-0.4,0.2c-0.1,0.1-0.3,0.2-0.4,0.3c-0.1,0.1-0.1,0.1-0.2,0.1s-0.1,0.1-0.2,0.1
		c-0.1,0.1-0.2,0.1-0.2,0.1c-0.1,0.1-0.2,0.1-0.3,0.2c-0.1,0.1-0.3,0.2-0.6,0.4c-0.3,0.2-0.6,0.4-0.9,0.6c-0.2,0.2-0.4,0.3-0.7,0.5
		s-0.4,0.4-0.6,0.6c-0.1,0.2-0.2,0.3-0.3,0.5c-0.1,0.2-0.1,0.3-0.1,0.5c0,0.1,0,0.1,0,0.1c0,0,0,0.1,0,0.1c0.1,0.2,0.2,0.4,0.4,0.5
		c0.2,0.1,0.5,0.2,0.9,0.2c0.2,0,0.3,0,0.5-0.1c0.2,0,0.4-0.1,0.5-0.1c0.3-0.1,0.5-0.1,0.8-0.2c0.2-0.1,0.5-0.2,0.7-0.3
		c0.3-0.1,0.5-0.3,0.7-0.4c0.2-0.1,0.3-0.2,0.4-0.3c0.1,0,0.1-0.1,0.2-0.1s0.1,0,0.1,0c0.1,0,0.1,0,0.2,0.1s0.1,0.1,0.1,0.3
		c0,0,0,0.1,0,0.1s0,0.1,0,0.1c0,0,0,0,0,0.1c0,0,0,0,0,0.1c0,0,0,0,0,0.1c0,0,0,0,0,0.1l-0.2,0.9c-1,0.8-2,1.3-2.8,1.4
		c-0.8,0.2-1.5,0.2-2,0.2c-0.8,0-1.4-0.2-1.8-0.5s-0.7-0.7-0.9-1.1c-0.1-0.2-0.1-0.3-0.2-0.5c0-0.2,0-0.3,0-0.5
		c0-0.8,0.3-1.5,0.9-2.2s1.3-1.3,2-1.8c0.6-0.4,1.1-0.7,1.6-1s0.9-0.5,1.1-0.6L62,126v-0.2c-0.2,0.1-0.4,0.1-0.6,0.2
		c-0.2,0.1-0.4,0.1-0.6,0.2c-0.4,0.1-0.8,0.2-1.2,0.2s-0.7,0.1-0.8,0.1s-0.4,0-0.6-0.1c-0.2,0-0.3-0.1-0.5-0.1l-0.7,1.1h-0.9
		c-0.2,0-0.3,0-0.4-0.1c-0.1,0-0.2-0.1-0.2-0.3c0,0,0-0.1,0-0.1c0,0,0-0.1,0-0.1c0-0.1,0-0.1,0.1-0.2c0-0.1,0.1-0.1,0.1-0.2
		c0,0,0,0,0,0l0,0c0,0,0-0.1,0-0.1l0-0.1c0,0,0,0,0-0.1c0,0,0-0.1,0.1-0.1c0-0.1,0-0.1,0.1-0.1s0-0.1,0-0.1l0,0l0-0.1
		c0,0,0-0.1,0-0.1c0-0.1-0.1-0.1-0.1-0.1c0-0.1-0.1-0.1-0.1-0.2c0-0.1-0.1-0.1-0.1-0.2c0-0.1,0-0.1,0-0.1s0-0.1,0-0.1
		c0-0.1,0-0.1,0-0.1v-0.1c0,0,0-0.1,0-0.1c0-0.2,0.1-0.4,0.2-0.6c0.1-0.2,0.2-0.4,0.4-0.6c0.2-0.2,0.4-0.5,0.7-0.7
		c0.3-0.2,0.6-0.4,0.9-0.6h1.6l-0.9,2.4c0.1,0,0.2,0.1,0.3,0.1s0.2,0.1,0.3,0.1c0.2,0,0.3,0,0.5,0.1s0.3,0,0.5,0
		c0.2,0,0.5,0,0.9-0.1s0.9-0.1,1.3-0.1c0.1,0,0.2,0,0.2,0c0.1,0,0.2,0,0.2,0c0.3,0,0.6-0.1,0.8-0.1c0.3,0,0.5-0.1,0.7-0.1
		L64.1,126.7L64.1,126.7z"/>
	<path class="st2" d="M83.3,127.7c-0.1,0.4-0.2,0.9-0.3,1.4c-0.1,0.6-0.3,1.1-0.6,1.7c-0.4,1-1,1.9-1.8,2.8
		c-0.8,0.8-1.9,1.3-3.3,1.4c0,0-0.1,0-0.1,0c0,0-0.1,0-0.1,0h-0.4c0,0-0.1,0-0.1,0h-0.1c-0.3,0-0.5,0-0.7-0.1
		c-0.2,0-0.3-0.1-0.3-0.1c0,0,0,0,0,0s0,0,0,0c0,0,0-0.1-0.1-0.1c0,0,0-0.1,0-0.1v-1.1c0,0,0.1,0,0.1,0c0,0,0.1,0,0.1,0
		c0.1,0,0.3,0,0.4,0.1s0.3,0,0.5,0c0.1,0,0.1,0,0.2,0h0.2c1.5,0,2.6-0.7,3.3-2.1c0.7-1.4,1.3-3.1,1.7-5.1l1.5-7.2
		c-0.5,0.1-1,0.2-1.6,0.3c-0.6,0.1-1.1,0.3-1.7,0.4c-1.3,0.4-2.5,0.9-3.6,1.6c-1.1,0.7-1.6,1.7-1.6,2.9c0,0.1,0,0.3,0,0.5
		s0.1,0.4,0.1,0.5c0.1,0.4,0.4,0.8,0.8,1.2c0.4,0.4,1,0.5,1.8,0.5c0.2,0,0.4,0,0.6,0c0.2,0,0.4-0.1,0.6-0.1l-0.3,1.1
		c-0.1,0-0.2,0.1-0.3,0.1s-0.2,0-0.3,0.1c-0.2,0.1-0.5,0.1-0.7,0.1c-0.3,0-0.5,0-0.8,0c-1,0-1.8-0.2-2.4-0.7c-0.6-0.4-1-0.9-1.2-1.5
		c-0.1-0.2-0.2-0.5-0.2-0.7c0-0.2-0.1-0.4-0.1-0.6c0-0.3,0-0.6,0.1-1s0.2-0.7,0.3-1c0.2-0.6,0.6-1.1,1.1-1.6s1.2-1,2.2-1.5
		c0.2-0.1,0.3-0.2,0.5-0.2c0.2-0.1,0.4-0.2,0.6-0.2c0.8-0.3,1.9-0.6,3.2-0.9c1.3-0.3,3-0.6,5.1-0.9L83.3,127.7L83.3,127.7z"/>
	<path class="st2" d="M85.9,134l2-9.8h2l-1.1,5.2h0.1c0.3-0.9,0.8-1.7,1.3-2.5c0.6-0.8,1.2-1.5,1.8-2c0.4-0.4,0.8-0.6,1.2-0.8
		c0.4-0.2,0.7-0.3,1.1-0.3c0.4,0,0.8,0.2,1.1,0.5s0.5,0.8,0.5,1.5c0,0.2,0,0.3,0,0.5c0,0.1,0,0.3-0.1,0.5c0,0,0,0,0,0.1
		c0,0,0,0,0,0.1c-0.1,0.3-0.1,0.6-0.2,1c-0.1,0.4-0.2,0.8-0.4,1.4c-0.2,0.9-0.4,1.4-0.5,1.7s-0.1,0.5-0.2,0.7v0c0,0,0,0,0,0.1
		c0,0,0,0.1,0,0.1v0.3c0,0,0,0.1,0,0.1c0,0.2,0.1,0.3,0.2,0.4s0.2,0.1,0.3,0.1c0.1,0,0.2,0,0.4-0.1c0.2-0.1,0.7-0.3,1.3-0.6v0.9
		c0,0.1,0,0.2,0,0.3c0,0.1-0.1,0.2-0.1,0.3c-0.1,0.1-0.2,0.2-0.4,0.3c-0.2,0.1-0.4,0.2-0.8,0.4c-0.3,0.1-0.6,0.2-0.8,0.3
		c-0.3,0.1-0.5,0.1-0.8,0.1c-0.1,0-0.2,0-0.3-0.1s-0.3-0.1-0.4-0.1c-0.2-0.1-0.4-0.3-0.6-0.6c-0.2-0.3-0.3-0.7-0.3-1.2
		c0-0.1,0-0.1,0-0.2c0-0.1,0-0.1,0-0.2c0-0.1,0-0.1,0-0.2s0-0.1,0-0.2c0.1-0.3,0.1-0.5,0.2-0.8s0.1-0.5,0.2-0.8
		c0-0.1,0.1-0.2,0.1-0.2s0-0.2,0.1-0.2c0.3-1,0.5-1.7,0.6-2.1c0.1-0.4,0.1-0.7,0.1-0.8v-0.1c0,0,0-0.1,0-0.1c0-0.1-0.1-0.2-0.1-0.3
		c-0.1-0.1-0.2-0.1-0.3-0.1c-0.2,0-0.3,0.1-0.5,0.2c-0.2,0.1-0.4,0.3-0.6,0.5c-0.1,0.1-0.3,0.2-0.4,0.4c-0.1,0.1-0.3,0.3-0.4,0.4
		c-0.2,0.2-0.3,0.3-0.4,0.5c-0.1,0.2-0.2,0.3-0.3,0.4c-0.2,0.2-0.3,0.4-0.5,0.7c-0.2,0.3-0.3,0.5-0.5,0.8c-0.3,0.6-0.6,1.2-0.9,1.8
		s-0.5,1.3-0.7,2c0,0,0,0,0,0.1c0,0,0,0.1,0,0.1H85.9L85.9,134z"/>
	<path class="st2" d="M97.8,134l2-9.8h2l-1.1,5.2h0.1c0.3-0.9,0.8-1.7,1.3-2.5c0.6-0.8,1.2-1.5,1.8-2c0.4-0.4,0.8-0.6,1.2-0.8
		c0.4-0.2,0.7-0.3,1.1-0.3c0.4,0,0.8,0.2,1.1,0.5s0.5,0.8,0.5,1.5c0,0.2,0,0.3,0,0.5c0,0.1,0,0.3-0.1,0.5c0,0,0,0,0,0.1
		c0,0,0,0,0,0.1c-0.1,0.3-0.1,0.6-0.2,1c-0.1,0.4-0.2,0.8-0.4,1.4c-0.2,0.9-0.4,1.4-0.5,1.7s-0.1,0.5-0.2,0.7v0c0,0,0,0,0,0.1
		c0,0,0,0.1,0,0.1v0.3c0,0,0,0.1,0,0.1c0,0.2,0.1,0.3,0.2,0.4s0.2,0.1,0.3,0.1c0.1,0,0.2,0,0.4-0.1c0.2-0.1,0.7-0.3,1.3-0.6v0.9
		c0,0.1,0,0.2,0,0.3c0,0.1-0.1,0.2-0.1,0.3c-0.1,0.1-0.2,0.2-0.4,0.3c-0.2,0.1-0.4,0.2-0.8,0.4c-0.3,0.1-0.6,0.2-0.8,0.3
		c-0.3,0.1-0.5,0.1-0.8,0.1c-0.1,0-0.2,0-0.3-0.1s-0.3-0.1-0.4-0.1c-0.2-0.1-0.4-0.3-0.6-0.6c-0.2-0.3-0.3-0.7-0.3-1.2
		c0-0.1,0-0.1,0-0.2c0-0.1,0-0.1,0-0.2c0-0.1,0-0.1,0-0.2s0-0.1,0-0.2c0.1-0.3,0.1-0.5,0.2-0.8s0.1-0.5,0.2-0.8
		c0-0.1,0.1-0.2,0.1-0.2s0-0.2,0.1-0.2c0.3-1,0.5-1.7,0.6-2.1c0.1-0.4,0.1-0.7,0.1-0.8v-0.1c0,0,0-0.1,0-0.1c0-0.1-0.1-0.2-0.1-0.3
		c-0.1-0.1-0.2-0.1-0.3-0.1c-0.2,0-0.3,0.1-0.5,0.2c-0.2,0.1-0.4,0.3-0.6,0.5c-0.1,0.1-0.3,0.2-0.4,0.4c-0.1,0.1-0.3,0.3-0.4,0.4
		c-0.2,0.2-0.3,0.3-0.4,0.5c-0.1,0.2-0.2,0.3-0.3,0.4c-0.2,0.2-0.3,0.4-0.5,0.7c-0.2,0.3-0.3,0.5-0.5,0.8c-0.3,0.6-0.6,1.2-0.9,1.8
		s-0.5,1.3-0.7,2c0,0,0,0,0,0.1c0,0,0,0.1,0,0.1H97.8L97.8,134z"/>
	<path class="st2" d="M114,134.5c-0.1,0-0.2,0-0.3,0s-0.2,0-0.3,0c-0.9-0.2-1.7-0.6-2.4-1.3c-0.7-0.7-1.1-1.7-1.1-3
		c0-1.6,0.7-3.1,2-4.4c1.3-1.3,2.9-1.9,4.7-1.9c1.1,0,2,0.4,2.6,1.3c0.6,0.8,0.9,1.8,0.9,3c0,1.6-0.4,2.9-1.3,3.9s-1.8,1.7-2.9,2.1
		c-0.3,0.1-0.7,0.2-1,0.3C114.6,134.4,114.3,134.4,114,134.5L114,134.5L114,134.5z M116.6,131.3c0.6-0.8,1-1.8,1.2-2.8
		c0-0.1,0-0.3,0-0.4c0-0.1,0-0.2,0-0.4c0-0.6-0.1-1.1-0.4-1.4s-0.6-0.5-0.9-0.6c-0.2-0.1-0.3-0.1-0.4-0.1c-0.1,0-0.3,0-0.4,0
		c-0.7,0-1.4,0.3-1.9,0.9c-0.5,0.6-0.9,1.3-1.1,2c-0.1,0.4-0.2,0.8-0.3,1.1c-0.1,0.4-0.1,0.7-0.1,0.9c0,0.6,0.2,1.1,0.5,1.4
		c0.3,0.4,0.8,0.6,1.4,0.6C115.2,132.6,116,132.1,116.6,131.3L116.6,131.3z"/>
	<path class="st2" d="M124.4,131.4l2.4-3.5c-0.1-0.1-0.1-0.2-0.2-0.3s-0.1-0.2-0.1-0.3c0,0,0-0.1,0-0.1c0,0,0-0.1,0-0.1v-0.3
		c0-0.1,0-0.2,0-0.3s0-0.2,0.1-0.3c0.1-0.3,0.3-0.5,0.5-0.8c0.3-0.3,0.7-0.6,1.2-1c0.1,0,0.1-0.1,0.1-0.1c0.1,0,0.1-0.1,0.1-0.1l0,0
		c0.1-0.1,0.2-0.1,0.2-0.2c0.1-0.1,0.2-0.1,0.3-0.2l1.6,0.7l-2.1,3.2c0,0,0,0.1,0.1,0.1c0.1,0.1,0.1,0.1,0.2,0.1
		c0.1,0.1,0.3,0.1,0.5,0.2c0.2,0.1,0.4,0.1,0.7,0.1h0.3c0.1,0,0.2,0,0.3,0l-0.2,1.2c-0.1,0.1-0.3,0.1-0.4,0.2s-0.3,0.1-0.5,0
		c-0.1,0-0.1,0-0.2,0c-0.1,0-0.1,0-0.2,0c-0.2,0-0.5-0.1-0.7-0.2c-0.2-0.1-0.4-0.2-0.6-0.4l-3.4,5.2h-2l-1.3-9.8h2L124.4,131.4
		L124.4,131.4z"/>
	<path class="st2" d="M141.2,130.8c0,0.1-0.1,0.2-0.1,0.3c0,0.1,0,0.2,0,0.3c0,0.1,0,0.2,0,0.2v0.3c0,0.1,0,0.2,0.1,0.3
		s0.1,0.1,0.3,0.1c0.1,0,0.3,0,0.4-0.1c0.2-0.1,0.4-0.1,0.6-0.3c0.1,0,0.1-0.1,0.2-0.1c0.1,0,0.1-0.1,0.2-0.1
		c0.1-0.1,0.3-0.2,0.4-0.3c0.1-0.1,0.2-0.1,0.3-0.2l-0.4,1.7c-0.2,0.2-0.3,0.4-0.5,0.5c-0.2,0.2-0.4,0.3-0.6,0.4
		c-0.3,0.2-0.6,0.3-0.9,0.3c-0.3,0.1-0.5,0.1-0.7,0.1c-0.4,0-0.7-0.1-1-0.3s-0.4-0.5-0.5-0.7c0-0.1-0.1-0.2-0.1-0.3s0-0.2,0-0.3
		c0-0.1,0-0.3,0-0.4c0-0.2,0.1-0.3,0.1-0.5c0-0.1,0.1-0.2,0.1-0.2s0-0.2,0.1-0.2c0-0.1,0-0.1,0.1-0.2s0-0.1,0.1-0.2H139
		c-0.2,0.6-0.6,1.3-1.2,1.8s-1.3,1-1.9,1.2c-0.2,0.1-0.4,0.1-0.6,0.1s-0.4,0.1-0.6,0.1c-0.8,0-1.5-0.3-2.2-0.9
		c-0.6-0.6-0.9-1.5-0.9-2.6v-0.1c0-1.6,0.7-3.1,2.1-4.5c1.3-1.4,2.8-2,4.5-2c0.2,0,0.4,0,0.6,0.1c0.2,0,0.4,0.1,0.5,0.1
		c0.2,0.1,0.4,0.2,0.6,0.3s0.4,0.2,0.6,0.4l0.2-0.8h2L141.2,130.8L141.2,130.8z M139.1,126.2c-0.3-0.1-0.6-0.1-0.9-0.1
		c-1,0-1.8,0.4-2.5,1.1c-0.7,0.7-1.2,1.5-1.5,2.3c-0.1,0.2-0.1,0.4-0.2,0.6c0,0.2-0.1,0.4-0.1,0.6c0,0.5,0.1,0.9,0.3,1.2
		c0.2,0.3,0.5,0.4,0.9,0.4c0.2,0,0.4,0,0.5-0.1s0.4-0.1,0.6-0.2c0.8-0.4,1.5-1.1,2.2-2.1c0.7-1,1.2-2.2,1.6-3.5
		C139.8,126.4,139.4,126.3,139.1,126.2L139.1,126.2z"/>
	<path class="st2" d="M148.9,124.5c0.1,0,0.2,0,0.3,0c0.1,0,0.2,0,0.3,0c0.1,0,0.3-0.1,0.4-0.1c0.1,0,0.2,0,0.3-0.1
		c0.3-0.1,0.6-0.1,0.7-0.2s0.3-0.1,0.5-0.1h0.2c0.1,0,0.1,0,0.2,0.1c0.1,0,0.1,0.1,0.1,0.1s0,0.1,0,0.1c0,0,0,0,0,0.1
		c0,0,0,0.1,0,0.1c0,0,0,0.1,0,0.1v0.1c0,0,0,0,0,0.1c0,0,0,0.1,0,0.1l-0.1,0.8c0,0.2-0.2,0.4-0.5,0.5c-0.3,0.1-1.1,0.2-2.6,0.3
		l-0.6,3.2c-0.1,0.6-0.2,0.9-0.2,1.2c0,0.2-0.1,0.4-0.1,0.5c0,0.1,0,0.1,0,0.1c0,0.1,0,0.1,0,0.1c0,0.1,0,0.1,0,0.1v0.3
		c0,0,0,0.1,0,0.1c0,0,0,0.1,0,0.1c0,0.1,0.1,0.3,0.2,0.4s0.2,0.2,0.4,0.2c0.1,0,0.3,0,0.6-0.1c0.2-0.1,0.5-0.2,0.8-0.3
		c0.1-0.1,0.2-0.1,0.4-0.2c0.1-0.1,0.2-0.1,0.4-0.2c0.1-0.1,0.3-0.2,0.4-0.2s0.2-0.1,0.3-0.2l0,0c0,0,0,0,0,0
		c0.1-0.1,0.1-0.1,0.2-0.1s0.1-0.1,0.2-0.1c0.1,0,0.2,0,0.2,0.1c0,0,0,0.1,0,0.1v0.1c0,0,0,0,0,0.1s0,0,0,0.1l-0.1,0.7
		c-0.1,0.3-0.2,0.6-0.4,0.7c-0.2,0.2-0.4,0.3-0.7,0.4c-0.1,0.1-0.2,0.1-0.2,0.1c-0.1,0-0.1,0.1-0.2,0.1c-0.2,0.1-0.4,0.2-0.6,0.3
		s-0.3,0.1-0.5,0.2c-0.2,0.1-0.4,0.1-0.7,0.2s-0.5,0.1-0.9,0.1c-0.7,0-1.3-0.3-1.5-0.9c-0.3-0.6-0.4-1.3-0.4-2c0-0.5,0-0.9,0.1-1.3
		s0.2-0.8,0.3-1.2c0.1-0.2,0.1-0.4,0.1-0.6c0.1-0.2,0.1-0.4,0.1-0.6l0.3-1.7c-0.2,0-0.3,0-0.5,0c-0.2,0-0.3,0-0.5,0h-0.3
		c-0.1,0-0.3,0-0.4,0c-0.1,0-0.2-0.1-0.2-0.3c0-0.1,0-0.1,0-0.2c0-0.1,0-0.2,0.1-0.3l0.1-0.8c0-0.2,0.1-0.3,0.1-0.4s0.1-0.1,0.3-0.1
		c0.1,0,0.1,0,0.3,0.1c0.1,0,0.4,0.1,0.9,0.2c0,0,0.1,0,0.1,0c0,0,0.1,0,0.1,0c0.1,0,0.1,0,0.2,0c0.1,0,0.1,0,0.2,0l0.9-4.4h2
		L148.9,124.5L148.9,124.5z"/>
	<path class="st2" d="M156.7,124.2l-1.5,6.6c0,0.1,0,0.1,0,0.2s0,0.1,0,0.2c0,0.1-0.1,0.3-0.1,0.4c0,0.1,0,0.3,0,0.5v0.2
		c0,0.1,0,0.2,0.1,0.2s0.1,0.1,0.3,0.1c0.1,0,0.4-0.1,0.6-0.2s0.7-0.4,1.4-0.8l0,1.2c0,0.3-0.2,0.6-0.5,0.8
		c-0.3,0.2-0.7,0.4-1.1,0.6c-0.3,0.1-0.5,0.2-0.8,0.2s-0.4,0.1-0.6,0.1c-0.4,0-0.8-0.1-1-0.4c-0.3-0.3-0.4-0.7-0.4-1.2v-0.2
		c0-0.2,0-0.5,0.1-0.7c0-0.2,0.1-0.5,0.1-0.7c0-0.1,0.1-0.2,0.1-0.3s0-0.2,0.1-0.3l1.5-6.5L156.7,124.2L156.7,124.2z M155.4,122.8
		c-0.1-0.1-0.3-0.3-0.3-0.5c0-0.1,0-0.1,0-0.2s0-0.1,0-0.2c0-0.5,0.1-1,0.4-1.4c0.3-0.4,0.6-0.6,1-0.6c0.3,0,0.6,0.1,0.8,0.4
		c0.2,0.2,0.3,0.6,0.3,0.9c0,0.1,0,0.2,0,0.3c0,0.1-0.1,0.3-0.1,0.4c-0.1,0.3-0.3,0.5-0.5,0.7c-0.2,0.2-0.6,0.3-1,0.3
		C155.7,123,155.5,123,155.4,122.8L155.4,122.8z"/>
	<path class="st2" d="M163,134.5c-0.1,0-0.2,0-0.3,0c-0.1,0-0.2,0-0.3,0c-0.9-0.2-1.7-0.6-2.4-1.3s-1.1-1.7-1.1-3
		c0-1.6,0.7-3.1,2-4.4c1.4-1.3,2.9-1.9,4.7-1.9c1.1,0,2,0.4,2.6,1.3c0.6,0.8,0.9,1.8,0.9,3c0,1.6-0.4,2.9-1.3,3.9s-1.8,1.7-2.9,2.1
		c-0.3,0.1-0.6,0.2-1,0.3C163.6,134.4,163.3,134.4,163,134.5L163,134.5L163,134.5z M165.5,131.3c0.6-0.8,1-1.8,1.2-2.8
		c0-0.1,0-0.3,0-0.4c0-0.1,0-0.2,0-0.4c0-0.6-0.1-1.1-0.4-1.4s-0.6-0.5-0.9-0.6c-0.1-0.1-0.3-0.1-0.4-0.1c-0.1,0-0.3,0-0.4,0
		c-0.7,0-1.4,0.3-1.9,0.9c-0.5,0.6-0.9,1.3-1.1,2c-0.1,0.4-0.2,0.8-0.3,1.1c-0.1,0.4-0.1,0.7-0.1,0.9c0,0.6,0.2,1.1,0.5,1.4
		c0.4,0.4,0.8,0.6,1.4,0.6C164.1,132.6,164.9,132.1,165.5,131.3L165.5,131.3z"/>
	<path class="st2" d="M170.4,134l2-9.8h2l-1.1,5.2h0.1c0.3-0.9,0.8-1.7,1.3-2.5c0.6-0.8,1.1-1.5,1.8-2c0.4-0.4,0.8-0.6,1.2-0.8
		c0.4-0.2,0.7-0.3,1.1-0.3c0.4,0,0.8,0.2,1.1,0.5s0.5,0.8,0.5,1.5c0,0.2,0,0.3,0,0.5c0,0.1,0,0.3-0.1,0.5c0,0,0,0,0,0.1
		c0,0,0,0,0,0.1c-0.1,0.3-0.1,0.6-0.2,1s-0.2,0.8-0.4,1.4c-0.2,0.9-0.4,1.4-0.5,1.7s-0.1,0.5-0.2,0.7v0c0,0,0,0,0,0.1
		c0,0,0,0.1,0,0.1v0.3c0,0,0,0.1,0,0.1c0,0.2,0.1,0.3,0.2,0.4s0.2,0.1,0.3,0.1c0.1,0,0.2,0,0.4-0.1s0.7-0.3,1.4-0.6v0.9
		c0,0.1,0,0.2,0,0.3c0,0.1-0.1,0.2-0.1,0.3c-0.1,0.1-0.2,0.2-0.4,0.3c-0.2,0.1-0.4,0.2-0.8,0.4c-0.3,0.1-0.6,0.2-0.9,0.3
		c-0.3,0.1-0.5,0.1-0.8,0.1c-0.1,0-0.2,0-0.3-0.1c-0.1,0-0.3-0.1-0.4-0.1c-0.2-0.1-0.4-0.3-0.6-0.6c-0.2-0.3-0.3-0.7-0.3-1.2
		c0-0.1,0-0.1,0-0.2c0-0.1,0-0.1,0-0.2c0-0.1,0-0.1,0-0.2s0-0.1,0-0.2c0.1-0.3,0.1-0.5,0.2-0.8c0.1-0.3,0.1-0.5,0.2-0.8
		c0-0.1,0.1-0.2,0.1-0.2s0-0.2,0.1-0.2c0.3-1,0.5-1.7,0.6-2.1c0.1-0.4,0.1-0.7,0.1-0.8v-0.1c0,0,0-0.1,0-0.1c0-0.1-0.1-0.2-0.1-0.3
		s-0.1-0.1-0.3-0.1c-0.2,0-0.3,0.1-0.5,0.2s-0.4,0.3-0.6,0.5c-0.1,0.1-0.3,0.2-0.4,0.4c-0.1,0.1-0.3,0.3-0.4,0.4
		c-0.1,0.2-0.3,0.3-0.4,0.5c-0.1,0.2-0.2,0.3-0.3,0.4c-0.1,0.2-0.3,0.4-0.5,0.7s-0.3,0.5-0.5,0.8c-0.3,0.6-0.6,1.2-0.9,1.8
		s-0.5,1.3-0.7,2c0,0,0,0,0,0.1c0,0,0,0.1,0,0.1H170.4L170.4,134z"/>
	<path class="st2" d="M192.3,118.6c0-0.2,0.1-0.4,0.2-0.5s0.2-0.2,0.3-0.2c0,0,0,0,0.1,0c0,0,0.1,0,0.1,0c1.1-0.3,2.1-0.5,3.1-0.7
		c1-0.1,1.9-0.2,2.6-0.2c2.1,0,3.7,0.7,4.7,2.1c1,1.4,1.6,2.9,1.6,4.5v0.4c0,2.9-0.9,5.4-2.8,7.4s-4.1,3-6.5,3
		c-1.9,0-3.3-0.7-4.3-2.1c-1-1.4-1.5-3-1.5-4.8c0-1.3,0.3-2.5,1-3.6s1.4-2.1,2.1-2.9c0.5-0.5,1-0.9,1.5-1.2c0.5-0.3,0.9-0.4,1.1-0.4
		c0.1,0,0.1,0,0.2,0c0.1,0,0.1,0.1,0.1,0.1c0,0,0,0,0,0c0,0,0.1,0,0.1,0c0,0,0,0,0.1,0l0.5,0.3c0.1,0,0.1,0.1,0.1,0.1
		c0,0.1,0,0.1,0,0.2v0.1c0,0,0,0.1,0,0.1c0,0,0,0.1,0,0.1c0,0.1-0.1,0.1-0.2,0.1s-0.1,0.1-0.2,0.2c-0.3,0.2-0.6,0.5-0.8,0.7
		s-0.5,0.5-0.7,0.7c-1,1.1-1.6,2.1-1.9,3.1c-0.3,1-0.5,1.8-0.5,2.4c0,1.4,0.4,2.5,1.2,3.3s1.7,1.2,2.6,1.3h0.2c0.3,0,0.5,0,0.8-0.1
		s0.5-0.1,0.8-0.3c1.1-0.5,2.2-1.4,3.2-2.9c1-1.4,1.4-3.2,1.4-5.3c0-1.5-0.5-2.8-1.4-3.6c-0.9-0.9-2.1-1.3-3.7-1.3
		c-0.9,0-1.6,0.1-2.3,0.2c-0.7,0.1-1.3,0.3-1.8,0.4c-0.3,0.1-0.6,0.2-0.7,0.2c-0.1,0-0.2,0.1-0.3,0.1h0c-0.1,0-0.2,0-0.2-0.1
		c0-0.1,0-0.1,0-0.2c0,0,0-0.1,0-0.1c0,0,0-0.1,0-0.1L192.3,118.6L192.3,118.6z"/>
	<path class="st2" d="M215,130.8c-0.1,0.4-0.2,0.7-0.2,0.8c0,0.2,0,0.3,0,0.5c0,0.2,0,0.3,0.1,0.4s0.1,0.1,0.2,0.1h0.2
		c0.1,0,0.3-0.1,0.5-0.2c0.2-0.1,0.7-0.4,1.3-0.8l0,1.2c0,0.3-0.2,0.6-0.6,0.9c-0.4,0.3-0.8,0.5-1.3,0.6c-0.2,0.1-0.4,0.1-0.6,0.1
		c-0.2,0-0.4,0.1-0.5,0.1c-0.5,0-0.8-0.1-1.1-0.3c-0.2-0.2-0.4-0.4-0.4-0.7c0-0.1,0-0.1,0-0.1c0,0,0-0.1,0-0.1c0-0.2,0-0.5,0.1-0.9
		s0.1-0.7,0.2-1.1c0-0.2,0.1-0.4,0.1-0.6s0.1-0.4,0.1-0.6c0-0.1,0.1-0.3,0.1-0.4s0.1-0.2,0.1-0.3l0.3-1h-0.1
		c-0.1,0.2-0.2,0.4-0.3,0.7c-0.1,0.2-0.2,0.5-0.3,0.7c-0.4,0.8-0.9,1.5-1.4,2.3s-1.1,1.3-1.7,1.8c-0.3,0.2-0.6,0.4-0.9,0.5
		s-0.6,0.2-0.9,0.2c-0.4,0-0.8-0.2-1.2-0.6c-0.3-0.4-0.5-1-0.5-1.8c0-0.3,0-0.5,0.1-0.8s0.2-0.7,0.3-1.2l1.5-5.8h2l-1.6,6.2
		c0,0,0,0.1,0,0.1c0,0,0,0.1,0,0.1v0c0,0,0,0.1,0,0.1c0,0.1,0,0.1-0.1,0.3c0,0.1-0.1,0.2-0.1,0.4c0,0.1,0,0.3,0,0.5
		c0,0.1,0,0.3,0.1,0.4c0.1,0.1,0.1,0.1,0.3,0.1c0.2,0,0.3-0.1,0.5-0.1c0.2-0.1,0.4-0.2,0.6-0.4c0.1-0.1,0.3-0.3,0.4-0.4
		c0.1-0.2,0.3-0.3,0.4-0.5c0.2-0.2,0.4-0.4,0.5-0.6s0.3-0.4,0.4-0.5c0.6-0.7,1.1-1.6,1.6-2.5c0.5-0.9,0.9-2,1.2-3.2h2L215,130.8
		L215,130.8z"/>
	<path class="st2" d="M226.8,126.7c-0.2,0.1-0.4,0.2-0.6,0.3c-0.2,0.1-0.3,0.2-0.5,0.3c-0.1,0-0.1,0.1-0.2,0.1s-0.1,0.1-0.2,0.1
		c-0.1,0.1-0.3,0.2-0.4,0.2c-0.1,0.1-0.3,0.2-0.4,0.3c-0.1,0.1-0.1,0.1-0.2,0.1c-0.1,0-0.1,0.1-0.2,0.1c-0.1,0.1-0.1,0.1-0.2,0.1
		c-0.1,0.1-0.2,0.1-0.3,0.2c-0.1,0.1-0.3,0.2-0.6,0.4c-0.3,0.2-0.6,0.4-0.9,0.6c-0.2,0.2-0.4,0.3-0.6,0.5s-0.4,0.4-0.6,0.6
		c-0.1,0.2-0.2,0.3-0.3,0.5s-0.1,0.3-0.1,0.5c0,0.1,0,0.1,0,0.1c0,0,0,0.1,0.1,0.1c0.1,0.2,0.2,0.4,0.4,0.5c0.2,0.1,0.5,0.2,0.9,0.2
		c0.2,0,0.3,0,0.5-0.1c0.2,0,0.4-0.1,0.5-0.1c0.3-0.1,0.5-0.1,0.8-0.2c0.2-0.1,0.5-0.2,0.7-0.3c0.3-0.1,0.5-0.3,0.7-0.4
		s0.4-0.2,0.4-0.3c0.1,0,0.1-0.1,0.2-0.1c0.1,0,0.1,0,0.1,0c0.1,0,0.1,0,0.2,0.1c0,0.1,0.1,0.1,0.1,0.3c0,0,0,0.1,0,0.1
		c0,0,0,0.1,0,0.1c0,0,0,0,0,0.1c0,0,0,0,0,0.1c0,0,0,0,0,0.1c0,0,0,0,0,0.1l-0.2,0.9c-1,0.8-2,1.3-2.8,1.4c-0.8,0.2-1.5,0.2-2,0.2
		c-0.8,0-1.4-0.2-1.8-0.5c-0.4-0.3-0.7-0.7-0.9-1.1c-0.1-0.2-0.1-0.3-0.2-0.5c0-0.2,0-0.3,0-0.5c0-0.8,0.3-1.5,0.9-2.2
		s1.3-1.3,2-1.8c0.6-0.4,1.1-0.7,1.6-1s0.9-0.5,1.1-0.6l0.8-0.4v-0.2c-0.2,0.1-0.4,0.1-0.6,0.2c-0.2,0.1-0.4,0.1-0.6,0.2
		c-0.4,0.1-0.8,0.2-1.1,0.2s-0.6,0.1-0.9,0.1s-0.4,0-0.6-0.1s-0.3-0.1-0.4-0.1l-0.7,1.1h-0.9c-0.2,0-0.3,0-0.4-0.1s-0.2-0.1-0.2-0.3
		c0,0,0-0.1,0-0.1s0-0.1,0-0.1c0-0.1,0.1-0.1,0.1-0.2c0-0.1,0.1-0.1,0.1-0.2c0,0,0,0,0,0l0,0c0,0,0-0.1,0-0.1c0,0,0,0,0-0.1
		s0,0,0.1-0.1c0,0,0-0.1,0.1-0.1c0-0.1,0.1-0.1,0.1-0.1s0-0.1,0.1-0.1l0,0l0.1-0.1c0,0,0-0.1,0.1-0.1c-0.1-0.1-0.1-0.1-0.1-0.1
		c0-0.1-0.1-0.1-0.1-0.2c0-0.1-0.1-0.1-0.1-0.2c0-0.1,0-0.1,0-0.1c0-0.1,0-0.1,0-0.1c0-0.1,0-0.1,0-0.1v-0.1c0,0,0-0.1,0-0.1
		c0-0.2,0.1-0.4,0.2-0.6c0.1-0.2,0.2-0.4,0.4-0.6c0.2-0.2,0.4-0.5,0.7-0.7c0.3-0.2,0.6-0.4,0.9-0.6h1.6l-0.9,2.4
		c0.1,0,0.2,0.1,0.4,0.1s0.2,0.1,0.3,0.1c0.2,0,0.4,0,0.5,0.1s0.4,0,0.5,0c0.2,0,0.5,0,0.9-0.1s0.9-0.1,1.3-0.1c0.1,0,0.2,0,0.2,0
		c0.1,0,0.2,0,0.2,0c0.3,0,0.6-0.1,0.8-0.1s0.5-0.1,0.7-0.1L226.8,126.7L226.8,126.7z"/>
	<path class="st2" d="M251,119.8c-0.2-0.1-0.4-0.1-0.6-0.2c-0.2-0.1-0.4-0.1-0.6-0.1c-0.4-0.1-0.9-0.1-1.3-0.2
		c-0.4,0-0.9-0.1-1.4-0.1c-1.9,0-3.3,0.2-4.4,0.7c-1.1,0.5-1.8,1-2.3,1.5c-0.3,0.4-0.6,0.7-0.7,1c-0.1,0.3-0.2,0.6-0.2,0.8
		c0,0.5,0.2,0.9,0.6,1.1s0.8,0.3,1.3,0.4c0.2,0,0.4,0,0.6,0s0.4,0,0.5,0h1c0,0,0.1,0,0.1,0h1c0.3,0,0.5,0,0.8,0c0.3,0,0.6,0,0.9,0.1
		c1,0.1,1.8,0.4,2.6,0.8s1.2,1.3,1.2,2.4c0,1.8-0.9,3.3-2.7,4.5c-1.8,1.2-3.8,1.9-5.9,2h-0.3c-0.4,0-0.8,0-1.2-0.1
		c-0.4-0.1-0.9-0.1-1.3-0.2c-0.6-0.1-1.3-0.3-1.9-0.5s-1.2-0.5-1.7-0.8l0.4-1.8c0.7,0.2,1.4,0.4,2,0.5c0.6,0.1,1.3,0.3,1.9,0.3
		c0.3,0,0.6,0.1,0.9,0.1c0.3,0,0.6,0,0.9,0c1.6,0,2.9-0.3,4-0.9c1.1-0.6,1.8-1.3,2.1-2c0-0.1,0.1-0.2,0.1-0.3c0-0.1,0-0.2,0-0.3
		c0-0.5-0.1-0.8-0.5-0.9c-0.3-0.1-0.6-0.2-1-0.3h-0.5c-0.1,0-0.1,0-0.1,0h-0.1c-0.2,0-0.5,0-0.7,0h-1.7c-0.2,0-0.3,0-0.5,0
		c-1.3-0.1-2.5-0.3-3.6-0.8c-1.1-0.5-1.6-1.3-1.6-2.6c0-0.4,0.1-0.8,0.2-1.3c0.1-0.5,0.3-0.9,0.6-1.4c0.6-1.1,1.6-2,3.1-2.9
		s3.7-1.3,6.5-1.3c0.5,0,1,0,1.4,0.1c0.4,0.1,0.9,0.1,1.3,0.2c0.2,0.1,0.4,0.1,0.6,0.2c0.2,0.1,0.4,0.1,0.6,0.2L251,119.8L251,119.8
		z"/>
	<path class="st2" d="M256.4,134.5c-0.1,0-0.2,0-0.3,0c-0.1,0-0.2,0-0.3,0c-0.9-0.2-1.7-0.6-2.4-1.3s-1.1-1.7-1.1-3
		c0-1.6,0.7-3.1,2-4.4c1.4-1.3,2.9-1.9,4.7-1.9c1.1,0,2,0.4,2.6,1.3c0.6,0.8,0.9,1.8,0.9,3c0,1.6-0.4,2.9-1.3,3.9s-1.8,1.7-2.9,2.1
		c-0.3,0.1-0.6,0.2-1,0.3C257,134.4,256.7,134.4,256.4,134.5L256.4,134.5L256.4,134.5z M258.9,131.3c0.6-0.8,1-1.8,1.2-2.8
		c0-0.1,0-0.3,0-0.4c0-0.1,0-0.2,0-0.4c0-0.6-0.1-1.1-0.4-1.4s-0.6-0.5-0.9-0.6c-0.1-0.1-0.3-0.1-0.4-0.1c-0.1,0-0.3,0-0.4,0
		c-0.7,0-1.4,0.3-1.9,0.9c-0.5,0.6-0.9,1.3-1.1,2c-0.1,0.4-0.2,0.8-0.3,1.1c-0.1,0.4-0.1,0.7-0.1,0.9c0,0.6,0.2,1.1,0.5,1.4
		c0.4,0.4,0.8,0.6,1.4,0.6C257.5,132.6,258.3,132.1,258.9,131.3L258.9,131.3z"/>
	<path class="st2" d="M266.7,132c0.4,0.4,0.8,0.5,1.3,0.5c0.2,0,0.6-0.1,1-0.2c0.4-0.1,0.8-0.3,1.3-0.4c0.3-0.1,0.6-0.3,0.8-0.4
		s0.5-0.3,0.8-0.4c0.1-0.1,0.2-0.1,0.3-0.2c0.1-0.1,0.2-0.1,0.3-0.2c0.1-0.1,0.2-0.1,0.3-0.2c0.1-0.1,0.1-0.1,0.2-0.1s0.1,0,0.2,0.1
		s0.1,0.2,0.1,0.3c0,0,0,0.1,0,0.1c0,0,0,0.1,0,0.1c0,0,0,0,0,0.1c0,0,0,0,0,0.1c0,0,0,0,0,0.1c0,0,0,0,0,0.1l-0.2,1
		c-0.7,0.6-1.6,1.1-2.5,1.6s-1.9,0.7-2.8,0.7c-1,0-1.9-0.4-2.7-1.1c-0.8-0.7-1.1-1.9-1.1-3.4c0-0.8,0.2-2.1,0.6-3.7s1.3-3.5,2.6-5.5
		c0.1-0.1,0.2-0.3,0.5-0.6c0.2-0.3,0.5-0.6,0.9-1c0.4-0.4,0.9-0.8,1.4-1.2c0.5-0.3,1.1-0.5,1.7-0.5c0.7,0,1.3,0.3,1.7,0.8
		c0.4,0.6,0.6,1.2,0.6,1.9c0,1.2-0.5,2.7-1.5,4.5s-3.1,3.8-6.2,5.9C266.2,131.2,266.4,131.7,266.7,132L266.7,132z M268.3,126.8
		c0.6-0.8,1.2-1.5,1.7-2.3c0.5-0.8,0.8-1.5,1.1-2.3c0.3-0.8,0.4-1.4,0.4-2v-0.1c0-0.2,0-0.4,0-0.5s-0.1-0.2-0.3-0.2
		c-0.2,0-0.5,0.2-0.9,0.5s-0.8,0.8-1.2,1.4c-0.1,0.2-0.2,0.4-0.4,0.6s-0.2,0.4-0.4,0.6c-0.7,1.4-1.2,2.6-1.5,3.7s-0.5,2-0.5,2.7
		C266.9,128.2,267.6,127.6,268.3,126.8L268.3,126.8z"/>
	<path class="st2" d="M283.4,130.8c-0.1,0.4-0.2,0.7-0.2,0.8c0,0.2,0,0.3,0,0.5c0,0.2,0,0.3,0.1,0.4s0.1,0.1,0.2,0.1h0.2
		c0.1,0,0.3-0.1,0.5-0.2c0.2-0.1,0.7-0.4,1.3-0.8l0,1.2c0,0.3-0.2,0.6-0.6,0.9c-0.4,0.3-0.8,0.5-1.3,0.6c-0.2,0.1-0.4,0.1-0.6,0.1
		s-0.4,0.1-0.5,0.1c-0.5,0-0.8-0.1-1.1-0.3c-0.2-0.2-0.4-0.4-0.4-0.7c0-0.1,0-0.1,0-0.1c0,0,0-0.1,0-0.1c0-0.2,0-0.5,0.1-0.9
		c0-0.3,0.1-0.7,0.2-1.1c0-0.2,0.1-0.4,0.1-0.6c0-0.2,0.1-0.4,0.1-0.6c0-0.1,0.1-0.3,0.1-0.4s0.1-0.2,0.1-0.3l0.3-1H282
		c-0.1,0.2-0.2,0.4-0.3,0.7c-0.1,0.2-0.2,0.5-0.3,0.7c-0.4,0.8-0.9,1.5-1.4,2.3s-1.1,1.3-1.7,1.8c-0.3,0.2-0.6,0.4-0.9,0.5
		c-0.3,0.1-0.6,0.2-0.9,0.2c-0.5,0-0.8-0.2-1.2-0.6c-0.3-0.4-0.5-1-0.5-1.8c0-0.3,0-0.5,0.1-0.8s0.2-0.7,0.3-1.2l1.5-5.8h2l-1.6,6.2
		c0,0,0,0.1,0,0.1c0,0,0,0.1,0,0.1v0c0,0,0,0.1,0,0.1c0,0.1,0,0.1-0.1,0.3c0,0.1,0,0.2-0.1,0.4c0,0.1,0,0.3,0,0.5
		c0,0.1,0,0.3,0.1,0.4c0,0.1,0.1,0.1,0.3,0.1c0.2,0,0.3-0.1,0.5-0.1c0.2-0.1,0.4-0.2,0.6-0.4c0.1-0.1,0.3-0.3,0.5-0.4
		c0.1-0.2,0.3-0.3,0.4-0.5c0.2-0.2,0.4-0.4,0.5-0.6c0.1-0.2,0.3-0.4,0.4-0.5c0.5-0.7,1.1-1.6,1.6-2.5c0.5-0.9,0.9-2,1.2-3.2h2
		L283.4,130.8L283.4,130.8z"/>
	<path class="st2" d="M290.9,124.5c0.1,0,0.2,0,0.3,0c0.1,0,0.2,0,0.3,0c0.1,0,0.3-0.1,0.4-0.1c0.1,0,0.2,0,0.3-0.1
		c0.3-0.1,0.5-0.1,0.7-0.2s0.3-0.1,0.5-0.1h0.2c0.1,0,0.1,0,0.2,0.1s0.1,0.1,0.1,0.1s0,0.1,0,0.1c0,0,0,0,0,0.1c0,0,0,0.1,0,0.1
		c0,0,0,0.1,0,0.1v0.1c0,0,0,0,0,0.1c0,0,0,0.1,0,0.1l-0.1,0.8c0,0.2-0.2,0.4-0.5,0.5s-1.1,0.2-2.6,0.3l-0.6,3.2
		c-0.1,0.6-0.2,0.9-0.2,1.2s-0.1,0.4-0.1,0.5c0,0.1,0,0.1,0,0.1c0,0.1,0,0.1,0,0.1c0,0.1,0,0.1,0,0.1v0.3c0,0,0,0.1,0,0.1
		c0,0,0,0.1,0,0.1c0,0.1,0.1,0.3,0.2,0.4s0.2,0.2,0.5,0.2c0.1,0,0.3,0,0.6-0.1c0.2-0.1,0.5-0.2,0.8-0.3c0.1-0.1,0.2-0.1,0.4-0.2
		c0.1-0.1,0.2-0.1,0.4-0.2c0.1-0.1,0.3-0.2,0.4-0.2s0.2-0.1,0.3-0.2l0,0c0,0,0,0,0,0c0-0.1,0.1-0.1,0.2-0.1c0.1,0,0.1-0.1,0.2-0.1
		c0.1,0,0.2,0,0.2,0.1c0,0,0,0.1,0,0.1v0.1c0,0,0,0,0,0.1s0,0,0,0.1l-0.1,0.7c0,0.3-0.2,0.6-0.4,0.7c-0.2,0.2-0.4,0.3-0.7,0.4
		c-0.1,0.1-0.2,0.1-0.2,0.1c-0.1,0-0.1,0.1-0.2,0.1c-0.2,0.1-0.4,0.2-0.6,0.3c-0.2,0.1-0.3,0.1-0.5,0.2c-0.2,0.1-0.4,0.1-0.7,0.2
		s-0.5,0.1-0.9,0.1c-0.7,0-1.3-0.3-1.5-0.9c-0.3-0.6-0.4-1.3-0.4-2c0-0.5,0-0.9,0.1-1.3s0.2-0.8,0.3-1.2c0-0.2,0.1-0.4,0.1-0.6
		c0-0.2,0.1-0.4,0.1-0.6l0.3-1.7c-0.2,0-0.3,0-0.5,0c-0.2,0-0.3,0-0.5,0h-0.3c-0.1,0-0.3,0-0.4,0c-0.1,0-0.2-0.1-0.2-0.3
		c0-0.1,0-0.1,0-0.2c0-0.1,0-0.2,0-0.3l0.1-0.8c0-0.2,0.1-0.3,0.1-0.4s0.1-0.1,0.3-0.1c0,0,0.1,0,0.3,0.1c0.1,0,0.4,0.1,0.9,0.2
		c0,0,0.1,0,0.1,0c0,0,0,0,0.1,0c0,0,0.1,0,0.2,0c0,0,0.1,0,0.2,0l1-4.4h2L290.9,124.5L290.9,124.5z"/>
	<path class="st2" d="M298.8,124.2l-1.5,6.6c0,0.1,0,0.1,0,0.2s0,0.1,0,0.2c0,0.1-0.1,0.3-0.1,0.4c0,0.1,0,0.3,0,0.5v0.2
		c0,0.1,0,0.2,0.1,0.2s0.1,0.1,0.3,0.1c0.1,0,0.4-0.1,0.6-0.2s0.7-0.4,1.4-0.8l0,1.2c0,0.3-0.2,0.6-0.5,0.8
		c-0.3,0.2-0.7,0.4-1.1,0.6c-0.3,0.1-0.5,0.2-0.8,0.2s-0.5,0.1-0.6,0.1c-0.4,0-0.8-0.1-1-0.4c-0.3-0.3-0.4-0.7-0.4-1.2v-0.2
		c0-0.2,0-0.5,0.1-0.7c0-0.2,0.1-0.5,0.1-0.7c0-0.1,0-0.2,0.1-0.3c0-0.1,0-0.2,0-0.3l1.5-6.5L298.8,124.2L298.8,124.2z M297.4,122.8
		c-0.1-0.1-0.3-0.3-0.3-0.5c0-0.1,0-0.1,0-0.2s0-0.1,0-0.2c0-0.5,0.1-1,0.4-1.4s0.6-0.6,1-0.6c0.3,0,0.6,0.1,0.8,0.4
		c0.2,0.2,0.3,0.6,0.3,0.9c0,0.1,0,0.2,0,0.3c0,0.1-0.1,0.3-0.1,0.4c-0.1,0.3-0.3,0.5-0.5,0.7c-0.2,0.2-0.5,0.3-1,0.3
		C297.8,123,297.6,123,297.4,122.8L297.4,122.8z"/>
	<path class="st2" d="M305.1,134.5c-0.1,0-0.2,0-0.3,0c-0.1,0-0.2,0-0.3,0c-0.9-0.2-1.7-0.6-2.4-1.3s-1.1-1.7-1.1-3
		c0-1.6,0.7-3.1,2-4.4c1.4-1.3,2.9-1.9,4.7-1.9c1.1,0,2,0.4,2.6,1.3c0.6,0.8,0.9,1.8,0.9,3c0,1.6-0.4,2.9-1.3,3.9s-1.8,1.7-2.9,2.1
		c-0.3,0.1-0.6,0.2-1,0.3C305.7,134.4,305.4,134.4,305.1,134.5L305.1,134.5L305.1,134.5z M307.6,131.3c0.6-0.8,1-1.8,1.2-2.8
		c0-0.1,0-0.3,0-0.4c0-0.1,0-0.2,0-0.4c0-0.6-0.1-1.1-0.4-1.4s-0.6-0.5-0.9-0.6c-0.1-0.1-0.3-0.1-0.4-0.1c-0.1,0-0.3,0-0.4,0
		c-0.7,0-1.4,0.3-1.9,0.9c-0.5,0.6-0.9,1.3-1.1,2c-0.1,0.4-0.2,0.8-0.3,1.1c-0.1,0.4-0.1,0.7-0.1,0.9c0,0.6,0.2,1.1,0.5,1.4
		c0.4,0.4,0.8,0.6,1.4,0.6C306.2,132.6,307,132.1,307.6,131.3L307.6,131.3z"/>
	<path class="st2" d="M312.4,134l2-9.8h2l-1.1,5.2h0.1c0.3-0.9,0.8-1.7,1.3-2.5c0.6-0.8,1.1-1.5,1.8-2c0.4-0.4,0.8-0.6,1.2-0.8
		c0.4-0.2,0.7-0.3,1-0.3c0.4,0,0.8,0.2,1.1,0.5c0.3,0.4,0.5,0.8,0.5,1.5c0,0.2,0,0.3,0,0.5c0,0.1,0,0.3-0.1,0.5c0,0,0,0,0,0.1
		c0,0,0,0,0,0.1c0,0.3-0.1,0.6-0.2,1s-0.2,0.8-0.4,1.4c-0.2,0.9-0.4,1.4-0.5,1.7s-0.1,0.5-0.2,0.7v0c0,0,0,0,0,0.1c0,0,0,0.1,0,0.1
		v0.3c0,0,0,0.1,0,0.1c0,0.2,0.1,0.3,0.2,0.4c0.1,0.1,0.2,0.1,0.3,0.1c0,0,0.2,0,0.4-0.1s0.7-0.3,1.4-0.6v0.9c0,0.1,0,0.2,0,0.3
		c0,0.1,0,0.2-0.1,0.3c-0.1,0.1-0.2,0.2-0.4,0.3c-0.2,0.1-0.4,0.2-0.8,0.4c-0.3,0.1-0.6,0.2-0.9,0.3c-0.3,0.1-0.5,0.1-0.8,0.1
		c-0.1,0-0.2,0-0.3-0.1s-0.3-0.1-0.4-0.1c-0.2-0.1-0.4-0.3-0.6-0.6c-0.2-0.3-0.3-0.7-0.3-1.2c0-0.1,0-0.1,0-0.2c0-0.1,0-0.1,0-0.2
		c0-0.1,0-0.1,0-0.2s0-0.1,0-0.2c0-0.3,0.1-0.5,0.2-0.8s0.1-0.5,0.2-0.8c0-0.1,0-0.2,0.1-0.2c0-0.1,0-0.2,0.1-0.2
		c0.3-1,0.5-1.7,0.6-2.1c0.1-0.4,0.1-0.7,0.1-0.8v-0.1c0,0,0-0.1,0-0.1c0-0.1,0-0.2-0.1-0.3c0-0.1-0.1-0.1-0.3-0.1
		c-0.2,0-0.3,0.1-0.5,0.2s-0.4,0.3-0.6,0.5c-0.1,0.1-0.3,0.2-0.4,0.4c-0.1,0.1-0.3,0.3-0.4,0.4c-0.1,0.2-0.3,0.3-0.4,0.5
		c-0.1,0.2-0.2,0.3-0.3,0.4c-0.1,0.2-0.3,0.4-0.5,0.7s-0.3,0.5-0.5,0.8c-0.3,0.6-0.6,1.2-0.9,1.8s-0.5,1.3-0.7,2c0,0,0,0,0,0.1
		c0,0,0,0.1,0,0.1H312.4L312.4,134z"/>
</g>
</svg>
