<svg xmlns="http://www.w3.org/2000/svg" id="a" viewBox="0 0 511.81 511.81"><defs><style>.b{fill:#fff;}.c{fill:#ed1c24;}.d{fill:#262262;}</style></defs><circle class="b" cx="255.9" cy="255.9" r="255.9"></circle><g><g><path class="c" d="M462.71,197.6c-1.15-4.12-2.42-8.18-3.79-12.18-1.1-3.2-2.26-6.35-3.5-9.47-1.33-3.34-2.73-6.64-4.21-9.89-7.68-16.84-17.42-32.39-28.85-46.4,.23-.16,.47-.31,.7-.46-.44-.1-.88-.2-1.32-.31-1.99-2.42-4.04-4.78-6.13-7.11-1.77-1.97-3.57-3.9-5.41-5.8-12.48-12.89-26.5-24.16-41.7-33.56-3.49-2.16-7.03-4.23-10.63-6.19-40.99-22.26-89.39-31.36-138.59-22.97-.05,0-.1,.01-.15,.02-1.65,.26-3.3,.54-4.95,.86-.04,0-.08,.01-.13,.02-.04,0-.08,.02-.12,.03-1.65,.33-3.28,.69-4.91,1.07-.05,.01-.1,.03-.15,.04-48.73,10.77-90.13,37.44-119.71,73.5-2.6,3.17-5.1,6.42-7.52,9.73-10.53,14.44-19.28,30.16-25.98,46.8-.99,2.45-1.93,4.92-2.83,7.41-1.06,2.94-2.06,5.9-3,8.89-.37,.26-.74,.52-1.1,.78,.27,.06,.55,.11,.82,.17-5.3,17.28-8.47,35.35-9.23,53.85-.15,3.57-.21,7.15-.18,10.75,.03,3.35,.14,6.72,.33,10.09,.24,4.23,.59,8.46,1.08,12.71,.64,5.56,1.5,11.13,2.6,16.71,2.73,13.95,6.77,27.31,11.94,40.01,1.74,4.27,3.61,8.47,5.61,12.59,12.98,26.75,31.2,50.1,53.12,68.97,5.12,4.41,10.44,8.57,15.95,12.48,45.13,32.05,102.43,46.79,160.85,36.78,1.61-.28,3.21-.57,4.82-.88,.08-.02,.16-.03,.24-.04,.08-.02,.16-.04,.24-.05,1.61-.32,3.21-.65,4.8-1.01,57.89-12.75,105.41-47.99,135.14-94.68,3.62-5.69,6.99-11.55,10.07-17.57,13.19-25.74,21.28-54.23,23.22-83.9,.3-4.57,.45-9.16,.45-13.78,0-13.71-1.28-27.61-4.01-41.56-1.09-5.58-2.4-11.07-3.89-16.46Zm-19.77-24.82c-2.63,2.04-5.37,4.07-8.21,6.1-1.02,.73-2.04,1.45-3.08,2.18-2.87,1.99-5.82,3.96-8.84,5.89-3.15,2.02-6.4,4-9.7,5.96-6.07-19.2-14.09-37.12-23.68-53.43,8.51-4.52,16.64-9.23,24.31-14.13,11.71,14.21,21.59,30.12,29.2,47.42Zm-32.26,52.22c4.53,23.14,5.83,45.97,4.31,67.76-13.99,7.38-29.04,14.24-44.99,20.47,.02-25.23-2.57-51.85-7.83-78.74-.31-1.59-.66-3.17-.99-4.76,16.21-6.55,31.51-13.72,45.66-21.44,1.44,5.48,2.73,11.04,3.84,16.7Zm-310.6,60.76c-1.11-5.66-2.01-11.3-2.74-16.92,16.02,1.82,32.9,2.7,50.38,2.65,.29,1.59,.56,3.18,.88,4.78,5.26,26.9,12.89,52.52,22.42,75.89-17.12,.24-33.65-.45-49.39-2.01-9.63-19.62-17.02-41.25-21.55-64.39Zm251.98-49.3c5.41,27.65,7.94,54.96,7.63,80.65-25.72,9.4-53.5,17.21-82.47,23.13l-15.82-80.85c31.77-6.48,62.13-15.24,90.05-25.84,.2,.98,.42,1.94,.61,2.92Zm-4.47,160.11c-18.13,5.61-37.05,10.45-56.52,14.42l-11.86-60.65c28.05-5.73,55.01-13.21,80.16-22.19-.93,20.64-3.75,40.09-8.5,57.59-1.02,3.74-2.11,7.35-3.28,10.83Zm-131.54,15.54c-11-14.42-20.93-31.37-29.57-50.14,26.68-1.16,54.48-4.39,82.62-9.65l11.86,60.65c-19.54,3.65-38.89,6.3-57.79,7.94-2.39-2.78-4.76-5.72-7.11-8.8Zm-57.36-137.82c-.19-.98-.35-1.95-.54-2.93,29.86-.69,61.28-4.03,93.15-9.99l15.82,80.85c-29.06,5.44-57.73,8.67-85.1,9.65-9.97-23.68-17.91-49.93-23.32-77.58Zm-7.63-73.88c7.01-.25,14.1-.65,21.25-1.19,21.26-1.61,43.1-4.46,65.15-8.59l11.86,60.62c-31.86,5.96-63.25,9.26-92.97,9.86-3.39-20.73-5.15-41.14-5.29-60.71Zm198.2,22.97c-27.76,10.64-58.07,19.42-89.83,25.91l-11.86-60.62c21.98-4.49,43.28-10.07,63.59-16.6,6.83-2.2,13.54-4.5,20.13-6.91,7.24,18.18,13.3,37.75,17.98,58.22Zm-103.67-44.84l-11.86-60.63c21.79-4.45,42.91-9.98,63.05-16.43,11.47,15.57,21.76,33.87,30.55,54.16-25.52,9.3-53.03,17.04-81.74,22.9Zm-13.84-70.76l-10.61-54.22c22.26-1.88,46.39,11.85,68.96,39.28-18.68,5.84-38.23,10.84-58.35,14.95Zm-20.71-52.25l10.61,54.22c-20.18,3.78-40.18,6.52-59.68,8.14,10.57-33.9,27.74-55.72,49.07-62.37Zm-52.01,72.9c21.09-1.61,42.74-4.45,64.6-8.54l11.86,60.63c-28.8,5.39-57.21,8.59-84.35,9.59,.5-22.1,3.13-42.93,7.89-61.68Zm123.91,294.65l6.67,34.12c-18.57,1.57-38.44-7.74-57.61-26.78,16.73-1.68,33.77-4.13,50.94-7.34Zm16.78,32.14l-6.67-34.11c17.11-3.49,33.81-7.65,49.95-12.4-10.59,24.86-25.48,40.97-43.27,46.51Zm41.2-293.69c13.79-5.34,26.95-11.14,39.36-17.34,9.68,16.38,17.71,34.49,23.67,53.96-13.91,7.7-28.99,14.87-45.01,21.4-4.73-20.36-10.8-39.86-18.02-58.03Zm-3.94-9.51c-8.64-20.03-18.7-38.24-29.92-53.94,8.97-3.07,17.73-6.33,26.23-9.76,15.51,12.85,29.58,28.74,41.53,47.07-11.94,5.93-24.59,11.49-37.84,16.62Zm-36.41-62.61c-12.49-15.79-25.62-27.72-38.9-35.52,21.81,3.81,42.93,13.18,62.18,27.1-7.57,2.95-15.33,5.76-23.27,8.42Zm-149.59,29.26c-8.36,.53-16.6,.84-24.73,.97,12.58-20.15,28.61-36.78,47.38-48.53-9.36,12.22-17.03,28.23-22.65,47.56Zm-2.75,10.47c-4.48,18.77-6.93,39.43-7.39,61.24-14.21,.24-28.02-.14-41.31-1.14,4.16-21.48,11.21-41.5,20.73-59.25,9.17-.03,18.5-.31,27.97-.85Zm-7.46,71.54c.15,19.55,1.87,39.9,5.17,60.54-17.3-.02-33.97-.97-49.76-2.87-1.81-20.28-1.19-40.08,1.59-58.9,13.83,1.06,28.21,1.47,42.99,1.23Zm34.56,161.65c9.36,21.05,20.31,40.01,32.52,56.02,.91,1.19,1.82,2.35,2.73,3.5-11.04,.7-21.91,1.06-32.53,1.06-19.68-16.17-37.06-37.21-50.78-61.93,15.4,1.27,31.48,1.72,48.06,1.35Zm43.54,69.27c9.83,10.79,19.98,19.26,30.21,25.26-20.06-3.5-39.53-11.72-57.51-23.85,8.97-.24,18.07-.71,27.29-1.42Zm136.71-26.74c8.81-2.82,17.42-5.81,25.82-8.97l-44.28,43.76c7.22-9.42,13.42-21.09,18.46-34.79Zm4.01-12.15c.41-1.41,.82-2.83,1.21-4.27,5.28-19.43,8.28-41.12,9.02-64.15,15.5-5.91,30.22-12.38,44.01-19.36-3.39,28.07-11.57,54.11-23.7,76.5-9.84,4.01-20.04,7.77-30.53,11.28Zm32.93-289.49c4.36,3.92,8.55,8.04,12.57,12.33,.6,.64,1.21,1.28,1.81,1.93-7.24,4.57-14.91,8.97-22.91,13.21-11.61-17.95-25.18-33.7-40.12-46.77,4.61-1.99,9.15-4.03,13.6-6.12,12.53,7.22,24.29,15.74,35.06,25.42Zm-46.42-31.49c-3.66,1.65-7.41,3.24-11.19,4.81-10.89-8.45-22.41-15.51-34.35-21.02,15.86,3.61,31.14,9.08,45.54,16.21Zm-207.89,15.55c-8.99,9.61-16.99,20.49-23.9,32.42-4.09-.04-8.17-.1-12.18-.24,10.65-12.04,22.75-22.86,36.08-32.18Zm-44.31,42.08c4.91,.26,9.88,.44,14.9,.55-8.92,17.74-15.55,37.44-19.54,58.44-9-.91-17.77-2.09-26.2-3.6,.3-.83,.63-1.65,.95-2.47,2.11-5.49,4.44-10.88,7-16.15,6.33-13.03,14-25.35,22.89-36.76Zm-34.2,65.26c8.95,1.64,18.26,2.94,27.84,3.93-2.74,18.72-3.42,38.34-1.8,58.41-3.8-.57-7.55-1.19-11.23-1.87-3.53-.66-7-1.36-10.41-2.13-1.24-.28-2.46-.57-3.68-.86-3.39-.81-6.69-1.66-9.9-2.55,.54-18.89,3.69-37.35,9.18-54.93Zm-5.44,100.1c-1.5-7.65-2.53-15.29-3.15-22.89-.32-3.89-.52-7.76-.61-11.62,3.68,.99,7.46,1.93,11.35,2.8,.24,.05,.49,.1,.73,.15,7.78,1.72,15.88,3.14,24.21,4.33,.8,6.71,1.85,13.47,3.18,20.25,4.25,21.73,10.94,42.2,19.6,61.01-9.57-1.27-18.84-2.86-27.68-4.83-4.43-.99-8.71-2.07-12.84-3.21-6.59-14.39-11.61-29.77-14.78-45.98Zm20.86,58.19c1.49,.36,2.99,.71,4.52,1.06,11.2,2.5,23.03,4.42,35.34,5.83,12.72,24.45,28.85,45.73,47.26,62.85-9.44-.32-18.68-.93-27.64-1.84-24.31-17.74-44.8-40.8-59.48-67.89Zm77.41,79.61c7.19,.4,14.53,.61,21.97,.67,11.27,8.9,23.23,16.31,35.65,22.04-20.37-4.64-39.79-12.34-57.62-22.71Zm220.03-9.06c9.35-9.99,17.63-21.36,24.72-33.85,6.87-2.86,13.59-5.82,20.1-8.9-12.61,16.32-27.7,30.77-44.82,42.75Zm57.02-60.36c-7.96,4.22-16.28,8.26-24.91,12.12,10.6-22.8,17.52-48.59,20.09-76.03,10.87-5.94,21.11-12.18,30.54-18.72,1.28-.89,2.54-1.78,3.79-2.68-3.39,30.62-13.67,59.71-29.51,85.3Zm19.85-91.08c-7.44,5.16-15.43,10.12-23.82,14.91,.93-20.68-.58-42.17-4.84-63.9-1.33-6.78-2.9-13.43-4.69-19.95,7.27-4.24,14.23-8.61,20.79-13.13,.2-.14,.42-.28,.62-.42,3.28-2.27,6.42-4.56,9.46-6.87,1.37,3.61,2.64,7.28,3.81,11,2.29,7.27,4.21,14.73,5.71,22.39,3.17,16.21,4.31,32.35,3.63,48.16-3.4,2.62-6.95,5.23-10.69,7.82Z"></path><path class="c" d="M255.3,472.14h0c-45.04,0-88.4-13.89-125.4-40.16-5.53-3.93-10.94-8.16-16.06-12.57-22.56-19.43-40.56-42.79-53.5-69.46-2-4.13-3.91-8.4-5.65-12.68-5.29-12.98-9.34-26.53-12.03-40.29-1.08-5.53-1.96-11.2-2.61-16.83-.48-4.1-.84-8.41-1.09-12.8-.19-3.43-.3-6.85-.33-10.16-.03-3.61,.03-7.25,.18-10.83,.74-17.89,3.73-35.66,8.88-52.86-.22-.21-.37-.48-.44-.79-.12-.59,.12-1.19,.6-1.54l.69-.49c.86-2.74,1.8-5.52,2.86-8.46,.9-2.51,1.85-5,2.85-7.47,6.72-16.69,15.52-32.55,26.16-47.13,2.52-3.46,5.07-6.75,7.57-9.8,31.05-37.86,72.74-63.45,120.56-74.02,1.77-.42,3.42-.79,5.09-1.12,1.92-.37,3.59-.66,5.26-.92,12.2-2.08,24.48-3.12,36.64-3.12,35.8,0,71.44,9.07,103.05,26.24,3.46,1.88,7.06,3.98,10.71,6.23,15.35,9.5,29.47,20.87,41.99,33.8,1.85,1.91,3.66,3.86,5.45,5.84,2.05,2.28,4.02,4.55,5.84,6.76l.82,.19c.58,.14,1.03,.61,1.14,1.2,.06,.31,.02,.62-.11,.9,11.25,13.98,20.72,29.32,28.15,45.61,1.49,3.27,2.92,6.62,4.24,9.96,1.23,3.1,2.41,6.31,3.52,9.54,1.42,4.15,2.71,8.28,3.82,12.27,1.52,5.49,2.84,11.06,3.92,16.57,2.69,13.75,4.05,27.83,4.04,41.85,0,4.64-.16,9.31-.46,13.87-1.93,29.57-9.8,58-23.38,84.5-3.08,6.01-6.49,11.96-10.14,17.69-31.22,49.03-79.55,82.9-136.09,95.35-1.6,.36-3.22,.69-4.83,1.01-.02,0-.39,.08-.4,.08-1.7,.33-3.32,.62-4.94,.9-12.09,2.07-24.4,3.12-36.59,3.12ZM51.07,192.53c0,.17-.01,.34-.06,.5-5.33,17.37-8.42,35.37-9.17,53.47-.15,3.53-.21,7.12-.18,10.67,.03,3.26,.14,6.63,.33,10.02,.24,4.33,.6,8.58,1.07,12.62,.64,5.56,1.51,11.14,2.58,16.6,2.65,13.57,6.64,26.93,11.86,39.73,1.72,4.22,3.6,8.43,5.57,12.5,12.76,26.29,30.5,49.33,52.75,68.48,5.05,4.35,10.38,8.52,15.83,12.39,36.48,25.91,79.23,39.6,123.64,39.6h0c12.02,0,24.15-1.03,36.08-3.08,1.6-.27,3.19-.56,4.79-.87,0,0,.49-.09,.49-.1,1.58-.31,3.17-.65,4.75-1,55.75-12.28,103.4-45.67,134.18-94.02,3.6-5.65,6.96-11.51,10-17.44,13.39-26.13,21.15-54.16,23.05-83.31,.29-4.5,.45-9.11,.45-13.68,0-13.82-1.33-27.7-3.98-41.27-1.06-5.44-2.36-10.94-3.87-16.35-1.09-3.93-2.36-8-3.77-12.1-1.09-3.19-2.26-6.35-3.47-9.4-1.31-3.3-2.71-6.6-4.18-9.82-7.52-16.49-17.16-31.99-28.64-46.07-.11-.13-.19-.28-.25-.44-.14-.09-.26-.19-.37-.32-1.89-2.3-3.94-4.67-6.08-7.06-1.76-1.95-3.55-3.88-5.37-5.76-12.34-12.75-26.28-23.96-41.41-33.33-3.59-2.22-7.14-4.29-10.56-6.14-41.76-22.67-90.67-30.81-137.61-22.81-1.8,.28-3.43,.56-5.06,.87-1.87,.37-3.49,.72-5.1,1.11-47.32,10.46-88.42,35.7-119.04,73.03-2.46,3-4.98,6.26-7.47,9.67-10.49,14.37-19.17,30.01-25.8,46.47-.98,2.43-1.91,4.89-2.81,7.36-1.11,3.08-2.08,5.97-2.97,8.83-.05,.16-.12,.3-.22,.44Zm234.49,266.36c-17.69,0-36.58-9.47-54.63-27.38-.42-.41-.56-1.03-.36-1.58,.2-.55,.69-.94,1.28-1,16.75-1.68,33.84-4.15,50.81-7.32,.81-.15,1.6,.38,1.76,1.2l6.67,34.12c.08,.42-.02,.86-.28,1.2-.26,.34-.65,.56-1.08,.6-1.39,.12-2.78,.18-4.18,.18Zm-50.17-27.29c17.52,16.62,35.6,25.01,52.41,24.2l-6.06-30.95c-15.48,2.86-31.05,5.12-46.35,6.75Zm13.71,26.78c-.09,0-.17,0-.26-.02-20.06-3.5-39.61-11.61-58.09-24.08-.55-.37-.79-1.05-.61-1.68,.18-.63,.76-1.07,1.41-1.09,8.96-.24,18.12-.71,27.22-1.41,.49-.02,.92,.15,1.24,.49,9.68,10.63,19.73,19.03,29.86,24.98,.63,.37,.91,1.14,.66,1.83-.22,.6-.8,.99-1.42,.99Zm-52.66-24c14.46,9.18,29.55,15.67,44.97,19.35-7.86-5.48-15.62-12.37-23.15-20.57-7.28,.55-14.6,.96-21.82,1.22Zm13.73,22.35c-.11,0-.22-.01-.34-.04-20.42-4.65-39.95-12.35-58.05-22.87-.61-.35-.89-1.07-.69-1.74,.2-.67,.82-1.11,1.53-1.08,6.95,.38,14.32,.61,21.9,.66,.34,0,.66,.12,.93,.33,11.2,8.84,23.09,16.2,35.35,21.85,.7,.33,1.05,1.13,.8,1.86-.21,.62-.8,1.03-1.43,1.03Zm-51.29-22.4c12.17,6.58,24.95,11.89,38.18,15.86-7.93-4.49-15.65-9.68-23.07-15.5-5.16-.04-10.21-.16-15.11-.36Zm140.84,22.4c-.27,0-.54-.07-.78-.21-.37-.22-.63-.59-.71-1.01l-6.67-34.12c-.16-.82,.37-1.61,1.18-1.78,16.92-3.45,33.68-7.61,49.82-12.37,.56-.17,1.17,0,1.56,.45,.39,.44,.49,1.06,.26,1.6-10.79,25.33-26.08,41.71-44.22,47.37-.15,.05-.3,.07-.45,.07Zm-4.9-34.45l6.06,30.95c15.87-5.6,29.43-20.11,39.42-42.17-14.79,4.26-30.06,8.03-45.48,11.22Zm42.3,18.87c-.36,0-.71-.13-1-.38-.6-.53-.69-1.42-.2-2.06,7.14-9.32,13.28-20.89,18.24-34.39,.16-.44,.52-.78,.96-.92,8.68-2.77,17.34-5.78,25.75-8.95,.67-.26,1.42,0,1.81,.6,.39,.6,.3,1.39-.21,1.89l-44.28,43.76c-.29,.29-.68,.44-1.07,.44Zm19.63-35.08c-3.02,8.11-6.47,15.55-10.31,22.23l28.92-28.58c-6.13,2.21-12.37,4.34-18.61,6.35Zm15.82,18.89c-.43,0-.85-.18-1.15-.52-.51-.59-.49-1.46,.04-2.03,9.22-9.86,17.46-21.15,24.51-33.56,.17-.29,.43-.52,.74-.65,7-2.91,13.74-5.89,20.03-8.87,.64-.3,1.39-.13,1.83,.42,.44,.55,.45,1.32,.02,1.88-12.8,16.57-27.99,31.06-45.15,43.06-.26,.18-.57,.27-.87,.27Zm25.78-34.17c-4.68,8.2-9.88,15.91-15.53,23.06,10.75-8.67,20.59-18.4,29.39-29.08-4.46,2.03-9.1,4.04-13.86,6.03Zm-220.16,33.63c-.35,0-.82-.12-1.09-.34-20.17-16.57-37.38-37.56-51.14-62.36-.27-.49-.25-1.09,.05-1.56,.3-.47,.83-.74,1.4-.69,15.27,1.26,31.4,1.71,47.9,1.34,.66-.07,1.17,.34,1.42,.9,9.43,21.19,20.31,39.94,32.34,55.72,.9,1.18,1.8,2.34,2.71,3.47,.35,.44,.43,1.04,.2,1.56-.23,.52-.73,.86-1.29,.9-11.08,.7-22.02,1.06-32.5,1.06Zm-48.19-61.71c13.1,22.94,29.85,43.18,48.61,58.68,9.46-.01,19.17-.31,29.01-.88-.32-.41-.64-.83-.96-1.24-12-15.74-22.87-34.38-32.29-55.41-15.24,.31-30.15-.08-44.37-1.15Zm32.25,61.44s-.03,0-.05,0c-9.56-.33-18.9-.95-27.74-1.85-.27-.03-.52-.13-.74-.28-24.72-18.04-45.44-41.69-59.92-68.39-.29-.53-.23-1.17,.13-1.64,.37-.48,.97-.69,1.56-.55,1.49,.36,2.98,.71,4.49,1.05,10.84,2.42,22.67,4.37,35.18,5.8,.5,.06,.94,.36,1.17,.81,12.55,24.14,28.35,45.15,46.94,62.44,.46,.43,.61,1.1,.37,1.69-.23,.57-.79,.94-1.4,.94Zm-27.08-4.82c7.41,.74,15.17,1.29,23.11,1.64-17.4-16.81-32.28-36.89-44.26-59.77-12.32-1.43-23.99-3.37-34.7-5.76-.4-.09-.81-.18-1.21-.27,14.1,24.97,33.76,47.1,57.06,64.17Zm88,3.09c-.44,0-.86-.19-1.15-.53-2.42-2.82-4.83-5.8-7.17-8.87-10.94-14.34-20.94-31.3-29.74-50.42-.21-.46-.18-.99,.08-1.42,.26-.43,.72-.7,1.23-.73,26.77-1.17,54.49-4.4,82.41-9.63,.82-.14,1.61,.38,1.76,1.2l11.86,60.65c.08,.4,0,.81-.23,1.14-.23,.33-.58,.56-.98,.64-19.43,3.63-38.93,6.31-57.94,7.96-.04,0-.09,0-.13,0Zm-34.36-59.04c8.47,18.08,18.04,34.16,28.45,47.81,2.14,2.81,4.35,5.55,6.56,8.14,18.18-1.6,36.79-4.15,55.37-7.57l-11.28-57.68c-26.77,4.94-53.36,8.07-79.09,9.3Zm102.26,49.13c-.3,0-.59-.09-.84-.25-.34-.22-.57-.57-.65-.97l-11.86-60.65c-.16-.82,.37-1.61,1.18-1.78,27.83-5.68,54.73-13.13,79.96-22.13,.48-.17,1-.09,1.41,.21,.41,.3,.63,.78,.61,1.29-.95,21.02-3.82,40.51-8.55,57.92-1.01,3.73-2.12,7.4-3.3,10.92-.16,.46-.52,.82-.99,.97-18.22,5.64-37.29,10.5-56.67,14.46-.1,.02-.2,.03-.3,.03Zm-10.09-60.98l11.28,57.68c18.5-3.83,36.71-8.48,54.14-13.85,1.07-3.23,2.08-6.6,3-10.01,4.5-16.57,7.3-35.06,8.34-55.01-24.3,8.56-50.1,15.68-76.76,21.19Zm78.62,42.7c-.39,0-.77-.15-1.05-.42-.41-.39-.56-.98-.4-1.52,.41-1.4,.81-2.81,1.2-4.24,5.2-19.15,8.22-40.61,8.97-63.8,.02-.61,.4-1.15,.97-1.37,15.44-5.89,30.2-12.38,43.86-19.3,.5-.25,1.09-.21,1.55,.11,.46,.32,.7,.87,.63,1.42-3.4,28.16-11.43,54.08-23.87,77.04-.17,.31-.43,.55-.76,.68-9.73,3.96-20.04,7.77-30.63,11.31-.16,.05-.32,.08-.48,.08Zm11.71-68.88c-.81,23.04-3.85,44.4-9.04,63.49-.14,.51-.28,1.01-.42,1.51,9.38-3.2,18.52-6.59,27.21-10.12,11.53-21.43,19.42-46.49,22.91-72.67-12.76,6.35-26.42,12.32-40.66,17.79Zm33.37,51.38c-.4,0-.79-.16-1.08-.45-.44-.45-.56-1.13-.3-1.7,10.71-23.04,17.42-48.45,19.95-75.53,.05-.5,.34-.95,.78-1.19,11.04-6.03,21.27-12.3,30.4-18.63,1.28-.89,2.53-1.77,3.77-2.66,.49-.35,1.13-.38,1.65-.08,.52,.3,.81,.88,.74,1.47-3.34,30.19-13.62,59.9-29.73,85.93-.14,.23-.34,.42-.58,.54-7.84,4.16-16.25,8.25-25,12.16-.2,.09-.41,.13-.62,.13Zm21.52-76.6c-2.48,25.7-8.69,49.91-18.48,72.04,7.24-3.32,14.22-6.75,20.79-10.23,15.15-24.59,25.03-52.5,28.67-80.94-.34,.24-.67,.47-1.01,.71-9.02,6.26-19.11,12.45-29.97,18.41Zm-261.83,53.59c-14.67,0-29.1-.69-42.9-2.06-.52-.05-.98-.37-1.21-.84-9.93-20.24-17.23-42.03-21.67-64.77-1.08-5.54-2.01-11.26-2.76-17.02-.06-.46,.1-.93,.42-1.26,.33-.33,.78-.51,1.25-.44,15.44,1.75,31.91,2.64,48.94,2.64h1.26c.73,0,1.36,.52,1.49,1.24l.32,1.78c.18,.99,.36,1.99,.55,2.98,5.2,26.57,12.71,52,22.34,75.61,.19,.46,.14,.99-.14,1.41-.28,.42-.74,.67-1.24,.68-2.23,.03-4.45,.05-6.66,.05Zm-41.76-4.99c14.82,1.44,30.33,2.09,46.16,1.94-9.3-23.2-16.59-48.12-21.67-74.11-.2-1.01-.38-2.02-.56-3.03l-.09-.52c-16.44,0-32.36-.82-47.35-2.45,.69,5.05,1.52,10.05,2.47,14.91,4.34,22.19,11.42,43.47,21.05,63.26Zm59.4,4.66c-.61,0-1.16-.36-1.4-.93-10.14-24.09-18.02-50.3-23.41-77.87l-.54-2.94c-.08-.44,.03-.89,.31-1.23,.28-.35,.7-.55,1.14-.56,30.03-.7,61.29-4.05,92.9-9.97,.81-.15,1.6,.38,1.76,1.2l15.82,80.85c.08,.4,0,.81-.23,1.14-.23,.33-.58,.56-.97,.64-29.06,5.43-57.76,8.69-85.32,9.68-.02,0-.04,0-.05,0Zm-22.05-80.56l.22,1.17c5.28,27.01,12.96,52.68,22.83,76.32,26.62-1.01,54.3-4.14,82.33-9.31l-15.24-77.88c-30.65,5.66-60.96,8.92-90.14,9.7Zm-50.4,77.43c-.07,0-.13,0-.2-.01-9.92-1.32-19.28-2.95-27.81-4.86-4.34-.97-8.69-2.06-12.92-3.23-.43-.12-.79-.42-.97-.83-6.76-14.75-11.77-30.34-14.89-46.32-1.47-7.51-2.54-15.27-3.17-23.06-.32-3.91-.53-7.85-.62-11.71-.01-.48,.2-.93,.58-1.23,.38-.3,.87-.4,1.33-.27,3.77,1.01,7.57,1.95,11.29,2.78l.73,.15c7.39,1.63,15.49,3.08,24.1,4.31,.68,.1,1.21,.64,1.29,1.32,.81,6.79,1.88,13.57,3.16,20.14,4.14,21.15,10.7,41.57,19.49,60.67,.23,.5,.17,1.09-.16,1.53-.29,.39-.74,.62-1.22,.62Zm-39.44-10.83c3.97,1.09,8.03,2.1,12.09,3.01,7.66,1.71,16.01,3.21,24.83,4.44-8.32-18.6-14.57-38.38-18.57-58.85-1.23-6.27-2.25-12.73-3.06-19.21-8.25-1.2-16.04-2.61-23.17-4.19l-.73-.15c-3.12-.7-6.29-1.47-9.45-2.29,.11,3.15,.29,6.34,.55,9.52,.62,7.68,1.68,15.32,3.12,22.72,3.04,15.52,7.87,30.65,14.38,45Zm207.09,2.33c-.3,0-.59-.09-.84-.25-.34-.22-.57-.57-.65-.97l-15.82-80.85c-.16-.82,.37-1.61,1.18-1.78,31.51-6.43,61.72-15.1,89.81-25.78,.42-.16,.88-.12,1.27,.09,.39,.21,.67,.59,.75,1.03l.61,2.93c5.4,27.58,7.97,54.82,7.66,80.96,0,.63-.4,1.19-.99,1.41-25.9,9.47-53.72,17.27-82.68,23.19-.1,.02-.2,.03-.3,.03Zm-14.04-81.18l15.23,77.88c27.91-5.77,54.74-13.31,79.77-22.4,.23-25.61-2.33-52.28-7.61-79.29l-.24-1.17c-27.33,10.28-56.63,18.68-87.15,24.98Zm106.81,54.17c-.3,0-.6-.09-.86-.26-.41-.28-.66-.75-.66-1.25,.02-25.49-2.6-51.88-7.8-78.45-.2-1.01-.41-2.02-.63-3.03l-.36-1.71c-.15-.72,.24-1.44,.92-1.71,16.22-6.55,31.53-13.74,45.51-21.37,.41-.22,.9-.25,1.32-.06,.43,.18,.75,.55,.87,1,1.48,5.61,2.77,11.26,3.86,16.8,4.45,22.75,5.91,45.68,4.33,68.16-.04,.52-.34,.99-.81,1.23-14.11,7.44-29.3,14.35-45.14,20.54-.18,.07-.37,.1-.55,.1Zm-7.07-84.08l.1,.46c.22,1.02,.43,2.04,.63,3.07,5.08,25.99,7.72,51.82,7.85,76.81,14.72-5.83,28.84-12.28,42.02-19.19,1.46-21.95,0-44.32-4.34-66.52-.95-4.86-2.07-9.81-3.33-14.74-13.28,7.15-27.71,13.91-42.94,20.11Zm62.7,57.77c-.27,0-.55-.07-.79-.22-.47-.29-.75-.81-.72-1.36,.95-21.01-.67-42.39-4.81-63.54-1.28-6.56-2.85-13.24-4.66-19.85-.18-.66,.11-1.36,.7-1.71,7.51-4.38,14.47-8.78,20.69-13.07l.62-.41c3.14-2.18,6.31-4.48,9.41-6.83,.38-.29,.88-.38,1.33-.25,.46,.13,.83,.47,1,.92,1.37,3.61,2.66,7.34,3.84,11.08,2.34,7.44,4.28,15.03,5.75,22.55,3.13,15.98,4.36,32.31,3.66,48.52-.02,.45-.24,.86-.59,1.13-3.48,2.69-7.1,5.33-10.75,7.86-7.18,4.98-15.23,10.02-23.93,14.98-.23,.13-.49,.2-.75,.2Zm-7.76-84.65c1.7,6.31,3.18,12.68,4.41,18.94,4,20.46,5.68,41.14,4.97,61.51,7.72-4.48,14.88-9,21.33-13.47,3.41-2.37,6.79-4.83,10.07-7.34,.62-15.74-.6-31.59-3.64-47.1-1.45-7.41-3.36-14.89-5.67-22.22-.96-3.04-1.99-6.06-3.08-9.02-2.61,1.95-5.26,3.86-7.89,5.68l-.62,.42c-6.01,4.15-12.7,8.39-19.89,12.61Zm-271.92,58.95h0c-17.37-.02-34.18-.99-49.94-2.88-.71-.09-1.27-.66-1.33-1.37-1.79-20.06-1.25-39.99,1.6-59.26,.12-.79,.82-1.34,1.61-1.29,13.71,1.05,28.13,1.46,42.85,1.22,.42,.02,.79,.15,1.08,.43,.29,.28,.45,.67,.46,1.07,.15,19.57,1.89,39.86,5.15,60.31,.07,.44-.05,.88-.34,1.22-.29,.34-.71,.53-1.15,.53Zm-48.36-5.74c14.75,1.72,30.41,2.63,46.58,2.71-3.03-19.48-4.67-38.8-4.9-57.48-13.77,.19-27.29-.2-40.2-1.15-2.59,18.2-3.09,37-1.49,55.92Zm58.76,5.64c-.74,0-1.38-.54-1.5-1.27-3.38-20.67-5.17-41.17-5.31-60.94,0-.82,.64-1.49,1.46-1.52,7.08-.26,14.21-.66,21.19-1.18,21.36-1.61,43.22-4.5,64.99-8.57,.81-.14,1.6,.38,1.76,1.2l11.86,60.62c.08,.4,0,.81-.23,1.14-.23,.33-.58,.56-.98,.64-31.8,5.95-63.17,9.27-93.22,9.88h-.03Zm-3.76-60.76c.22,18.74,1.91,38.14,5.05,57.71,29.01-.66,59.24-3.87,89.91-9.52l-11.28-57.65c-21.38,3.95-42.85,6.75-63.84,8.33-6.53,.49-13.2,.88-19.84,1.13Zm-66.85,56.6c-.08,0-.15,0-.23-.02-3.81-.58-7.59-1.19-11.28-1.88-3.55-.66-7.04-1.37-10.47-2.14-1.16-.26-2.3-.53-3.43-.8-3.71-.88-7.06-1.75-10.22-2.63-.67-.19-1.13-.81-1.11-1.5,.53-18.78,3.65-37.39,9.25-55.34,.23-.73,.96-1.17,1.72-1.04,8.76,1.61,18.08,2.92,27.72,3.91,.41,.04,.79,.25,1.04,.58,.25,.33,.36,.74,.3,1.15-2.77,18.89-3.37,38.43-1.79,58.07,.04,.46-.14,.91-.48,1.23-.28,.26-.65,.41-1.03,.41Zm-33.67-10.06c2.78,.76,5.7,1.51,8.7,2.22,1.38,.33,2.51,.59,3.66,.85,3.4,.76,6.85,1.46,10.36,2.12,3.05,.57,6.16,1.09,9.3,1.57-1.37-18.68-.78-37.26,1.74-55.28-8.68-.93-17.1-2.11-25.07-3.54-5.16,16.91-8.08,34.41-8.68,52.06Zm207.36,2.4c-.3,0-.59-.09-.84-.25-.34-.22-.57-.57-.65-.97l-11.86-60.62c-.16-.82,.37-1.61,1.18-1.78,21.69-4.43,43.03-10,63.43-16.56,6.66-2.14,13.42-4.46,20.07-6.89,.77-.28,1.62,.1,1.93,.86,7.32,18.36,13.39,38.03,18.05,58.45,.17,.74-.23,1.48-.93,1.75-28.06,10.76-58.37,19.5-90.07,25.98-.1,.02-.2,.03-.3,.03Zm-10.08-60.96l11.28,57.65c30.54-6.32,59.75-14.74,86.87-25.06-4.47-19.3-10.21-37.91-17.07-55.35-6.25,2.26-12.56,4.42-18.8,6.42-20.04,6.44-40.98,11.93-62.27,16.34Zm109.6,31.23c-.24,0-.48-.06-.7-.17-.39-.2-.68-.57-.78-1-4.69-20.18-10.73-39.63-17.96-57.81-.15-.38-.14-.8,.02-1.17,.16-.37,.46-.66,.84-.81,13.73-5.32,26.93-11.13,39.23-17.28,.71-.36,1.58-.1,1.98,.58,9.9,16.77,17.92,35.03,23.82,54.28,.21,.69-.09,1.42-.71,1.77-13.88,7.69-29.08,14.92-45.17,21.48-.18,.08-.38,.11-.57,.11Zm-16.06-58.68c6.83,17.38,12.59,35.9,17.12,55.09,14.96-6.17,29.12-12.91,42.13-20.06-5.65-18.13-13.2-35.36-22.45-51.24-11.6,5.74-23.97,11.19-36.8,16.21Zm70.21,32.04c-.18,0-.37-.03-.54-.1-.43-.17-.76-.52-.9-.96-5.94-18.8-13.87-36.67-23.55-53.11-.21-.36-.26-.78-.15-1.18,.11-.4,.38-.73,.75-.93,8.56-4.55,16.7-9.28,24.21-14.07,.65-.41,1.5-.28,1.98,.31,11.96,14.51,21.85,30.58,29.42,47.77,.28,.64,.09,1.38-.46,1.81-2.59,2.01-5.37,4.07-8.26,6.14-1.02,.73-2.05,1.46-3.1,2.19-2.89,2-5.85,3.98-8.89,5.93-3.16,2.03-6.43,4.02-9.74,5.99-.24,.14-.5,.21-.77,.21Zm-21.58-54.35c9.12,15.73,16.67,32.72,22.44,50.55,2.72-1.63,5.4-3.28,8.02-4.96,3-1.93,5.94-3.88,8.8-5.86,1.04-.72,2.05-1.44,3.07-2.17,2.51-1.79,4.93-3.58,7.22-5.34-7.21-16.12-16.51-31.23-27.66-44.95-6.85,4.32-14.2,8.6-21.89,12.72Zm-258.84,51.89c-11.37,0-22.56-.41-33.26-1.21-.43-.03-.83-.25-1.09-.59-.26-.34-.37-.78-.28-1.21,4.18-21.57,11.2-41.65,20.88-59.68,.26-.49,.77-.8,1.33-.8,9.14-.03,18.52-.31,27.89-.84,.49-.03,.94,.17,1.25,.54,.31,.37,.42,.86,.31,1.32-4.42,18.52-6.89,39.01-7.35,60.92-.02,.82-.67,1.47-1.49,1.48-2.74,.05-5.47,.07-8.19,.07Zm-31.33-4.11c12.21,.86,24.99,1.22,38.01,1.03,.52-20.8,2.85-40.33,6.93-58.12-8.44,.45-16.88,.7-25.13,.74-9.06,17.09-15.73,36.03-19.82,56.35Zm49.79,3.77c-.4,0-.78-.16-1.06-.44-.3-.29-.46-.7-.45-1.11,.5-22.41,3.17-43.27,7.94-62.02,.16-.63,.7-1.09,1.35-1.14,21.2-1.62,42.88-4.49,64.43-8.52,.81-.14,1.6,.38,1.76,1.2l11.86,60.63c.08,.4,0,.81-.23,1.14-.23,.33-.58,.56-.98,.64-28.7,5.37-57.15,8.6-84.57,9.62-.02,0-.04,0-.06,0Zm9.09-61.77c-4.43,17.8-6.96,37.53-7.54,58.68,26.29-1.06,53.53-4.16,81.01-9.23l-11.28-57.65c-20.81,3.84-41.72,6.6-62.2,8.2Zm-70.97,60c-.05,0-.1,0-.15,0-9.32-.95-18.17-2.16-26.31-3.61-.44-.08-.83-.35-1.05-.74-.22-.39-.26-.86-.11-1.28,.22-.6,.45-1.19,.68-1.79l.27-.7c2.13-5.56,4.51-11.04,7.05-16.27,6.36-13.09,14.12-25.55,23.06-37.03,.31-.39,.79-.59,1.28-.58,4.73,.25,9.73,.44,14.85,.54,.52,.01,1,.29,1.27,.73,.27,.45,.29,1,.06,1.46-8.94,17.77-15.47,37.3-19.41,58.04-.14,.72-.77,1.23-1.49,1.23Zm-24.13-6.29c7.16,1.23,14.85,2.28,22.91,3.12,3.86-19.69,10.03-38.28,18.35-55.33-4.04-.1-7.99-.25-11.78-.45-8.61,11.13-16.09,23.2-22.24,35.87-2.51,5.16-4.84,10.55-6.95,16.04l-.27,.71s-.01,.03-.02,.04Zm180.47-3.51c-.3,0-.59-.09-.84-.25-.34-.22-.57-.57-.65-.97l-11.86-60.63c-.16-.82,.37-1.61,1.18-1.78,21.48-4.39,42.64-9.9,62.9-16.39,.62-.2,1.3,.02,1.68,.54,11.48,15.57,21.81,33.9,30.72,54.45,.17,.38,.17,.82,0,1.2-.17,.38-.48,.68-.87,.82-25.79,9.39-53.36,17.12-81.96,22.96-.1,.02-.2,.03-.3,.03Zm-10.08-60.96l11.28,57.65c27.36-5.66,53.76-13.05,78.52-21.98-8.5-19.37-18.28-36.68-29.09-51.51-19.58,6.23-39.99,11.55-60.7,15.84Zm101.47,34.43c-.59,0-1.14-.34-1.39-.91-8.68-20.12-18.69-38.17-29.76-53.66-.28-.39-.36-.89-.21-1.34,.15-.46,.5-.82,.95-.97,8.86-3.03,17.66-6.3,26.15-9.73,.52-.2,1.11-.11,1.53,.24,15.76,13.06,29.83,29.01,41.83,47.41,.24,.36,.31,.81,.19,1.23-.11,.42-.4,.77-.79,.96-11.92,5.93-24.7,11.54-37.97,16.68-.18,.07-.37,.1-.55,.1Zm-27.51-54.68c10.48,14.94,20,32.15,28.32,51.22,12.13-4.74,23.83-9.88,34.82-15.28-11.45-17.28-24.76-32.32-39.6-44.73-7.67,3.08-15.58,6.03-23.55,8.79Zm74.53,33.35c-.5,0-.99-.25-1.27-.69-11.47-17.73-24.87-33.35-39.85-46.45-.39-.34-.58-.86-.5-1.38,.08-.51,.42-.95,.9-1.16,4.66-2.01,9.22-4.06,13.55-6.1,.45-.21,.97-.19,1.4,.06,12.61,7.26,24.49,15.88,35.32,25.61,4.34,3.9,8.6,8.08,12.66,12.42l1.82,1.95c.3,.33,.44,.78,.38,1.22-.06,.45-.31,.84-.69,1.08-7,4.42-14.74,8.88-23.01,13.26-.23,.12-.47,.18-.71,.18Zm-37.34-47.84c14.14,12.66,26.86,27.55,37.85,44.34,7.14-3.82,13.87-7.69,20.04-11.53l-.55-.59c-4.01-4.28-8.21-8.39-12.48-12.24-10.47-9.41-21.94-17.77-34.12-24.84-3.46,1.62-7.06,3.25-10.74,4.86ZM114.31,121.22h-.01c-4.1-.04-8.19-.1-12.22-.24-.59-.02-1.11-.38-1.34-.92-.23-.54-.13-1.16,.26-1.6,10.78-12.18,23.01-23.09,36.34-32.42,.64-.45,1.5-.34,2.01,.25,.51,.59,.49,1.46-.04,2.03-8.85,9.46-16.82,20.28-23.7,32.14-.27,.47-.77,.76-1.31,.76Zm-8.87-3.17c2.65,.07,5.32,.11,8,.13,4.41-7.55,9.27-14.67,14.52-21.3-8.03,6.47-15.56,13.56-22.52,21.17Zm20.81,3.11c-.55,0-1.05-.29-1.32-.77-.27-.48-.26-1.08,.03-1.55,12.96-20.76,29.07-37.25,47.86-49.01,.62-.39,1.43-.28,1.92,.26,.49,.54,.53,1.36,.08,1.94-9.33,12.18-16.86,28.01-22.4,47.06-.18,.61-.72,1.05-1.36,1.09-8.22,.52-16.56,.84-24.8,.97h-.02Zm41.44-44.25c-14.84,10.6-27.81,24.41-38.65,41.17,6.92-.14,13.89-.43,20.78-.85,4.64-15.66,10.63-29.18,17.87-40.32Zm-5.73,42.51c-.46,0-.89-.21-1.18-.57-.32-.39-.41-.92-.26-1.4,10.79-34.6,28.1-56.51,50.07-63.36,.41-.13,.86-.08,1.23,.15,.37,.22,.63,.59,.71,1.01l10.61,54.22c.08,.4,0,.81-.23,1.14-.23,.33-.58,.56-.98,.64-20.3,3.8-40.43,6.54-59.83,8.16-.04,0-.08,0-.13,0Zm47.92-61.9c-19.77,6.94-35.55,27.17-45.78,58.68,18.12-1.59,36.86-4.16,55.77-7.65l-9.98-51.03Zm21.87,51.78c-.3,0-.59-.09-.84-.25-.34-.22-.57-.57-.65-.97l-10.61-54.22c-.08-.42,.02-.86,.28-1.2,.26-.34,.65-.56,1.08-.6,22.87-1.97,47.33,11.96,70.25,39.82,.32,.39,.43,.91,.28,1.4-.14,.48-.52,.86-1,1.01-18.56,5.81-38.25,10.85-58.5,14.99-.1,.02-.2,.03-.3,.03Zm-8.79-54.34l9.98,51.03c18.84-3.9,37.17-8.58,54.54-13.93-21.26-25.22-43.63-38.1-64.52-37.1Zm77.61,35.97c-.45,0-.9-.21-1.19-.58-12.31-15.56-25.26-27.39-38.48-35.15-.63-.37-.91-1.14-.66-1.83,.25-.69,.97-1.09,1.68-.97,21.84,3.82,42.98,13.02,62.8,27.36,.45,.33,.69,.87,.62,1.42-.07,.55-.44,1.02-.95,1.22-7.73,3.01-15.58,5.85-23.34,8.45-.16,.05-.32,.08-.48,.08Zm-31.22-33.9c10.9,7.59,21.55,17.85,31.75,30.61,6.51-2.2,13.08-4.56,19.57-7.05-16.36-11.44-33.57-19.34-51.32-23.57Zm65.57,21.04c-.33,0-.66-.11-.93-.32-10.83-8.4-22.29-15.41-34.06-20.85-.7-.33-1.05-1.13-.8-1.86,.25-.74,1.03-1.16,1.77-.99,15.87,3.61,31.3,9.11,45.88,16.33,.53,.26,.85,.8,.84,1.39-.01,.59-.36,1.11-.89,1.35-3.68,1.65-7.44,3.25-11.23,4.83-.19,.08-.39,.12-.58,.12Zm-21.24-17.51c7.36,4.16,14.54,8.93,21.47,14.26,2.47-1.04,4.93-2.08,7.36-3.14-9.31-4.43-18.96-8.15-28.83-11.12Z"></path></g><path class="d" d="M255.6,476.59c-4.94,0-9.95-.17-14.9-.5-58.95-3.92-112.85-30.57-151.77-75.03-38.91-44.46-58.18-101.41-54.26-160.37C42.38,124.89,139.23,34.17,255.17,34.17c4.94,0,9.95,.17,14.9,.5,58.96,3.92,112.85,30.57,151.77,75.03,38.91,44.46,58.18,101.42,54.26,160.37-7.71,115.81-104.56,206.52-220.5,206.52Zm-.43-430.3c-109.58,0-201.12,85.75-208.41,195.21-3.71,55.72,14.51,109.56,51.29,151.58,36.78,42.02,87.73,67.21,143.45,70.92,4.68,.31,9.43,.47,14.1,.47,109.58,0,201.12-85.74,208.41-195.21,3.71-55.72-14.51-109.56-51.29-151.58-36.78-42.02-87.73-67.21-143.45-70.92-4.68-.31-9.42-.47-14.1-.47Z"></path></g></svg>