<?xml version="1.0" encoding="UTF-8"?><svg id="a" xmlns="http://www.w3.org/2000/svg" viewBox="0 0 350 161.06"><defs><style>.b{fill:#ed1c24;}.c{fill:#262262;}.d{fill:#231f20;}</style></defs><g><path class="c" d="M91.34,102.29s31.05-22.49,47.27-23.56l1.53,11.01s-30.9,5.35-33.35,7.19c-2.45,1.84-9.48,7.5-9.79,7.95-.31,.46-5.66-2.6-5.66-2.6Z"/><g><path class="c" d="M182.65,79.23c.24,.2,.48,.41,.71,.61-1.11,2.33-1.91,4.89-3.4,6.94-3.32,4.57-8.23,5.98-13.69,6.33-10.26,.67-17.72-4.4-20.45-14.32-2.39-8.67-2.03-17.36,.59-25.87,3.12-10.1,9.78-14.8,19.76-14.49,7.29,.23,12.92,4.15,15.16,10.74,.6,1.77,.82,3.68,1.22,5.55h23.73V23.94h-22.47v5.59c-2.9-1.52-5.56-3.27-8.48-4.37-9.58-3.61-19.47-3.58-29.32-1.48-14.76,3.16-24.41,12-28.36,26.71-2.05,7.63-2.27,15.38-1.2,23.2,1.07,7.85,3.49,15.18,8.55,21.42,6.29,7.75,14.68,11.83,24.39,13.33,9.7,1.49,19.37,1.6,28.65-2.2,2.36-.97,4.45-2.62,6.89-4.1v5.63h22.47v-28.55h6.46v-15.21h-40.37v15.32h9.17Zm55.94,23.77c3.31,2.89,6.6,4.66,10.44,5.38,7.03,1.31,14.08,1.15,21.06-.1,11.5-2.05,21.1-8.1,22.27-22.11,.93-11.13-2.03-18.73-12.76-23.74-5.56-2.6-11.49-4.42-17.23-6.65-5.26-2.04-10.55-4.04-15.73-6.28-2.25-.97-3.39-3.03-3.15-5.59,.24-2.56,1.83-4.14,4.15-4.91,1.73-.57,3.53-1.09,5.34-1.22,7.27-.53,13.17,1.68,14.77,9.82,.28,1.42,.3,2.89,.44,4.38h22V24h-21.28c-.08,1.41-.14,2.59-.19,3.65-2.47-1.18-4.62-2.52-6.96-3.25-9.39-2.96-18.85-2.72-28.21,.09-5.91,1.78-10.68,5.25-13.61,10.84-2.52,4.81-3.12,10.04-2.97,15.4,.16,5.76,2.63,10.3,7.11,13.82,5.92,4.67,13.05,6.55,20.02,8.85,5.77,1.9,11.49,4.03,17.13,6.29,2.97,1.19,4.3,3.76,3.92,6.97-.37,3.14-2.18,5.45-5.19,6.21-2.66,.67-5.52,1.01-8.25,.83-7.01-.47-11.38-5.17-11.8-12.19-.08-1.3-.17-2.61-.26-3.87h-23.37v30.04h22.27v-4.67Zm94.41-10.51c-.11-.55-.21-.83-.21-1.11,0-16.86,0-33.73-.03-50.59,0-1.36,.49-1.81,1.82-1.77,2.46,.07,4.93,.02,7.43,.02v-15.12h-46.01v15.13c2.31,0,4.51,.14,6.7-.04,2.26-.19,2.85,.61,2.84,2.85-.09,15.98-.05,31.96-.05,47.94v2.74h-9.46v15.16h45.92v-15.2h-8.95Z"/><path class="c" d="M182.65,79.23h-9.17v-15.32h40.37v15.21h-6.46v28.55h-22.47v-5.63c-2.44,1.48-4.53,3.13-6.89,4.1-9.28,3.81-18.94,3.7-28.65,2.2-9.71-1.49-18.09-5.58-24.39-13.33-5.06-6.23-7.48-13.56-8.55-21.42-1.07-7.81-.84-15.57,1.2-23.2,3.95-14.71,13.6-23.56,28.36-26.71,9.85-2.11,19.74-2.13,29.32,1.48,2.91,1.1,5.58,2.85,8.48,4.37v-5.59h22.47v30.79h-23.73c-.4-1.87-.61-3.78-1.22-5.55-2.24-6.59-7.87-10.51-15.16-10.74-9.98-.31-16.64,4.39-19.76,14.49-2.63,8.51-2.99,17.2-.59,25.87,2.74,9.92,10.2,14.99,20.45,14.32,5.46-.35,10.37-1.76,13.69-6.33,1.49-2.05,2.29-4.61,3.4-6.94-.24-.2-.48-.41-.71-.61Z"/><path class="c" d="M238.59,103v4.67h-22.27v-30.04h23.37c.08,1.27,.18,2.57,.26,3.87,.42,7.02,4.79,11.72,11.8,12.19,2.73,.18,5.59-.16,8.25-.83,3.01-.76,4.82-3.07,5.19-6.21,.37-3.2-.95-5.77-3.92-6.97-5.64-2.26-11.35-4.39-17.13-6.29-6.98-2.3-14.11-4.18-20.02-8.85-4.47-3.53-6.94-8.06-7.11-13.82-.15-5.36,.44-10.58,2.97-15.4,2.93-5.59,7.69-9.07,13.61-10.84,9.36-2.81,18.82-3.05,28.21-.09,2.34,.74,4.49,2.08,6.96,3.25,.06-1.06,.12-2.24,.19-3.65h21.28v27.98h-22c-.14-1.49-.16-2.96-.44-4.38-1.61-8.14-7.5-10.35-14.77-9.82-1.8,.13-3.61,.65-5.34,1.22-2.32,.77-3.91,2.35-4.15,4.91-.24,2.55,.9,4.61,3.15,5.59,5.18,2.24,10.46,4.24,15.73,6.28,5.74,2.23,11.66,4.05,17.23,6.65,10.72,5,13.68,12.61,12.76,23.74-1.17,14.01-10.77,20.05-22.27,22.11-6.98,1.25-14.03,1.41-21.06,.1-3.85-.71-7.14-2.49-10.44-5.38Z"/><path class="b" d="M333,92.49h8.95v15.2h-45.92v-15.16h9.46v-2.74c0-15.98-.05-31.96,.05-47.94,.01-2.24-.58-3.04-2.84-2.85-2.18,.18-4.39,.04-6.7,.04v-15.13h46.01v15.12c-2.5,0-4.97,.05-7.43-.02-1.33-.04-1.82,.42-1.82,1.77,.03,16.86,.02,33.73,.03,50.59,0,.28,.1,.56,.21,1.11Z"/></g><path class="c" d="M62.5,119.07c-29.27,0-53.09-23.81-53.09-53.09S33.23,12.89,62.5,12.89c8.74,0,17.41,2.17,25.07,6.28l-1.03,1.92c-7.34-3.94-15.65-6.02-24.04-6.02-28.07,0-50.91,22.84-50.91,50.91s22.84,50.91,50.91,50.91c6.17,0,12.21-1.09,17.93-3.25,4.79-1.8,9.27-4.52,13.59-7.16,4.19-2.55,8.53-5.19,13.22-7.05,10.22-4.06,22.23-5.2,33.83-3.23,2.82,.48,5.69,1.14,8.52,1.96l-.61,2.09c-2.76-.8-5.54-1.44-8.28-1.91-11.21-1.91-22.82-.8-32.67,3.11-4.52,1.8-8.78,4.38-12.89,6.89-4.41,2.68-8.98,5.46-13.96,7.33-5.97,2.25-12.26,3.39-18.7,3.39Z"/><path class="c" d="M87.05,20.13s-.25-.12-.73-.35c-.47-.24-1.19-.57-2.13-.99-1.89-.8-4.71-1.92-8.43-2.81-3.71-.89-8.35-1.56-13.64-1.39-5.29,.16-11.25,1.17-17.26,3.55-6.01,2.37-12.04,6.14-17.23,11.34-5.18,5.19-9.48,11.81-12.02,19.31-2.56,7.48-3.3,15.82-1.99,23.94,1.29,8.11,4.72,15.94,9.83,22.41,5.1,6.48,11.83,11.58,19.2,14.69,7.37,3.14,15.35,4.26,22.86,3.58,3.75-.33,7.39-1.1,10.81-2.24,1.72-.57,3.33-1.22,4.98-2,.38-.19,.73-.34,1.12-.55,.39-.2,.78-.41,1.17-.61,.78-.43,1.55-.85,2.32-1.31,6.14-3.61,12.1-8.08,18.89-11.04l.63-.28,.16-.07,.24-.1,.28-.11c.38-.15,.75-.3,1.13-.45,.35-.15,.8-.31,1.23-.46,.43-.15,.86-.31,1.29-.46,.84-.28,1.65-.52,2.46-.78,.82-.22,1.62-.45,2.42-.65,3.2-.8,6.28-1.32,9.19-1.63,5.83-.63,10.96-.43,15.14,0,1.05,.1,2.03,.25,2.96,.37-.34-.05-.07-.01-.14-.02h.12l.16,.03,.16,.02h.09s.04,0,.05,0h.11c.23,0,.5,0,.79,0,.58-.02,1.23-.05,1.89-.09,.66-.03,1.32-.06,1.97-.06,1.29-.01,2.53,.08,3.44,.25,.44,.07,.82,.16,1.07,.22l.37,.09-3.64,12.54s0,0-.02,0c-.02,0-.02-.02-.11-.04-.13-.04-.47-.11-1.24-.14-.37-.02-.87-.02-1.47-.02-.61,0-1.34,.02-2.25,0-.46,0-.96-.03-1.53-.07l-.22-.02-.28-.03c-.19-.02-.37-.04-.56-.06l-.14-.02h-.08l-.16-.04c-.16-.03-.33-.05-.49-.08-.76-.13-1.57-.3-2.43-.42-3.44-.52-7.69-.89-12.54-.6-4.84,.3-10.29,1.21-15.81,3.35-2.71,1.04-5.55,2.49-8.55,4.17-3.01,1.68-6.19,3.61-9.72,5.47-.87,.47-1.8,.92-2.71,1.37-.47,.22-.94,.44-1.41,.66-.47,.22-1.01,.44-1.52,.65-1.9,.79-3.96,1.52-6.04,2.1-4.17,1.18-8.55,1.89-13.02,2.07-1.08,.05-2.36,.06-3.33,.04l-.88-.02-.85-.03c-.56-.04-1.13-.06-1.69-.11-2.26-.18-4.52-.49-6.77-.93-4.49-.91-8.92-2.37-13.11-4.38-8.4-4.02-15.81-10.24-21.24-17.85-5.44-7.6-8.85-16.56-9.86-25.61-1.04-9.04,.23-18.11,3.37-26.08,3.13-7.99,8.07-14.84,13.81-20.08,5.75-5.25,12.26-8.89,18.62-11.06,6.37-2.19,12.56-2.93,17.96-2.84,5.43,.08,10.09,.99,13.8,2.06,3.72,1.07,6.49,2.32,8.35,3.22,.92,.46,1.63,.82,2.09,1.09,.47,.26,.71,.39,.71,.39Z"/><g><path class="b" d="M100.65,51.3c-.2-.73-.43-1.45-.67-2.16-.19-.57-.4-1.13-.62-1.68-.24-.59-.49-1.18-.75-1.76-1.36-2.99-3.09-5.75-5.12-8.24,.04-.03,.08-.05,.12-.08-.08-.02-.16-.04-.23-.05-.35-.43-.72-.85-1.09-1.26-.31-.35-.63-.69-.96-1.03-2.22-2.29-4.71-4.29-7.41-5.96-.62-.38-1.25-.75-1.89-1.1-7.28-3.95-15.88-5.57-24.62-4.08h-.03c-.29,.05-.59,.1-.88,.16h-.04c-.29,.07-.58,.13-.87,.2h-.03c-8.66,1.92-16.01,6.66-21.26,13.06-.46,.56-.91,1.14-1.34,1.73-1.87,2.56-3.42,5.36-4.61,8.31-.18,.44-.34,.87-.5,1.32-.19,.52-.37,1.05-.53,1.58-.07,.05-.13,.09-.2,.14,.05,.01,.1,.02,.15,.03-.94,3.07-1.5,6.28-1.64,9.57-.03,.63-.04,1.27-.03,1.91,0,.6,.03,1.19,.06,1.79,.04,.75,.1,1.5,.19,2.26,.11,.99,.27,1.98,.46,2.97,.48,2.48,1.2,4.85,2.12,7.11,.31,.76,.64,1.5,1,2.24,2.31,4.75,5.54,8.9,9.44,12.25,.91,.78,1.85,1.52,2.83,2.22,8.02,5.69,18.19,8.31,28.57,6.53,.29-.05,.57-.1,.86-.16h.04l.04-.02c.29-.06,.57-.12,.85-.18,10.28-2.26,18.72-8.52,24-16.82,.64-1.01,1.24-2.05,1.79-3.12,2.34-4.57,3.78-9.63,4.12-14.9,.05-.81,.08-1.63,.08-2.45,0-2.43-.23-4.9-.71-7.38-.19-.99-.43-1.97-.69-2.92Zm-3.51-4.41c-.47,.36-.95,.72-1.46,1.08-.18,.13-.36,.26-.55,.39-.51,.35-1.03,.7-1.57,1.05-.56,.36-1.14,.71-1.72,1.06-1.08-3.41-2.5-6.59-4.21-9.49,1.51-.8,2.96-1.64,4.32-2.51,2.08,2.52,3.83,5.35,5.19,8.42Zm-5.73,9.28c.8,4.11,1.04,8.16,.76,12.04-2.49,1.31-5.16,2.53-7.99,3.64,0-4.48-.46-9.21-1.39-13.99-.06-.28-.12-.56-.18-.84,2.88-1.16,5.6-2.44,8.11-3.81,.26,.97,.48,1.96,.68,2.97Zm-55.17,10.79c-.2-1.01-.36-2.01-.49-3.01,2.85,.32,5.84,.48,8.95,.47,.05,.28,.1,.57,.16,.85,.93,4.78,2.29,9.33,3.98,13.48-3.04,.04-5.98-.08-8.77-.36-1.71-3.48-3.02-7.33-3.83-11.44Zm44.76-8.76c.96,4.91,1.41,9.76,1.36,14.32-4.57,1.67-9.5,3.06-14.65,4.11l-2.81-14.36c5.64-1.15,11.04-2.71,15.99-4.59,.04,.17,.07,.34,.11,.52Zm-.79,28.44c-3.22,1-6.58,1.86-10.04,2.56l-2.11-10.77c4.98-1.02,9.77-2.35,14.24-3.94-.17,3.67-.67,7.12-1.51,10.23-.18,.67-.38,1.31-.58,1.92Zm-23.36,2.76c-1.95-2.56-3.72-5.57-5.25-8.91,4.74-.21,9.68-.78,14.67-1.71l2.11,10.77c-3.47,.65-6.91,1.12-10.27,1.41-.42-.49-.85-1.02-1.26-1.56Zm-10.19-24.48c-.03-.17-.06-.35-.1-.52,5.3-.12,10.88-.72,16.54-1.78l2.81,14.36c-5.16,.97-10.25,1.54-15.12,1.71-1.77-4.21-3.18-8.87-4.14-13.78Zm-1.36-13.12c1.25-.05,2.5-.11,3.77-.21,3.78-.29,7.66-.79,11.57-1.53l2.11,10.77c-5.66,1.06-11.23,1.64-16.51,1.75-.6-3.68-.91-7.31-.94-10.78Zm35.2,4.08c-4.93,1.89-10.31,3.45-15.96,4.6l-2.11-10.77c3.9-.8,7.69-1.79,11.29-2.95,1.21-.39,2.41-.8,3.58-1.23,1.29,3.23,2.36,6.7,3.19,10.34Zm-18.41-7.96l-2.11-10.77c3.87-.79,7.62-1.77,11.2-2.92,2.04,2.77,3.87,6.02,5.43,9.62-4.53,1.65-9.42,3.03-14.52,4.07Zm-2.46-12.57l-1.88-9.63c3.95-.33,8.24,2.11,12.25,6.98-3.32,1.04-6.79,1.92-10.36,2.65Zm-3.68-9.28l1.88,9.63c-3.58,.67-7.14,1.16-10.6,1.45,1.88-6.02,4.93-9.9,8.72-11.08Zm-9.24,12.95c3.75-.29,7.59-.79,11.47-1.52l2.11,10.77c-5.12,.96-10.16,1.53-14.98,1.7,.09-3.93,.56-7.63,1.4-10.96Zm22.01,52.34l1.19,6.06c-3.3,.28-6.83-1.37-10.23-4.76,2.97-.3,6-.73,9.05-1.3Zm2.98,5.71l-1.19-6.06c3.04-.62,6.01-1.36,8.87-2.2-1.88,4.42-4.53,7.28-7.69,8.26Zm7.32-52.17c2.45-.95,4.79-1.98,6.99-3.08,1.72,2.91,3.15,6.13,4.2,9.58-2.47,1.37-5.15,2.64-8,3.8-.84-3.62-1.92-7.08-3.2-10.31Zm-.7-1.69c-1.53-3.56-3.32-6.79-5.31-9.58,1.59-.54,3.15-1.12,4.66-1.73,2.75,2.28,5.25,5.1,7.38,8.36-2.12,1.05-4.37,2.04-6.72,2.95Zm-6.47-11.12c-2.22-2.8-4.55-4.92-6.91-6.31,3.87,.68,7.63,2.34,11.04,4.81-1.35,.52-2.72,1.02-4.13,1.5Zm-26.57,5.2c-1.48,.09-2.95,.15-4.39,.17,2.23-3.58,5.08-6.53,8.42-8.62-1.66,2.17-3.03,5.01-4.02,8.45Zm-.49,1.86c-.79,3.33-1.23,7-1.31,10.88-2.52,.04-4.98-.02-7.34-.2,.74-3.82,1.99-7.37,3.68-10.52,1.63,0,3.29-.05,4.97-.15Zm-1.32,12.71c.03,3.47,.33,7.09,.92,10.75-3.07,0-6.03-.17-8.84-.51-.32-3.6-.21-7.12,.28-10.46,2.46,.19,5.01,.26,7.64,.22Zm6.14,28.71c1.66,3.74,3.61,7.11,5.78,9.95,.16,.21,.32,.42,.48,.62-1.96,.12-3.89,.19-5.78,.19-3.49-2.87-6.58-6.61-9.02-11,2.73,.23,5.59,.3,8.54,.24Zm7.73,12.3c1.75,1.92,3.55,3.42,5.37,4.49-3.56-.62-7.02-2.08-10.21-4.24,1.59-.04,3.21-.13,4.85-.25Zm24.28-4.75c1.56-.5,3.09-1.03,4.59-1.59l-7.87,7.77c1.28-1.67,2.38-3.75,3.28-6.18Zm.71-2.16c.07-.25,.15-.5,.21-.76,.94-3.45,1.47-7.3,1.6-11.39,2.75-1.05,5.37-2.2,7.82-3.44-.6,4.99-2.05,9.61-4.21,13.59-1.75,.71-3.56,1.38-5.42,2Zm5.85-51.42c.77,.7,1.52,1.43,2.23,2.19,.11,.11,.22,.23,.32,.34-1.29,.81-2.65,1.59-4.07,2.35-2.06-3.19-4.47-5.99-7.13-8.31,.82-.35,1.63-.72,2.42-1.09,2.23,1.28,4.31,2.8,6.23,4.52Zm-8.25-5.59c-.65,.29-1.32,.57-1.99,.85-1.93-1.5-3.98-2.76-6.1-3.73,2.82,.64,5.53,1.61,8.09,2.88Zm-36.93,2.76c-1.6,1.71-3.02,3.64-4.25,5.76-.73,0-1.45-.02-2.16-.04,1.89-2.14,4.04-4.06,6.41-5.72Zm-7.87,7.47c.87,.05,1.75,.08,2.65,.1-1.58,3.15-2.76,6.65-3.47,10.38-1.6-.16-3.16-.37-4.65-.64,.05-.15,.11-.29,.17-.44,.37-.97,.79-1.93,1.24-2.87,1.12-2.31,2.49-4.5,4.07-6.53Zm-6.07,11.59c1.59,.29,3.24,.52,4.95,.7-.49,3.32-.61,6.81-.32,10.38-.67-.1-1.34-.21-1.99-.33-.63-.12-1.24-.24-1.85-.38-.22-.05-.44-.1-.65-.15-.6-.14-1.19-.29-1.76-.45,.1-3.36,.66-6.63,1.63-9.76Zm-.97,17.78c-.27-1.36-.45-2.72-.56-4.07-.06-.69-.09-1.38-.11-2.06,.65,.18,1.32,.34,2.02,.5,.04,0,.09,.02,.13,.03,1.38,.31,2.82,.56,4.3,.77,.14,1.19,.33,2.39,.56,3.6,.76,3.86,1.94,7.5,3.48,10.84-1.7-.23-3.35-.51-4.92-.86-.79-.18-1.55-.37-2.28-.57-1.17-2.56-2.06-5.29-2.63-8.17Zm3.71,10.34c.27,.06,.53,.13,.8,.19,1.99,.44,4.09,.79,6.28,1.03,2.26,4.34,5.12,8.12,8.39,11.16-1.68-.06-3.32-.17-4.91-.33-4.32-3.15-7.96-7.25-10.56-12.06Zm13.75,14.14c1.28,.07,2.58,.11,3.9,.12,2,1.58,4.13,2.9,6.33,3.91-3.62-.82-7.07-2.19-10.23-4.03Zm39.08-1.61c1.66-1.78,3.13-3.79,4.39-6.01,1.22-.51,2.41-1.03,3.57-1.58-2.24,2.9-4.92,5.47-7.96,7.59Zm10.13-10.72c-1.41,.75-2.89,1.47-4.42,2.15,1.88-4.05,3.11-8.63,3.57-13.5,1.93-1.05,3.75-2.16,5.42-3.32,.23-.16,.45-.32,.67-.48-.6,5.44-2.43,10.61-5.24,15.15Zm3.53-16.18c-1.32,.92-2.74,1.8-4.23,2.65,.17-3.67-.1-7.49-.86-11.35-.24-1.2-.52-2.39-.83-3.54,1.29-.75,2.53-1.53,3.69-2.33,.04-.02,.07-.05,.11-.07,.58-.4,1.14-.81,1.68-1.22,.24,.64,.47,1.29,.68,1.95,.41,1.29,.75,2.62,1.01,3.98,.56,2.88,.77,5.75,.65,8.55-.6,.47-1.24,.93-1.9,1.39Z"/><path class="b" d="M63.81,100.07h0c-8,0-15.7-2.47-22.27-7.13-.98-.7-1.94-1.45-2.85-2.23-4.01-3.45-7.2-7.6-9.5-12.34-.36-.73-.69-1.49-1-2.25-.94-2.31-1.66-4.71-2.14-7.16-.19-.98-.35-1.99-.46-2.99-.08-.73-.15-1.49-.19-2.27-.03-.61-.05-1.22-.06-1.8,0-.64,0-1.29,.03-1.92,.13-3.18,.66-6.33,1.58-9.39-.04-.04-.07-.09-.08-.14-.02-.1,.02-.21,.11-.27l.12-.09c.15-.49,.32-.98,.51-1.5,.16-.45,.33-.89,.51-1.33,1.19-2.97,2.76-5.78,4.65-8.37,.45-.61,.9-1.2,1.34-1.74,5.52-6.72,12.92-11.27,21.41-13.15,.31-.07,.61-.14,.9-.2,.34-.07,.64-.12,.93-.16,2.17-.37,4.35-.55,6.51-.55,6.36,0,12.69,1.61,18.3,4.66,.61,.33,1.25,.71,1.9,1.11,2.73,1.69,5.23,3.71,7.46,6,.33,.34,.65,.69,.97,1.04,.36,.41,.71,.81,1.04,1.2l.15,.03c.1,.02,.18,.11,.2,.21,.01,.05,0,.11-.02,.16,2,2.48,3.68,5.21,5,8.1,.26,.58,.52,1.18,.75,1.77,.22,.55,.43,1.12,.63,1.69,.25,.74,.48,1.47,.68,2.18,.27,.97,.5,1.96,.7,2.94,.48,2.44,.72,4.94,.72,7.43,0,.82-.03,1.65-.08,2.46-.34,5.25-1.74,10.3-4.15,15.01-.55,1.07-1.15,2.13-1.8,3.14-5.54,8.71-14.13,14.72-24.17,16.94-.28,.06-.57,.12-.86,.18h-.07c-.3,.07-.59,.12-.88,.17-2.15,.37-4.33,.55-6.5,.55ZM27.54,50.4s0,.06-.01,.09c-.95,3.09-1.5,6.28-1.63,9.5-.03,.63-.04,1.26-.03,1.9,0,.58,.02,1.18,.06,1.78,.04,.77,.11,1.52,.19,2.24,.11,.99,.27,1.98,.46,2.95,.47,2.41,1.18,4.78,2.11,7.06,.31,.75,.64,1.5,.99,2.22,2.27,4.67,5.42,8.76,9.37,12.16,.9,.77,1.84,1.51,2.81,2.2,6.48,4.6,14.07,7.03,21.96,7.03h0c2.13,0,4.29-.18,6.41-.55,.28-.05,.57-.1,.85-.16l.09-.02c.28-.06,.56-.11,.84-.18,9.9-2.18,18.37-8.11,23.83-16.7,.64-1,1.24-2.05,1.78-3.1,2.38-4.64,3.76-9.62,4.09-14.8,.05-.8,.08-1.62,.08-2.43,0-2.45-.24-4.92-.71-7.33-.19-.97-.42-1.94-.69-2.9-.19-.7-.42-1.42-.67-2.15-.19-.57-.4-1.13-.62-1.67-.23-.59-.48-1.17-.74-1.74-1.34-2.93-3.05-5.68-5.09-8.18-.02-.02-.03-.05-.04-.08-.02-.02-.05-.03-.07-.06-.34-.41-.7-.83-1.08-1.25-.31-.35-.63-.69-.95-1.02-2.19-2.26-4.67-4.26-7.36-5.92-.64-.39-1.27-.76-1.88-1.09-7.42-4.03-16.1-5.47-24.44-4.05-.32,.05-.61,.1-.9,.16-.33,.07-.62,.13-.91,.2-8.4,1.86-15.71,6.34-21.14,12.97-.44,.53-.88,1.11-1.33,1.72-1.86,2.55-3.4,5.33-4.58,8.25-.17,.43-.34,.87-.5,1.31-.2,.55-.37,1.06-.53,1.57,0,.03-.02,.05-.04,.08Zm41.65,47.31c-3.14,0-6.5-1.68-9.7-4.86-.07-.07-.1-.18-.06-.28,.03-.1,.12-.17,.23-.18,2.97-.3,6.01-.74,9.02-1.3,.14-.03,.28,.07,.31,.21l1.19,6.06c.01,.08,0,.15-.05,.21-.05,.06-.12,.1-.19,.11-.25,.02-.49,.03-.74,.03Zm-8.91-4.85c3.11,2.95,6.32,4.44,9.31,4.3l-1.08-5.5c-2.75,.51-5.51,.91-8.23,1.2Zm2.44,4.76s-.03,0-.05,0c-3.56-.62-7.04-2.06-10.32-4.28-.1-.07-.14-.19-.11-.3,.03-.11,.13-.19,.25-.19,1.59-.04,3.22-.13,4.83-.25,.09,0,.16,.03,.22,.09,1.72,1.89,3.5,3.38,5.3,4.44,.11,.07,.16,.2,.12,.32-.04,.11-.14,.18-.25,.18Zm-9.35-4.26c2.57,1.63,5.25,2.78,7.99,3.44-1.4-.97-2.77-2.2-4.11-3.65-1.29,.1-2.59,.17-3.88,.22Zm2.44,3.97s-.04,0-.06,0c-3.63-.83-7.1-2.19-10.31-4.06-.11-.06-.16-.19-.12-.31,.04-.12,.14-.2,.27-.19,1.23,.07,2.54,.11,3.89,.12,.06,0,.12,.02,.16,.06,1.99,1.57,4.1,2.88,6.28,3.88,.13,.06,.19,.2,.14,.33-.04,.11-.14,.18-.25,.18Zm-9.11-3.98c2.16,1.17,4.43,2.11,6.78,2.82-1.41-.8-2.78-1.72-4.1-2.75-.92,0-1.81-.03-2.68-.06Zm25.02,3.98s-.1-.01-.14-.04c-.07-.04-.11-.1-.13-.18l-1.19-6.06c-.03-.15,.07-.29,.21-.32,3.01-.61,5.98-1.35,8.85-2.2,.1-.03,.21,0,.28,.08,.07,.08,.09,.19,.05,.28-1.92,4.5-4.63,7.41-7.85,8.41-.03,0-.05,.01-.08,.01Zm-.87-6.12l1.08,5.5c2.82-.99,5.23-3.57,7-7.49-2.63,.76-5.34,1.43-8.08,1.99Zm7.51,3.35c-.06,0-.13-.02-.18-.07-.11-.09-.12-.25-.04-.37,1.27-1.66,2.36-3.71,3.24-6.11,.03-.08,.09-.14,.17-.16,1.54-.49,3.08-1.03,4.57-1.59,.12-.05,.25,0,.32,.11,.07,.11,.05,.25-.04,.34l-7.87,7.77c-.05,.05-.12,.08-.19,.08Zm3.49-6.23c-.54,1.44-1.15,2.76-1.83,3.95l5.14-5.08c-1.09,.39-2.2,.77-3.31,1.13Zm2.81,3.36c-.08,0-.15-.03-.2-.09-.09-.1-.09-.26,0-.36,1.64-1.75,3.1-3.76,4.35-5.96,.03-.05,.08-.09,.13-.12,1.24-.52,2.44-1.05,3.56-1.58,.11-.05,.25-.02,.32,.07,.08,.1,.08,.23,0,.33-2.27,2.94-4.97,5.52-8.02,7.65-.05,.03-.1,.05-.15,.05Zm4.58-6.07c-.83,1.46-1.75,2.83-2.76,4.1,1.91-1.54,3.66-3.27,5.22-5.17-.79,.36-1.62,.72-2.46,1.07Zm-39.1,5.97c-.06,0-.15-.02-.19-.06-3.58-2.94-6.64-6.67-9.08-11.08-.05-.09-.04-.19,0-.28,.05-.08,.15-.13,.25-.12,2.71,.22,5.58,.3,8.51,.24,.12-.01,.21,.06,.25,.16,1.67,3.76,3.61,7.09,5.75,9.9,.16,.21,.32,.41,.48,.62,.06,.08,.08,.18,.04,.28-.04,.09-.13,.15-.23,.16-1.97,.13-3.91,.19-5.77,.19Zm-8.56-10.96c2.33,4.07,5.3,7.67,8.63,10.42,1.68,0,3.4-.05,5.15-.16-.06-.07-.11-.15-.17-.22-2.13-2.8-4.06-6.11-5.74-9.84-2.71,.05-5.35-.01-7.88-.2Zm5.73,10.91h0c-1.7-.06-3.36-.17-4.93-.33-.05,0-.09-.02-.13-.05-4.39-3.2-8.07-7.41-10.64-12.15-.05-.09-.04-.21,.02-.29,.06-.08,.17-.12,.28-.1,.26,.06,.53,.13,.8,.19,1.92,.43,4.03,.78,6.25,1.03,.09,0,.17,.06,.21,.14,2.23,4.29,5.04,8.02,8.34,11.09,.08,.08,.11,.2,.07,.3-.04,.1-.14,.17-.25,.17Zm-4.81-.86c1.32,.13,2.69,.23,4.11,.29-3.09-2.99-5.73-6.55-7.86-10.62-2.19-.25-4.26-.6-6.16-1.02-.07-.02-.14-.03-.21-.05,2.5,4.44,6,8.37,10.13,11.4Zm15.63,.55c-.08,0-.15-.03-.2-.09-.43-.5-.86-1.03-1.27-1.58-1.94-2.55-3.72-5.56-5.28-8.96-.04-.08-.03-.18,.01-.25,.05-.08,.13-.12,.22-.13,4.75-.21,9.68-.78,14.64-1.71,.14-.03,.29,.07,.31,.21l2.11,10.77c.01,.07,0,.14-.04,.2-.04,.06-.1,.1-.17,.11-3.45,.65-6.91,1.12-10.29,1.41h-.02Zm-6.1-10.49c1.51,3.21,3.2,6.07,5.05,8.49,.38,.5,.77,.98,1.16,1.45,3.23-.28,6.54-.74,9.83-1.35l-2-10.24c-4.76,.88-9.48,1.43-14.05,1.65Zm18.16,8.73c-.05,0-.1-.02-.15-.05-.06-.04-.1-.1-.11-.17l-2.11-10.77c-.03-.15,.07-.29,.21-.32,4.94-1.01,9.72-2.33,14.2-3.93,.08-.03,.18-.02,.25,.04,.07,.05,.11,.14,.11,.23-.17,3.73-.68,7.2-1.52,10.29-.18,.66-.38,1.31-.59,1.94-.03,.08-.09,.15-.18,.17-3.24,1-6.62,1.87-10.07,2.57-.02,0-.04,0-.05,0Zm-1.79-10.83l2,10.24c3.29-.68,6.52-1.51,9.62-2.46,.19-.57,.37-1.17,.53-1.78,.8-2.94,1.3-6.23,1.48-9.77-4.32,1.52-8.9,2.79-13.64,3.76Zm13.96,7.58c-.07,0-.14-.03-.19-.08-.07-.07-.1-.17-.07-.27,.07-.25,.14-.5,.21-.75,.92-3.4,1.46-7.21,1.59-11.33,0-.11,.07-.2,.17-.24,2.74-1.05,5.36-2.2,7.79-3.43,.09-.04,.19-.04,.28,.02,.08,.06,.12,.15,.11,.25-.6,5-2.03,9.61-4.24,13.68-.03,.05-.08,.1-.14,.12-1.73,.7-3.56,1.38-5.44,2.01-.03,0-.06,.01-.09,.01Zm2.08-12.23c-.14,4.09-.68,7.89-1.61,11.28-.02,.09-.05,.18-.07,.27,1.67-.57,3.29-1.17,4.83-1.8,2.05-3.81,3.45-8.26,4.07-12.91-2.27,1.13-4.69,2.19-7.22,3.16Zm5.93,9.13c-.07,0-.14-.03-.19-.08-.08-.08-.1-.2-.05-.3,1.9-4.09,3.09-8.61,3.54-13.42,0-.09,.06-.17,.14-.21,1.96-1.07,3.78-2.18,5.4-3.31,.23-.16,.45-.32,.67-.47,.09-.06,.2-.07,.29-.01,.09,.05,.14,.16,.13,.26-.59,5.36-2.42,10.64-5.28,15.26-.03,.04-.06,.07-.1,.1-1.39,.74-2.89,1.47-4.44,2.16-.04,.02-.07,.02-.11,.02Zm3.82-13.61c-.44,4.56-1.54,8.86-3.28,12.8,1.29-.59,2.53-1.2,3.69-1.82,2.69-4.37,4.45-9.32,5.09-14.38-.06,.04-.12,.08-.18,.13-1.6,1.11-3.39,2.21-5.32,3.27Zm-46.51,9.52c-2.61,0-5.17-.12-7.62-.37-.09,0-.17-.07-.21-.15-1.76-3.59-3.06-7.46-3.85-11.5-.19-.98-.36-2-.49-3.02-.01-.08,.02-.16,.08-.22,.06-.06,.14-.09,.22-.08,2.74,.31,5.67,.47,8.69,.47h.22c.13,0,.24,.09,.26,.22l.06,.32c.03,.18,.06,.35,.1,.53,.92,4.72,2.26,9.24,3.97,13.43,.03,.08,.02,.18-.02,.25-.05,.07-.13,.12-.22,.12-.4,0-.79,0-1.18,0Zm-7.42-.89c2.63,.26,5.39,.37,8.2,.35-1.65-4.12-2.95-8.55-3.85-13.16-.04-.18-.07-.36-.1-.54l-.02-.09c-2.92,0-5.75-.15-8.41-.43,.12,.9,.27,1.79,.44,2.65,.77,3.94,2.03,7.72,3.74,11.24Zm10.55,.83c-.11,0-.21-.06-.25-.16-1.8-4.28-3.2-8.93-4.16-13.83l-.1-.52c-.01-.08,0-.16,.06-.22,.05-.06,.12-.1,.2-.1,5.33-.12,10.89-.72,16.5-1.77,.14-.03,.28,.07,.31,.21l2.81,14.36c.01,.07,0,.14-.04,.2-.04,.06-.1,.1-.17,.11-5.16,.97-10.26,1.54-15.16,1.72h0Zm-3.92-14.31l.04,.21c.94,4.8,2.3,9.36,4.05,13.56,4.73-.18,9.65-.74,14.62-1.65l-2.71-13.83c-5.44,1.01-10.83,1.58-16.01,1.72Zm-8.95,13.75s-.02,0-.04,0c-1.76-.23-3.42-.52-4.94-.86-.77-.17-1.54-.37-2.29-.57-.08-.02-.14-.08-.17-.15-1.2-2.62-2.09-5.39-2.65-8.23-.26-1.33-.45-2.71-.56-4.1-.06-.7-.09-1.4-.11-2.08,0-.08,.04-.17,.1-.22,.07-.05,.15-.07,.24-.05,.67,.18,1.34,.35,2.01,.49l.13,.03c1.31,.29,2.75,.55,4.28,.77,.12,.02,.21,.11,.23,.23,.14,1.21,.33,2.41,.56,3.58,.73,3.76,1.9,7.38,3.46,10.78,.04,.09,.03,.19-.03,.27-.05,.07-.13,.11-.22,.11Zm-7.01-1.92c.7,.19,1.43,.37,2.15,.53,1.36,.3,2.84,.57,4.41,.79-1.48-3.3-2.59-6.82-3.3-10.45-.22-1.11-.4-2.26-.54-3.41-1.47-.21-2.85-.46-4.12-.74l-.13-.03c-.55-.12-1.12-.26-1.68-.41,.02,.56,.05,1.13,.1,1.69,.11,1.36,.3,2.72,.55,4.04,.54,2.76,1.4,5.44,2.55,7.99Zm36.78,.41c-.05,0-.1-.02-.15-.05-.06-.04-.1-.1-.11-.17l-2.81-14.36c-.03-.15,.07-.29,.21-.32,5.6-1.14,10.96-2.68,15.95-4.58,.07-.03,.16-.02,.23,.02,.07,.04,.12,.1,.13,.18l.11,.52c.96,4.9,1.42,9.74,1.36,14.38,0,.11-.07,.21-.18,.25-4.6,1.68-9.54,3.07-14.69,4.12-.02,0-.04,0-.05,0Zm-2.49-14.42l2.71,13.83c4.96-1.03,9.72-2.36,14.17-3.98,.04-4.55-.41-9.29-1.35-14.08l-.04-.21c-4.85,1.83-10.06,3.32-15.48,4.44Zm18.97,9.62c-.05,0-.11-.02-.15-.05-.07-.05-.12-.13-.12-.22,0-4.53-.46-9.22-1.39-13.93-.04-.18-.07-.36-.11-.54l-.06-.3c-.03-.13,.04-.26,.16-.3,2.88-1.16,5.6-2.44,8.08-3.8,.07-.04,.16-.04,.24-.01,.08,.03,.13,.1,.15,.18,.26,1,.49,2,.69,2.98,.79,4.04,1.05,8.11,.77,12.11,0,.09-.06,.18-.14,.22-2.51,1.32-5.2,2.55-8.02,3.65-.03,.01-.06,.02-.1,.02Zm-1.26-14.94l.02,.08c.04,.18,.08,.36,.11,.55,.9,4.62,1.37,9.2,1.39,13.64,2.61-1.04,5.12-2.18,7.46-3.41,.26-3.9,0-7.87-.77-11.82-.17-.86-.37-1.74-.59-2.62-2.36,1.27-4.92,2.47-7.63,3.57Zm11.14,10.26s-.1-.01-.14-.04c-.08-.05-.13-.14-.13-.24,.17-3.73-.12-7.53-.85-11.29-.23-1.16-.51-2.35-.83-3.53-.03-.12,.02-.24,.12-.3,1.33-.78,2.57-1.56,3.68-2.32l.11-.07c.56-.39,1.12-.8,1.67-1.21,.07-.05,.16-.07,.24-.04,.08,.02,.15,.08,.18,.16,.24,.64,.47,1.3,.68,1.97,.42,1.32,.76,2.67,1.02,4.01,.56,2.84,.77,5.74,.65,8.62,0,.08-.04,.15-.1,.2-.62,.48-1.26,.95-1.91,1.4-1.27,.88-2.7,1.78-4.25,2.66-.04,.02-.09,.04-.13,.04Zm-1.38-15.03c.3,1.12,.57,2.25,.78,3.36,.71,3.63,1.01,7.31,.88,10.93,1.37-.8,2.64-1.6,3.79-2.39,.61-.42,1.21-.86,1.79-1.3,.11-2.8-.11-5.61-.65-8.37-.26-1.32-.6-2.64-1.01-3.95-.17-.54-.35-1.08-.55-1.6-.46,.35-.93,.69-1.4,1.01l-.11,.07c-1.07,.74-2.26,1.49-3.53,2.24Zm-48.3,10.47h0c-3.09,0-6.07-.18-8.87-.51-.13-.02-.22-.12-.24-.24-.32-3.56-.22-7.1,.29-10.53,.02-.14,.15-.24,.29-.23,2.44,.19,5,.26,7.61,.22,.07,0,.14,.03,.19,.08,.05,.05,.08,.12,.08,.19,.03,3.48,.34,7.08,.92,10.71,.01,.08,0,.16-.06,.22-.05,.06-.13,.09-.2,.09Zm-8.59-1.02c2.62,.31,5.4,.47,8.27,.48-.54-3.46-.83-6.89-.87-10.21-2.45,.03-4.85-.04-7.14-.2-.46,3.23-.55,6.57-.26,9.93Zm10.44,1c-.13,0-.24-.1-.27-.23-.6-3.67-.92-7.31-.94-10.82,0-.15,.11-.27,.26-.27,1.26-.05,2.52-.12,3.76-.21,3.79-.29,7.68-.8,11.54-1.52,.14-.02,.28,.07,.31,.21l2.11,10.77c.01,.07,0,.14-.04,.2-.04,.06-.1,.1-.17,.11-5.65,1.06-11.22,1.65-16.56,1.76h0Zm-.67-10.79c.04,3.33,.34,6.77,.9,10.25,5.15-.12,10.52-.69,15.97-1.69l-2-10.24c-3.8,.7-7.61,1.2-11.34,1.48-1.16,.09-2.34,.16-3.52,.2Zm-11.87,10.05s-.03,0-.04,0c-.68-.1-1.35-.21-2-.33-.63-.12-1.25-.24-1.86-.38-.21-.05-.41-.09-.61-.14-.66-.16-1.25-.31-1.82-.47-.12-.03-.2-.14-.2-.27,.09-3.34,.65-6.64,1.64-9.83,.04-.13,.17-.21,.31-.18,1.56,.29,3.21,.52,4.92,.69,.07,0,.14,.04,.18,.1,.05,.06,.06,.13,.05,.2-.49,3.36-.6,6.83-.32,10.31,0,.08-.02,.16-.08,.22-.05,.05-.12,.07-.18,.07Zm-5.98-1.79c.49,.14,1.01,.27,1.55,.39,.25,.06,.45,.11,.65,.15,.6,.13,1.22,.26,1.84,.38,.54,.1,1.09,.19,1.65,.28-.24-3.32-.14-6.62,.31-9.82-1.54-.16-3.04-.38-4.45-.63-.92,3-1.43,6.11-1.54,9.25Zm36.83,.43c-.05,0-.1-.02-.15-.05-.06-.04-.1-.1-.11-.17l-2.11-10.77c-.03-.15,.07-.29,.21-.32,3.85-.79,7.64-1.78,11.27-2.94,1.18-.38,2.38-.79,3.57-1.22,.14-.05,.29,.02,.34,.15,1.3,3.26,2.38,6.75,3.21,10.38,.03,.13-.04,.26-.17,.31-4.98,1.91-10.37,3.46-16,4.61-.02,0-.04,0-.05,0Zm-1.79-10.83l2,10.24c5.42-1.12,10.61-2.62,15.43-4.45-.79-3.43-1.81-6.73-3.03-9.83-1.11,.4-2.23,.78-3.34,1.14-3.56,1.14-7.28,2.12-11.06,2.9Zm19.47,5.55s-.09,0-.12-.03c-.07-.04-.12-.1-.14-.18-.83-3.59-1.91-7.04-3.19-10.27-.03-.07-.03-.14,0-.21,.03-.07,.08-.12,.15-.14,2.44-.94,4.78-1.98,6.97-3.07,.13-.06,.28-.02,.35,.1,1.76,2.98,3.18,6.22,4.23,9.64,.04,.12-.02,.25-.13,.31-2.47,1.37-5.17,2.65-8.02,3.82-.03,.01-.07,.02-.1,.02Zm-2.85-10.42c1.21,3.09,2.24,6.38,3.04,9.79,2.66-1.1,5.17-2.29,7.48-3.56-1-3.22-2.34-6.28-3.99-9.1-2.06,1.02-4.26,1.99-6.54,2.88Zm12.47,5.69s-.06,0-.1-.02c-.08-.03-.14-.09-.16-.17-1.06-3.34-2.46-6.51-4.18-9.43-.04-.06-.05-.14-.03-.21,.02-.07,.07-.13,.13-.16,1.52-.81,2.97-1.65,4.3-2.5,.12-.07,.27-.05,.35,.06,2.12,2.58,3.88,5.43,5.23,8.49,.05,.11,.02,.25-.08,.32-.46,.36-.95,.72-1.47,1.09-.18,.13-.36,.26-.55,.39-.51,.36-1.04,.71-1.58,1.05-.56,.36-1.14,.71-1.73,1.06-.04,.03-.09,.04-.14,.04Zm-3.83-9.65c1.62,2.79,2.96,5.81,3.99,8.98,.48-.29,.96-.58,1.42-.88,.53-.34,1.06-.69,1.56-1.04,.18-.13,.36-.26,.54-.39,.45-.32,.88-.64,1.28-.95-1.28-2.86-2.93-5.55-4.91-7.98-1.22,.77-2.52,1.53-3.89,2.26Zm-45.98,9.22c-2.02,0-4.01-.07-5.91-.22-.08,0-.15-.04-.19-.1-.05-.06-.06-.14-.05-.21,.74-3.83,1.99-7.4,3.71-10.6,.05-.09,.14-.14,.24-.14,1.62,0,3.29-.06,4.95-.15,.09,0,.17,.03,.22,.1,.05,.07,.08,.15,.06,.24-.78,3.29-1.22,6.93-1.3,10.82,0,.14-.12,.26-.26,.26-.49,0-.97,.01-1.45,.01Zm-5.57-.73c2.17,.15,4.44,.22,6.75,.18,.09-3.69,.51-7.16,1.23-10.32-1.5,.08-3,.12-4.46,.13-1.61,3.04-2.79,6.4-3.52,10.01Zm8.84,.67c-.07,0-.14-.03-.19-.08-.05-.05-.08-.12-.08-.2,.09-3.98,.56-7.69,1.41-11.02,.03-.11,.13-.19,.24-.2,3.77-.29,7.62-.8,11.44-1.51,.14-.02,.28,.07,.31,.21l2.11,10.77c.01,.07,0,.14-.04,.2-.04,.06-.1,.1-.17,.11-5.1,.95-10.15,1.53-15.02,1.71h-.01Zm1.62-10.97c-.79,3.16-1.24,6.67-1.34,10.42,4.67-.19,9.51-.74,14.39-1.64l-2-10.24c-3.7,.68-7.41,1.17-11.05,1.46Zm-12.61,10.66h-.03c-1.66-.17-3.23-.39-4.67-.64-.08-.01-.15-.06-.19-.13-.04-.07-.05-.15-.02-.23,.04-.11,.08-.21,.12-.32l.05-.12c.38-.99,.8-1.96,1.25-2.89,1.13-2.33,2.51-4.54,4.1-6.58,.05-.07,.14-.11,.23-.1,.84,.05,1.73,.08,2.64,.1,.09,0,.18,.05,.22,.13,.05,.08,.05,.18,.01,.26-1.59,3.16-2.75,6.62-3.45,10.31-.02,.13-.14,.22-.26,.22Zm-4.29-1.12c1.27,.22,2.64,.41,4.07,.55,.69-3.5,1.78-6.8,3.26-9.83-.72-.02-1.42-.05-2.09-.08-1.53,1.98-2.86,4.12-3.95,6.37-.45,.92-.86,1.87-1.23,2.85l-.05,.13h0Zm32.05-.62c-.05,0-.1-.02-.15-.05-.06-.04-.1-.1-.11-.17l-2.11-10.77c-.03-.15,.07-.29,.21-.32,3.82-.78,7.57-1.76,11.17-2.91,.11-.03,.23,0,.3,.1,2.04,2.77,3.87,6.02,5.46,9.67,.03,.07,.03,.15,0,.21-.03,.07-.09,.12-.16,.15-4.58,1.67-9.48,3.04-14.56,4.08-.02,0-.04,0-.05,0Zm-1.79-10.83l2,10.24c4.86-1,9.55-2.32,13.95-3.9-1.51-3.44-3.25-6.52-5.17-9.15-3.48,1.11-7.1,2.05-10.78,2.81Zm18.02,6.12c-.1,0-.2-.06-.25-.16-1.54-3.57-3.32-6.78-5.29-9.53-.05-.07-.06-.16-.04-.24,.03-.08,.09-.14,.17-.17,1.57-.54,3.14-1.12,4.65-1.73,.09-.04,.2-.02,.27,.04,2.8,2.32,5.3,5.15,7.43,8.42,.04,.06,.05,.14,.03,.22-.02,.07-.07,.14-.14,.17-2.12,1.05-4.39,2.05-6.74,2.96-.03,.01-.06,.02-.1,.02Zm-4.89-9.71c1.86,2.65,3.55,5.71,5.03,9.1,2.16-.84,4.23-1.75,6.19-2.71-2.03-3.07-4.4-5.74-7.03-7.95-1.36,.55-2.77,1.07-4.18,1.56Zm13.24,5.92c-.09,0-.18-.04-.23-.12-2.04-3.15-4.42-5.92-7.08-8.25-.07-.06-.1-.15-.09-.24,.01-.09,.07-.17,.16-.21,.83-.36,1.64-.72,2.41-1.08,.08-.04,.17-.03,.25,.01,2.24,1.29,4.35,2.82,6.27,4.55,.77,.69,1.53,1.43,2.25,2.21l.32,.35c.05,.06,.08,.14,.07,.22-.01,.08-.06,.15-.12,.19-1.24,.78-2.62,1.58-4.09,2.36-.04,.02-.08,.03-.13,.03Zm-6.63-8.5c2.51,2.25,4.77,4.89,6.72,7.87,1.27-.68,2.46-1.37,3.56-2.05l-.1-.1c-.71-.76-1.46-1.49-2.22-2.17-1.86-1.67-3.9-3.16-6.06-4.41-.62,.29-1.25,.58-1.91,.86Zm-41.27,6.55h0c-.73,0-1.46-.02-2.17-.04-.1,0-.2-.07-.24-.16-.04-.1-.02-.21,.05-.28,1.92-2.16,4.09-4.1,6.46-5.76,.11-.08,.27-.06,.36,.04,.09,.1,.09,.26,0,.36-1.57,1.68-2.99,3.6-4.21,5.71-.05,.08-.14,.13-.23,.13Zm-1.58-.56c.47,.01,.95,.02,1.42,.02,.78-1.34,1.65-2.61,2.58-3.78-1.43,1.15-2.76,2.41-4,3.76Zm3.7,.55c-.1,0-.19-.05-.23-.14-.05-.09-.05-.19,0-.27,2.3-3.69,5.16-6.62,8.5-8.71,.11-.07,.25-.05,.34,.05,.09,.1,.09,.24,.01,.34-1.66,2.16-3,4.98-3.98,8.36-.03,.11-.13,.19-.24,.19-1.46,.09-2.94,.15-4.41,.17h0Zm7.36-7.86c-2.64,1.88-4.94,4.34-6.87,7.31,1.23-.03,2.47-.08,3.69-.15,.82-2.78,1.89-5.18,3.17-7.16Zm-1.02,7.55c-.08,0-.16-.04-.21-.1-.06-.07-.07-.16-.05-.25,1.92-6.15,4.99-10.04,8.89-11.25,.07-.02,.15-.01,.22,.03,.07,.04,.11,.1,.13,.18l1.88,9.63c.01,.07,0,.14-.04,.2-.04,.06-.1,.1-.17,.11-3.61,.67-7.18,1.16-10.63,1.45h-.02Zm8.51-10.99c-3.51,1.23-6.31,4.83-8.13,10.42,3.22-.28,6.55-.74,9.91-1.36l-1.77-9.06Zm3.88,9.2c-.05,0-.1-.02-.15-.05-.06-.04-.1-.1-.11-.17l-1.88-9.63c-.01-.08,0-.15,.05-.21,.05-.06,.12-.1,.19-.11,4.06-.35,8.41,2.13,12.48,7.07,.06,.07,.08,.16,.05,.25-.03,.09-.09,.15-.18,.18-3.3,1.03-6.79,1.93-10.39,2.66-.02,0-.04,0-.05,0Zm-1.56-9.65l1.77,9.06c3.35-.69,6.6-1.52,9.69-2.47-3.78-4.48-7.75-6.77-11.46-6.59Zm13.78,6.39c-.08,0-.16-.04-.21-.1-2.19-2.76-4.49-4.86-6.84-6.24-.11-.07-.16-.2-.12-.32,.05-.12,.17-.19,.3-.17,3.88,.68,7.63,2.31,11.16,4.86,.08,.06,.12,.15,.11,.25-.01,.1-.08,.18-.17,.22-1.37,.53-2.77,1.04-4.15,1.5-.03,0-.06,.01-.09,.01Zm-5.55-6.02c1.94,1.35,3.83,3.17,5.64,5.44,1.16-.39,2.32-.81,3.48-1.25-2.91-2.03-5.96-3.44-9.12-4.19Zm11.65,3.74c-.06,0-.12-.02-.17-.06-1.92-1.49-3.96-2.74-6.05-3.7-.13-.06-.19-.2-.14-.33,.04-.13,.18-.21,.31-.18,2.82,.64,5.56,1.62,8.15,2.9,.09,.05,.15,.14,.15,.25,0,.1-.06,.2-.16,.24-.65,.29-1.32,.58-1.99,.86-.03,.01-.07,.02-.1,.02Zm-3.77-3.11c1.31,.74,2.58,1.59,3.81,2.53,.44-.18,.88-.37,1.31-.56-1.65-.79-3.37-1.45-5.12-1.98Z"/></g><path class="c" d="M63.87,100.86c-.88,0-1.77-.03-2.65-.09-10.47-.7-20.05-5.43-26.96-13.33-6.91-7.9-10.33-18.01-9.64-28.48,1.37-20.57,18.57-36.68,39.17-36.68,.88,0,1.77,.03,2.65,.09,10.47,.7,20.05,5.43,26.96,13.33,6.91,7.9,10.33,18.01,9.64,28.49-1.37,20.57-18.57,36.68-39.17,36.68Zm-.08-76.43c-19.46,0-35.72,15.23-37.02,34.67-.66,9.9,2.58,19.46,9.11,26.92,6.53,7.46,15.58,11.94,25.48,12.6,.83,.06,1.67,.08,2.5,.08,19.46,0,35.72-15.23,37.02-34.67,.66-9.9-2.58-19.46-9.11-26.92-6.53-7.46-15.58-11.94-25.48-12.6-.83-.06-1.67-.08-2.5-.08Z"/><path class="b" d="M114.67,76.93c-.15,.07-.31,.14-.46,.21l-2.41,1.18c-5.09,2.48-9.9,5.5-14.4,8.94-4.61,3.53-8.86,7.39-13.91,10.32-2.94,1.96-6.33,3.29-9.71,4.27-2.14,.62-4.34,1.06-6.57,1.32l-.83,.1-.8,.06c-.28,.02-.5,.05-.83,.06l-.93,.04-.46,.02h-1.2c-.56,0-1.13,0-1.69-.04-.56-.04-1.13-.04-1.69-.11l-1.68-.18-1.67-.26c-.56-.08-1.11-.22-1.66-.33-2.2-.48-4.37-1.14-6.48-1.97-4.2-1.7-8.14-4.08-11.6-7.06-3.44-3-6.44-6.54-8.75-10.52-2.3-3.97-3.99-8.33-4.86-12.88l-.17-.85-.13-.86c-.07-.57-.19-1.16-.23-1.71l-.17-1.68-.08-1.86-.02-.39v-1.31c0-.29,0-.58,.01-.87l.05-.87c.04-1.16,.18-2.32,.32-3.48,.64-4.62,2.03-9.15,4.16-13.34,2.14-4.17,4.93-8.05,8.34-11.33,3.4-3.29,7.33-6.06,11.65-8.07,2.15-1.01,4.39-1.85,6.69-2.5,2.3-.63,4.67-1.08,7.03-1.34,.59-.05,1.16-.13,1.77-.16l1.86-.08c.54-.02,1.18-.01,1.77-.01,.6,.02,1.2,.02,1.8,.07,2.4,.14,4.8,.47,7.15,1.01,1.32,.3,2.63,.67,3.92,1.1,9.86,3.47,18.34,10.41,23.63,19.78,3.68,6.52,5.63,13.95,5.63,21.48h2.18c0-7.91-2.04-15.71-5.91-22.56-5.29-9.37-13.62-16.42-23.34-20.22-1.8-.74-3.65-1.38-5.54-1.88-2.46-.67-4.97-1.11-7.51-1.36-.63-.07-1.27-.1-1.91-.15-.65-.03-1.25-.06-1.94-.06h-1.86c-.62,.02-1.29,.07-1.93,.11-2.58,.18-5.1,.55-7.61,1.14-2.5,.6-4.95,1.41-7.32,2.41-4.76,1.99-9.16,4.83-13.03,8.28-3.88,3.44-7.14,7.59-9.7,12.14-2.55,4.56-4.31,9.57-5.24,14.73-.21,1.3-.41,2.6-.51,3.91l-.09,.98c-.02,.33-.03,.66-.05,.98l-.04,.99-.02,.49v2.4l.12,2.03c.03,.69,.13,1.32,.19,1.99l.11,.98,.16,.98c.79,5.23,2.52,10.32,5,15.02,2.48,4.7,5.8,8.97,9.69,12.64,3.91,3.65,8.44,6.65,13.35,8.87,2.46,1.09,5.02,1.98,7.63,2.66,.66,.16,1.31,.35,1.97,.47l1.99,.39,2.01,.29c.67,.11,1.34,.14,2.02,.21,.67,.08,1.35,.11,2.02,.13l1.01,.04h.32c.06,.01-.04,.02,.14,.01h1.51c.29,0,.69-.02,1.03-.03l1.06-.04,1.02-.07c2.71-.21,5.4-.64,8.05-1.29,9.51-2.34,17.1-8.48,25.5-13.14,8.43-4.68,17.28-8.6,26.4-11.71,11.58-3.95,32.78-6.34,45.51-6.34v-15.32s-34.52,.45-58.81,13.03Z"/></g><g><path class="d" d="M26.37,126.02c.01,.42,.03,.75,.04,.97,.01,.22,.02,.42,.02,.59v.14c.01,.08,.02,.15,.02,.22v.25c.01,.36,.04,.86,.07,1.5,.03,.64,.09,1.3,.17,1.99,.12,1.02,.3,1.95,.55,2.8,.24,.84,.58,1.26,1.01,1.26,.19,0,.37-.07,.55-.2,.18-.13,.33-.27,.47-.41,.03-.03,.05-.06,.07-.08,.02-.02,.04-.05,.07-.08,.15-.17,.56-.7,1.23-1.58,.67-.88,1.39-2.07,2.16-3.56,.28-.55,.57-1.14,.85-1.78,.28-.64,.55-1.31,.81-2.02h2.33c-.09,.35-.18,.65-.24,.92-.07,.27-.14,.53-.2,.8-.01,.08-.03,.17-.05,.26-.02,.09-.04,.18-.05,.26-.04,.19-.08,.38-.12,.57-.04,.19-.08,.4-.12,.64-.01,.08-.03,.16-.05,.24-.02,.08-.04,.16-.05,.24,0,.02,0,.04-.01,.06,0,.02-.01,.05-.01,.08-.12,.55-.27,1.2-.44,1.93-.17,.74-.46,1.93-.86,3.56-.07,.27-.13,.51-.18,.72-.05,.21-.11,.43-.16,.65-.05,.24-.11,.48-.17,.73-.06,.25-.13,.54-.21,.87,.19-.06,.36-.12,.52-.17,.16-.05,.31-.09,.46-.14,.12-.03,.24-.07,.34-.12,.11-.05,.22-.09,.34-.14,.19-.08,.39-.18,.61-.29,.22-.12,.45-.27,.71-.46l-.55,2.03c-.05,.03-.1,.06-.15,.09-.05,.03-.09,.06-.13,.07-.41,.24-.82,.43-1.26,.58-.43,.15-.92,.29-1.46,.41-.54,1.71-1.22,3.09-2.05,4.13-.82,1.04-1.68,1.83-2.57,2.38-.76,.47-1.5,.8-2.22,.98-.72,.18-1.35,.27-1.89,.27-1.04,0-1.84-.21-2.41-.64-.57-.42-.95-.89-1.13-1.39-.05-.16-.09-.31-.12-.45-.03-.14-.04-.28-.04-.4,0-1.15,.33-2.06,.98-2.74,.65-.68,1.37-1.2,2.16-1.56,.53-.24,1.04-.42,1.53-.54,.49-.13,.88-.22,1.17-.28,.42-.09,.81-.18,1.16-.25,.36-.07,.71-.15,1.06-.22,.13-.02,.27-.04,.42-.07,.14-.03,.29-.06,.44-.09,.26-.05,.52-.09,.79-.14,.27-.05,.56-.09,.87-.14l2.01-6.86h-.22c-.16,.33-.37,.71-.64,1.14-.26,.43-.55,.88-.86,1.33-.32,.47-.67,.93-1.04,1.37-.37,.44-.75,.83-1.14,1.16-.31,.27-.62,.48-.92,.64-.3,.16-.6,.24-.88,.24-.78,0-1.39-.36-1.82-1.09-.43-.72-.76-1.52-.97-2.41-.09-.36-.18-.73-.24-1.1s-.13-.7-.18-1c-.04-.25-.08-.5-.12-.74-.04-.24-.07-.48-.1-.72-.08-.57-.15-1.14-.2-1.71-.05-.57-.08-1.18-.08-1.83,0-.27,0-.53,.02-.8,.01-.27,.03-.55,.04-.85h2.33Zm2.89,15.42c-.56,.12-1.14,.26-1.73,.44-1.11,.31-2.12,.74-3.05,1.27-.93,.53-1.39,1.25-1.39,2.15,0,.33,.16,.62,.47,.86,.31,.24,.72,.37,1.22,.37,.31,0,.64-.06,.99-.17,.35-.11,.71-.27,1.07-.47,.78-.46,1.54-1.1,2.26-1.93,.72-.83,1.27-1.78,1.63-2.83-.42,.09-.91,.2-1.47,.32Z"/><path class="d" d="M42.21,144.39c-.11-.02-.22-.03-.33-.04-.11,0-.23-.02-.33-.04-.86-.16-1.66-.59-2.38-1.3-.72-.71-1.08-1.72-1.08-3.04,0-1.65,.68-3.11,2.03-4.39,1.35-1.27,2.9-1.91,4.66-1.91,1.12,0,2,.42,2.62,1.25,.63,.83,.94,1.82,.94,2.97,0,1.59-.44,2.9-1.32,3.93-.88,1.03-1.84,1.74-2.9,2.13-.32,.14-.65,.24-.97,.31-.32,.06-.63,.09-.93,.09v.02Zm2.54-3.14c.63-.83,1.02-1.75,1.16-2.76,.01-.13,.02-.25,.03-.37,0-.12,.01-.24,.01-.37,0-.64-.13-1.12-.39-1.43-.26-.31-.56-.52-.88-.63-.15-.06-.29-.1-.43-.12-.13-.02-.26-.02-.39-.02-.74,0-1.37,.3-1.87,.9-.51,.6-.89,1.25-1.14,1.96-.14,.38-.24,.75-.3,1.11s-.1,.68-.1,.94c0,.58,.18,1.07,.53,1.45,.35,.39,.82,.58,1.42,.58,.95,0,1.73-.42,2.36-1.25Z"/><path class="d" d="M58.18,140.71c-.09,.38-.16,.66-.18,.84-.03,.18-.04,.33-.04,.46,0,.2,.03,.34,.08,.41,.05,.07,.12,.11,.2,.13h.22c.14-.03,.31-.11,.54-.24,.22-.13,.66-.4,1.31-.83l.02,1.18c.01,.31-.18,.61-.57,.87-.39,.27-.82,.47-1.28,.61-.2,.06-.4,.11-.6,.15-.2,.04-.37,.06-.54,.06-.47,0-.83-.11-1.06-.32-.24-.21-.38-.44-.44-.7,0-.05,0-.09,0-.13,0-.04-.01-.08-.01-.13,0-.24,.02-.52,.07-.86,.05-.34,.11-.69,.19-1.05,.04-.2,.08-.41,.13-.61,.05-.2,.1-.4,.15-.59,.04-.13,.08-.25,.11-.38,.03-.13,.07-.24,.11-.33l.34-.99h-.14c-.08,.22-.17,.45-.26,.68-.09,.24-.2,.47-.32,.71-.39,.79-.87,1.54-1.43,2.26-.56,.72-1.14,1.31-1.73,1.75-.31,.2-.61,.37-.91,.5-.3,.13-.58,.19-.85,.19-.45,0-.84-.21-1.18-.62-.34-.42-.52-1.02-.52-1.8,0-.25,.04-.53,.12-.84,.08-.31,.19-.71,.32-1.21l1.52-5.76h2.03l-1.64,6.2s-.02,.09-.03,.12c0,.03-.01,.06-.01,.09v.02s-.03,.1-.04,.15c-.01,.06-.04,.15-.08,.27-.03,.11-.05,.23-.08,.37-.03,.13-.04,.29-.04,.46,0,.14,.02,.26,.07,.37,.05,.1,.15,.15,.29,.15,.16,0,.34-.05,.53-.15,.19-.1,.38-.23,.59-.39,.15-.13,.3-.27,.45-.42,.15-.16,.29-.31,.43-.47,.19-.2,.36-.4,.51-.59,.15-.19,.28-.35,.39-.5,.55-.74,1.07-1.56,1.56-2.47,.49-.9,.9-1.98,1.24-3.22h2.01l-1.52,6.58Z"/><path class="d" d="M70.03,136.61c-.22,.09-.41,.18-.58,.27-.17,.09-.33,.17-.48,.25-.07,.03-.13,.07-.19,.11-.06,.04-.12,.08-.17,.11-.13,.08-.26,.16-.39,.24-.12,.08-.26,.17-.4,.26-.07,.05-.13,.09-.18,.12s-.11,.06-.16,.09c-.07,.05-.15,.1-.23,.15-.09,.06-.2,.12-.33,.2-.14,.08-.34,.21-.63,.39-.28,.18-.59,.4-.91,.65-.22,.16-.43,.33-.65,.53-.22,.2-.41,.39-.57,.58-.14,.17-.24,.34-.32,.5-.08,.16-.12,.31-.12,.47,0,.05,0,.09,.01,.13,0,.04,.02,.08,.05,.13,.07,.19,.21,.36,.44,.51,.22,.15,.52,.22,.9,.22,.16,0,.33-.02,.52-.05,.18-.03,.36-.07,.54-.12,.26-.06,.51-.14,.75-.24,.24-.09,.47-.2,.67-.31,.28-.13,.53-.25,.73-.37,.2-.12,.35-.21,.45-.27,.07-.03,.13-.06,.18-.08,.05-.02,.1-.04,.14-.04,.07,0,.12,.03,.16,.08,.04,.05,.06,.15,.06,.27,0,.03,0,.06,0,.08,0,.02-.01,.05-.01,.08-.01,.02-.02,.03-.03,.05,0,.02-.01,.03-.01,.05-.01,.02-.02,.04-.03,.06,0,.02-.01,.04-.01,.06l-.2,.94c-1.03,.79-1.96,1.26-2.81,1.42-.84,.16-1.51,.24-2,.24-.78,0-1.38-.17-1.79-.5-.41-.33-.7-.69-.86-1.09-.08-.17-.14-.34-.16-.51-.03-.17-.04-.32-.04-.46,0-.77,.31-1.5,.93-2.18,.62-.68,1.3-1.29,2.03-1.8,.58-.39,1.13-.72,1.64-.99,.51-.27,.88-.46,1.11-.57l.79-.35v-.21c-.18,.08-.36,.15-.57,.21-.2,.06-.41,.12-.61,.17-.41,.09-.79,.16-1.15,.19-.36,.03-.65,.05-.85,.05s-.38-.02-.55-.06c-.16-.04-.31-.08-.45-.13l-.73,1.08h-.89c-.16,0-.31-.02-.44-.05-.13-.03-.19-.13-.19-.28,0-.03,0-.07,.01-.11,0-.04,.02-.07,.03-.11,.03-.06,.05-.12,.08-.18,.03-.05,.06-.11,.1-.18,0-.02,0-.03,.01-.04l.03-.04s.03-.06,.04-.07l.04-.05s.03-.04,.05-.07c.02-.03,.04-.07,.07-.12,.03-.05,.05-.09,.07-.12,.02-.03,.04-.06,.05-.09l.02-.02,.05-.06s.04-.05,.05-.08c-.05-.05-.1-.1-.13-.15-.03-.05-.06-.11-.09-.18-.04-.06-.07-.12-.08-.18-.01-.05-.03-.11-.04-.15s-.02-.09-.03-.14c0-.05,0-.09,0-.14v-.14s0-.09,.02-.12c.03-.17,.09-.36,.18-.57,.09-.2,.22-.41,.38-.61,.18-.24,.4-.46,.66-.67,.26-.21,.56-.41,.9-.6h1.6l-.89,2.36c.12,.03,.24,.06,.35,.08,.11,.02,.23,.05,.33,.08,.18,.02,.35,.03,.53,.05,.18,.02,.35,.02,.53,.02,.2,0,.51-.02,.93-.05,.42-.03,.86-.07,1.32-.12,.08-.02,.16-.03,.24-.04,.08,0,.16-.01,.24-.01,.3-.03,.57-.06,.83-.09,.26-.03,.48-.06,.67-.07l-.57,2.48Z"/><path class="d" d="M89.21,137.62c-.08,.41-.19,.89-.32,1.45-.14,.56-.32,1.14-.57,1.73-.39,1.01-.98,1.93-1.77,2.76-.79,.83-1.89,1.3-3.29,1.42-.04,0-.08,0-.12,.01-.04,0-.07,.01-.1,.01h-.45s-.08-.02-.11-.02h-.11c-.3-.02-.52-.04-.67-.07-.15-.03-.26-.07-.32-.12-.01-.02-.03-.03-.04-.03-.01,0-.03-.02-.04-.04-.03-.03-.04-.06-.05-.09,0-.03-.01-.06-.01-.09v-1.11s.06,0,.09,.01c.03,0,.07,.02,.11,.04,.12,.02,.25,.04,.39,.06,.14,.02,.29,.04,.46,.04,.07,.02,.13,.02,.2,.02h.2c1.5,0,2.6-.69,3.29-2.08,.7-1.38,1.25-3.09,1.65-5.12l1.46-7.24c-.47,.09-.99,.2-1.55,.32-.56,.12-1.12,.26-1.69,.41-1.31,.38-2.51,.92-3.61,1.63-1.09,.71-1.64,1.69-1.64,2.95,0,.14,.01,.3,.03,.47,.02,.17,.06,.35,.11,.54,.13,.43,.39,.82,.78,1.18,.39,.36,.98,.54,1.79,.54,.18,0,.36-.01,.57-.04,.2-.02,.41-.06,.63-.11l-.3,1.09c-.11,.03-.21,.06-.31,.08-.1,.02-.21,.04-.31,.06-.24,.05-.49,.07-.74,.08-.25,0-.51,.01-.78,.01-1.04,0-1.84-.22-2.4-.67-.56-.45-.96-.94-1.19-1.47-.09-.24-.16-.46-.2-.68-.04-.22-.06-.43-.06-.61,0-.31,.03-.64,.09-.98,.06-.34,.17-.67,.31-1,.24-.55,.62-1.09,1.14-1.62,.52-.53,1.24-1.02,2.16-1.47,.16-.08,.33-.16,.52-.24,.18-.08,.37-.16,.58-.24,.81-.31,1.87-.63,3.19-.93,1.32-.31,3.02-.6,5.12-.88l-2.11,10.05Z"/><path class="d" d="M91.83,143.95l2.01-9.81h2.03l-1.11,5.17h.08c.31-.85,.75-1.67,1.31-2.48,.56-.8,1.15-1.47,1.77-2.01,.39-.35,.78-.62,1.17-.83,.39-.2,.74-.31,1.05-.31,.41,0,.77,.17,1.1,.52,.33,.35,.5,.83,.5,1.46,0,.16,0,.31-.02,.46-.01,.15-.03,.3-.06,.46,0,.02,0,.04-.01,.06,0,.02-.01,.04-.01,.06-.05,.3-.13,.62-.22,.97-.09,.35-.22,.82-.38,1.42-.23,.85-.39,1.42-.47,1.7-.08,.28-.14,.51-.18,.68v.02s0,.04-.01,.07c0,.03-.01,.06-.01,.07v.27s0,.08,.02,.11c.03,.16,.08,.27,.17,.35,.09,.08,.2,.12,.33,.12,.05,0,.2-.03,.44-.09,.24-.06,.69-.27,1.35-.61v.92c0,.11,0,.21-.02,.29-.01,.09-.05,.18-.12,.27-.07,.09-.19,.19-.38,.29-.18,.1-.44,.22-.78,.37-.3,.11-.58,.21-.85,.31-.27,.09-.52,.14-.75,.14-.08,0-.18-.02-.3-.05-.12-.03-.25-.08-.38-.14-.23-.13-.44-.32-.62-.59-.18-.27-.27-.66-.27-1.18,0-.08,0-.15,.01-.22,0-.07,.02-.15,.03-.22,.01-.06,.03-.13,.04-.21,.01-.08,.03-.15,.04-.21,.05-.25,.11-.5,.18-.75,.07-.25,.14-.5,.2-.76,.03-.08,.05-.16,.07-.24,.02-.08,.04-.16,.07-.24,.3-.99,.49-1.68,.57-2.06,.08-.39,.12-.66,.12-.81v-.13s0-.07-.02-.11c-.01-.09-.05-.18-.1-.25-.05-.07-.15-.11-.28-.11-.16,0-.34,.06-.54,.18-.2,.12-.4,.27-.62,.46-.12,.11-.25,.23-.37,.37-.13,.13-.25,.27-.37,.41-.15,.16-.29,.32-.42,.48-.13,.17-.24,.31-.33,.44-.15,.2-.31,.43-.48,.68-.17,.25-.33,.53-.5,.83-.32,.57-.63,1.18-.92,1.84-.29,.66-.51,1.34-.66,2.03-.01,.02-.02,.04-.03,.06,0,.02-.01,.05-.01,.08h-2.05Z"/><path class="d" d="M103.68,143.95l2.01-9.81h2.03l-1.11,5.17h.08c.31-.85,.75-1.67,1.31-2.48,.56-.8,1.15-1.47,1.77-2.01,.39-.35,.78-.62,1.17-.83,.39-.2,.74-.31,1.05-.31,.41,0,.77,.17,1.1,.52,.33,.35,.5,.83,.5,1.46,0,.16,0,.31-.02,.46-.01,.15-.03,.3-.06,.46,0,.02,0,.04-.01,.06,0,.02-.01,.04-.01,.06-.05,.3-.13,.62-.22,.97-.09,.35-.22,.82-.38,1.42-.23,.85-.39,1.42-.47,1.7-.08,.28-.14,.51-.18,.68v.02s0,.04-.01,.07c0,.03-.01,.06-.01,.07v.27s0,.08,.02,.11c.03,.16,.08,.27,.17,.35,.09,.08,.2,.12,.33,.12,.05,0,.2-.03,.44-.09,.24-.06,.69-.27,1.35-.61v.92c0,.11,0,.21-.02,.29-.01,.09-.05,.18-.12,.27-.07,.09-.19,.19-.38,.29-.18,.1-.44,.22-.78,.37-.3,.11-.58,.21-.85,.31-.27,.09-.52,.14-.75,.14-.08,0-.18-.02-.3-.05-.12-.03-.25-.08-.38-.14-.23-.13-.44-.32-.62-.59-.18-.27-.27-.66-.27-1.18,0-.08,0-.15,.01-.22,0-.07,.02-.15,.03-.22,.01-.06,.03-.13,.04-.21,.01-.08,.03-.15,.04-.21,.05-.25,.11-.5,.18-.75,.07-.25,.13-.5,.2-.76,.03-.08,.05-.16,.07-.24,.02-.08,.04-.16,.07-.24,.3-.99,.49-1.68,.57-2.06,.08-.39,.12-.66,.12-.81v-.13s0-.07-.02-.11c-.01-.09-.05-.18-.1-.25-.05-.07-.15-.11-.28-.11-.16,0-.34,.06-.54,.18-.2,.12-.4,.27-.62,.46-.12,.11-.25,.23-.37,.37-.13,.13-.25,.27-.37,.41-.15,.16-.29,.32-.42,.48-.13,.17-.24,.31-.33,.44-.15,.2-.31,.43-.48,.68-.17,.25-.33,.53-.5,.83-.32,.57-.63,1.18-.92,1.84-.29,.66-.51,1.34-.66,2.03-.01,.02-.02,.04-.03,.06,0,.02-.01,.05-.01,.08h-2.05Z"/><path class="d" d="M119.91,144.39c-.11-.02-.22-.03-.33-.04s-.23-.02-.33-.04c-.86-.16-1.66-.59-2.38-1.3-.72-.71-1.08-1.72-1.08-3.04,0-1.65,.68-3.11,2.03-4.39,1.35-1.27,2.9-1.91,4.66-1.91,1.12,0,2,.42,2.62,1.25,.63,.83,.94,1.82,.94,2.97,0,1.59-.44,2.9-1.32,3.93-.88,1.03-1.84,1.74-2.9,2.13-.32,.14-.65,.24-.97,.31-.32,.06-.63,.09-.93,.09v.02Zm2.54-3.14c.63-.83,1.02-1.75,1.17-2.76,.01-.13,.02-.25,.03-.37,0-.12,.01-.24,.01-.37,0-.64-.13-1.12-.39-1.43-.26-.31-.56-.52-.88-.63-.15-.06-.29-.1-.43-.12-.14-.02-.26-.02-.38-.02-.74,0-1.37,.3-1.87,.9-.51,.6-.89,1.25-1.14,1.96-.14,.38-.24,.75-.3,1.11-.07,.36-.1,.68-.1,.94,0,.58,.18,1.07,.53,1.45,.35,.39,.82,.58,1.42,.58,.95,0,1.73-.42,2.36-1.25Z"/><path class="d" d="M130.34,141.3l2.39-3.51c-.05-.08-.11-.16-.16-.25-.05-.09-.09-.17-.12-.25-.01-.03-.02-.06-.03-.09,0-.03,0-.06,0-.09v-.31c.01-.11,.03-.22,.04-.33,.01-.11,.04-.22,.08-.33,.09-.27,.27-.54,.53-.83,.26-.28,.67-.62,1.24-1.01,.05-.03,.1-.06,.15-.09,.05-.03,.09-.06,.13-.09l.02-.02c.08-.05,.16-.1,.24-.17,.08-.06,.19-.14,.32-.24l1.6,.66-2.05,3.16s.04,.05,.09,.09c.05,.05,.1,.09,.17,.12,.11,.08,.26,.14,.46,.19,.2,.05,.44,.07,.74,.07h.26c.09,0,.19,0,.28-.02l-.24,1.18c-.14,.08-.28,.14-.44,.18-.16,.04-.31,.05-.48,.04-.05,0-.11,0-.17-.01-.06,0-.13-.01-.19-.01-.23-.03-.46-.09-.69-.19-.23-.09-.43-.22-.59-.38l-3.36,5.19h-2.03l-1.26-9.81h2.03l1.03,7.17Z"/><path class="d" d="M147.11,140.69c-.03,.13-.05,.24-.07,.34-.02,.1-.03,.2-.03,.29-.01,.08-.02,.16-.02,.24v.31c0,.09,.02,.19,.06,.28,.04,.09,.13,.14,.28,.14,.11,0,.25-.03,.44-.09,.18-.06,.37-.15,.56-.26,.07-.03,.13-.06,.2-.09,.07-.03,.13-.06,.18-.09,.15-.09,.28-.18,.41-.26,.12-.08,.22-.14,.28-.19l-.36,1.67c-.16,.2-.34,.39-.54,.54-.2,.16-.39,.29-.58,.4-.32,.16-.63,.27-.93,.34-.3,.07-.54,.11-.73,.11-.39,0-.71-.11-.96-.32-.25-.21-.42-.46-.52-.74-.04-.08-.07-.16-.08-.25-.01-.09-.02-.17-.02-.25,0-.11,.01-.25,.04-.41,.03-.17,.06-.33,.1-.51,.03-.08,.05-.16,.07-.24,.02-.08,.04-.16,.07-.24,.01-.06,.03-.13,.05-.19,.02-.06,.04-.12,.05-.17h-.2c-.16,.64-.55,1.25-1.16,1.83s-1.27,.98-1.95,1.21c-.2,.06-.4,.11-.59,.15-.19,.04-.38,.06-.57,.06-.82,0-1.54-.29-2.16-.88-.61-.59-.92-1.47-.92-2.65v-.14c.04-1.62,.72-3.11,2.05-4.47,1.32-1.36,2.83-2.04,4.52-2.04,.19,0,.37,.02,.55,.05,.18,.03,.35,.08,.53,.14,.19,.08,.38,.17,.58,.27,.2,.1,.4,.22,.62,.37l.18-.83h2.01l-1.42,6.56Zm-2.08-4.55c-.3-.08-.6-.11-.9-.09-.97,0-1.82,.35-2.54,1.05-.72,.7-1.22,1.47-1.49,2.32-.07,.22-.12,.44-.16,.65-.04,.21-.06,.42-.06,.62,0,.53,.1,.95,.31,1.24,.21,.29,.5,.44,.88,.44,.18,0,.35-.02,.53-.07,.18-.05,.36-.11,.55-.19,.76-.38,1.48-1.07,2.18-2.09,.7-1.01,1.24-2.18,1.63-3.5-.31-.17-.62-.3-.92-.38Z"/><path class="d" d="M154.77,134.39c.08-.02,.18-.03,.29-.04,.11,0,.23-.02,.33-.03,.13-.03,.26-.06,.37-.07,.11-.01,.22-.03,.31-.05,.31-.08,.55-.15,.72-.2,.17-.05,.32-.09,.46-.11h.16c.08,0,.15,.02,.19,.06,.05,.04,.08,.08,.09,.11,.01,.03,.02,.06,.03,.08,0,.02,.01,.04,.01,.06,0,.03,0,.06-.01,.09,0,.03-.02,.06-.03,.09v.05s-.02,.04-.03,.06c0,.02-.01,.05-.01,.08l-.12,.75c-.03,.22-.18,.39-.46,.5-.28,.11-1.15,.2-2.62,.26l-.61,3.21c-.11,.55-.18,.94-.22,1.16-.04,.22-.07,.4-.08,.54,0,.05,0,.1-.01,.15,0,.06-.01,.11-.01,.15-.01,.05-.02,.09-.02,.12v.26s0,.09,.01,.13c0,.04,.01,.08,.01,.13,.03,.14,.09,.27,.18,.39,.09,.12,.24,.18,.45,.18,.15,0,.34-.04,.59-.13,.24-.09,.5-.19,.77-.32,.12-.05,.24-.1,.35-.17,.11-.06,.23-.13,.35-.19,.13-.08,.26-.16,.37-.24,.11-.08,.21-.15,.29-.21l.03-.04s.02-.01,.03-.01c.05-.05,.11-.09,.17-.12,.06-.03,.12-.05,.19-.05,.09,0,.16,.02,.18,.06,.03,.04,.04,.09,.04,.15v.12s0,.04,0,.06c0,.02-.01,.04-.01,.06l-.1,.71c-.05,.33-.18,.58-.38,.74-.2,.17-.44,.31-.71,.44-.08,.05-.16,.09-.23,.12-.07,.03-.15,.07-.23,.12-.2,.11-.39,.2-.56,.28-.17,.08-.33,.15-.5,.21-.22,.08-.44,.14-.67,.19-.23,.05-.51,.07-.85,.07-.74,0-1.25-.3-1.53-.9-.28-.6-.42-1.27-.42-2.03,0-.46,.04-.89,.12-1.3,.08-.41,.17-.8,.26-1.18,.05-.2,.1-.4,.15-.6,.05-.2,.09-.39,.13-.58l.32-1.7c-.16-.02-.33-.03-.5-.04-.17,0-.34-.01-.52-.01h-.3c-.15,0-.29-.01-.42-.04-.13-.02-.19-.11-.19-.25,0-.05,0-.11,.01-.18,0-.07,.02-.18,.05-.32l.14-.75c.03-.19,.06-.33,.11-.42,.05-.09,.14-.14,.27-.14,.05,0,.15,.02,.27,.05,.13,.03,.42,.11,.88,.24,.04,.02,.07,.03,.1,.04,.03,0,.05,.02,.08,.03,.05,.02,.11,.03,.16,.04,.05,0,.11,.01,.18,.01l.95-4.39h2.03l-.89,4.43Z"/><path class="d" d="M162.59,134.13l-1.52,6.58c-.01,.06-.03,.12-.04,.18-.01,.06-.03,.11-.04,.18-.04,.14-.07,.29-.1,.44-.03,.15-.04,.31-.04,.48v.19c.01,.08,.04,.16,.09,.24,.05,.08,.13,.12,.25,.12,.15,0,.35-.07,.6-.22,.25-.15,.7-.42,1.35-.81l.02,1.18c0,.3-.17,.57-.5,.81-.33,.24-.7,.44-1.1,.58-.27,.09-.53,.17-.78,.22-.25,.05-.45,.08-.6,.08-.43,0-.78-.14-1.03-.41-.26-.27-.39-.69-.39-1.24v-.19c.01-.24,.04-.48,.08-.72,.04-.24,.08-.47,.12-.7,.03-.08,.05-.16,.07-.25,.02-.09,.04-.17,.05-.25l1.48-6.49h2.03Zm-1.32-1.39c-.15-.14-.25-.3-.3-.47-.01-.06-.03-.13-.04-.19-.01-.06-.02-.13-.02-.19,0-.53,.14-1.01,.41-1.42,.28-.41,.62-.61,1.04-.61,.31,0,.58,.12,.8,.37,.22,.24,.33,.55,.33,.93,0,.09,0,.2-.03,.33-.02,.13-.06,.25-.11,.38-.09,.27-.26,.52-.49,.74-.23,.23-.55,.34-.97,.34-.27,0-.48-.07-.63-.21Z"/><path class="d" d="M168.89,144.39c-.11-.02-.22-.03-.33-.04-.12,0-.23-.02-.33-.04-.86-.16-1.66-.59-2.38-1.3-.72-.71-1.08-1.72-1.08-3.04,0-1.65,.68-3.11,2.03-4.39,1.35-1.27,2.9-1.91,4.66-1.91,1.12,0,2,.42,2.62,1.25,.63,.83,.94,1.82,.94,2.97,0,1.59-.44,2.9-1.32,3.93-.88,1.03-1.84,1.74-2.9,2.13-.32,.14-.65,.24-.97,.31-.32,.06-.64,.09-.93,.09v.02Zm2.54-3.14c.63-.83,1.02-1.75,1.16-2.76,.01-.13,.02-.25,.03-.37,0-.12,.01-.24,.01-.37,0-.64-.13-1.12-.39-1.43-.26-.31-.56-.52-.88-.63-.15-.06-.29-.1-.43-.12-.14-.02-.26-.02-.38-.02-.74,0-1.37,.3-1.87,.9-.51,.6-.89,1.25-1.14,1.96-.14,.38-.24,.75-.3,1.11-.07,.36-.1,.68-.1,.94,0,.58,.18,1.07,.53,1.45,.35,.39,.82,.58,1.42,.58,.94,0,1.73-.42,2.36-1.25Z"/><path class="d" d="M176.27,143.95l2.01-9.81h2.03l-1.11,5.17h.08c.31-.85,.75-1.67,1.31-2.48,.56-.8,1.15-1.47,1.77-2.01,.39-.35,.78-.62,1.18-.83,.39-.2,.74-.31,1.05-.31,.41,0,.77,.17,1.1,.52,.33,.35,.5,.83,.5,1.46,0,.16,0,.31-.02,.46-.01,.15-.03,.3-.06,.46,0,.02,0,.04-.01,.06,0,.02-.01,.04-.01,.06-.05,.3-.13,.62-.22,.97-.09,.35-.22,.82-.38,1.42-.23,.85-.39,1.42-.47,1.7-.08,.28-.14,.51-.18,.68v.02s0,.04,0,.07c0,.03-.01,.06-.01,.07v.27s0,.08,.02,.11c.03,.16,.08,.27,.17,.35,.09,.08,.2,.12,.33,.12,.05,0,.2-.03,.44-.09,.24-.06,.69-.27,1.35-.61v.92c0,.11,0,.21-.02,.29-.01,.09-.05,.18-.12,.27-.07,.09-.19,.19-.38,.29-.18,.1-.44,.22-.78,.37-.3,.11-.58,.21-.85,.31-.27,.09-.52,.14-.75,.14-.08,0-.18-.02-.3-.05-.12-.03-.25-.08-.38-.14-.23-.13-.44-.32-.62-.59-.18-.27-.27-.66-.27-1.18,0-.08,0-.15,.01-.22,0-.07,.02-.15,.03-.22,.01-.06,.03-.13,.04-.21,.01-.08,.03-.15,.04-.21,.05-.25,.11-.5,.18-.75,.07-.25,.14-.5,.2-.76,.03-.08,.05-.16,.07-.24,.02-.08,.04-.16,.07-.24,.3-.99,.49-1.68,.57-2.06,.08-.39,.12-.66,.12-.81v-.13s0-.07-.02-.11c-.01-.09-.05-.18-.1-.25-.05-.07-.15-.11-.28-.11-.16,0-.34,.06-.54,.18-.2,.12-.4,.27-.62,.46-.12,.11-.25,.23-.37,.37-.13,.13-.25,.27-.38,.41-.15,.16-.29,.32-.42,.48-.13,.17-.24,.31-.33,.44-.15,.2-.31,.43-.48,.68-.17,.25-.33,.53-.5,.83-.32,.57-.63,1.18-.92,1.84-.29,.66-.51,1.34-.66,2.03-.01,.02-.02,.04-.03,.06,0,.02-.01,.05-.01,.08h-2.05Z"/><path class="d" d="M198.17,128.54c.04-.22,.1-.38,.19-.47,.09-.09,.19-.16,.29-.19,.01-.02,.03-.03,.06-.04,.03,0,.05-.01,.06-.01,1.05-.3,2.08-.52,3.07-.66,.99-.14,1.85-.21,2.56-.21,2.12,0,3.69,.69,4.71,2.06,1.02,1.38,1.57,2.88,1.65,4.52v.4c0,2.94-.95,5.42-2.84,7.43-1.89,2.01-4.05,3.02-6.46,3.02-1.88,0-3.3-.69-4.27-2.06-.97-1.38-1.46-2.98-1.46-4.82,0-1.26,.32-2.46,.96-3.61,.64-1.15,1.35-2.1,2.14-2.85,.5-.5,.99-.9,1.46-1.19,.47-.29,.85-.44,1.13-.44,.08,0,.15,.01,.19,.04,.05,.02,.1,.06,.15,.11,.01,0,.02,0,.02,.02,.03,.02,.05,.03,.07,.04,.02,0,.04,.02,.05,.04l.47,.28c.05,.03,.09,.07,.1,.12,.01,.05,.03,.1,.04,.17v.14s0,.06-.02,.08c-.01,.02-.03,.05-.04,.08-.04,.05-.09,.09-.16,.14-.07,.05-.15,.11-.24,.19-.3,.24-.57,.48-.83,.72-.26,.24-.49,.49-.71,.74-.96,1.09-1.6,2.13-1.91,3.13-.32,1-.48,1.78-.48,2.35,0,1.4,.4,2.5,1.2,3.3,.8,.8,1.67,1.24,2.63,1.3h.22c.26,0,.52-.03,.78-.08s.53-.14,.8-.25c1.15-.49,2.2-1.44,3.17-2.85,.96-1.42,1.45-3.17,1.45-5.26,0-1.54-.46-2.75-1.37-3.63-.91-.88-2.14-1.32-3.7-1.32-.86,0-1.63,.06-2.29,.19-.66,.13-1.28,.27-1.84,.45-.34,.11-.56,.19-.67,.22-.11,.04-.2,.06-.26,.06h-.02c-.11,0-.18-.03-.2-.08-.03-.05-.04-.12-.04-.2,0-.03,0-.07,.01-.11,0-.04,.02-.07,.03-.11l.14-.87Z"/><path class="d" d="M220.88,140.71c-.09,.38-.16,.66-.18,.84-.03,.18-.04,.33-.04,.46,0,.2,.03,.34,.08,.41,.05,.07,.12,.11,.2,.13h.22c.14-.03,.31-.11,.54-.24,.22-.13,.66-.4,1.31-.83l.02,1.18c.01,.31-.18,.61-.57,.87-.39,.27-.82,.47-1.28,.61-.2,.06-.4,.11-.6,.15-.2,.04-.37,.06-.54,.06-.47,0-.83-.11-1.06-.32-.24-.21-.38-.44-.44-.7,0-.05,0-.09,0-.13,0-.04-.01-.08-.01-.13,0-.24,.02-.52,.07-.86,.05-.34,.11-.69,.19-1.05,.04-.2,.08-.41,.13-.61,.05-.2,.1-.4,.15-.59,.04-.13,.08-.25,.11-.38,.03-.13,.07-.24,.11-.33l.34-.99h-.14c-.08,.22-.17,.45-.26,.68-.09,.24-.2,.47-.32,.71-.39,.79-.87,1.54-1.43,2.26-.56,.72-1.14,1.31-1.73,1.75-.31,.2-.61,.37-.91,.5-.3,.13-.58,.19-.85,.19-.45,0-.84-.21-1.19-.62-.34-.42-.52-1.02-.52-1.8,0-.25,.04-.53,.12-.84,.08-.31,.19-.71,.32-1.21l1.52-5.76h2.03l-1.64,6.2s-.02,.09-.03,.12c0,.03,0,.06,0,.09v.02s-.03,.1-.04,.15c-.01,.06-.04,.15-.08,.27-.03,.11-.05,.23-.08,.37-.03,.13-.04,.29-.04,.46,0,.14,.02,.26,.07,.37,.05,.1,.15,.15,.29,.15,.16,0,.34-.05,.53-.15,.19-.1,.38-.23,.59-.39,.15-.13,.3-.27,.45-.42,.15-.16,.29-.31,.43-.47,.19-.2,.36-.4,.51-.59,.15-.19,.28-.35,.38-.5,.55-.74,1.07-1.56,1.56-2.47,.49-.9,.9-1.98,1.24-3.22h2.01l-1.52,6.58Z"/><path class="d" d="M232.73,136.61c-.22,.09-.41,.18-.58,.27-.17,.09-.33,.17-.48,.25-.07,.03-.13,.07-.19,.11-.06,.04-.12,.08-.17,.11-.14,.08-.26,.16-.39,.24-.12,.08-.26,.17-.41,.26-.07,.05-.13,.09-.18,.12-.05,.03-.11,.06-.16,.09-.07,.05-.15,.1-.23,.15-.09,.06-.2,.12-.33,.2-.14,.08-.34,.21-.63,.39-.28,.18-.59,.4-.91,.65-.22,.16-.43,.33-.65,.53-.22,.2-.4,.39-.57,.58-.14,.17-.24,.34-.32,.5-.08,.16-.12,.31-.12,.47,0,.05,0,.09,.01,.13,0,.04,.02,.08,.05,.13,.07,.19,.21,.36,.44,.51,.22,.15,.52,.22,.9,.22,.16,0,.33-.02,.52-.05,.18-.03,.36-.07,.54-.12,.26-.06,.51-.14,.75-.24,.24-.09,.47-.2,.67-.31,.28-.13,.53-.25,.73-.37,.2-.12,.35-.21,.45-.27,.07-.03,.13-.06,.18-.08,.05-.02,.1-.04,.14-.04,.07,0,.12,.03,.16,.08,.04,.05,.06,.15,.06,.27,0,.03,0,.06-.01,.08,0,.02,0,.05,0,.08-.01,.02-.02,.03-.03,.05,0,.02-.01,.03-.01,.05-.01,.02-.02,.04-.03,.06,0,.02,0,.04,0,.06l-.2,.94c-1.03,.79-1.96,1.26-2.81,1.42-.84,.16-1.51,.24-2,.24-.78,0-1.38-.17-1.79-.5-.41-.33-.7-.69-.86-1.09-.08-.17-.14-.34-.16-.51-.03-.17-.04-.32-.04-.46,0-.77,.31-1.5,.93-2.18,.62-.68,1.3-1.29,2.03-1.8,.58-.39,1.13-.72,1.64-.99,.51-.27,.88-.46,1.11-.57l.79-.35v-.21c-.18,.08-.36,.15-.57,.21-.2,.06-.4,.12-.61,.17-.41,.09-.79,.16-1.15,.19-.36,.03-.65,.05-.85,.05s-.39-.02-.55-.06c-.16-.04-.31-.08-.45-.13l-.73,1.08h-.89c-.16,0-.31-.02-.44-.05-.13-.03-.19-.13-.19-.28,0-.03,0-.07,0-.11,0-.04,.02-.07,.03-.11,.03-.06,.05-.12,.08-.18,.03-.05,.06-.11,.1-.18,0-.02,0-.03,0-.04l.03-.04s.03-.06,.04-.07c.01-.02,.03-.03,.04-.05,.01-.02,.03-.04,.05-.07,.02-.03,.04-.07,.07-.12,.03-.05,.05-.09,.07-.12,.02-.03,.04-.06,.05-.09l.02-.02,.05-.06s.04-.05,.05-.08c-.05-.05-.1-.1-.13-.15-.03-.05-.06-.11-.09-.18-.04-.06-.07-.12-.08-.18-.01-.05-.03-.11-.04-.15-.01-.05-.02-.09-.03-.14,0-.05,0-.09,.01-.14v-.14s0-.09,.02-.12c.03-.17,.09-.36,.18-.57,.09-.2,.22-.41,.39-.61,.18-.24,.39-.46,.66-.67,.26-.21,.56-.41,.9-.6h1.6l-.89,2.36c.12,.03,.24,.06,.35,.08,.11,.02,.23,.05,.33,.08,.18,.02,.35,.03,.53,.05,.18,.02,.35,.02,.53,.02,.2,0,.51-.02,.93-.05s.86-.07,1.32-.12c.08-.02,.16-.03,.24-.04,.08,0,.16-.01,.24-.01,.3-.03,.57-.06,.83-.09,.26-.03,.48-.06,.67-.07l-.57,2.48Z"/><path class="d" d="M256.86,129.7c-.2-.08-.41-.15-.61-.2-.2-.05-.4-.11-.59-.15-.43-.08-.87-.13-1.32-.17-.45-.03-.91-.05-1.4-.05-1.85,0-3.3,.23-4.36,.7-1.05,.46-1.83,.97-2.33,1.52-.32,.35-.55,.69-.68,1.03-.13,.34-.19,.61-.19,.81,0,.5,.2,.85,.59,1.05,.39,.2,.83,.32,1.32,.37,.19,.02,.38,.03,.56,.03,.18,0,.35,.01,.52,.01h.99s.09,0,.14-.02h.99c.26,0,.53,0,.81,.01,.28,0,.57,.03,.85,.06,.96,.09,1.84,.37,2.63,.81s1.2,1.25,1.2,2.42c0,1.76-.9,3.26-2.7,4.51-1.8,1.24-3.79,1.9-5.95,1.96h-.28c-.39,0-.8-.03-1.24-.08-.43-.05-.86-.13-1.3-.22-.63-.13-1.27-.31-1.89-.54s-1.2-.5-1.71-.8l.45-1.77c.7,.2,1.37,.38,2.01,.52,.63,.14,1.26,.25,1.88,.33,.31,.03,.62,.06,.93,.07,.31,.02,.63,.02,.95,.02,1.59,0,2.93-.3,4.02-.91,1.09-.6,1.77-1.27,2.06-1.99,.04-.11,.07-.22,.09-.32,.02-.1,.03-.21,.03-.32,0-.46-.15-.76-.46-.91-.3-.15-.64-.23-1-.25h-.51c-.05,.02-.11,.02-.15,.02h-.13c-.23,.02-.46,.02-.7,.02h-1.7c-.17,0-.34,0-.52-.02-1.3-.06-2.48-.32-3.56-.78-1.07-.46-1.61-1.31-1.61-2.57,0-.38,.06-.8,.17-1.26,.11-.46,.31-.94,.58-1.43,.59-1.05,1.64-2.02,3.13-2.91,1.49-.89,3.66-1.33,6.49-1.33,.5,0,.97,.03,1.41,.08,.44,.06,.87,.13,1.31,.22,.22,.05,.43,.1,.65,.17,.22,.06,.43,.13,.65,.21l-.53,2.05Z"/><path class="d" d="M262.26,144.39c-.11-.02-.22-.03-.33-.04-.12,0-.23-.02-.33-.04-.86-.16-1.66-.59-2.38-1.3-.72-.71-1.08-1.72-1.08-3.04,0-1.65,.68-3.11,2.03-4.39,1.35-1.27,2.9-1.91,4.66-1.91,1.12,0,2,.42,2.62,1.25,.63,.83,.94,1.82,.94,2.97,0,1.59-.44,2.9-1.32,3.93-.88,1.03-1.84,1.74-2.9,2.13-.32,.14-.65,.24-.97,.31-.32,.06-.64,.09-.93,.09v.02Zm2.54-3.14c.63-.83,1.02-1.75,1.17-2.76,.01-.13,.02-.25,.03-.37,0-.12,.01-.24,.01-.37,0-.64-.13-1.12-.39-1.43-.26-.31-.56-.52-.88-.63-.15-.06-.29-.1-.43-.12-.14-.02-.26-.02-.38-.02-.74,0-1.37,.3-1.87,.9-.51,.6-.89,1.25-1.14,1.96-.14,.38-.24,.75-.3,1.11-.07,.36-.1,.68-.1,.94,0,.58,.18,1.07,.53,1.45,.35,.39,.82,.58,1.42,.58,.94,0,1.73-.42,2.36-1.25Z"/><path class="d" d="M272.64,141.96c.35,.36,.78,.54,1.28,.54,.24,0,.57-.06,.97-.18,.41-.12,.82-.26,1.26-.44,.28-.13,.56-.25,.83-.38,.27-.13,.52-.26,.75-.4,.12-.06,.24-.13,.34-.21,.11-.08,.2-.15,.28-.21,.11-.08,.2-.15,.28-.2,.08-.06,.15-.08,.22-.08s.12,.03,.16,.09,.06,.16,.06,.28c0,.03,0,.06-.01,.08,0,.02-.01,.05-.01,.08-.01,.02-.02,.03-.03,.05,0,.02-.01,.03-.01,.05-.01,.02-.02,.04-.03,.06,0,.02-.01,.04-.01,.06l-.2,.99c-.74,.58-1.57,1.1-2.48,1.55-.91,.45-1.85,.67-2.83,.67-1.03,0-1.92-.36-2.68-1.08-.76-.72-1.14-1.86-1.14-3.4,0-.83,.19-2.06,.57-3.69,.38-1.63,1.26-3.46,2.65-5.48,.08-.11,.24-.32,.48-.64,.24-.31,.53-.64,.88-.99,.42-.44,.9-.84,1.44-1.19,.54-.35,1.1-.53,1.68-.53,.72,0,1.29,.27,1.72,.83s.65,1.2,.65,1.93c0,1.21-.51,2.72-1.54,4.53-1.03,1.81-3.08,3.78-6.16,5.92,.07,.57,.28,1.03,.63,1.39Zm1.55-5.26c.65-.75,1.22-1.52,1.69-2.31,.46-.75,.82-1.51,1.07-2.25,.26-.75,.39-1.43,.39-2.04v-.12c0-.19-.02-.36-.05-.51-.03-.15-.15-.22-.33-.22-.23,0-.54,.17-.92,.5-.38,.33-.79,.8-1.21,1.42-.12,.19-.24,.39-.36,.59-.12,.2-.24,.42-.36,.64-.73,1.37-1.24,2.59-1.52,3.66-.28,1.07-.47,1.98-.55,2.74,.78-.63,1.5-1.32,2.16-2.08Z"/><path class="d" d="M289.31,140.71c-.09,.38-.16,.66-.18,.84-.03,.18-.04,.33-.04,.46,0,.2,.03,.34,.08,.41,.05,.07,.12,.11,.2,.13h.22c.14-.03,.31-.11,.54-.24,.22-.13,.66-.4,1.31-.83l.02,1.18c.01,.31-.18,.61-.57,.87-.39,.27-.82,.47-1.28,.61-.2,.06-.4,.11-.6,.15-.2,.04-.37,.06-.54,.06-.47,0-.83-.11-1.06-.32-.24-.21-.38-.44-.44-.7,0-.05,0-.09-.01-.13,0-.04-.01-.08-.01-.13,0-.24,.02-.52,.07-.86,.05-.34,.11-.69,.19-1.05,.04-.2,.08-.41,.13-.61,.05-.2,.1-.4,.15-.59,.04-.13,.08-.25,.11-.38,.03-.13,.07-.24,.11-.33l.34-.99h-.14c-.08,.22-.17,.45-.26,.68-.09,.24-.2,.47-.32,.71-.39,.79-.87,1.54-1.43,2.26-.56,.72-1.14,1.31-1.73,1.75-.31,.2-.61,.37-.91,.5-.3,.13-.58,.19-.85,.19-.45,0-.84-.21-1.19-.62-.34-.42-.52-1.02-.52-1.8,0-.25,.04-.53,.12-.84,.08-.31,.19-.71,.32-1.21l1.52-5.76h2.03l-1.64,6.2s-.02,.09-.03,.12c0,.03,0,.06,0,.09v.02s-.03,.1-.04,.15c-.01,.06-.04,.15-.08,.27-.03,.11-.05,.23-.08,.37-.03,.13-.04,.29-.04,.46,0,.14,.02,.26,.07,.37,.05,.1,.15,.15,.29,.15,.16,0,.34-.05,.53-.15,.19-.1,.38-.23,.59-.39,.15-.13,.3-.27,.45-.42,.15-.16,.29-.31,.43-.47,.19-.2,.36-.4,.51-.59,.15-.19,.28-.35,.39-.5,.55-.74,1.07-1.56,1.56-2.47,.49-.9,.9-1.98,1.24-3.22h2.01l-1.52,6.58Z"/><path class="d" d="M296.83,134.39c.08-.02,.18-.03,.29-.04,.12,0,.23-.02,.33-.03,.14-.03,.26-.06,.37-.07,.11-.01,.22-.03,.31-.05,.31-.08,.55-.15,.72-.2,.17-.05,.32-.09,.46-.11h.16c.08,0,.14,.02,.19,.06,.05,.04,.08,.08,.09,.11,.01,.03,.02,.06,.03,.08,0,.02,.01,.04,.01,.06,0,.03,0,.06-.01,.09,0,.03-.02,.06-.03,.09v.05s-.02,.04-.03,.06c0,.02-.01,.05-.01,.08l-.12,.75c-.03,.22-.18,.39-.46,.5-.28,.11-1.15,.2-2.62,.26l-.61,3.21c-.11,.55-.18,.94-.22,1.16s-.07,.4-.08,.54c0,.05,0,.1-.01,.15,0,.06-.01,.11-.01,.15-.01,.05-.02,.09-.02,.12v.26s0,.09,.01,.13c0,.04,0,.08,0,.13,.03,.14,.09,.27,.18,.39,.09,.12,.24,.18,.45,.18,.15,0,.34-.04,.59-.13,.24-.09,.5-.19,.77-.32,.12-.05,.24-.1,.35-.17,.11-.06,.23-.13,.35-.19,.13-.08,.26-.16,.37-.24,.11-.08,.21-.15,.29-.21l.03-.04s.02-.01,.03-.01c.05-.05,.11-.09,.17-.12,.06-.03,.13-.05,.19-.05,.09,0,.16,.02,.18,.06,.03,.04,.04,.09,.04,.15v.12s0,.04,0,.06c0,.02-.01,.04-.01,.06l-.1,.71c-.05,.33-.18,.58-.39,.74-.2,.17-.44,.31-.71,.44-.08,.05-.16,.09-.23,.12-.08,.03-.15,.07-.23,.12-.2,.11-.39,.2-.56,.28-.17,.08-.33,.15-.5,.21-.22,.08-.44,.14-.67,.19-.23,.05-.51,.07-.85,.07-.74,0-1.25-.3-1.53-.9-.28-.6-.42-1.27-.42-2.03,0-.46,.04-.89,.12-1.3,.08-.41,.17-.8,.26-1.18,.05-.2,.1-.4,.15-.6,.05-.2,.09-.39,.13-.58l.32-1.7c-.16-.02-.33-.03-.5-.04-.17,0-.34-.01-.52-.01h-.3c-.15,0-.29-.01-.42-.04-.13-.02-.19-.11-.19-.25,0-.05,0-.11,.01-.18,0-.07,.02-.18,.05-.32l.14-.75c.03-.19,.06-.33,.11-.42,.05-.09,.14-.14,.27-.14,.05,0,.14,.02,.27,.05,.13,.03,.42,.11,.88,.24,.04,.02,.07,.03,.1,.04,.03,0,.05,.02,.08,.03,.05,.02,.11,.03,.16,.04,.05,0,.11,.01,.18,.01l.95-4.39h2.03l-.89,4.43Z"/><path class="d" d="M304.65,134.13l-1.52,6.58c-.01,.06-.03,.12-.04,.18-.01,.06-.03,.11-.04,.18-.04,.14-.07,.29-.1,.44-.03,.15-.04,.31-.04,.48v.19c.01,.08,.04,.16,.09,.24,.05,.08,.13,.12,.25,.12,.15,0,.35-.07,.6-.22,.25-.15,.7-.42,1.35-.81l.02,1.18c0,.3-.17,.57-.5,.81-.33,.24-.7,.44-1.1,.58-.27,.09-.53,.17-.78,.22-.25,.05-.45,.08-.6,.08-.43,0-.78-.14-1.03-.41-.26-.27-.38-.69-.38-1.24v-.19c.01-.24,.04-.48,.08-.72,.04-.24,.08-.47,.12-.7,.03-.08,.05-.16,.07-.25,.02-.09,.04-.17,.05-.25l1.48-6.49h2.03Zm-1.32-1.39c-.15-.14-.25-.3-.3-.47-.01-.06-.03-.13-.04-.19-.01-.06-.02-.13-.02-.19,0-.53,.14-1.01,.42-1.42,.28-.41,.62-.61,1.04-.61,.31,0,.58,.12,.8,.37,.22,.24,.33,.55,.33,.93,0,.09,0,.2-.03,.33-.02,.13-.06,.25-.11,.38-.09,.27-.26,.52-.49,.74-.23,.23-.55,.34-.97,.34-.27,0-.48-.07-.63-.21Z"/><path class="d" d="M310.95,144.39c-.11-.02-.22-.03-.33-.04-.12,0-.23-.02-.33-.04-.86-.16-1.66-.59-2.38-1.3-.72-.71-1.08-1.72-1.08-3.04,0-1.65,.67-3.11,2.03-4.39,1.35-1.27,2.9-1.91,4.66-1.91,1.12,0,2,.42,2.62,1.25,.63,.83,.94,1.82,.94,2.97,0,1.59-.44,2.9-1.32,3.93-.88,1.03-1.84,1.74-2.9,2.13-.32,.14-.65,.24-.97,.31-.32,.06-.64,.09-.93,.09v.02Zm2.54-3.14c.63-.83,1.02-1.75,1.16-2.76,.01-.13,.02-.25,.03-.37,0-.12,.01-.24,.01-.37,0-.64-.13-1.12-.39-1.43-.26-.31-.56-.52-.88-.63-.15-.06-.29-.1-.43-.12-.14-.02-.26-.02-.38-.02-.74,0-1.37,.3-1.87,.9-.51,.6-.89,1.25-1.14,1.96-.14,.38-.24,.75-.3,1.11-.07,.36-.1,.68-.1,.94,0,.58,.18,1.07,.53,1.45,.35,.39,.82,.58,1.42,.58,.94,0,1.73-.42,2.36-1.25Z"/><path class="d" d="M318.32,143.95l2.01-9.81h2.03l-1.11,5.17h.08c.31-.85,.75-1.67,1.31-2.48,.56-.8,1.15-1.47,1.77-2.01,.39-.35,.78-.62,1.18-.83,.39-.2,.74-.31,1.05-.31,.41,0,.77,.17,1.1,.52,.33,.35,.5,.83,.5,1.46,0,.16,0,.31-.02,.46-.01,.15-.03,.3-.06,.46,0,.02,0,.04-.01,.06,0,.02,0,.04,0,.06-.05,.3-.13,.62-.22,.97-.09,.35-.22,.82-.38,1.42-.23,.85-.39,1.42-.47,1.7-.08,.28-.14,.51-.18,.68v.02s0,.04,0,.07c0,.03-.01,.06-.01,.07v.27s0,.08,.02,.11c.03,.16,.08,.27,.17,.35,.09,.08,.2,.12,.33,.12,.05,0,.2-.03,.44-.09,.24-.06,.69-.27,1.35-.61v.92c0,.11,0,.21-.02,.29-.01,.09-.05,.18-.12,.27-.07,.09-.19,.19-.38,.29-.18,.1-.44,.22-.78,.37-.3,.11-.58,.21-.85,.31-.27,.09-.52,.14-.75,.14-.08,0-.18-.02-.3-.05-.12-.03-.25-.08-.38-.14-.23-.13-.44-.32-.62-.59-.18-.27-.27-.66-.27-1.18,0-.08,0-.15,.01-.22,0-.07,.02-.15,.03-.22,.01-.06,.03-.13,.04-.21,.01-.08,.03-.15,.04-.21,.05-.25,.11-.5,.18-.75,.07-.25,.14-.5,.2-.76,.03-.08,.05-.16,.07-.24,.02-.08,.04-.16,.07-.24,.3-.99,.49-1.68,.57-2.06,.08-.39,.12-.66,.12-.81v-.13s0-.07-.02-.11c-.01-.09-.05-.18-.1-.25-.05-.07-.15-.11-.28-.11-.16,0-.34,.06-.54,.18-.2,.12-.4,.27-.62,.46-.12,.11-.25,.23-.37,.37-.13,.13-.25,.27-.38,.41-.15,.16-.29,.32-.42,.48-.13,.17-.24,.31-.33,.44-.15,.2-.31,.43-.48,.68-.17,.25-.33,.53-.5,.83-.32,.57-.63,1.18-.92,1.84-.29,.66-.51,1.34-.66,2.03-.01,.02-.02,.04-.03,.06,0,.02-.01,.05-.01,.08h-2.05Z"/></g></svg>