<svg xmlns="http://www.w3.org/2000/svg" xmlns:xlink="http://www.w3.org/1999/xlink" width="1298" height="615.916" viewBox="0 0 1298 615.916">
  <defs>
    <linearGradient id="linear-gradient" y1="1" x2="1" gradientUnits="objectBoundingBox">
      <stop offset="0" stop-color="#ed1c24"/>
      <stop offset="1" stop-color="#262262"/>
    </linearGradient>
  </defs>
  <g id="Group_720" data-name="Group 720" transform="translate(-311 -4455)">
    <path id="Rectangle_293" data-name="Rectangle 293" d="M0,0H671.5A307.5,307.5,0,0,1,979,307.5v0A307.5,307.5,0,0,1,671.5,615H0a0,0,0,0,1,0,0V0A0,0,0,0,1,0,0Z" transform="translate(618 4455)" fill="url(#linear-gradient)"/>
    <g id="Group_113" data-name="Group 113" transform="translate(296 -283)">
      <path id="Subtraction_7" data-name="Subtraction 7" d="M3608.482,640c-1.166,0-2.347-.007-3.51-.02,10.414-2.1,20.461-11.685,29.861-28.484,9.115-16.291,17.27-38.7,24.236-66.61,14.321-57.367,22.207-132.586,22.207-211.8,0-82.091-8.388-159.269-23.618-217.315-7.406-28.224-16.03-50.384-25.632-65.863-9.942-16.026-20.5-24.151-31.389-24.151V25.1c2.608-.065,5.247-.1,7.844-.1a311.107,311.107,0,0,1,62.1,6.247,307.491,307.491,0,0,1,0,602.506A311.106,311.106,0,0,1,3608.482,640Z" transform="translate(-2603.638 4713)" fill="#357dc4"/>
      <path id="Subtraction_8" data-name="Subtraction 8" d="M3609.143,639.193h0V637.97c19.7-7.872,37.908-43.155,51.268-99.351,13.455-56.594,20.865-129.856,20.865-206.29a1071.036,1071.036,0,0,0-7.729-131.468,351.158,351.158,0,0,1,51.6,13,359.568,359.568,0,0,1,45.552,18.843,387.907,387.907,0,0,1,72.854,47.211,411.735,411.735,0,0,1,48.355,46.585,329.37,329.37,0,0,1,23.659,29.967,307.062,307.062,0,0,1-306.427,282.723Z" transform="translate(-2603.638 4713.757)" fill="#386eaf"/>
      <path id="Subtraction_9" data-name="Subtraction 9" d="M3609.145,639.193h0v-1.223c9.592-3.833,18.823-14.08,27.438-30.458,8.385-15.94,15.927-37.173,22.417-63.108,13.249-52.943,21.118-122.244,22.157-195.137,1.45-.022,2.9-.032,4.3-.032a279.732,279.732,0,0,1,76.21,10.508,292.625,292.625,0,0,1,61.217,25.164,314.817,314.817,0,0,1,45.281,30.279,296.99,296.99,0,0,1,28.4,25.853c-1.329,3.5-2.734,7-4.177,10.408a307.025,307.025,0,0,1-283.245,187.747Z" transform="translate(-2603.638 4713.757)" fill="#2565a5"/>
      <path id="Subtraction_10" data-name="Subtraction 10" d="M3611.687,639.659c-7.878,0-15.665-4.322-23.143-12.847-7.241-8.255-14.143-20.383-20.515-36.047,8.787,12.642,18.07,19.053,27.594,19.053,10.209,0,20.113-7.337,29.436-21.806,9.005-13.975,17.093-33.983,24.038-59.468,14.283-52.411,22.15-122.094,22.15-196.214s-7.866-143.8-22.15-196.214c-6.946-25.484-15.033-45.492-24.038-59.468-9.323-14.47-19.227-21.806-29.436-21.806-9.523,0-18.807,6.41-27.594,19.053,6.372-15.667,13.275-27.794,20.515-36.047C3596.022,29.322,3603.808,25,3611.687,25c5.471,0,10.939,2.1,16.252,6.244,5.177,4.038,10.271,10.063,15.137,17.908a173.384,173.384,0,0,1,13.7,28.336,349.965,349.965,0,0,1,11.934,37.528c3.649,13.908,6.962,29.211,9.847,45.484,2.912,16.43,5.414,33.994,7.435,52.2a1090.145,1090.145,0,0,1,6.337,119.627,1090.138,1090.138,0,0,1-6.337,119.626c-2.021,18.21-4.522,35.774-7.435,52.2-2.885,16.274-6.2,31.577-9.847,45.484a349.975,349.975,0,0,1-11.934,37.528,173.384,173.384,0,0,1-13.7,28.336c-4.866,7.845-9.959,13.87-15.137,17.908C3622.626,637.558,3617.158,639.659,3611.687,639.659Z" transform="translate(-2614.687 4713.757)" fill="#5e3a3a" stroke="rgba(0,0,0,0)" stroke-miterlimit="10" stroke-width="1" opacity="0.5"/>
    </g>
    <g id="Group_116" data-name="Group 116" transform="translate(-1 45)">
      <text id="Full_Potential" data-name="Full Potential" transform="translate(994 4864)" fill="#fff" font-size="25" font-family="Helvetica-Bold, Helvetica" font-weight="700"><tspan x="0" y="0">Full Potential</tspan></text>
      <text id="Engages_Employees_Satisfaction" data-name="Engages Employees Satisfaction" transform="translate(994 4875)" fill="rgba(255,255,255,0.8)" font-size="20" font-family="Helvetica"><tspan x="0" y="15">Engages Employees Satisfaction</tspan></text>
    </g>
    <g id="Group_115" data-name="Group 115" transform="translate(19 -171)">
      <text id="See_Excellence" data-name="See Excellence" transform="translate(974 4971)" fill="#fff" font-size="25" font-family="Helvetica-Bold, Helvetica" font-weight="700"><tspan x="0" y="0">See Excellence</tspan></text>
      <text id="Profitability_Growth_Sustainability" data-name="Profitability Growth Sustainability" transform="translate(974 4982)" fill="rgba(255,255,255,0.8)" font-size="20" font-family="Helvetica"><tspan x="0" y="15">Profitability Growth Sustainability</tspan></text>
    </g>
    <g id="Group_114" data-name="Group 114" transform="translate(19 -384)">
      <text id="Enhance_Better_Life" data-name="Enhance Better Life" transform="translate(974 5075)" fill="#fff" font-size="25" font-family="Helvetica-Bold, Helvetica" font-weight="700"><tspan x="0" y="0">Enhance Better Life</tspan></text>
      <text id="Enrich_Community_-_Renewal" data-name="Enrich Community - Renewal" transform="translate(974 5086)" fill="rgba(255,255,255,0.8)" font-size="20" font-family="Helvetica"><tspan x="0" y="15">Enrich Community - Renewal</tspan></text>
    </g>
    <g id="Group_117" data-name="Group 117" transform="translate(-1 -634)">
      <text id="Secure_Loyalty" data-name="Secure Loyalty" transform="translate(994 5191)" fill="#fff" font-size="25" font-family="Helvetica-Bold, Helvetica" font-weight="700"><tspan x="0" y="0">Secure Loyalty</tspan></text>
      <text id="Customer_Intimacy_Satisfaction_and_Relationship" data-name="Customer Intimacy Satisfaction and Relationship" transform="translate(994 5202)" fill="rgba(255,255,255,0.8)" font-size="20" font-family="Helvetica"><tspan x="0" y="15">Customer Intimacy Satisfaction and </tspan><tspan x="0" y="40">Relationship</tspan></text>
    </g>
    <g id="Group_110" data-name="Group 110" transform="translate(-134.907 -307.853)">
      <path id="Subtraction_1" data-name="Subtraction 1" d="M308.156,615a311.086,311.086,0,0,1-62.1-6.247,306.808,306.808,0,0,1-110.188-46.269A308.489,308.489,0,0,1,24.216,427.193,305.5,305.5,0,0,1,6.261,369.472a309.846,309.846,0,0,1,0-123.944A305.456,305.456,0,0,1,52.628,135.574,307.841,307.841,0,0,1,308.156,0c2.6,0,5.239.033,7.844.1V614.9C313.38,614.967,310.741,615,308.156,615Z" transform="translate(445.907 4762.853)" fill="#357dc4"/>
      <g id="Group_14" data-name="Group 14" transform="translate(966.911 4763.61) rotate(90)">
        <path id="Intersection_1" data-name="Intersection 1" d="M2.062,42.618A324.381,324.381,0,0,1,.074,0h443.38c0,161.463-124.494,293.853-282.723,306.427C137.9,290.7,19.416,201.948,2.062,42.618Z" transform="translate(170.739 213.509)" fill="#386eaf"/>
        <path id="Intersection_2" data-name="Intersection 2" d="M1.341,48.413C3.239,28.524,9.587,12.615,19.227,0H289.96a309.666,309.666,0,0,1-6.246,61.951,305.886,305.886,0,0,1-17.911,57.7A307.393,307.393,0,0,1,237.46,171.87a309.586,309.586,0,0,1-37.536,45.5A309.6,309.6,0,0,1,154.429,254.9a307.524,307.524,0,0,1-52.216,28.343q-5.161,2.183-10.409,4.177C62.3,259.094-10.763,175.185,1.341,48.413ZM289.96,0h0Z" transform="translate(324.234 213.51)" fill="#2565a5"/>
        <ellipse id="Ellipse_4" data-name="Ellipse 4" cx="307.329" cy="80.638" rx="307.329" ry="80.638" transform="translate(0 124.828)" fill="#5e3a3a"/>
        <ellipse id="Ellipse_5" data-name="Ellipse 5" cx="277.489" cy="64.408" rx="277.489" ry="64.408" transform="translate(29.841 136.212)" fill="#513333"/>
        <g id="Group_11" data-name="Group 11" transform="translate(44.914 84.695)">
          <path id="Path_42" data-name="Path 42" d="M524.85,0,.014.1V59.412C0,59.8,0,60.186.014,60.575v.042h0c.189,3.532,1.942,7.111,5.414,10.7C34.679,101.543,173.443,121,315.371,114.768c123.235-5.408,208.316-28.4,209.447-54.151h.032Z" transform="translate(0 55.781)" fill="#ad2b5d"/>
          <path id="Path_43" data-name="Path 43" d="M0,81.8c0,9.012.411,17.926,1.167,26.74,53.539,6.525,118.03,9.083,183.194,6.224,123.235-5.408,208.316-28.4,209.447-54.151h.032V0L10.978.07A308.473,308.473,0,0,0,0,81.8Z" transform="translate(131.009 55.781)" fill="#9b2656"/>
          <path id="Path_44" data-name="Path 44" d="M0,85.889q16.142-.274,32.429-.971c56.578-2.483,105.1-8.675,141.165-17.136V0H0Z" transform="translate(282.942 85.63)" fill="#7f1b48"/>
          <ellipse id="Ellipse_6" data-name="Ellipse 6" cx="262.383" cy="55.878" rx="262.383" ry="55.878" transform="translate(0.032)" fill="#f73e3e"/>
          <ellipse id="Ellipse_7" data-name="Ellipse 7" cx="217.568" cy="44.668" rx="217.568" ry="44.668" transform="translate(44.847 2.983)" fill="#ad2b5d"/>
        </g>
        <g id="Group_12" data-name="Group 12" transform="translate(94.69 31.404)">
          <path id="Path_45" data-name="Path 45" d="M425.3,0,.012.078V48.143a9.243,9.243,0,0,0,0,.943v.034h0c.152,2.862,1.573,5.761,4.387,8.669C28.1,82.281,140.543,98.045,255.552,93c99.858-4.383,168.8-23.013,169.719-43.878h.024Z" transform="translate(0 45.2)" fill="#d38527"/>
          <path id="Path_46" data-name="Path 46" d="M0,85.207C46.753,92.479,107.2,95.682,168.371,93c99.858-4.383,168.8-23.013,169.719-43.878h.024V0L30.574.056A306.012,306.012,0,0,0,0,85.207Z" transform="translate(87.181 45.2)" fill="#ce7411"/>
          <path id="Path_47" data-name="Path 47" d="M0,93.895c11.807-.09,23.732-.381,35.69-.907C86.636,90.752,129.5,84.8,159.427,76.745V0L0,.028Z" transform="translate(219.862 45.21)" fill="#bc5e00"/>
          <ellipse id="Ellipse_8" data-name="Ellipse 8" cx="212.614" cy="45.279" rx="212.614" ry="45.279" transform="translate(0.026)" fill="#f7aa43"/>
          <ellipse id="Ellipse_9" data-name="Ellipse 9" cx="158.755" cy="31.224" rx="158.755" ry="31.224" transform="translate(53.885 13.656)" fill="#d38527"/>
        </g>
        <g id="Group_13" data-name="Group 13" transform="translate(153.723 0)">
          <path id="Path_48" data-name="Path 48" d="M307.225,0,.007.056V34.778q-.015.34,0,.68v.024h0a9.9,9.9,0,0,0,3.169,6.264C20.3,59.438,101.527,70.825,184.6,67.181c72.137-3.167,121.939-16.625,122.6-31.7h.018Z" transform="translate(0 32.652)" fill="#f7d548"/>
          <path id="Path_49" data-name="Path 49" d="M0,59.476c35.037,6.692,84,9.883,133.627,7.7,72.137-3.167,121.939-16.625,122.6-31.7h.018V0L36.433.04A308.184,308.184,0,0,0,0,59.476Z" transform="translate(50.977 32.652)" fill="#f4bd34"/>
          <path id="Path_50" data-name="Path 50" d="M0,67.628c4.547-.112,9.109-.251,13.678-.451,42.316-1.857,76.925-7.259,98.46-14.448V0L0,.022Z" transform="translate(170.926 32.656)" fill="#eaa815"/>
          <ellipse id="Ellipse_10" data-name="Ellipse 10" cx="153.588" cy="32.709" rx="153.588" ry="32.709" transform="translate(0.019)" fill="#f7ee45"/>
          <ellipse id="Ellipse_11" data-name="Ellipse 11" cx="86.063" cy="8.984" rx="86.063" ry="8.984" transform="translate(67.554 22.328)" fill="#f7d548"/>
        </g>
        <path id="Path_54" data-name="Path 54" d="M0,0" transform="translate(175.727 180.302)" fill="#386eaf"/>
      </g>
    </g>
    <path id="Path_210" data-name="Path 210" d="M-2834.5,4856h-79.113l-83.847,86.847h-23.91" transform="translate(3815 -292)" fill="none" stroke="#fff" stroke-width="2"/>
    <path id="Path_211" data-name="Path 211" d="M-2834.5,4879h-79.113l-83.847,63.847h-95" transform="translate(3815 -183.5)" fill="none" stroke="#fff" stroke-width="2"/>
    <path id="Path_212" data-name="Path 212" d="M-2834.5,4879h-79.113l-83.847,63.847-164.875,4.16" transform="translate(3815 -74.5)" fill="none" stroke="#fff" stroke-width="2"/>
    <path id="Path_213" data-name="Path 213" d="M-2834.5,4879h-79.113l-83.847,63.847-92.337,73.288h-149.68" transform="translate(3815 35)" fill="none" stroke="#fff" stroke-width="2"/>
    <rect id="Rectangle_294" data-name="Rectangle 294" width="5" height="50" transform="translate(978 4539)" fill="#f7d548"/>
    <rect id="Rectangle_295" data-name="Rectangle 295" width="5" height="50" transform="translate(978 4671)" fill="#ff991f"/>
    <rect id="Rectangle_296" data-name="Rectangle 296" width="5" height="50" transform="translate(978 4780)" fill="#f73e3e"/>
    <rect id="Rectangle_297" data-name="Rectangle 297" width="5" height="50" transform="translate(978 4889)" fill="#2565a5"/>
  </g>
</svg>
