<svg xmlns="http://www.w3.org/2000/svg" xmlns:xlink="http://www.w3.org/1999/xlink" width="1280" height="720"><defs><clipPath id="clip0"><rect x="0" y="0" width="1280" height="720"></rect></clipPath></defs><g clip-path="url(#clip0)"><rect x="0" y="0" width="1280" height="720" fill="#FFFFFF"></rect><path d="M348 355 478.867 355.179" stroke="#A6A6A6" stroke-width="2" stroke-miterlimit="8" fill="none" fill-rule="evenodd"></path><path d="M636 355 772.733 355.179" stroke="#A6A6A6" stroke-width="2" stroke-miterlimit="8" fill="none" fill-rule="evenodd"></path><path d="M489 355 617.677 355.179" stroke="#A6A6A6" stroke-width="2" stroke-miterlimit="8" fill="none" fill-rule="evenodd"></path><path d="M178 355 328.285 355" stroke="#A6A6A6" stroke-width="2" stroke-miterlimit="8" fill="none" fill-rule="evenodd"></path><path d="M172.213 403.999C145.427 403.841 123.842 381.998 124.001 355.213 124.002 355.058 124.003 354.903 124.006 354.747" stroke="#A6A6A6" stroke-width="2" stroke-miterlimit="8" fill="none" fill-rule="evenodd"></path><path d="M0 360 165.095 360.179" stroke="#A6A6A6" stroke-width="2" stroke-miterlimit="8" fill="none" fill-rule="evenodd"></path><path d="M163 355C163 349.477 167.477 345 173 345 178.523 345 183 349.477 183 355 183 360.523 178.523 365 173 365 167.477 365 163 360.523 163 355Z" fill="#03A1A4" fill-rule="evenodd"></path><path d="M150 355.5C150 343.074 160.074 333 172.5 333 184.926 333 195 343.074 195 355.5 195 367.926 184.926 378 172.5 378 160.074 378 150 367.926 150 355.5ZM152.376 355.5C152.376 366.614 161.386 375.624 172.5 375.624 183.614 375.624 192.624 366.614 192.624 355.5 192.624 344.386 183.614 335.376 172.5 335.376 161.386 335.376 152.376 344.386 152.376 355.5Z" fill="#03A1A4" fill-rule="evenodd"></path><path d="M136 355.5C136 335.342 152.342 319 172.5 319 192.658 319 209 335.342 209 355.5 209 375.658 192.658 392 172.5 392 152.342 392 136 375.658 136 355.5ZM138.102 355.5C138.102 374.498 153.502 389.898 172.5 389.898 191.498 389.898 206.898 374.498 206.898 355.5 206.898 336.502 191.498 321.102 172.5 321.102 153.502 321.102 138.102 336.502 138.102 355.5Z" fill="#A6A6A6" fill-rule="evenodd"></path><path d="M0 0 0.000104987 108.492" stroke="#03A1A4" stroke-width="2" stroke-miterlimit="8" fill="none" fill-rule="evenodd" transform="matrix(1 0 0 -1 173 500.492)"></path><path d="M166 504.5C166 500.91 168.91 498 172.5 498 176.09 498 179 500.91 179 504.5 179 508.09 176.09 511 172.5 511 168.91 511 166 508.09 166 504.5Z" fill="#03A1A4" fill-rule="evenodd"></path><text fill="#03A1A4" font-family="Century Gothic,Century Gothic_MSFontService,sans-serif" font-weight="400" font-size="48" transform="translate(119.286 299)">2005<tspan fill="#767171" font-size="19" x="-14.3024" y="259">GSI FOUNDED</tspan></text><path d="M290.001 355.216C290.156 328.43 311.772 306.844 338.281 307.001 338.439 307.002 338.596 307.003 338.753 307.006" stroke="#A6A6A6" stroke-width="2" stroke-miterlimit="8" fill="none" fill-rule="evenodd"></path><path d="M328 355C328 349.477 332.477 345 338 345 343.523 345 348 349.477 348 355 348 360.523 343.523 365 338 365 332.477 365 328 360.523 328 355Z" fill="#EE9524" fill-rule="evenodd"></path><path d="M315 355.5C315 343.074 325.074 333 337.5 333 349.926 333 360 343.074 360 355.5 360 367.926 349.926 378 337.5 378 325.074 378 315 367.926 315 355.5ZM317.376 355.5C317.376 366.614 326.386 375.624 337.5 375.624 348.614 375.624 357.624 366.614 357.624 355.5 357.624 344.386 348.614 335.376 337.5 335.376 326.386 335.376 317.376 344.386 317.376 355.5Z" fill="#EE9524" fill-rule="evenodd"></path><path d="M301 355.5C301 335.342 317.342 319 337.5 319 357.658 319 374 335.342 374 355.5 374 375.658 357.658 392 337.5 392 317.342 392 301 375.658 301 355.5ZM303.102 355.5C303.102 374.498 318.502 389.898 337.5 389.898 356.498 389.898 371.898 374.498 371.898 355.5 371.898 336.502 356.498 321.102 337.5 321.102 318.502 321.102 303.102 336.502 303.102 355.5Z" fill="#A6A6A6" fill-rule="evenodd"></path><path d="M0 0 0.000104987 108.492" stroke="#EE9524" stroke-width="2" stroke-miterlimit="8" fill="none" fill-rule="evenodd" transform="matrix(1 0 0 -1 338 319.492)"></path><path d="M331 212.5C331 208.91 333.91 206 337.5 206 341.09 206 344 208.91 344 212.5 344 216.09 341.09 219 337.5 219 333.91 219 331 216.09 331 212.5Z" fill="#EE9524" fill-rule="evenodd"></path><text fill="#EE9524" font-family="Century Gothic,Century Gothic_MSFontService,sans-serif" font-weight="400" font-size="48" transform="translate(284.582 448)">2008<tspan fill="#767171" font-size="19" x="-24.8269" y="-329">INCORPORATED AS </tspan><tspan fill="#767171" font-size="19" x="-23.5735" y="-306">GLOBAL SPECIALTY </tspan><tspan fill="#767171" font-size="19" x="-13.6602" y="-284">INGREDIENTS (M) </tspan><tspan fill="#767171" font-size="19" x="16.8398" y="-262">SDN. BHD.</tspan></text><path d="M488.713 403.999C462.204 403.839 440.842 381.995 441.001 355.21 441.002 355.058 441.003 354.907 441.006 354.755" stroke="#A6A6A6" stroke-width="2" stroke-miterlimit="8" fill="none" fill-rule="evenodd"></path><path d="M479 355C479 349.477 483.477 345 489 345 494.523 345 499 349.477 499 355 499 360.523 494.523 365 489 365 483.477 365 479 360.523 479 355Z" fill="#EF3078" fill-rule="evenodd"></path><path d="M466 355.5C466 343.074 476.074 333 488.5 333 500.926 333 511 343.074 511 355.5 511 367.926 500.926 378 488.5 378 476.074 378 466 367.926 466 355.5ZM468.376 355.5C468.376 366.614 477.386 375.624 488.5 375.624 499.614 375.624 508.624 366.614 508.624 355.5 508.624 344.386 499.614 335.376 488.5 335.376 477.386 335.376 468.376 344.386 468.376 355.5Z" fill="#EF3078" fill-rule="evenodd"></path><path d="M452 355.5C452 335.342 468.342 319 488.5 319 508.658 319 525 335.342 525 355.5 525 375.658 508.658 392 488.5 392 468.342 392 452 375.658 452 355.5ZM454.102 355.5C454.102 374.498 469.502 389.898 488.5 389.898 507.498 389.898 522.898 374.498 522.898 355.5 522.898 336.502 507.498 321.102 488.5 321.102 469.502 321.102 454.102 336.502 454.102 355.5Z" fill="#A6A6A6" fill-rule="evenodd"></path><path d="M0 0 0.000104987 108.492" stroke="#EF3078" stroke-width="2" stroke-miterlimit="8" fill="none" fill-rule="evenodd" transform="matrix(1 0 0 -1 489 500.492)"></path><path d="M482 504.5C482 500.91 484.91 498 488.5 498 492.09 498 495 500.91 495 504.5 495 508.09 492.09 511 488.5 511 484.91 511 482 508.09 482 504.5Z" fill="#EF3078" fill-rule="evenodd"></path><text fill="#EF3078" font-family="Century Gothic,Century Gothic_MSFontService,sans-serif" font-weight="400" font-size="48" transform="translate(435.449 299)">2009<tspan fill="#767171" font-size="19" x="10.4167" y="236">MOVE TO </tspan><tspan fill="#767171" font-size="19" x="7.41672" y="259">WESTPORT </tspan><tspan fill="#767171" font-size="19" x="16.33" y="281">FACILITY</tspan></text><path d="M580.001 355.216C580.156 328.43 601.772 306.844 628.281 307.001 628.438 307.002 628.596 307.003 628.753 307.006" stroke="#A6A6A6" stroke-width="2" stroke-miterlimit="8" fill="none" fill-rule="evenodd"></path><path d="M618 355C618 349.477 622.477 345 628 345 633.523 345 638 349.477 638 355 638 360.523 633.523 365 628 365 622.477 365 618 360.523 618 355Z" fill="#1C7CBB" fill-rule="evenodd"></path><path d="M606 355.5C606 343.074 616.074 333 628.5 333 640.926 333 651 343.074 651 355.5 651 367.926 640.926 378 628.5 378 616.074 378 606 367.926 606 355.5ZM608.376 355.5C608.376 366.614 617.386 375.624 628.5 375.624 639.614 375.624 648.624 366.614 648.624 355.5 648.624 344.386 639.614 335.376 628.5 335.376 617.386 335.376 608.376 344.386 608.376 355.5Z" fill="#1C7CBB" fill-rule="evenodd"></path><path d="M592 355.5C592 335.342 608.342 319 628.5 319 648.658 319 665 335.342 665 355.5 665 375.658 648.658 392 628.5 392 608.342 392 592 375.658 592 355.5ZM594.102 355.5C594.102 374.498 609.502 389.898 628.5 389.898 647.498 389.898 662.898 374.498 662.898 355.5 662.898 336.502 647.498 321.102 628.5 321.102 609.502 321.102 594.102 336.502 594.102 355.5Z" fill="#A6A6A6" fill-rule="evenodd"></path><path d="M0 0 0.000104987 108.492" stroke="#1C7CBB" stroke-width="2" stroke-miterlimit="8" fill="none" fill-rule="evenodd" transform="matrix(1 0 0 -1 628 319.492)"></path><path d="M622 212.5C622 208.91 624.91 206 628.5 206 632.09 206 635 208.91 635 212.5 635 216.09 632.09 219 628.5 219 624.91 219 622 216.09 622 212.5Z" fill="#1C7CBB" fill-rule="evenodd"></path><text fill="#1C7CBB" font-family="Century Gothic,Century Gothic_MSFontService,sans-serif" font-weight="400" font-size="48" transform="translate(574.827 448)">2015<tspan fill="#767171" font-size="19" x="-21.83" y="-336">MANUFACTURED </tspan><tspan fill="#767171" font-size="19" x="-47.9166" y="-313">PRODUCTS LAUNCHED </tspan><tspan fill="#767171" font-size="19" x="31.8367" y="-291">WITH </tspan><tspan fill="#767171" font-size="19" x="-36.83" y="-269">HALAL AND KOSHER </tspan><tspan fill="#767171" font-size="19" x="-29.0833" y="-246">CERTIFIED FACILITY</tspan></text><path d="M782.713 403.999C756.204 403.839 734.842 381.995 735.001 355.21 735.002 355.058 735.003 354.907 735.006 354.755" stroke="#A6A6A6" stroke-width="2" stroke-miterlimit="8" fill="none" fill-rule="evenodd"></path><path d="M773 355C773 349.477 777.477 345 783 345 788.523 345 793 349.477 793 355 793 360.523 788.523 365 783 365 777.477 365 773 360.523 773 355Z" fill="#C00000" fill-rule="evenodd"></path><path d="M761 355.5C761 343.074 771.074 333 783.5 333 795.926 333 806 343.074 806 355.5 806 367.926 795.926 378 783.5 378 771.074 378 761 367.926 761 355.5ZM763.376 355.5C763.376 366.614 772.386 375.624 783.5 375.624 794.614 375.624 803.624 366.614 803.624 355.5 803.624 344.386 794.614 335.376 783.5 335.376 772.386 335.376 763.376 344.386 763.376 355.5Z" fill="#C00000" fill-rule="evenodd"></path><path d="M747 355.5C747 335.342 763.342 319 783.5 319 803.658 319 820 335.342 820 355.5 820 375.658 803.658 392 783.5 392 763.342 392 747 375.658 747 355.5ZM749.102 355.5C749.102 374.498 764.502 389.898 783.5 389.898 802.498 389.898 817.898 374.498 817.898 355.5 817.898 336.502 802.498 321.102 783.5 321.102 764.502 321.102 749.102 336.502 749.102 355.5Z" fill="#A6A6A6" fill-rule="evenodd"></path><path d="M0 0 0.000104987 108.492" stroke="#C00000" stroke-width="2" stroke-miterlimit="8" fill="none" fill-rule="evenodd" transform="matrix(1 0 0 -1 783 500.492)"></path><path d="M777 504.5C777 500.91 779.91 498 783.5 498 787.09 498 790 500.91 790 504.5 790 508.09 787.09 511 783.5 511 779.91 511 777 508.09 777 504.5Z" fill="#C00000" fill-rule="evenodd"></path><text fill="#C00000" font-family="Century Gothic,Century Gothic_MSFontService,sans-serif" font-weight="400" font-size="48" transform="translate(729.78 299)">2016<tspan fill="#767171" font-size="19" x="-31.6666" y="261">ISO 9001 CERTIFIED</tspan></text><path d="M144 586 192 586" stroke="#03A1A4" stroke-width="2" stroke-miterlimit="8" fill="none" fill-rule="evenodd"></path><path d="M458 588 506 588" stroke="#EF3078" stroke-width="2" stroke-miterlimit="8" fill="none" fill-rule="evenodd"></path><path d="M758 588 806 588" stroke="#C00000" stroke-width="2" stroke-miterlimit="8" fill="none" fill-rule="evenodd"></path><path d="M319 86 367 86.0001" stroke="#EE9524" stroke-width="2" stroke-miterlimit="8" fill="none" fill-rule="evenodd"></path><path d="M603 85 651 85.0001" stroke="#1C7CBB" stroke-width="2" stroke-miterlimit="8" fill="none" fill-rule="evenodd"></path><path d="M913.001 355.216C913.156 328.43 934.772 306.844 961.281 307.001 961.438 307.002 961.596 307.003 961.753 307.006" stroke="#A6A6A6" stroke-width="2" stroke-miterlimit="8" fill="none" fill-rule="evenodd"></path><path d="M951.5 355.5C951.5 349.977 955.977 345.5 961.5 345.5 967.023 345.5 971.5 349.977 971.5 355.5 971.5 361.023 967.023 365.5 961.5 365.5 955.977 365.5 951.5 361.023 951.5 355.5Z" stroke="#00B050" stroke-width="1.33333" stroke-miterlimit="8" fill="#00B050" fill-rule="evenodd"></path><path d="M938 355.5C938 343.074 948.074 333 960.5 333 972.926 333 983 343.074 983 355.5 983 367.926 972.926 378 960.5 378 948.074 378 938 367.926 938 355.5ZM940.376 355.5C940.376 366.614 949.386 375.624 960.5 375.624 971.614 375.624 980.624 366.614 980.624 355.5 980.624 344.386 971.614 335.376 960.5 335.376 949.386 335.376 940.376 344.386 940.376 355.5Z" fill="#00B050" fill-rule="evenodd"></path><path d="M924 355.5C924 335.342 940.342 319 960.5 319 980.658 319 997 335.342 997 355.5 997 375.658 980.658 392 960.5 392 940.342 392 924 375.658 924 355.5ZM926.102 355.5C926.102 374.498 941.502 389.898 960.5 389.898 979.498 389.898 994.898 374.498 994.898 355.5 994.898 336.502 979.498 321.102 960.5 321.102 941.502 321.102 926.102 336.502 926.102 355.5Z" fill="#A6A6A6" fill-rule="evenodd"></path><path d="M0 0 0.000104987 108.492" stroke="#00B050" stroke-width="2" stroke-miterlimit="8" fill="none" fill-rule="evenodd" transform="matrix(1 0 0 -1 961 319.492)"></path><path d="M954 212.5C954 208.91 956.91 206 960.5 206 964.09 206 967 208.91 967 212.5 967 216.09 964.09 219 960.5 219 956.91 219 954 216.09 954 212.5Z" fill="#00B050" fill-rule="evenodd"></path><text fill="#00B050" font-family="Century Gothic,Century Gothic_MSFontService,sans-serif" font-weight="400" font-size="48" transform="translate(907.52 448)">2021<tspan fill="#767171" font-size="19" x="-63.3367" y="-325">MOVE TO NEW FACILITY @ </tspan><tspan fill="#767171" font-size="19" x="-68.25" y="-302">TAMAN PERINDUSTRIAN AIR </tspan><tspan fill="#767171" font-size="19" x="-66.5833" y="-280">HITAM, KLANG, SELANGOR</tspan></text><path d="M932 86 980 86.0001" stroke="#00B050" stroke-width="2" stroke-miterlimit="8" fill="none" fill-rule="evenodd"></path><path d="M789 355 950.524 355" stroke="#A6A6A6" stroke-width="2" stroke-miterlimit="8" fill="none" fill-rule="evenodd"></path><path d="M967 355 1118.55 355" stroke="#A6A6A6" stroke-width="2" stroke-miterlimit="8" fill="none" fill-rule="evenodd"></path><path d="M1128.71 403.999C1102.2 403.839 1080.84 381.995 1081 355.21 1081 355.058 1081 354.907 1081.01 354.755" stroke="#A6A6A6" stroke-width="2" stroke-miterlimit="8" fill="none" fill-rule="evenodd"></path><path d="M1119 355C1119 349.477 1123.48 345 1129 345 1134.52 345 1139 349.477 1139 355 1139 360.523 1134.52 365 1129 365 1123.48 365 1119 360.523 1119 355Z" fill="#7030A0" fill-rule="evenodd"></path><path d="M1106 355.5C1106 343.074 1116.07 333 1128.5 333 1140.93 333 1151 343.074 1151 355.5 1151 367.926 1140.93 378 1128.5 378 1116.07 378 1106 367.926 1106 355.5ZM1108.38 355.5C1108.38 366.614 1117.39 375.624 1128.5 375.624 1139.61 375.624 1148.62 366.614 1148.62 355.5 1148.62 344.386 1139.61 335.376 1128.5 335.376 1117.39 335.376 1108.38 344.386 1108.38 355.5Z" fill="#7030A0" fill-rule="evenodd"></path><path d="M1092 355.5C1092 335.342 1108.34 319 1128.5 319 1148.66 319 1165 335.342 1165 355.5 1165 375.658 1148.66 392 1128.5 392 1108.34 392 1092 375.658 1092 355.5ZM1094.1 355.5C1094.1 374.498 1109.5 389.898 1128.5 389.898 1147.5 389.898 1162.9 374.498 1162.9 355.5 1162.9 336.502 1147.5 321.102 1128.5 321.102 1109.5 321.102 1094.1 336.502 1094.1 355.5Z" fill="#A6A6A6" fill-rule="evenodd"></path><path d="M0 0 0.000104987 108.492" stroke="#7030A0" stroke-width="2" stroke-miterlimit="8" fill="none" fill-rule="evenodd" transform="matrix(1 0 0 -1 1129 500.492)"></path><path d="M1122 504.5C1122 500.91 1124.91 498 1128.5 498 1132.09 498 1135 500.91 1135 504.5 1135 508.09 1132.09 511 1128.5 511 1124.91 511 1122 508.09 1122 504.5Z" fill="#7030A0" fill-rule="evenodd"></path><text fill="#7030A0" font-family="Century Gothic,Century Gothic_MSFontService,sans-serif" font-weight="400" font-size="48" transform="translate(1075.59 299)">2023</text><path d="M1098 588 1146 588" stroke="#7030A0" stroke-width="2" stroke-miterlimit="8" fill="none" fill-rule="evenodd"></path><text fill="#767171" font-family="Century Gothic,Century Gothic_MSFontService,sans-serif" font-weight="400" font-size="19" transform="translate(1043.49 540)">ACCOMPLISHING<tspan font-size="19" x="29.0867" y="23">FSSC 22000 </tspan><tspan font-size="19" x="12.42" y="45">CERTIFICATION</tspan></text><path d="M1139 355 1280.08 355" stroke="#A6A6A6" stroke-width="2" stroke-miterlimit="8" fill="none" fill-rule="evenodd"></path></g></svg>