<svg xmlns="http://www.w3.org/2000/svg" width="101.611" height="102.611" viewBox="0 0 101.611 102.611">
    <defs>
        <style>
            .cls-3{opacity:.5}.cls-2{fill:#3a3a3a}.cls-3{fill:#e37455}
        </style>
    </defs>
    <g id="box" opacity="0.5" transform="translate(-0.001 4.612)">
        <path id="Path_8" d="M396.785 52.145a1.986 1.986 0 1 0-1.4-.582 2 2 0 0 0 1.4.582zm0 0" class="cls-2" transform="translate(-316.448 -37.314)"/>
        <path id="Path_9" d="M247.985 314.926a1.985 1.985 0 1 0 1.4.581 2 2 0 0 0-1.4-.581zm0 0" class="cls-2" transform="translate(-197.178 -251.125)"/>
        <path id="Path_10" d="M3.5 21.764l9.095 9.612 34.577-18.2L37.8 2.95z" class="cls-3" transform="translate(0.986 2.133)"/>
        <path id="Path_11" d="M3.5 21.764l9.095 9.612 34.577-18.2L37.8 2.95z" class="cls-3" transform="translate(49.705 34.409)"/>
        <path id="Path_12" d="M0 19.4l3.305 12.687 35.856-17.858L35.377 0z" class="cls-3" transform="translate(29.262 26.475) rotate(56)"/>
        <path id="Path_13" d="M0 17.944l2.57 13.55 35.856-18.566L34.811 0z" class="cls-3" transform="translate(77.681 -4.612) rotate(56)"/>
        <path id="Path_7" d="M90.315 34.257l10.716-10.717a1.985 1.985 0 0 0-.448-3.143L87.7 13.324a1.985 1.985 0 0 0-1.91 3.476l10.565 5.8-9.2 9.2-33.074-18.163 9.2-9.2 9.3 5.1a1.985 1.985 0 0 0 1.91-3.479L63.882.245a1.984 1.984 0 0 0-2.358.336L50.807 11.3 40.09.581a1.985 1.985 0 0 0-2.359-.336L1.03 20.4a1.985 1.985 0 0 0-.448 3.14L11.3 34.257.582 44.972a1.985 1.985 0 0 0 .448 3.143L12.121 54.2v20.361a1.985 1.985 0 0 0 1.03 1.74l36.7 20.152a1.984 1.984 0 0 0 1.91 0L88.463 76.3a1.985 1.985 0 0 0 1.03-1.74V54.2l11.091-6.089a1.985 1.985 0 0 0 .448-3.143zM50.807 52.144L18.229 34.256l32.578-17.89 32.577 17.89zm-12.47-47.7l9.2 9.2L14.455 31.8l-9.2-9.2zM14.456 36.713l33.078 18.163-9.2 9.2L5.259 45.909zm71.067 36.674L52.791 91.36V71.073a1.985 1.985 0 0 0-3.969 0V91.36L16.09 73.387v-17l21.641 11.882a1.984 1.984 0 0 0 2.358-.336l10.718-10.718 10.716 10.717a1.984 1.984 0 0 0 2.358.336l21.642-11.883zm-22.246-9.315l-9.2-9.2 33.08-18.159 9.2 9.2zm0 0" class="cls-2" transform="translate(0 1.301)"/>
    </g>
</svg>
