<?xml version="1.0" encoding="utf-8"?>
<!-- Generator: Adobe Illustrator 24.1.1, SVG Export Plug-In . SVG Version: 6.00 Build 0)  -->
<svg version="1.1" id="Layer_1" xmlns="http://www.w3.org/2000/svg" xmlns:xlink="http://www.w3.org/1999/xlink" x="0px" y="0px"
	 viewBox="0 0 500 500" style="enable-background:new 0 0 500 500;" xml:space="preserve">
<style type="text/css">
	.st0{fill:#010101;filter:url(#Adobe_OpacityMaskFilter);}
	.st1{fill:#FFFFFF;}
	.st2{mask:url(#mask-2_2_);}
	.st3{fill-rule:evenodd;clip-rule:evenodd;fill:#FAA819;}
</style>
<g>
	<defs>
		<filter id="Adobe_OpacityMaskFilter" filterUnits="userSpaceOnUse" x="7.4" y="28.4" width="484.3" height="443.8">
			<feColorMatrix  type="matrix" values="1 0 0 0 0  0 1 0 0 0  0 0 1 0 0  0 0 0 1 0"/>
		</filter>
	</defs>
	<mask maskUnits="userSpaceOnUse" x="7.4" y="28.4" width="484.3" height="443.8" id="mask-2_2_">
		<rect x="-216.1" y="-154.2" class="st0" width="929.5" height="803.9"/>
		<g>
			<rect id="rect-1_3_" x="-216.1" y="-154.2" class="st1" width="929.5" height="803.9"/>
		</g>
	</mask>
	<g class="st2">
		<path class="st3" d="M47.3,28.4c32.4,2,87.4,26,116.8,35.7c44,14.5,83.1,20.6,117.8,39.3c35,18.8,75.7,30,107.8,48
			c68.4,38.4,80.1,26.5,89.3,60.8c-16.8,1.8-26-1.9-33.3-4.8c-12.3-4.9-18.7-7.5-46.2,23.3c-31.9,35.9-46.4,33.9-53.9,60.5
			c20.9-7.6,40.5-20.1,59.2-31.9c30.6-19.4,58.8-37.3,86.8-30.5c-1.2,27.3-44.8,36.1-101.3,67c-34,18.5-79.8,57.7-100.8,68.7
			c-41.3,21.8-32.4,21.6-52.2,32.8c-32.3,18.3-58.8,22.3-113.2,58c-23.3,15.3-35.9,20.5-69.3,14.7c-4.8-17.3-7.6-84.3-8.3-110.5
			L8.4,76.2c-8-29.9,36.3-50.6,36.7,10.3c0.1,17.3,0.7,33.2,2.3,50.5c13.8-8.2,5.5-0.7,17.4-15.7l42.9-52.8
			C80.2,57.8,50.7,59.2,47.3,28.4z M71.2,149.8c7.3-14.5,17.8-24.8,31.3-39.7c26.8-29.5,31.7-32.1,62.6-18.3
			C152.9,106.4,92.7,144.1,71.2,149.8z M145,146.8c-20.5,14.8-38.4,33.4-50.9,56.3c38.2-1.5,102.8-58.6,131.2-84.7
			c1-0.9,2.2-2.1,3.1-2.9l-24.5-11.2L145,146.8z M82.8,296.2c8.5-20.8,62.6-77.8,80.3-94.8c22-21.2,30.4-22.8,50.2-39.4
			c16.6-13.9,31.9-21.9,53.9-33.5c28.7,11,43.2,20.7,75.2,29.2c-13.2,25.6-71.9,73-97.3,95.1c-18.5,16.1-90.3,67.6-120.2,75.4
			c17.3-36.8,97.8-101.5,133.4-122.4c60.9-35.8,16.9-42.8,4.3-41.2c-8.8,1.1-10.2,1-10.5,1.5c-0.1,0.1-0.1,0.2-0.1,0.4
			c-0.1,0.7-0.4,2.1-4.5,5.3c-3.5,2.7-15.5,15.8-21.3,20.7c-16.1,13.6-29.2,26.2-45.3,38.8C160.7,247,105,288.8,82.8,296.2z
			 M87.7,169.6c-9.9,6.6-18.6,11.3-31.1,19.6L67,288c11.5-5.3,48.6-62.5,50.5-66.6c-25.4,9.6-15.8,15.3-41.8,15.7
			c-14.2-17.4-7.4-29.4,1.2-44.7C80.7,185.7,84.9,178.3,87.7,169.6z M129.4,405c0,4.7,0,5.5,0.4,6c0.5,0.7,1.9,0.8,5.2,12
			c-7.7,1.9-13.5,4.2-18.8,6.2c-9.6,3.7-17.7,6.9-32.4,6.5l-8-110.4l45.7-27.9c-10.5,27.9-24.3,32.6-26.9,44.8
			c-7.8,37.9,29.7,14.6,58.9-3.5c10.1-6.2,19.1-11.8,25-14.1c-10.4,20.7-20.4,17.5-23.8,38.8l52.8-50.3
			c52.5-50.3,69.1-53.5,115.9-94.5c3.1-2.7,6.3-5.8,9.6-9c15.9-15.6,34.3-33.6,58.7-20.3c-0.6,1.1-1.8,1.5-2.2,3.1L166.1,374.6
			c-9.3,10.2-16.5,21.9-36.8,26.7L129.4,405z M150.2,410.1l174.5-134.4l-23.6,50C291.3,337.3,193.6,396.7,150.2,410.1z"/>
	</g>
</g>
</svg>
