<svg xmlns="http://www.w3.org/2000/svg" width="40" height="24" viewBox="0 0 40 24">
    <defs>
        <style>
            .cls-1{fill:#3a3a3a}
        </style>
    </defs>
    <g id="dinner-table" transform="translate(0 -16)">
        <g id="Group">
            <g id="Group-2">
                <path id="Vector" d="M8.667 10.667H4V2a1.964 1.964 0 0 0-2-2H.667A.63.63 0 0 0 0 .667v22.666A.63.63 0 0 0 .667 24a.63.63 0 0 0 .667-.667v-8.666h8v8.667a.667.667 0 0 0 1.333 0V12.667a1.964 1.964 0 0 0-2-2zM1.333 1.333H2A.63.63 0 0 1 2.667 2v8.667H1.333zm8 12h-8V12h7.334a.63.63 0 0 1 .667.667z" class="cls-1" transform="translate(0 16)"/>
            </g>
        </g>
        <g id="Group-3">
            <g id="Group-4">
                <path id="Vector-2" d="M10 0H8.667a1.964 1.964 0 0 0-2 2v8.667H2a1.964 1.964 0 0 0-2 2v10.666A.63.63 0 0 0 .667 24a.63.63 0 0 0 .667-.667v-8.666h8v8.667a.667.667 0 0 0 1.333 0V.667A.63.63 0 0 0 10 0zm-.667 13.333h-8v-.667A.63.63 0 0 1 2 12h7.333zm0-2.667H8V2a.63.63 0 0 1 .667-.667h.667z" class="cls-1" transform="translate(29.333 16)"/>
            </g>
        </g>
        <path id="Line_19" fill="none" stroke="#e37455" stroke-width="3.5px" d="M0 0L17.6 0" opacity="0.5" transform="translate(11.2 24)"/>
        <g id="Group-5">
            <g id="Group-6">
                <path id="Vector-3" d="M19.333 0H.667A.63.63 0 0 0 0 .667v1.866a2.148 2.148 0 0 0 2.133 2.134h4.534v.667a1.964 1.964 0 0 0 2 2h.667V16h-2a1.964 1.964 0 0 0-2 2v1.333A.63.63 0 0 0 6 20h8a.63.63 0 0 0 .667-.667V18a1.964 1.964 0 0 0-2-2h-2V7.333h.667a1.964 1.964 0 0 0 2-2v-.666h4.533A2.148 2.148 0 0 0 20 2.533V.667A.63.63 0 0 0 19.333 0zm-6.666 17.333a.63.63 0 0 1 .667.667v.667H6.667V18a.63.63 0 0 1 .667-.667zm-.667-12a.63.63 0 0 1-.667.667H8.667A.63.63 0 0 1 8 5.333v-.666h4zm6.667-2.8a.811.811 0 0 1-.8.8H2.133a.77.77 0 0 1-.8-.8v-1.2h17.334z" class="cls-1" transform="translate(10 20)"/>
            </g>
        </g>
    </g>
</svg>
