<svg xmlns="http://www.w3.org/2000/svg" xmlns:xlink="http://www.w3.org/1999/xlink" width="62.585" height="63.481" viewBox="0 0 62.585 63.481">
  <defs>
    <rect id="rect-2" width="59.08" height="57.895" x="2.003" y="1.524"/>
    <mask id="mask-3" maskContentUnits="userSpaceOnUse" maskUnits="userSpaceOnUse">
      <rect width="62.585" height="63.481" x="0" y="0" fill="black"/>
      <use fill="white" xlink:href="#rect-2"/>
    </mask>
  </defs>
  <g>
    <ellipse cx="31.293" cy="31.741" fill="rgb(250,167,25)" rx="31.293" ry="31.741"/>
    <g>
      <use fill="none" xlink:href="#rect-2"/>
      <g mask="url(#mask-3)">
        <path fill="rgb(255,255,255)" fill-rule="evenodd" d="M16.53635062 17.70326172h30.01236725c.88290405 0 1.68669129.35339356 2.26696778.92321778.58155822.56872558.9421463 1.35632324.9421463 2.22155761v19.2421875c0 .86645508-.36151886 1.6529541-.9421463 2.22155762-.58155823.56982422-1.38406373.92321777-2.26696778.92321777H16.53635062c-.88291168 0-1.68669891-.35339355-2.2669754-.92321777-.58155823-.56872558-.9421463-1.35632324-.9421463-2.22155762v-19.2421875c0-.86645507.36151886-1.6529541.9421463-2.22155761.5815506-.56982422 1.38406372-.92321778 2.2669754-.92321778zm15.00707245 17.5119629L15.03469504 22.69776855l.00062561-1.8494873c0-.40356446.16970063-.7722168.44192505-1.03894044.27222443-.2668457.6484604-.43310546 1.06031037-.43310546h30.01236725c.41183471 0 .78808593.16625976 1.06030273.43310546.27220917.26672364.44192505.63537598.44192505 1.03894043v1.8494873L31.54342307 35.21522462zm7.02523041-3.21643067l8.62400818 9.42089844c.1552887-.07336426.29676056-.17163086.41737366-.28979492.27220916-.2668457.44192504-.63549805.44192504-1.0390625V24.80799805l-9.48330688 7.1907959zm-22.6752472 9.42138672l8.62400819-9.4210205-9.48350525-7.1907959v15.2828369c0 .40356446.16971588.7722168.44192505 1.0390625.1206131.11816407.26239013.21643067.41757202.289917zm2.15478516.1430664l7.8189621-8.54174804 5.1557846 3.91040039c.3179245.23937988.75341035.22644043 1.05355073-.0098877l5.14352417-3.9005127 7.8189621 8.54174805h-26.9907837z"/>
      </g>
    </g>
  </g>
</svg>
