<svg xmlns="http://www.w3.org/2000/svg" xmlns:xlink="http://www.w3.org/1999/xlink" width="62.585" height="63.481" viewBox="0 0 62.585 63.481">
  <defs>
    <rect id="rect-2" width="30" height="37" x="14.829" y="11.596"/>
    <mask id="mask-3" maskContentUnits="userSpaceOnUse" maskUnits="userSpaceOnUse">
      <rect width="62.585" height="63.481" x="0" y="0" fill="black"/>
      <use fill="white" xlink:href="#rect-2"/>
    </mask>
  </defs>
  <g>
    <ellipse cx="31.293" cy="31.741" fill="rgb(250,167,25)" rx="31.293" ry="31.741"/>
    <g>
      <use fill="none" xlink:href="#rect-2"/>
      <g mask="url(#mask-3)">
        <path fill="rgb(255,255,255)" fill-rule="evenodd" d="M29.69183005 43.60576857c.09633637.09692383.22285462.14575195.3488617.14575195.12647247-.00073242.25247955-.04943847.34880829-.14587402l9.06621551-9.1282959c5.19171906-5.22546386 5.19171906-13.7302246 0-18.95739746-2.51435089-2.53186035-5.85873413-3.92675781-9.41505432-3.92675781-3.55632019 0-6.89962768 1.39440918-9.4150467 3.92675781-2.51488494 2.53186035-3.9004898 5.89819336-3.9004898 9.4790039 0 3.58081056 1.3850708 6.94665528 3.89995575 9.47900391l9.06674957 9.12780762zM21.322369 16.22222365c2.32894135-2.34423828 5.4249878-3.63586426 8.71831513-3.63586426 3.29386139-.00024414 6.38977814 1.2902832 8.71831512 3.63500977 4.80690003 4.84008789 4.80690003 12.7145996 0 17.553833l-8.71831512 8.77697754-8.71778107-8.77697753c-2.32853698-2.34411622-3.6115036-5.46154786-3.6115036-8.77648926 0-3.3149414 1.28243256-6.43225098 3.61096954-8.77648926z"/>
        <path fill="rgb(255,255,255)" fill-rule="evenodd" d="M21.16348685 24.50176467c0 4.92797851 3.98220063 8.93701171 8.8772049 8.93701171 4.89500427 0 8.8772049-4.0090332 8.8772049-8.93701171 0-4.92797852-3.98220063-8.93701172-8.8772049-8.93701172-4.89500427 0-8.8772049 4.0090332-8.8772049 8.93701172zm.98625183.00085449c0-4.38000489 3.54006196-7.9440918 7.89095307-7.9440918 4.35076141 0 7.89095306 3.56384277 7.89095306 7.9440918 0 4.38000488-3.54019165 7.9440918-7.89095306 7.9440918-4.35076141 0-7.89095307-3.56384278-7.89095307-7.9440918z"/>
        <path fill="rgb(255,255,255)" fill-rule="evenodd" d="M26.58860435 24.50176467c0 1.91638183 1.54849243 3.4753418 3.45207977 3.4753418 1.90306091 0 3.4520874-1.55895997 3.4520874-3.4753418 0-1.91638184-1.54902649-3.4753418-3.4520874-3.4753418-1.90358734 0-3.45207977 1.55895996-3.45207977 3.4753418zm.98612213-.00012207c0-1.36914063 1.10648346-2.48254395 2.46596527-2.48254395 1.3600235 0 2.46596527 1.11340332 2.46596527 2.48254395 0 1.3692627-1.10648346 2.48254394-2.46596527 2.48254394-1.3600235 0-2.46596527-1.1138916-2.46596527-2.48254394z"/>
        <path fill="rgb(255,255,255)" fill-rule="evenodd" d="M44.34328191 48.33277895H15.73943075c-.1541161 0-.29939471-.07233812-.39259483-.19604266-.09320011-.12370455-.12392336-.28411358-.08226856-.43351073l2.46596415-8.93699034c.0588379-.21440027.25304791-.36326065.47434487-.36326065h4.9319283c.27232241 0 .49308619.22172722.49308619.49640702s-.22076378.49640702-.4930862.49640702h-4.55710174l-2.19204219 7.94409578h27.30688732l-2.191509-7.94409578h-3.5703162c-.27284227 0-.4930862-.22172722-.4930862-.49640702s.22024393-.49640702.4930862-.49640702h3.94527605c.22129695 0 .41602814.1488738.47538456.36326065l2.46596415 8.93699034c.04113362.14939715.0104137.30979813-.08278841.43351073-.09320278.1237099-.23795888.19604266-.39259482.19604266h-.00068248z"/>
      </g>
    </g>
  </g>
</svg>
