<?xml version="1.0" encoding="utf-8"?>
<!-- Generator: Adobe Illustrator 24.1.1, SVG Export Plug-In . SVG Version: 6.00 Build 0)  -->
<svg version="1.1" id="Layer_1" xmlns="http://www.w3.org/2000/svg" xmlns:xlink="http://www.w3.org/1999/xlink" x="0px" y="0px"
	 viewBox="0 0 500 500" style="enable-background:new 0 0 500 500;" xml:space="preserve">
<style type="text/css">
	.st0{fill:#010101;filter:url(#Adobe_OpacityMaskFilter);}
	.st1{fill:#FFFFFF;}
	.st2{mask:url(#mask-2_2_);}
	.st3{fill-rule:evenodd;clip-rule:evenodd;fill:#FAA819;}
</style>
<g>
	<defs>
		<filter id="Adobe_OpacityMaskFilter" filterUnits="userSpaceOnUse" x="18.2" y="93.9" width="469.6" height="324.2">
			<feColorMatrix  type="matrix" values="1 0 0 0 0  0 1 0 0 0  0 0 1 0 0  0 0 0 1 0"/>
		</filter>
	</defs>
	<mask maskUnits="userSpaceOnUse" x="18.2" y="93.9" width="469.6" height="324.2" id="mask-2_2_">
		<rect x="-190.8" y="-187.8" class="st0" width="887.7" height="887.7"/>
		<g>
			<rect id="rect-1_3_" x="-190.8" y="-187.8" class="st1" width="887.7" height="887.7"/>
		</g>
	</mask>
	<g class="st2">
		<path class="st3" d="M62.9,93.9c-24.8,0-44.7,20.9-44.7,45.9v232.2c0,25.1,19.9,46.1,44.7,46.1h380.2c24.8,0,44.7-21,44.7-46.1
			V139.9c0-25.1-19.9-45.9-44.7-45.9H62.9z M62.9,116.3h380.2c3.3,0,6.5,0.8,9.3,2.1l-184.8,171c-8.5,7.9-19.9,7.9-28.5,0
			l-185.2-171C56.6,117.1,59.7,116.3,62.9,116.3z M172.1,258.2L40.9,136.9c-0.1,1-0.4,1.9-0.4,3v232.2c0,4.2,1.1,8,2.8,11.4
			L172.1,258.2z M465.1,137.1c0.1,0.9,0.3,1.8,0.3,2.8v232.2c0,4.1-1,7.9-2.6,11.2L334.4,258L465.1,137.1z M443.8,395.8L318.2,273
			l-35.5,32.8c-16.6,15.3-42.3,15.3-58.9,0l-35.3-32.7L62.4,395.8H443.8z"/>
	</g>
</g>
</svg>
