<svg xmlns="http://www.w3.org/2000/svg" width="33.409" height="30" viewBox="0 0 33.409 30">
    <g>
        <path fill="none" stroke="#e37455" stroke-linecap="round" stroke-width="3.5px" d="M0 0h17.707" opacity="0.5" transform="translate(-163 -1057) translate(170.813 1076.325)"/>
        <g>
            <path fill="#3a3a3a" d="M33.271 11.466a4.466 4.466 0 0 0-3.507-3.039c-.139-.026-.278-.022-.418-.037C28.091 3.5 23.3 0 17.634 0h-1.856C10.111 0 5.322 3.5 4.065 8.39a4.9 4.9 0 0 0-2.43.935A4 4 0 0 0 0 12.5a4.047 4.047 0 0 0 1.856 3.316v7.517A3.281 3.281 0 0 0 3.712 26.2v1.3A2.657 2.657 0 0 0 6.5 30a2.657 2.657 0 0 0 2.784-2.5v-.833h14.85v.833a2.8 2.8 0 0 0 5.569 0v-1.3a3.281 3.281 0 0 0 1.856-2.87v-7.513a3.95 3.95 0 0 0 1.712-4.351zm-17.495-9.8h1.856a10.007 10.007 0 0 1 9.839 6.853 4.815 4.815 0 0 0-1.626.745 4 4 0 0 0-1.716 3.236v4.167H9.28v-3.989a4.4 4.4 0 0 0-3.341-4.163 10.009 10.009 0 0 1 9.837-6.848zm10.208 17.5a.885.885 0 0 1-.928.833H8.352a.838.838 0 1 1 0-1.667h16.7a.885.885 0 0 1 .933.835zM7.424 27.5a.885.885 0 0 1-.928.833.885.885 0 0 1-.928-.833v-.833h1.856zm20.417 0a.933.933 0 0 1-1.856 0v-.833h1.856zm2.317-12.849a.821.821 0 0 0-.461.72v7.962A1.771 1.771 0 0 1 27.841 25H5.568a1.771 1.771 0 0 1-1.856-1.667v-7.962a.823.823 0 0 0-.461-.72A2.44 2.44 0 0 1 1.856 12.5a2.4 2.4 0 0 1 .981-1.905 3 3 0 0 1 2.277-.56 2.7 2.7 0 0 1 2.31 2.643v4.142a2.531 2.531 0 0 0-1.856 2.346 2.656 2.656 0 0 0 2.784 2.5h16.7a2.656 2.656 0 0 0 2.784-2.5 2.531 2.531 0 0 0-1.856-2.346V12.5a2.4 2.4 0 0 1 1.03-1.942 3.022 3.022 0 0 1 2.366-.5 2.651 2.651 0 0 1 2.084 1.8 2.385 2.385 0 0 1-1.302 2.793z" transform="translate(-163 -1057) translate(163 1057)"/>
        </g>
    </g>
</svg>
