<svg xmlns="http://www.w3.org/2000/svg" width="33.833" height="35" viewBox="0 0 33.833 35">
    <defs>
        <style>
            .cls-1{fill:#3a3a3a}
        </style>
    </defs>
    <g id="lightbulb" transform="translate(-0.584)">
        <g id="Group">
            <g id="Group-2">
                <path id="Vector" d="M2.917 0H.583a.583.583 0 0 0 0 1.167h2.334a.583.583 0 0 0 0-1.167z" class="cls-1" transform="translate(0.584 15.166)"/>
            </g>
        </g>
        <g id="Group-3">
            <g id="Group-4">
                <path id="Vector-2" d="M2.755 1.931L.989.164a.583.583 0 0 0-.825.825l1.767 1.766a.583.583 0 0 0 .825-.825z" class="cls-1" transform="translate(5.257 3.507)"/>
            </g>
        </g>
        <g id="Group-5">
            <g id="Group-6">
                <path id="Vector-3" d="M.583 0A.583.583 0 0 0 0 .583v2.334a.583.583 0 1 0 1.167 0V.583A.583.583 0 0 0 .583 0z" class="cls-1" transform="translate(16.917)"/>
            </g>
        </g>
        <g id="Group-7">
            <g id="Group-8">
                <path id="Vector-4" d="M2.748.164a.583.583 0 0 0-.811 0L.171 1.931A.583.583 0 1 0 1 2.755L2.763.989a.583.583 0 0 0-.015-.825z" class="cls-1" transform="translate(26.816 3.507)"/>
            </g>
        </g>
        <g id="Group-9">
            <g id="Group-10">
                <path id="Vector-5" d="M2.917 0H.583a.583.583 0 1 0 0 1.167h2.334a.583.583 0 1 0 0-1.167z" class="cls-1" transform="translate(30.916 15.166)"/>
            </g>
        </g>
        <g id="Group-11">
            <g id="Group-12">
                <path id="Vector-6" d="M2.755 1.931L.989.164a.583.583 0 0 0-.825.825l1.767 1.766a.583.583 0 0 0 .825-.825z" class="cls-1" transform="translate(26.823 25.073)"/>
            </g>
        </g>
        <g id="Group-13">
            <g id="Group-14">
                <path id="Vector-7" d="M2.748.164a.583.583 0 0 0-.811 0L.171 1.931A.583.583 0 1 0 1 2.755L2.763.989a.583.583 0 0 0-.015-.825z" class="cls-1" transform="translate(5.25 25.073)"/>
            </g>
        </g>
        <path id="Rectangle_28" fill="#e37455" d="M0 0h7l-.35 5.95H.35z" opacity="0.5" transform="translate(14 28)"/>
        <g id="Group-15">
            <g id="Group-16">
                <path id="Vector-8" d="M11.1 0A11.083 11.083 0 0 0 .015 10.515 11.335 11.335 0 0 0 5.2 20.634a4.025 4.025 0 0 1 1.8 3.38v3.679c0 .012.006.022.006.033a.564.564 0 0 0 .023.117.529.529 0 0 0 .037.11.311.311 0 0 0 .01.032l1 1.75a.583.583 0 0 0 .506.292h5a.583.583 0 0 0 .506-.292l1-1.75a.311.311 0 0 0 .01-.032.529.529 0 0 0 .037-.11.564.564 0 0 0 .023-.117c0-.012.006-.022.006-.033v-3.68A4.025 4.025 0 0 1 17 20.608a11.41 11.41 0 0 0 5.167-9.508A11.083 11.083 0 0 0 11.1 0zm2.147 28.859H8.922l-.333-.583h4.99zm.753-1.75H8.167v-1.166H14zm0-3.1v.764H8.167v-.762c0-.136-.015-.27-.024-.4h5.883c-.011.133-.026.266-.026.402zm2.372-4.385a5.152 5.152 0 0 0-2.125 2.816h-2.58v-8.816l2.791-2.34a.583.583 0 1 0-.75-.894l-2.625 2.2-2.625-2.2a.583.583 0 0 0-.75.894l2.792 2.339v8.82H7.925a5.038 5.038 0 0 0-2.1-2.794 10.164 10.164 0 0 1-4.649-9.077 10 10 0 0 1 9.527-9.444 9.8 9.8 0 0 1 7.233 2.764A9.921 9.921 0 0 1 21 11.1a10.232 10.232 0 0 1-4.628 8.527z" class="cls-1" transform="translate(6.416 4.973)"/>
            </g>
        </g>
    </g>
</svg>
