<?xml version="1.0" encoding="utf-8"?>
<!-- Generator: Adobe Illustrator 24.1.1, SVG Export Plug-In . SVG Version: 6.00 Build 0)  -->
<svg version="1.1" id="Layer_1" xmlns="http://www.w3.org/2000/svg" xmlns:xlink="http://www.w3.org/1999/xlink" x="0px" y="0px"
	 viewBox="0 0 500 500" style="enable-background:new 0 0 500 500;" xml:space="preserve">
<style type="text/css">
	.st0{fill:#010101;filter:url(#Adobe_OpacityMaskFilter);}
	.st1{fill:#FFFFFF;}
	.st2{mask:url(#mask-2_2_);}
	.st3{fill-rule:evenodd;clip-rule:evenodd;fill:#FAA819;}
</style>
<g>
	<defs>
		<filter id="Adobe_OpacityMaskFilter" filterUnits="userSpaceOnUse" x="105" y="15.1" width="291.6" height="471.9">
			<feColorMatrix  type="matrix" values="1 0 0 0 0  0 1 0 0 0  0 0 1 0 0  0 0 0 1 0"/>
		</filter>
	</defs>
	<mask maskUnits="userSpaceOnUse" x="105" y="15.1" width="291.6" height="471.9" id="mask-2_2_">
		<rect x="-162.2" y="-162.2" class="st0" width="826" height="826"/>
		<g>
			<rect id="rect-1_3_" x="-162.2" y="-162.2" class="st1" width="826" height="826"/>
		</g>
	</mask>
	<g class="st2">
		<path class="st3" d="M250.8,487c-2.8,0-5.3-1.4-6.8-3.7c-2.6-4-68.7-105.5-108.6-203c-17.8-43.4-30.3-86.2-30.3-119.5
			c0-80.5,65.3-145.8,145.8-145.8c80.5,0,145.8,65.3,145.8,145.8c0,33.3-12.5,76-30.3,119.5c-40.7,99.5-108.6,203-108.6,203
			C256.1,485.6,253.6,487,250.8,487L250.8,487z M169,316c30.5,64.6,67,124.2,81.9,147.8c14.9-23.6,51.3-83.2,81.9-147.8
			c25.9-54.7,47.7-112.9,47.7-155.2c0-71.5-58.1-129.5-129.5-129.5c-71.5,0-129.5,58.1-129.5,129.5C121.3,203.2,143.1,261.3,169,316
			z M250.8,62.1c-58.3,0-105.6,47.3-105.6,105.6s47.3,105.6,105.6,105.6S356.4,226,356.4,167.7S309.1,62.1,250.8,62.1z M340.2,167.7
			c0-49.3-40-89.3-89.3-89.3s-89.3,40-89.3,89.3c0,49.3,40,89.3,89.3,89.3S340.2,217,340.2,167.7z"/>
	</g>
</g>
</svg>
