<svg xmlns="http://www.w3.org/2000/svg" width="28.786" height="30" viewBox="0 0 28.786 30">
    <defs>
        <style>
            .cls-1{fill:#3a3a3a}.cls-2{fill:#e37455;opacity:.5}
        </style>
    </defs>
    <g id="discount" transform="translate(-0.607 0)">
        <g id="Group">
            <g id="Group-2">
                <path id="Vector" d="M27.4 15.389a.879.879 0 0 1 0-.777l1.119-2.289a2.6 2.6 0 0 0-1.124-3.458L25.143 7.67a.879.879 0 0 1-.457-.629l-.44-2.509A2.6 2.6 0 0 0 21.3 2.395l-2.523.357a.879.879 0 0 1-.739-.24L16.211.74a2.6 2.6 0 0 0-3.636 0l-1.831 1.771a.879.879 0 0 1-.739.24l-2.523-.356A2.6 2.6 0 0 0 4.54 4.532l-.44 2.51a.879.879 0 0 1-.457.629l-2.25 1.193a2.6 2.6 0 0 0-1.124 3.459l1.119 2.289a.879.879 0 0 1 0 .777L.269 17.678a2.6 2.6 0 0 0 1.124 3.458l2.25 1.194a.879.879 0 0 1 .457.629l.44 2.509a2.6 2.6 0 0 0 2.567 2.164 2.676 2.676 0 0 0 .375-.026L10 27.249a.879.879 0 0 1 .739.24l1.831 1.771a2.6 2.6 0 0 0 3.636 0l1.831-1.771a.88.88 0 0 1 .739-.24l2.523.357a2.6 2.6 0 0 0 2.942-2.137l.44-2.509a.879.879 0 0 1 .457-.629l2.251-1.194a2.6 2.6 0 0 0 1.124-3.458zm-.816 4.219L24.332 20.8a2.6 2.6 0 0 0-1.35 1.858l-.44 2.509a.881.881 0 0 1-1 .723l-2.523-.357a2.6 2.6 0 0 0-2.184.71l-1.831 1.771a.881.881 0 0 1-1.23 0l-1.831-1.771a2.6 2.6 0 0 0-1.812-.736 2.656 2.656 0 0 0-.372.026l-2.523.357a.881.881 0 0 1-1-.723L5.8 22.66a2.6 2.6 0 0 0-1.346-1.86L2.2 19.607a.881.881 0 0 1-.38-1.17l1.119-2.289a2.6 2.6 0 0 0 0-2.3l-1.116-2.285a.881.881 0 0 1 .38-1.17L4.454 9.2A2.6 2.6 0 0 0 5.8 7.34l.44-2.509a.881.881 0 0 1 1-.723l2.523.357a2.6 2.6 0 0 0 2.184-.71l1.831-1.771a.881.881 0 0 1 1.23 0l1.831 1.771a2.6 2.6 0 0 0 2.184.71l2.523-.357a.881.881 0 0 1 1 .723l.44 2.509a2.6 2.6 0 0 0 1.346 1.86l2.251 1.194a.881.881 0 0 1 .38 1.17l-1.119 2.289a2.6 2.6 0 0 0 0 2.3l1.119 2.289a.881.881 0 0 1-.381 1.166z" class="cls-1" transform="translate(0.607 0)"/>
            </g>
        </g>
        <g id="Group-3">
            <g id="Group-4">
                <path id="Vector-2" d="M12.9.253a.865.865 0 0 0-1.223 0L.253 11.673A.865.865 0 1 0 1.477 12.9L12.9 1.477a.865.865 0 0 0 0-1.224z" class="cls-1" transform="translate(8.425 8.425)"/>
            </g>
        </g>
        <circle id="Ellipse_1" cx="1.8" cy="1.8" r="1.8" class="cls-2" transform="translate(9.6 8.4)"/>
        <circle id="Ellipse_2" cx="1.8" cy="1.8" r="1.8" class="cls-2" transform="translate(16.8 18)"/>
        <g id="Group-5">
            <g id="Group-6">
                <path id="Vector-3" d="M3.172 0a3.172 3.172 0 1 0 3.172 3.172A3.176 3.176 0 0 0 3.172 0zm0 4.614a1.442 1.442 0 1 1 1.442-1.442 1.444 1.444 0 0 1-1.442 1.442z" class="cls-1" transform="translate(8.367 7.214)"/>
            </g>
        </g>
        <g id="Group-7">
            <g id="Group-8">
                <path id="Vector-4" d="M3.172 0a3.172 3.172 0 1 0 3.172 3.172A3.176 3.176 0 0 0 3.172 0zm0 4.614a1.442 1.442 0 1 1 1.442-1.442 1.444 1.444 0 0 1-1.442 1.442z" class="cls-1" transform="translate(15.288 16.442)"/>
            </g>
        </g>
    </g>
</svg>
