<svg xmlns="http://www.w3.org/2000/svg" xmlns:xlink="http://www.w3.org/1999/xlink" width="62.585" height="63.481" viewBox="0 0 62.585 63.481">
  <defs>
    <rect id="rect-2" width="62.585" height="63.481" x="0" y="0"/>
    <mask id="mask-3" maskContentUnits="userSpaceOnUse" maskUnits="userSpaceOnUse">
      <rect width="62.585" height="63.481" x="0" y="0" fill="black"/>
      <use fill="white" xlink:href="#rect-2"/>
    </mask>
  </defs>
  <g>
    <ellipse cx="31.293" cy="31.741" fill="rgb(250,167,25)" rx="31.293" ry="31.741"/>
    <g>
      <use fill="none" xlink:href="#rect-2"/>
      <g mask="url(#mask-3)">
        <path fill="rgb(255,255,255)" fill-rule="evenodd" d="M37.90172233 52.52626033l4.74282837-4.74938964-.00215912-.00286866c.34525299-.34436035.35923767-.90228271.0377121-1.26434326l.001297-.00128174-7.10857392-8.01037597c-.2873764-.32476807-.75227356-.39074707-1.1128006-.18695069l-3.13459015 1.4907837-6.91706848-12.1517334 2.89339447-2.04608155c.33224487-.2364502.45968628-.6585083.3403778-1.03149414h.00227357l-3.2848053-10.2498169c-.15380096-.48077392-.66352844-.7435913-1.13751984-.58758544l-.01657867.0059204-6.42879486 1.79187013c-.34199524.09466552-.58322144.37658691-.64694214.70635986H16.127499c-1.34200287 6.98120117.54745483 14.96710205 4.42098999 21.77349853 3.87578583 6.8088379 9.75146484 12.46246338 16.38116455 14.77368164.35731506.125.73670197.00958252.97206879-.26019287zm2.86277008-5.43774414l-6.08582306-6.85778808-3.33548737 1.58538818c-.43400573.2064209-.94702148.03131104-1.17297363-.39105225l-7.7344284-13.58685302c-.23406983-.41381836-.11346436-.93548584.2649536-1.20428467l3.02239991-2.13702393-2.81175995-8.77679443-5.10692596 1.42352295c-1.05596161 6.40576172.740242 13.69317627 4.30755615 19.95855713 3.5648346 6.26391601 8.88785553 11.48339844 14.88465881 13.75866699l3.7678299-3.77233887zM33.63544883 17.5677032c-.48244476-.1305542-.7685318-.63311767-.6397934-1.12145996.12874604-.4880371.62419129-.77954101 1.10564423-.64898681 4.59718323 1.2498169 8.26174164 4.2732544 10.46886444 8.1531372 2.20771027 3.8762207 2.95615387 8.60626221 1.72400665 13.2685547-.1287384.4880371-.62418365.779541-1.10564422.64892577-.48244477-.1305542-.7685318-.63311767-.6397934-1.12145996 1.1030655-4.17962646.43400574-8.41589355-1.54065704-11.88580322-1.9733429-3.4673462-5.25457001-6.17193604-9.37445832-7.29211426l.00183106-.00079346zm-1.79262543 3.24310303c-.1287384.48834229.15865326.99090576.6397934 1.12145996 2.93209839.79577637 5.26631164 2.71954346 6.66973114 5.18676758 1.40473175 2.46850586 1.88131714 5.48254395 1.09490967 8.45684815-.12874604.48834228.15865325.99090576.6397934 1.12145996.48145293.13061523.97689818-.16088868 1.10563659-.64892578.9128952-3.456604.35728454-6.96350098-1.2792511-9.83959961-1.63886261-2.8770752-4.35598755-5.12103272-7.76496887-6.04699707-.48145294-.1305542-.9768982.1609497-1.10564423.64898681zm-.52020264 5.51245117c-.48114013-.1305542-.7685318-.63311767-.6397934-1.12145996.12874604-.48937988.6241913-.77954101 1.10564423-.64898681 2.2158661.60217285 3.98114777 2.05804443 5.04418183 3.92541504 1.0640335 1.86871337 1.42489624 4.1486206.83258057 6.39483642-.1287384.48803711-.62418366.77954102-1.10564423.64898682-.48114014-.13061524-.7685318-.63311768-.63978577-1.121521.46456146-1.75952148.18334961-3.54412842-.64792633-5.00360107-.83258056-1.46209717-2.21361542-2.6013794-3.94927215-3.0725708l.00001525-.00109864z"/>
      </g>
    </g>
  </g>
</svg>
