<svg xmlns="http://www.w3.org/2000/svg" width="200" height="144" viewBox="66 4487 200 144"><path d="M158.512 4631v-10.834l-.67-.398c-12.375-7.346-21.814-15.728-28.054-24.913-5.92-8.714-9.419-17.308-10.41-25.567 5.28-.936 10.054-2.54 14.205-4.771a37.625 37.625 0 0 0 11.58-9.605c3.15-3.917 5.548-8.042 7.128-12.26a37.5 37.5 0 0 0 2.39-13.199c0-7.37-1.87-14.427-5.562-20.974-3.695-6.556-8.94-11.832-15.588-15.68-6.645-3.848-14.004-5.799-21.873-5.799-4.98 0-9.634.643-13.833 1.91-4.223 1.274-8.1 3.215-11.525 5.767-6.782 5.055-11.92 11.425-15.274 18.932-3.335 7.467-5.026 15.29-5.026 23.25 0 5.818.78 11.857 2.316 17.95 1.531 6.073 3.858 12.368 6.916 18.712 3.069 6.365 7.1 12.51 11.98 18.266 4.867 5.74 10.716 11.252 17.385 16.383 6.683 5.142 14.474 9.64 23.157 13.371 8.658 3.72 18.448 6.78 29.097 9.098l1.66.361Zm-2.74-9.283v5.882c-20.177-4.579-36.826-11.84-49.502-21.593-13.014-10.013-22.626-21.341-28.57-33.67-5.946-12.335-8.961-24.272-8.961-35.478 0-7.574 1.611-15.021 4.789-22.137 3.16-7.075 8.009-13.082 14.411-17.855 6.35-4.733 14.33-7.133 23.719-7.133 7.38 0 14.277 1.827 20.499 5.429 6.219 3.6 11.123 8.532 14.575 14.657 3.458 6.133 5.21 12.739 5.21 19.634 0 8.4-2.999 16.39-8.915 23.75-5.895 7.333-14.425 11.908-25.355 13.598l-1.268.196.114 1.276c.408 4.567 1.546 9.255 3.38 13.932 1.824 4.652 4.389 9.424 7.623 14.184 3.24 4.769 7.322 9.355 12.132 13.63 4.622 4.108 10.042 8.041 16.12 11.698ZM266 4630.99v-10.831l-.678-.396c-12.057-7.03-21.414-15.293-27.812-24.558-6.074-8.795-9.798-17.51-11.081-25.924 5.264-.938 10.033-2.537 14.191-4.763a38.206 38.206 0 0 0 11.667-9.599c3.19-3.918 5.62-8.043 7.22-12.262a37.086 37.086 0 0 0 2.423-13.204c0-5.65-1.052-11.022-3.128-15.965-2.073-4.936-5.22-9.57-9.353-13.776-4.142-4.215-8.856-7.423-14.013-9.534-5.15-2.109-10.872-3.178-17.009-3.178-7.11 0-13.517 1.299-19.04 3.86-5.546 2.571-10.34 6.477-14.248 11.61-3.863 5.07-6.802 10.536-8.736 16.244-1.934 5.709-2.915 11.813-2.915 18.144 0 5.819.78 11.858 2.316 17.951 1.531 6.073 3.858 12.368 6.916 18.712 3.069 6.365 7.11 12.521 12.01 18.296 4.887 5.76 10.766 11.301 17.474 16.472 6.723 5.182 14.525 9.691 23.189 13.402 8.64 3.7 18.382 6.712 28.953 8.95l1.654.35Zm-2.739-9.266v5.885c-20.025-4.432-36.632-11.655-49.383-21.483-13.094-10.093-22.746-21.461-28.69-33.79-5.946-12.335-8.96-24.272-8.96-35.478 0-12.058 3.731-23.071 11.091-32.735 7.273-9.548 17.74-14.39 31.108-14.39 11.533 0 21.312 4.001 29.067 11.892 7.762 7.899 11.697 17.262 11.697 27.828 0 8.396-3.038 16.384-9.03 23.743-5.974 7.337-14.547 11.915-25.48 13.605l-1.311.202.162 1.315c.57 4.639 1.85 9.39 3.803 14.119 1.944 4.706 4.608 9.523 7.92 14.319 3.319 4.806 7.42 9.38 12.189 13.594 4.578 4.046 9.897 7.87 15.817 11.374Z" fill="#262262" fill-rule="evenodd" data-name="&quot;"/></svg>