<?xml version="1.0" encoding="utf-8"?>
<!-- Generator: Adobe Illustrator 24.1.1, SVG Export Plug-In . SVG Version: 6.00 Build 0)  -->
<svg version="1.1" id="Layer_1" xmlns="http://www.w3.org/2000/svg" xmlns:xlink="http://www.w3.org/1999/xlink" x="0px" y="0px"
	 viewBox="0 0 443.6 268.1" style="enable-background:new 0 0 443.6 268.1;" xml:space="preserve">
<style type="text/css">
	.st0{fill:#EC2027;}
</style>
<path class="st0" d="M220.5,9.1c-9.2,0.4-18.5,4.2-25.6,11.2L19.1,196.6c-14.6,14.6-14.6,37.6,0,52.2c14.6,14.6,37.8,14.6,52.4,0
	L221.2,98.9l149.9,149.9c14.6,14.6,37.8,14.6,52.4,0c7.1-7.1,10.8-16.5,10.8-25.9c0-9.4-3.7-18.8-10.8-26.3L245.3,18.4
	C238.7,11.8,229.7,8.7,220.5,9.1L220.5,9.1z M220.5,28c4.4-0.4,8.6,0.9,11.7,4l178.2,178.2c7.1,7.1,7.1,18.8,0,25.9
	c-7.1,7.1-19,7.1-26,0L221.2,73L58.1,236.1c-7.1,7.1-18.8,7.1-25.9,0c-3.8-3.8-5.2-8.5-5.2-13.2c0-4.7,1.9-9.4,5.2-13.2L208,33.9
	C211.6,30.4,216.1,28.4,220.5,28L220.5,28z"/>
</svg>
