<?xml version="1.0" encoding="utf-8"?>
<!-- Generator: Adobe Illustrator 24.1.1, SVG Export Plug-In . SVG Version: 6.00 Build 0)  -->
<svg version="1.1" id="Layer_1" xmlns="http://www.w3.org/2000/svg" xmlns:xlink="http://www.w3.org/1999/xlink" x="0px" y="0px"
	 viewBox="0 0 500 500" style="enable-background:new 0 0 500 500;" xml:space="preserve">
<style type="text/css">
	.st0{fill:#010101;filter:url(#Adobe_OpacityMaskFilter);}
	.st1{fill:#FFFFFF;}
	.st2{mask:url(#mask-2_2_);}
	.st3{fill-rule:evenodd;clip-rule:evenodd;fill:#FAA819;}
</style>
<g>
	<defs>
		<filter id="Adobe_OpacityMaskFilter" filterUnits="userSpaceOnUse" x="16.9" y="18.9" width="470" height="470">
			<feColorMatrix  type="matrix" values="1 0 0 0 0  0 1 0 0 0  0 0 1 0 0  0 0 0 1 0"/>
		</filter>
	</defs>
	<mask maskUnits="userSpaceOnUse" x="16.9" y="18.9" width="470" height="470" id="mask-2_2_">
		<rect x="16.9" y="18.9" class="st0" width="470" height="470"/>
		<g>
			<rect id="rect-1_3_" x="16.9" y="18.9" class="st1" width="470" height="470"/>
		</g>
	</mask>
	<g class="st2">
		<path class="st3" d="M364.6,289c-0.9-0.4-35.2-17.3-41.3-19.5c-2.5-0.9-5.1-1.8-8-1.8c-4.6,0-8.5,2.3-11.5,6.8
			c-3.4,5.1-13.8,17.2-17,20.8c-0.4,0.5-1,1-1.3,1c-0.3,0-5.6-2.2-7.2-2.9c-36.8-16-64.7-54.4-68.5-60.8c-0.5-0.9-0.6-1.4-0.6-1.4
			c0.1-0.5,1.4-1.7,2-2.4c1.9-1.8,3.9-4.3,5.8-6.6c0.9-1.1,1.9-2.2,2.8-3.3c2.8-3.3,4.1-5.9,5.6-8.8l0.8-1.5
			c3.6-7.1,0.5-13.1-0.5-15c-0.8-1.6-15.3-36.5-16.8-40.2c-3.7-8.9-8.6-13-15.4-13c-0.6,0,0,0-2.6,0.1c-3.2,0.1-20.7,2.4-28.5,7.3
			c-8.2,5.2-22.1,21.7-22.1,50.7c0,26.1,16.6,50.8,23.7,60.2c0.2,0.2,0.5,0.7,1,1.4c27.3,39.8,61.3,69.4,95.7,83.1
			c33.2,13.3,48.9,14.8,57.8,14.8h0c3.8,0,6.8-0.3,9.4-0.6l1.7-0.2c11.5-1,36.7-14.1,42.4-30c4.5-12.5,5.7-26.2,2.7-31.2
			C372.7,292.8,369.1,291.1,364.6,289L364.6,289z"/>
		<path class="st3" d="M25.2,248C25.2,121.7,128.7,18.9,256,18.9c127.3,0,230.8,102.8,230.8,229.1c0,126.3-103.5,229.1-230.8,229.1
			c-38.2,0-75.9-9.4-109.3-27.2l-122,38.8c-0.6,0.2-1.2,0.3-1.8,0.3c-1.6,0-3.2-0.6-4.4-1.8c-1.6-1.6-2.2-4.1-1.4-6.2l39.6-117
			C36.1,328.9,25.2,288.9,25.2,248z M155.4,399.4c29.9,19.6,64.7,30,100.6,30c100.8,0,182.8-81.4,182.8-181.4
			c0-100-82-181.4-182.8-181.4C155.2,66.6,73.2,148,73.2,248c0,38.4,12,75.2,34.8,106.3c1.2,1.6,1.5,3.7,0.9,5.6l-19.7,58.2
			l61.1-19.4c0.6-0.2,1.2-0.3,1.8-0.3C153.2,398.4,154.4,398.7,155.4,399.4L155.4,399.4z"/>
	</g>
</g>
</svg>
