<svg xmlns="http://www.w3.org/2000/svg" xmlns:xlink="http://www.w3.org/1999/xlink" width="43.018" height="42.662" viewBox="0 0 43.018 42.662">
  <defs>
    <rect id="rect-1" width="43.018" height="42.662" x="0" y="0"/>
    <mask id="mask-2" maskContentUnits="userSpaceOnUse" maskUnits="userSpaceOnUse">
      <rect width="43.018" height="42.662" x="0" y="0" fill="black"/>
      <use fill="white" xlink:href="#rect-1"/>
    </mask>
  </defs>
  <g>
    <use fill="none" xlink:href="#rect-1"/>
    <g mask="url(#mask-2)">
      <ellipse cx="21.509" cy="21.331" fill="rgb(255,255,255)" rx="21.33" ry="21.153"/>
      <path fill="rgb(43,0,29)" fill-rule="evenodd" d="M21.50891985 8.78136414c-3.4342041 0-3.87158203.01416016-5.21948242.078125-1.34790039.06396485-2.265625.27026368-3.06860352.58325196-.83166503.31982422-1.54144287.74658203-2.24407959 1.45043945-.70263671.69677734-1.1328125 1.40063477-1.46264648 2.22558594-.31542969.79638672-.53051758 1.71362304-.58789062 3.04321289-.05737305 1.33666992-.07885743 1.76342773-.07885743 5.17626953 0 3.40600586.01434327 3.83251953.07885743 5.17651367.06451416 1.33666992.27246093 2.24682617.58789062 3.0432129.32269287.82470702.75286865 1.52856444 1.46264648 2.22558593.70263672.69677734 1.41241456 1.1303711 2.2440796 1.45043945.80297851.31274414 1.72790527.51904297 3.06860351.58300781 1.3479004.06396485 1.77807617.07836915 5.21948242.07836915 3.43426514 0 3.86444092-.0144043 5.21954346-.07836915 1.34790039-.06396484 2.26556396-.27026367 3.07574463-.5830078.83172607-.32006837 1.53430176-.75366212 2.23693847-1.45043946.70263672-.69702149 1.1328125-1.4008789 1.46258545-2.22558594.30834961-.79638672.5234375-1.70654297.58795166-3.04321289.05737305-1.33691406.07885743-1.76342773.07885743-5.17651367 0-3.40576172-.01434327-3.83251953-.07885743-5.17626953-.06451416-1.33666992-.27960205-2.24682617-.58795166-3.0432129-.32263183-.82495116-.75994873-1.52880859-1.46258545-2.22558593-.70263671-.69677734-1.4052124-1.12353516-2.24407959-1.45043945-.81018066-.31298828-1.72790527-.51928711-3.07580566-.58325196-1.34790039-.06396484-1.77807617-.078125-5.2123413-.078125zm-1.13275146 2.26098633h1.13275146c3.37695313 0 3.77844238.01416016 5.11199951.07104492 1.2331543.05688477 1.89990235.2631836 2.35162354.4338379.58789062.22753906 1.0109253.49780273 1.45544433.93847656.44451905.44091797.71697999.86035156.94641114 1.44335937.1720581.44091797.37994385 1.109375.4373169 2.3322754.05737304 1.32250976.0717163 1.72070312.0717163 5.06982421 0 3.34887695-.01434326 3.74707031-.0717163 5.06958008-.05737305 1.22314453-.2652588 1.88427734-.4373169 2.33227539-.22943115.58300781-.5018921 1.0024414-.94641114 1.44335937-.44451904.44091797-.86035156.71118165-1.45544433.93847657-.44451904.1706543-1.11846924.37695312-2.35162354.43383789-1.33355713.05688476-1.73504638.07104492-5.1119995.07104492-3.3768921 0-3.77838136-.01416016-5.11193848-.07104492-1.2331543-.05688477-1.89996338-.2631836-2.35162354-.4338379-.58795166-.22729491-1.0109253-.49755859-1.45544434-.93847656-.44451904-.44091796-.71697998-.86035156-.94641113-1.44335937-.1720581-.44091797-.38000488-1.10913086-.4373169-2.3322754-.05737304-1.32250976-.0717163-1.72070312-.0717163-5.06958007 0-3.3491211.01434326-3.74731445.0717163-5.06982422.05731202-1.22290039.2652588-1.88427734.4373169-2.33227539.22943115-.58300781.5018921-1.0024414.94641113-1.44335937.44451905-.44067383.86749268-.7109375 1.45544434-.93847657.44451904-.1706543 1.11846924-.37695312 2.35162354-.43383789 1.16864013-.05688476 1.62036132-.07104492 3.979187-.07104492zm6.36657715 3.59082031c0-.8317871.6810913-1.50732421 1.5199585-1.50732421.83886718 0 1.51995849.6755371 1.51995849 1.50732421 0 .83203125-.68109131 1.50756836-1.5199585 1.50756836s-1.5199585-.6755371-1.5199585-1.50756836zm-5.23382569.25610352c-3.59197998 0-6.4956665 2.88671875-6.4956665 6.44189453 0 3.5625 2.91088867 6.44213867 6.4956665 6.44213867 3.59204102 0 6.49572754-2.88671875 6.49572754-6.44213867 0-3.56225586-2.90368652-6.44189453-6.49572754-6.44189453zm4.21575928 6.44189453c0-2.31079101-1.88562012-4.1809082-4.21575928-4.1809082-2.33013916 0-4.21575928 1.87011719-4.21575928 4.1809082 0 2.31079102 1.88562012 4.1809082 4.21575928 4.1809082 2.33013916 0 4.21575928-1.87011718 4.21575928-4.1809082z"/>
    </g>
  </g>
</svg>
