<svg xmlns="http://www.w3.org/2000/svg" xmlns:xlink="http://www.w3.org/1999/xlink" width="42.429" height="42.078" viewBox="0 0 42.429 42.078">
  <defs>
    <rect id="rect-1" width="42.429" height="42.078" x="0" y="0"/>
    <mask id="mask-2" maskContentUnits="userSpaceOnUse" maskUnits="userSpaceOnUse">
      <rect width="42.429" height="42.078" x="0" y="0" fill="black"/>
      <use fill="white" xlink:href="#rect-1"/>
    </mask>
  </defs>
  <g>
    <use fill="none" xlink:href="#rect-1"/>
    <g mask="url(#mask-2)">
      <path fill="rgb(255,255,255)" fill-rule="evenodd" d="M42.4412929 21.04528016c0-11.62719727-9.50915527-21.04516602-21.2206421-21.04516602-11.72418212 0-21.22064208 9.43066407-21.22064208 21.04516602 0 11.6274414 9.5092163 21.04541016 21.22064209 21.04541016 11.72418213 0 21.22064209-9.43066407 21.22064209-21.04541016zm-27.10186768-8.07983399c0 1.2878418-1.05651855 2.34814454-2.36773681 2.34814454-1.29840088 0-2.36773682-1.04785157-2.36773682-2.34814454 0-1.28759765 1.05657959-2.34814453 2.36773682-2.34814453 1.29846191 0 2.36773681 1.04785157 2.36773681 2.34814453zm.00006104 3.90112305h-4.72277832v14.05126953h4.72277832V16.86656922zm7.49786377 0h-4.36633301v14.05126953h4.54455566v-6.77954101c0-1.79272461.35644532-3.5222168 2.72418213-3.5222168 2.32958985 0 2.36773682 2.04516602 2.36773682 3.63598633v6.66577148h4.54455566V23.3934247c0-3.6862793-.85290527-6.52685547-5.44836425-6.52685547-2.21496582 0-3.6916504 1.12353516-4.30267334 2.20922852h-.06365967v-2.20922852z"/>
    </g>
  </g>
</svg>
