<svg xmlns="http://www.w3.org/2000/svg" xmlns:xlink="http://www.w3.org/1999/xlink" width="45.375" height="45" viewBox="0 0 45.375 45">
  <defs>
    <rect id="rect-1" width="45.375" height="45" x="0" y="0"/>
    <mask id="mask-2" maskContentUnits="userSpaceOnUse" maskUnits="userSpaceOnUse">
      <rect width="45.375" height="45" x="0" y="0" fill="black"/>
      <use fill="white" xlink:href="#rect-1"/>
    </mask>
  </defs>
  <g>
    <use fill="none" xlink:href="#rect-1"/>
    <g mask="url(#mask-2)">
      <path fill="rgb(255,255,255)" fill-rule="evenodd" d="M22.65598958 1.6875C11.06015625 1.6875 1.67005208 11 1.67005208 22.5c0 8.8125 5.51432292 16.34375 13.32890625 19.375-.1890625-1.65625-.34661458-4.15625.06302084-5.96875.378125-1.625 2.4578125-10.34375 2.4578125-10.34375s-.63020834-1.25-.63020834-3.09375c0-2.90625 1.7015625-5.0625 3.78125-5.0625 1.79609375 0 2.646875 1.34375 2.646875 2.9375 0 1.78125-1.134375 4.46875-1.73307291 6.9375-.50416667 2.0625 1.03984375 3.75 3.11953125 3.75 3.71822916 0 6.58567708-3.90625 6.58567708-9.53125 0-4.96875-3.62369792-8.46875-8.75989583-8.46875-5.95546875 0-9.48463542 4.4375-9.48463542 9.03125 0 1.78125.69322917 3.71875 1.57552083 4.75.15755209.21875.1890625.375.15755209.59375-.15755209.65625-.50416667 2.0625-.5671875 2.34375-.09453125.375-.31510417.46875-.69322917.28125-2.61536458-1.21875-4.25390625-5-4.25390625-8.0625 0-6.5625 4.82109375-12.59375 13.86458333-12.59375 7.27890625 0 12.91927084 5.15625 12.91927084 12 0 7.15625-4.56901042 12.9375-10.87109375 12.9375-2.11119792 0-4.12786459-1.09375-4.82109375-2.375 0 0-1.03984375 3.96875-1.29192709 4.9375-.47265625 1.8125-1.76458333 4.0625-2.61536458 5.46875 1.95364583.59375 4.03333333.9375 6.20755208.9375 11.59583334 0 20.9859375-9.3125 20.9859375-20.8125 0-11.46875-9.39010416-20.78125-20.9859375-20.78125z"/>
    </g>
  </g>
</svg>
