<svg xmlns="http://www.w3.org/2000/svg" xmlns:xlink="http://www.w3.org/1999/xlink" width="42.429" height="42.078" viewBox="0 0 42.429 42.078">
  <defs>
    <rect id="rect-1" width="42.429" height="42.078" x="0" y="0"/>
    <mask id="mask-2" maskContentUnits="userSpaceOnUse" maskUnits="userSpaceOnUse">
      <rect width="42.429" height="42.078" x="0" y="0" fill="black"/>
      <use fill="white" xlink:href="#rect-1"/>
    </mask>
  </defs>
  <g>
    <use fill="none" xlink:href="#rect-1"/>
    <g mask="url(#mask-2)">
      <path fill="rgb(255,255,255)" fill-rule="evenodd" d="M42.44125802 21.04528016c0-11.62719727-9.50915527-21.04516602-21.22064209-21.04516602-11.72418213 0-21.22064209 9.43066407-21.22064209 21.04516602 0 11.6274414 9.50921631 21.04541016 21.2206421 21.04541016 11.72418212 0 21.22064208-9.43066407 21.22064208-21.04541016zm-12.46246338-6.32495117c.95471192-.1135254 1.85858155-.35327149 2.69873047-.73217774l-.01275635.01269532c-.62371826.93408203-1.42572021 1.7548828-2.34228515 2.41137695.01275635.2019043.01275635.4038086.01275635.60595703 0 6.16064453-4.73553467 13.26831055-13.37908936 13.26831055-2.64776611 0-5.1173706-.77001953-7.20507813-2.09545899.36914063.0378418.73834229.06298828 1.12023926.06298828 2.21496582 0 4.22631836-.74487304 5.84295655-1.9946289-2.06219483-.05053711-3.79345704-1.38867188-4.39178467-3.2446289.29278564.06323241.58557129.0883789.89111328.0883789.42010498 0 .84014892-.06298828 1.23480225-.1640625-2.1513672-.42919922-3.76806641-2.31030274-3.76806641-4.57006836v-.06323242c.63653564.3408203 1.34936523.55541992 2.12591553.58081054-1.26025391-.83325195-2.08770752-2.25976562-2.08770752-3.87573242 0-.83325195.21643066-1.64135742.6364746-2.34814453 2.3168335 2.82788086 5.77935792 4.67089844 9.68743897 4.87304687-.07641601-.3408203-.11456299-.69433593-.11456299-1.06054687 0-2.57543945 2.10040283-4.65844727 4.69732666-4.65844727 1.36206055 0 2.57141114.55541993 3.43701172 1.46435547 1.0565796-.2145996 2.0750122-.60595703 2.9788208-1.13623047-.34375 1.0859375-1.0947876 1.99487305-2.06225586 2.57543946z"/>
    </g>
  </g>
</svg>
