<svg xmlns="http://www.w3.org/2000/svg" xmlns:xlink="http://www.w3.org/1999/xlink" width="42.429" height="42.078" viewBox="0 0 42.429 42.078">
  <defs>
    <rect id="rect-1" width="42.429" height="42.078" x="0" y="0"/>
    <mask id="mask-2" maskContentUnits="userSpaceOnUse" maskUnits="userSpaceOnUse">
      <rect width="42.429" height="42.078" x="0" y="0" fill="black"/>
      <use fill="white" xlink:href="#rect-1"/>
    </mask>
  </defs>
  <g>
    <use fill="none" xlink:href="#rect-1"/>
    <g mask="url(#mask-2)">
      <ellipse cx="21.214" cy="21.039" fill="rgb(255,255,255)" rx="21.038" ry="20.864"/>
      <path fill="rgb(43,0,29)" fill-rule="evenodd" d="M32.57101876 13.55626649c.75665284.75732422 1.0041504 2.48242187 1.0041504 2.48242187s.25457763 2.0197754.2616577 4.03955078v1.8935547c-.01416015 2.02661132-.26873778 4.04638671-.26873778 4.04638671s-.24749756 1.7253418-1.0041504 2.48266602c-.96173095.9958496-2.02947997 1.00292968-2.5244751 1.05908203-3.52160644.2524414-8.82513427.24536132-8.82513427.24536132-.21923828 0-6.5834961-.04199218-8.5635376-.2314453-.55865478-.10522462-1.82440185-.07006837-2.77905273-1.06591798-.75665283-.75756836-1.0041504-2.48266601-1.0041504-2.48266601s-.24749755-2.02685547-.29699706-4.04638672v-1.89355469c.04241943-2.02685547.29699707-4.04663086.29699707-4.04663086s.24749756-1.72509765 1.00415039-2.48242187c.96173096-.99584961 2.02947998-1.00292969 2.5244751-1.05908203 3.52868652-.25244141 8.82513427-.22436524 8.82513427-.22436524s5.2965088-.02807617 8.82519532.22436524c.49499511.05615234 1.56982422.06323242 2.5244751 1.05908203zm-13.91656494 3.93408203v7.0480957l6.77441407-3.52758789-6.77441407-3.52050781z"/>
    </g>
  </g>
</svg>
